<svg width="1003" height="1080" fill="none" xmlns="http://www.w3.org/2000/svg"><path d="M2-201c237.3 50.132 552.642 228.45 701.949 422.629 149.307 194.179 64.084 136.528 72.52 173.335 8.436 36.807-4.405 153.205-27.042 188.842-22.636 35.636-45.986 49.113-74.03 42.78-39.339-8.884-53.297-72.343-17.434-110.076 61.516-64.724 181.149-85.282 223.173-163.546 17.407-32.417 23.033-66.514 18.929-104.046-16.184-148.009-309.458 31.393-357.586 75.728-26.992 24.864-70.544 74.347-16.384 98.318 43.54 19.271 101.689 8.832 146.343.636 58.16-10.674 88.615-21.022 150.479-41.328 47.903-15.725 145.615 33.632 166.068 100.829 16.245 53.374 28.605 137.346-50.908 179.021-33.968 17.804-99.947 29.408-133.294 2.661-77.358-73.099 63.884-168.402 74.126-235.455 7.139-34.364-1.4-143.357-55.992-139.046-31.127 2.457-39.979 53.07-35.85 75.49 7.88 42.78 44.979 82.049 66.71 118.601C977.505 692.492 955.641 1010.42 878.909 1289" stroke="#005164" stroke-width="3" stroke-linecap="round" stroke-linejoin="round" stroke-dasharray="10 15"/></svg>