<svg width="791" height="1024" fill="none" xmlns="http://www.w3.org/2000/svg"><path d="M2-40C189-.5 437.5 140 555.158 292.997c117.659 152.998 50.5 107.574 57.149 136.575 6.648 29-3.472 120.713-21.31 148.792-17.839 28.078-36.239 38.697-58.339 33.707-31-7-42-57-13.738-86.731 48.476-50.997 142.751-67.195 175.868-128.861 13.717-25.542 18.151-52.408 14.916-81.98-12.753-116.619-243.863 24.735-281.789 59.667-21.271 19.592-55.591 58.581-12.911 77.467 34.311 15.184 80.134 6.959 115.323.502 45.831-8.411 69.831-16.564 118.582-32.564 37.749-12.389 114.749 26.5 130.867 79.445 12.802 42.055 22.541 108.218-40.118 141.055-26.767 14.028-78.761 23.171-105.039 2.096-60.961-57.596 50.342-132.687 58.414-185.52 5.625-27.075-1.104-112.953-44.124-109.557-24.529 1.937-31.505 41.816-28.251 59.481 6.21 33.707 35.445 64.648 52.569 93.448C770.729 664 753.5 914.5 693.033 1134" stroke="#005164" stroke-width="3" stroke-linecap="round" stroke-linejoin="round" stroke-dasharray="10 15"/></svg>