<svg width="376" height="375" fill="none" xmlns="http://www.w3.org/2000/svg"><path d="M1-77C89.839-58.226 207.895 8.554 263.792 81.273c55.896 72.72 23.991 51.13 27.149 64.914 3.159 13.783-1.649 57.374-10.123 70.72-8.475 13.346-17.216 18.393-27.715 16.021-14.728-3.327-19.954-27.092-6.527-41.223 23.03-24.239 67.817-31.938 83.55-61.247 6.517-12.14 8.623-24.91 7.087-38.965-6.059-55.429-115.854 11.756-133.872 28.359-10.105 9.312-26.409 27.844-6.133 36.82 16.3 7.217 38.07 3.308 54.787.239 21.773-3.998 33.175-7.873 56.335-15.478 17.934-5.888 54.515 12.596 62.172 37.76 6.082 19.989 10.708 51.436-19.059 67.043-12.717 6.668-37.417 11.014-49.902.997-28.96-27.376 23.917-63.066 27.751-88.177 2.673-12.869-.524-53.687-20.962-52.073-11.653.921-14.967 19.875-13.421 28.271 2.95 16.021 16.839 30.727 24.974 44.416 46.321 77.94 38.136 197.002 9.409 301.33" stroke="#005164" stroke-width="2" stroke-linecap="round" stroke-linejoin="round" stroke-dasharray="7 12"/></svg>