<svg width="627" height="768" fill="none" xmlns="http://www.w3.org/2000/svg"><path d="M2-57C149.986-25.71 346.641 85.59 439.752 206.788c93.111 121.2 39.964 85.216 45.225 108.19 5.261 22.973-2.747 95.624-16.864 117.867-14.116 22.243-28.678 30.655-46.167 26.702-24.532-5.545-33.237-45.153-10.872-68.705 38.363-40.398 112.969-53.23 139.176-102.079 10.855-20.234 14.364-41.516 11.805-64.942-10.093-92.381-192.986 19.595-223 47.266-16.833 15.52-43.992 46.406-10.217 61.367 27.153 12.028 63.416 5.513 91.263.397 36.27-6.662 55.263-13.121 93.842-25.796 29.874-9.814 90.809 20.993 103.564 62.934 10.131 33.314 17.838 85.726-31.748 111.738-21.183 11.113-62.329 18.356-83.124 1.661-48.243-45.626 39.839-105.11 46.226-146.962 4.452-21.448-.873-89.478-34.918-86.787-19.411 1.534-24.932 33.124-22.356 47.118 4.913 26.702 28.049 51.212 41.601 74.026 77.16 129.9 63.525 328.337 15.673 502.217" stroke="#005164" stroke-width="3" stroke-linecap="round" stroke-linejoin="round" stroke-dasharray="10 15"/></svg>