<svg width="792" height="959" fill="none" xmlns="http://www.w3.org/2000/svg"><path d="M86.263 0C38.515 78.647 16.67 155.253 5.606 247.382c-5.989 49.882-4.959 98.206 6.43 147.492 0 0 26.474 79.699 65.365 112.244 42.548 35.604 67.34 45.244 116.765 55.632 47.907 10.07 80.588 8.231 130.745-4.834 34.634-9.021 90.619-57.928 109.488-77.077 16.241-16.482 26.204-28.747 37.591-46.851 24.383-38.768 35.381-63.911 45.094-95.725 9.942-56.219 21.754-154.469-45.094-172.55-28.819-7.795-55.062-8.64-81.587 4.674-42.719 21.441-75.715 89.232-98.704 138.248-23.817 50.78-34.351 130.721-44.123 184.231-6.643 49.381-13.76 102.966-13.76 151.943 0 51.64 18.111 95.318 43.174 139.214 46.868 82.083 126.205 138.557 219.197 159.924 72.116 16.57 199.263 22.878 293.813-14.972" stroke="#005164" stroke-width="3" stroke-linecap="round" stroke-linejoin="round" stroke-dasharray="10 15"/></svg>