<svg width="835" height="1009" fill="none" xmlns="http://www.w3.org/2000/svg"><path d="M91-1C40.68 81.817 17.658 162.485 6 259.5-.312 312.026.774 362.913 12.775 414.813c0 0 27.9 83.925 68.886 118.195 44.839 37.492 70.966 47.643 123.053 58.582 50.487 10.604 84.928 8.668 137.786-5.09 36.5-9.5 95.5-61 115.385-81.164C475 487.98 485.5 475.064 497.5 456c25.696-40.823 37.286-67.3 47.523-100.8C555.5 296 567.949 192.54 497.5 173.5c-30.371-8.208-58.027-9.098-85.981 4.922C366.5 201 331.727 272.386 307.5 324c-25.1 53.473-36.201 137.653-46.5 194-7 52-14.5 108.426-14.5 160 0 54.379 19.086 100.372 45.499 146.596C341.391 911.031 425 970.5 523 993c76 17.45 209.994 24.09 309.636-15.766" stroke="#005164" stroke-width="3" stroke-linecap="round" stroke-linejoin="round" stroke-dasharray="10 15"/></svg>