<svg width="22" height="21" fill="none" xmlns="http://www.w3.org/2000/svg"><path fill-rule="evenodd" clip-rule="evenodd" d="M15.446 0H6.554C2.94 0 0 2.806 0 6.256v8.488C0 18.194 2.94 21 6.554 21h8.892C19.06 21 22 18.194 22 14.744V6.256C22 2.806 19.06 0 15.446 0zm4.34 14.744c0 2.288-1.943 4.143-4.34 4.143H6.554c-2.397 0-4.34-1.855-4.34-4.143V6.256c0-2.288 1.943-4.143 4.34-4.143h8.892c2.397 0 4.34 1.855 4.34 4.143v8.488zM11 5.069c-3.137 0-5.69 2.436-5.69 5.43 0 2.996 2.553 5.432 5.69 5.432 3.137 0 5.69-2.436 5.69-5.431S14.137 5.069 11 5.069zm0 8.75c-1.92 0-3.477-1.486-3.477-3.319S9.08 7.181 11 7.181s3.477 1.486 3.477 3.319S12.92 13.819 11 13.819zm7.064-8.71c0 .72-.61 1.302-1.363 1.302s-1.364-.583-1.364-1.302c0-.718.61-1.301 1.364-1.301.753 0 1.363.583 1.363 1.301z" fill="url(#paint0_linear)"/><defs><linearGradient id="paint0_linear" x1="0" y1="10" x2="22" y2="10" gradientUnits="userSpaceOnUse"><stop stop-color="#005164"/><stop offset="1" stop-color="#005164" stop-opacity=".55"/></linearGradient></defs></svg>