<svg version="1.1" id="Слой_1" xmlns="http://www.w3.org/2000/svg" x="0" y="0" viewBox="0 0 262 90" xml:space="preserve"><style>.st0{fill:#4d4d4d}</style><path class="st0" d="M239.5 43.3c-.2.9-.3 1.8-.5 2.8-1.7 6.4-6 10.2-12.4 11.6-1.4.3-2.8.4-4.3.4h-15.4c-.9 0-1.1.3-1.1 1.1.1 3.8 0 7.5 0 11.3 0 .7-.2 1-1 1h-2.1c-.8.1-1.1-.2-1.1-1.1V26.8h.9c6.9 0 13.8-.1 20.6 0 4.4-.1 8.7 1.7 11.9 4.8 2.5 2.5 4 5.7 4.3 9.2 0 .3.1.6.2.9v1.6zm-33.6-12.9v24.1c.2.1.4.1.6.1 6.1 0 12.2 0 18.4-.1 2.6-.1 5.1-1.2 6.9-3.1 4.2-4.4 4.7-11.2 1.2-16.2-2.1-3-5.6-4.8-9.3-4.8-5.7-.1-11.4 0-17.2-.1-.2 0-.4 0-.6.1z"/><linearGradient id="SVGID_1_" gradientUnits="userSpaceOnUse" x1="115.436" y1="49.127" x2="155.07" y2="49.127"><stop offset="0" stop-color="#99c169"/><stop offset=".5" stop-color="#679632"/><stop offset="1" stop-color="#507d26"/></linearGradient><path d="M151.8 37.6c-.9-.6-1.7-1.3-2.7-1.8-6.2-3.6-12.5-4.2-18.7-.4-4.3 2.6-6.4 6.6-7.1 11.5-1.3 8.6 4.6 16.7 13.2 18.1 1.4.2 2.8.2 4.2.1 3.7-.4 7.3-1.8 10.2-4.1l.8-.6 3.3 6.3c-2 1.9-4.4 3.3-7.1 4.1-9.8 2.9-18.8 1.7-26.3-5.7-3.6-3.5-5.7-8.2-6.1-13.2-.8-7.9 1.4-14.8 7.4-20.2 3.5-3.2 8-5.1 12.8-5.5 4.9-.5 9.7-.2 14.2 2 1.6.9 3.2 1.8 4.7 2.9.2.2.3.5.2.9-.9 1.8-1.9 3.7-3 5.6z" fill="url(#SVGID_1_)"/><path class="st0" d="M106.9 71.4h-4.1c-.2 0-.4-.4-.5-.6-1.2-2.5-2.3-5.1-3.4-7.6-.1-.5-.6-.8-1.1-.7H69.7c-.5-.1-1 .3-1.1.8l-3.3 7.5c-.1.5-.6.8-1.2.8h-3.3l.9-2.1c6.2-13.9 12.4-27.8 18.5-41.7.2-.6.7-1 1.3-.9 1.6.1 3.1.1 4.7 0 .7 0 1 .3 1.2.9C93.3 40.9 99.1 54 105 67.1c.5 1.3 1.2 2.7 1.9 4.3zM97 58.8c-.1-.3-.2-.6-.3-.8-3.9-9-7.7-18-11.6-27-.2-.6-.7-.9-1.3-.8-.6-.1-1.1.3-1.3.8-3.9 9-7.9 18-11.8 26.9-.1.3-.2.5-.3.9H97zm-30.5-32v3.3H47.7v40.2c0 .9-.2 1.2-1.1 1.1h-2.4c-.5 0-.7-.2-.6-.7V30.1H24.9v-3.3h41.6z"/><linearGradient id="SVGID_2_" gradientUnits="userSpaceOnUse" x1="95.2" y1="43.919" x2="108.47" y2="43.919"><stop offset="0" stop-color="#99c169"/><stop offset=".5" stop-color="#679632"/><stop offset="1" stop-color="#507d26"/></linearGradient><path d="M101.3 35.3l-3.8 1.5c-.8-1.7-1.5-3.5-2.3-5.3 0-.2.1-.5.3-.6 2.8-1.4 5.7-2.9 8.6-3.9 1.2-.5 2.8-.1 4.3-.1v34.3l-.3-.6c-2.2-4.9-4.3-9.7-6.5-14.6-.2-.4-.3-.9-.3-1.4v-9.3z" fill="url(#SVGID_2_)"/><linearGradient id="SVGID_3_" gradientUnits="userSpaceOnUse" x1="157.589" y1="49.127" x2="197.27" y2="49.127"><stop offset="0" stop-color="#99c169"/><stop offset=".5" stop-color="#679632"/><stop offset="1" stop-color="#507d26"/></linearGradient><path d="M194 37.6c-.9-.6-1.7-1.3-2.7-1.8-6.2-3.6-12.5-4.2-18.7-.4-4.3 2.6-6.4 6.7-7.1 11.5-.7 4.4.5 9 3.4 12.5 3.4 4.2 8.7 6.3 14 5.7 3.7-.3 7.3-1.8 10.2-4.1l.8-.6 3.3 6.3c-2.1 1.9-4.5 3.3-7.1 4.1-9.8 2.9-18.8 1.7-26.3-5.7-3.6-3.5-5.7-8.2-6.1-13.2-.8-7.9 1.5-14.8 7.4-20.2 3.5-3.2 8-5.1 12.8-5.5 4.9-.5 9.7-.2 14.2 2 1.6.9 3.2 1.8 4.7 2.9.2.2.3.5.3.9-1.1 1.8-2.1 3.7-3.1 5.6z" fill="url(#SVGID_3_)"/></svg>