<svg data-name="Слой 1" xmlns="http://www.w3.org/2000/svg" viewBox="0 0 246 250"><path d="M17 116.37l.08-2.6 18.7.63-.13 2.6-10.9-.36 7.15 7.64 3.5.12-.08 2.6-18.7-.66.09-2.59 11.54.39-7.15-7.64zm25.81-28.2c-2.25 6.16-5.41 11.17-13 8.41S23 88 25.26 81.79l2.43.91c-2 5.55-2.11 9.58 3 11.45 4.83 1.76 7.41-1.34 9.69-6.85zm.94-35.76l2 1.6-3.41 4.38 12.7 9.92-1.57 2-12.7-9.86L37.19 65l-2-1.59zm31.54-2.26c-3.61 2.4-8.63 1.12-11.86-3.73C60 41.31 61 36.57 64.7 34.11s8.63-1 11.74 3.65c3.76 5.65 2.07 10.24-1.15 12.39zm-1.55-2.31c2.32-1.54 2.75-5.13.45-8.57-1.71-2.58-5.22-4.91-8.06-3s-2.36 5.73-.43 8.64c2.23 3.36 5.68 4.5 8.04 2.93zM96 31.85L98 39l-2.49.71-5.11-18 .67-.19c3.73-1.06 10.13-2.86 11.6 2.36 1.33 4.53-3.52 6.97-6.67 7.97zm-.7-2.47c2.44-.7 5.68-2.2 4.94-4.8-.61-2.15-3.92-1.88-6.62-1.11zm35.84-12.97l2.59.06-.39 18.71-2.6-.06.25-10.9-7.57 7.23-.08 3.5-2.59-.06.42-18.7 2.6.06-.27 11.54 7.57-7.23zm33.46 7.48l2.44.87-6.25 17.65-2.44-.87L162 31.27l-9.45 4.5-1.17 3.3-2.4-.89 6.25-17.64 2.45.86-3.88 10.88 9.46-4.5zm60.51 60.56l-2.35 1.1-2.37-5-14.58 6.86-1.1-2.41 14.58-6.86-2.48-5.27 2.34-1.11zm-11.41 34.39l5.7-2.34-.84-7.06-6.06-.92-.32-2.71 19.19 3 .63 5.31-18 7.35zm7.52-9l.67 5.63 7.29-3-.17-1.43zm7.6 42.72l-2.52-.51 1.11-5.44-15.79-3.24.51-2.52 15.79 3.24 1.17-5.71 2.52.51zm-29.7 20.72l6 1.52 3.55-6.15-4.32-4.39 1.37-2.36 13.57 13.9-2.67 4.62-18.8-4.84zm11.41-2.69l-2.83 4.9 7.62 2 .72-1.25zm-19.21 23.31l-5-5.46 1.91-1.76 12.71 13.73-.5.47c-2.85 2.63-7.76 7.12-11.44 3.14-3.22-3.46 0-7.83 2.32-10.12zm1.74 1.89c-1.86 1.72-4.07 4.54-2.24 6.51 1.51 1.65 4.35-.09 6.41-2zm-35.47 11.33c5.92-2.8 11.7-4.16 15.17 3.16s-1.22 10.9-7.15 13.72l-1.09-2.36c5.32-2.56 8.22-5.35 5.9-10.26-2.2-4.63-6.21-4.24-11.71-1.92zm-25.77 24.8l-.33-2.56 5.51-.73-2.1-16 2.57-.34 2.1 16 5.77-.76.34 2.57zm-29.29-21.28l.5 6.14 7 1.33 2.72-5.53 2.68.51-8.67 17.38-5.25-1-1.6-19.35zm6.29 9.88l-5.54-1.06.64 7.85 1.42.27zm-41.09-4.66l-2.24-1.28 9.25-16.25 2.26 1.28-4.26 7.47 6.44 3.66 4.25-7.48 2.25 1.29-9.26 16.25-2.26-1.28 3.71-6.52-6.43-3.66zm-13.26-36.58l-3.41 5.13 4.65 5.38 5.55-2.65L63 189.2l-17.57 8.28-3.5-4 10.75-16.18zm-1.19 11.66l-3.71-4.28-4.36 6.55.95 1.09z" fill="#005666"/><path d="M204.74 34.42a46.51 46.51 0 0 1-10.14 29.47" stroke-dasharray="18 18 18 18" fill="none" stroke="#005666" stroke-linecap="round" stroke-linejoin="round" stroke-width="2"/><path d="M191.7 67.38c-6.61 7.38-15.77 14.21-27.61 20.63-12 6.53-22.69 11.1-32.77 17.65-10.83 7.06-2 21.18-15.63 30.26C76.51 162 37.82 138.76 19.13 171" stroke-dasharray="18 18 18 18 18 18" fill="none" stroke="#005666" stroke-linecap="round" stroke-linejoin="round" stroke-width="2"/><path fill="#5d9fc9" d="M78.39 122.01l85.7-34.02-47.93 46.76-37.77-12.74z"/><path d="M159.78 90.79l-43.87 42.81-34.58-11.67 78.45-31.14m4.44-3.86a1 1 0 0 0-.38.07L78 121.1a1 1 0 0 0 0 1.84l37.85 12.77a1 1 0 0 0 1-.23l48-46.86a1 1 0 0 0-.05-1.42 1 1 0 0 0-.62-.27z" fill="#3f6077"/><path d="M116.08 135a.46.46 0 0 1 .12-.44l47.71-46-36.68 84.2z" fill="#cc1417"/><path d="M161 92.74l-33.59 77.06-10.27-34.8L161 92.72m3.64-6a.75.75 0 0 0-.53.22l-48.56 46.9a1.45 1.45 0 0 0-.39 1.45l11.93 40.41 38.27-87.87a.77.77 0 0 0-.41-1 .67.67 0 0 0-.31-.07z" fill="#8d0801"/></svg>