<svg version="1.1" id="Слой_1" xmlns="http://www.w3.org/2000/svg" x="0" y="0" viewBox="0 0 432.2 427.8" xml:space="preserve"><style>.st1{fill:none;stroke:#005666;stroke-width:4;stroke-linecap:round;stroke-linejoin:round}</style><path d="M5.7 198.7l.2-5.1 37.1 1.3-.2 5.1-21.6-.7 14.2 15.2 6.9.2-.2 5.1L5 218.4l.2-5.1 22.9.8L13.9 199l-8.2-.3zm51.3-56c-4.5 12.2-10.7 22.2-25.8 16.7s-13.5-17.1-9-29.3l4.8 1.8c-4 11-4.2 19 5.9 22.7 9.6 3.5 14.7-2.7 19.2-13.6l4.9 1.7zm1.8-70.9l4 3.2-6.8 8.7 25.2 19.7-3.1 4.1-25.2-19.7-7.1 9.1-4-3.2 17-21.9zm62.6-4.5c-7.1 4.8-17.1 2.2-23.5-7.4-6.8-10.1-4.8-19.5 2.5-24.4 7.6-5.1 17.1-2 23.3 7.2 7.4 11.3 4.1 20.4-2.3 24.6zm-3.1-4.5c4.6-3.1 5.4-10.2.9-17-3.4-5.1-10.4-9.7-16-6s-4.7 11.4-.9 17.2c4.5 6.6 11.3 8.9 16 5.8zM162.5 31l4 14.2-4.9 1.4-10.1-35.7 1.3-.4c7.4-2.1 20.1-5.7 23 4.7 2.6 9-7.1 13.9-13.3 15.8zm-1.4-4.8c4.8-1.4 11.3-4.4 9.8-9.5-1.2-4.3-7.8-3.7-13.1-2.2l3.3 11.7zm71-25.8l5.1.1-.8 37.1-5.1-.1.5-21.6-15 14.3-.2 6.9-5.1-.1.9-37 5.1.1L217 23l15-14.3.1-8.3zm66.4 14.9l4.9 1.7L291 52l-4.9-1.7 7.2-20.4-18.7 8.9-2.3 6.5-4.8-1.8 12.4-35 4.9 1.7-7.7 21.6 18.8-8.9 2.6-7.6zm120 120.1l-4.7 2.2-4.7-10-28.9 13.6-2.2-4.6 28.9-13.6-4.9-10.4 4.7-2.2 11.8 25zm-22.6 68.2l11.3-4.6-1.7-14-12-1.8-.6-5.4 38.1 6 1.2 10.5-35.7 14.6-.6-5.3zm14.9-17.9l1.3 11.2 14.5-5.9-.3-2.8-15.5-2.5zm15.1 84.7l-5-1 2.2-10.8-31.3-6.4 1-5 31.3 6.4 2.3-11.3 5 1-5.5 27.1zM367 311.5l11.8 3 7-12.2-8.6-8.7 2.7-4.7 26.9 27.5-5.3 9.2-37.3-9.6 2.8-4.5zm22.6-5.3l-5.6 9.7 15.1 3.9 1.4-2.5-10.9-11.1zm-38.1 46.2l-10-10.8 3.8-3.5 25.2 27.2-1 .9c-5.6 5.2-15.4 14.1-22.7 6.2-6.3-6.8.1-15.4 4.7-20zm3.5 3.8c-3.7 3.4-8.1 9-4.5 12.9 3 3.3 8.6-.2 12.7-4l-8.2-8.9zm-70.4 22.4c11.7-5.6 23.2-8.3 30.1 6.3s-2.4 21.6-14.2 27.2l-2.2-4.7c10.6-5.1 16.3-10.6 11.7-20.3-4.4-9.2-12.3-8.4-23.2-3.8l-2.2-4.7zm-51.1 49.2l-.7-5.1 10.9-1.4-4.1-31.7 5.1-.7 4.2 31.7 11.5-1.5.7 5.1-27.6 3.6zm-58.1-42.2l1 12.2 13.9 2.6 5.4-11 5.3 1-17.2 34.5-10.4-2-3.2-38.4 5.2 1.1zm12.5 19.6l-11-2.1 1.3 15.6 2.8.5 6.9-14zm-81.5-9.2l-4.5-2.5 18.4-32.2 4.5 2.5-8.4 14.8 12.8 7.3 8.4-14.8 4.5 2.5-18.4 32.2-4.5-2.5 7.4-12.9-12.8-7.3-7.4 12.9zm-26.3-72.6l-6.8 10.2 9.2 10.7 11-5.3 3.5 4.1-34.9 16.4-6.9-8 21.3-32.1 3.6 4zm-2.4 23.2l-7.4-8.5-8.6 13 1.9 2.2 14.1-6.7z" fill="#005666"/><path class="st1" d="M374.5 8.4c.8 3.3 1.5 6.6 2 9.8"/><path d="M378.1 36.1c.1 21.3-6.5 40.7-20.1 58.5" fill="none" stroke="#005666" stroke-width="4" stroke-linecap="round" stroke-linejoin="round" stroke-dasharray="18,18,18,18"/><path d="M352.3 101.5c-13.1 14.6-31.3 28.2-54.8 40.9-23.9 12.9-45 22-65 35-21.5 14-4 42-31 60C123.8 289.2 47.1 243.1 10 307" fill="none" stroke="#005666" stroke-width="4" stroke-linecap="round" stroke-linejoin="round" stroke-dasharray="18,18,18,18,18,18"/><path class="st1" d="M5.8 315c-1.3 2.9-2.6 6-3.8 9.2"/><path fill="#5d9fc9" d="M127.5 209.9l170-67.5-95.1 92.7z"/><path d="M289 147.9l-87 84.9-68.6-23.1L289 147.9m8.8-7.6c-.3 0-.5 0-.8.1L126.7 208c-1 .5-1.4 1.7-1 2.7.2.5.6.8 1 1l75.1 25.3c.7.2 1.5.1 2-.5l95.3-92.9c.8-.8.7-2.1-.1-2.8-.3-.3-.8-.5-1.2-.5z" fill="#3f6077"/><path d="M202.3 235.6c-.1-.3 0-.6.2-.9l94.6-91.3-72.8 167-22-74.8z" fill="#cc1417"/><path d="M291.3 151.8l-66.5 152.8-20.4-69 86.9-83.8m7.2-11.9c-.4 0-.8.2-1 .4l-96.3 93c-.8.7-1.1 1.8-.8 2.9l23.7 80.2L300 142.1c.3-.8 0-1.7-.8-2-.3-.1-.5-.2-.7-.2z" fill="#8d0801"/></svg>