<svg width="53" height="91" fill="none" xmlns="http://www.w3.org/2000/svg"><path d="M23.58.142A26.19 26.19 0 0 0 7.058 8.58 26.735 26.735 0 0 0 .13 25.933C-.26 46.062 23.35 56.97 23.35 91h5.81c0-33.757 23.22-44.756 23.22-64.572a26.735 26.735 0 0 0-2.272-10.719 26.479 26.479 0 0 0-6.371-8.87 26.135 26.135 0 0 0-9.378-5.504A25.932 25.932 0 0 0 23.58.142zm3.7 42.401a15.862 15.862 0 0 1-9.274-2.261 16.118 16.118 0 0 1-6.353-7.196 16.338 16.338 0 0 1-1.171-9.573 16.235 16.235 0 0 1 4.425-8.544 15.943 15.943 0 0 1 8.449-4.48 15.842 15.842 0 0 1 9.468 1.178 16.06 16.06 0 0 1 7.123 6.418 16.317 16.317 0 0 1 2.243 9.374 16.195 16.195 0 0 1-4.634 10.392 15.863 15.863 0 0 1-10.276 4.692z" fill="#005164"/></svg>