<svg version="1.1" id="Layer_1" xmlns="http://www.w3.org/2000/svg" x="0" y="0" viewBox="0 0 305.7 170.52" xml:space="preserve"><style>.st6{fill:#e1e8e6}.st7{fill:#6a8e82}.st8{fill:#a6bbb4}.st9{fill:#88a59b}.st12{stroke-miterlimit:10}.st12,.st13{fill:none;stroke:#354741}</style><g id="XMLID_4_"><path class="st8" d="M279.05 160.88v-37.26h26.16v46.29h-5.9v-26c0-4.11-3.18-7.45-7.11-7.45s-7.11 3.34-7.11 7.45v26h-6.04v-9.03z"/><path class="st7" d="M299.3 143.91v26h-14.21v-26c0-4.11 3.18-7.45 7.11-7.45 3.92 0 7.1 3.34 7.1 7.45z"/><path class="st9" d="M240.17 160.88h38.88v9.03h-38.88z"/><path class="st8" d="M279.05 128.71v32.17h-38.88v-32.17h15.74l2.08 6.48v.02c-2.91.49-5.07 2.31-5.07 4.49v16.21h13.29V139.7c0-2.15-2.12-3.96-4.98-4.48l.01-.03 2.31-6.48h15.5z"/><path class="st8" d="M279.05 123.62v5.09h-38.88v-5.09h.11zm0-40.51v40.5h-38.89v-40.5h38.89zm-9.72 7.64h1.85c0-2.94-5.18-5.32-11.57-5.32-6.39 0-11.57 2.38-11.57 5.32h1.85v29.86h19.44V90.75z"/><path class="st8" d="M240.17 80.57h38.88v2.55h-38.88zm38.88-20.56v20.56h-38.88v-6.48h38.17v-4.17h-38.17v-9.91h38.88zm-9.61 7.6v-4.4h-19.67v4.4h19.67z"/><path class="st8" d="M240.17 57.89h38.88v2.13h-38.88zm0-1.62h38.88v1.62h-38.88zm0 13.65h38.17v4.17h-38.17z"/><path class="st6" d="M271.18 90.75h-23.14c0-2.94 5.18-5.32 11.57-5.32 6.39 0 11.57 2.38 11.57 5.32zm-21.41-27.54h19.67v4.4h-19.67z"/><path class="st9" d="M269.33 90.75v29.86h-2.15v-18.68c0-3.94-3.41-7.13-7.62-7.13s-7.62 3.19-7.62 7.13v18.68h-2.05V90.75h19.44z"/><path class="st6" d="M254.3 120.49h10.52v-17.13c0-2.72-2.36-4.93-5.26-4.93-2.91 0-5.26 2.21-5.26 4.93v17.13zm12.88.12h-15.24v-18.68c0-3.94 3.41-7.13 7.62-7.13s7.62 3.19 7.62 7.13v18.68z"/><path class="st7" d="M266.2 139.7v16.21h-13.29V139.7c0-2.18 2.16-4 5.07-4.49.5-.09 1.03-.13 1.57-.13.57 0 1.13.05 1.66.15 2.88.5 4.99 2.31 4.99 4.47zm-1.38-36.34v17.13H254.3v-17.13c0-2.72 2.36-4.93 5.26-4.93 2.91.01 5.26 2.21 5.26 4.93z"/><path class="st6" d="M263.54 128.71l-2.31 6.48-.01.03c-.53-.09-1.09-.15-1.66-.15-.54 0-1.07.04-1.57.13v-.02l-2.08-6.48h7.63z"/><path class="st9" d="M240.17 160.88v9.03H106.16v-9.03z"/><path class="st8" d="M240.17 128.71v32.17H106.16v-32.17h134.01zm-6.6 27.2V139.7c0-2.55-2.97-4.62-6.64-4.62-3.67 0-6.64 2.07-6.64 4.62v16.21h13.28zm-27.31 0V139.7c0-2.55-2.97-4.62-6.64-4.62-3.67 0-6.64 2.07-6.64 4.62v16.21h13.28zm-27.31 0V139.7c0-2.55-2.97-4.62-6.64-4.62-3.67 0-6.64 2.07-6.64 4.62v16.21h13.28zm-27.31 0V139.7c0-2.55-2.97-4.62-6.64-4.62-3.67 0-6.64 2.07-6.64 4.62v16.21h13.28zm-27.31 0V139.7c0-2.55-2.97-4.62-6.64-4.62-3.67 0-6.64 2.07-6.64 4.62v16.21h13.28z"/><path class="st9" d="M106.16 123.62v-40.5h134.01v45.59H106.16v-5.09zm128.22-3.24V91.45h-14.81v28.93h2.1v.12h10.52v-.12h2.19zm-27.31 0V91.45h-14.81v28.93h2.1v.12h10.52v-.12h2.19zm-27.31 0V91.45h-14.81v28.93h2.1v.12h10.52v-.12h2.19zm-27.31 0V91.45h-14.81v28.93h2.1v.12h10.52v-.12h2.19zm-27.31 0V91.45h-14.81v28.93h2.1v.12h10.52v-.12h2.19z"/><path class="st8" d="M106.16 80.57h134.01v2.55H106.16z"/><path class="st8" d="M106.16 74.09h134.01v6.48H106.16z"/><path class="st9" d="M240.17 69.92v4.17H106.16v-4.17h106.3z"/><path class="st8" d="M240.17 63.33v6.6h-27.7v-.12h4.49v-5.04c0-.79-1-1.44-2.25-1.44h25.46z"/><path class="st6" d="M234.38 91.45v28.93h-2.19v-17.01c0-2.72-2.36-4.93-5.26-4.93-2.91 0-5.26 2.21-5.26 4.93v17.01h-2.1V91.45h14.81z"/><path class="st7" d="M233.57 139.7v16.21h-13.29V139.7c0-2.55 2.97-4.62 6.64-4.62 3.68-.01 6.65 2.06 6.65 4.62zm-1.38-36.34v17.01h-10.52v-17.01c0-2.72 2.36-4.93 5.26-4.93 2.9.01 5.26 2.21 5.26 4.93z"/><path class="st6" d="M216.95 64.76v5.04h-4.49v-5.04c0-.79 1-1.44 2.25-1.44s2.24.65 2.24 1.44z"/><path class="st8" d="M186.93 63.33h27.77c-1.24 0-2.25.65-2.25 1.44v5.16h-27.77v-.12h4.49v-5.04c.01-.8-1-1.44-2.24-1.44z"/><path class="st6" d="M207.07 91.45v28.93h-2.19v-17.01c0-2.72-2.36-4.93-5.26-4.93-2.91 0-5.26 2.21-5.26 4.93v17.01h-2.1V91.45h14.81z"/><path class="st7" d="M206.26 139.7v16.21h-13.29V139.7c0-2.55 2.97-4.62 6.64-4.62 3.67-.01 6.65 2.06 6.65 4.62zm-1.38-36.34v17.01h-10.52v-17.01c0-2.72 2.36-4.93 5.26-4.93 2.9.01 5.26 2.21 5.26 4.93z"/><path class="st6" d="M189.18 64.76v5.04h-4.49v-5.04c0-.79 1-1.44 2.25-1.44s2.24.65 2.24 1.44z"/><path class="st8" d="M159.16 63.33h27.77c-1.24 0-2.25.65-2.25 1.44v5.16h-27.77v-.12h4.49v-5.04c0-.8-1-1.44-2.24-1.44z"/><path class="st6" d="M179.76 91.45v28.93h-2.19v-17.01c0-2.72-2.36-4.93-5.26-4.93-2.91 0-5.26 2.21-5.26 4.93v17.01h-2.1V91.45h14.81z"/><path class="st7" d="M178.95 139.7v16.21h-13.29V139.7c0-2.55 2.97-4.62 6.64-4.62 3.67-.01 6.65 2.06 6.65 4.62zm-1.38-36.34v17.01h-10.52v-17.01c0-2.72 2.36-4.93 5.26-4.93 2.9.01 5.26 2.21 5.26 4.93z"/><path class="st6" d="M161.4 64.76v5.04h-4.49v-5.04c0-.79 1-1.44 2.25-1.44s2.24.65 2.24 1.44z"/><path class="st8" d="M131.38 63.33h27.77c-1.24 0-2.25.65-2.25 1.44v5.16h-27.77v-.12h4.49v-5.04c.01-.8-.99-1.44-2.24-1.44z"/><path class="st6" d="M152.45 91.45v28.93h-2.19v-17.01c0-2.72-2.36-4.93-5.26-4.93-2.91 0-5.26 2.21-5.26 4.93v17.01h-2.1V91.45h14.81z"/><path class="st7" d="M151.64 139.7v16.21h-13.29V139.7c0-2.55 2.97-4.62 6.64-4.62 3.67-.01 6.65 2.06 6.65 4.62zm-1.38-36.34v17.01h-10.52v-17.01c0-2.72 2.36-4.93 5.26-4.93 2.9.01 5.26 2.21 5.26 4.93z"/><path class="st6" d="M133.63 64.76v5.04h-4.49v-5.04c0-.79 1-1.44 2.25-1.44 1.24.01 2.24.65 2.24 1.44z"/><path class="st8" d="M106.39 63.33h25c-1.24 0-2.25.65-2.25 1.44v5.16h-22.98v-6.6h.23z"/><path class="st6" d="M125.14 91.45v28.93h-2.19v-17.01c0-2.72-2.36-4.93-5.26-4.93-2.91 0-5.26 2.21-5.26 4.93v17.01h-2.1V91.45h14.81z"/><path class="st7" d="M124.33 139.7v16.21h-13.29V139.7c0-2.55 2.97-4.62 6.64-4.62 3.67-.01 6.65 2.06 6.65 4.62zm-1.39-36.34v17.01h-10.52v-17.01c0-2.72 2.36-4.93 5.26-4.93 2.91.01 5.26 2.21 5.26 4.93z"/><path class="st9" d="M67.27 160.88h38.88v9.03H67.27z"/><path class="st8" d="M106.16 128.71v32.17H67.27v-32.17h15.74l2.08 6.48v.02c-2.91.49-5.07 2.31-5.07 4.49v16.21h13.29V139.7c0-2.15-2.12-3.96-4.98-4.48l.01-.03 2.31-6.48h15.51z"/><path class="st8" d="M106.16 123.62v5.09H67.27v-5.09h.12zm0-40.51v40.5H67.27v-40.5h38.89zm-9.72 7.64h1.85c0-2.94-5.18-5.32-11.57-5.32s-11.57 2.38-11.57 5.32H77v29.86h19.44V90.75z"/><path class="st8" d="M67.27 80.57h38.88v2.55H67.27z"/><path class="st8" d="M67.27 74.09h38.88v6.48H67.27zm0-4.17h38.88v4.17H67.27z"/><path class="st8" d="M106.16 63.33v6.6H67.27v-9.91h38.88v3.31zm-9.61 4.28v-4.4H76.88v4.4h19.67z"/><path class="st8" d="M67.27 57.89h38.88v2.13H67.27zm0-1.62h38.88v1.62H67.27z"/><path class="st6" d="M98.29 90.75H75.14c0-2.94 5.18-5.32 11.57-5.32s11.58 2.38 11.58 5.32zM76.88 63.21h19.67v4.4H76.88z"/><path class="st9" d="M96.44 90.75v29.86h-2.15v-18.68c0-3.94-3.41-7.13-7.62-7.13s-7.62 3.19-7.62 7.13v18.68H77V90.75h19.44z"/><path class="st6" d="M81.41 120.49h10.52v-17.13c0-2.72-2.36-4.93-5.26-4.93-2.91 0-5.26 2.21-5.26 4.93v17.13zm12.88.12H79.05v-18.68c0-3.94 3.41-7.13 7.62-7.13s7.62 3.19 7.62 7.13v18.68z"/><path class="st7" d="M93.31 139.7v16.21H80.02V139.7c0-2.18 2.16-4 5.07-4.49.5-.09 1.03-.13 1.57-.13.57 0 1.13.05 1.66.15 2.87.5 4.99 2.31 4.99 4.47zm-1.38-36.34v17.13H81.41v-17.13c0-2.72 2.36-4.93 5.26-4.93 2.9.01 5.26 2.21 5.26 4.93z"/><path class="st6" d="M90.65 128.71l-2.31 6.48-.01.03c-.53-.09-1.09-.15-1.66-.15-.54 0-1.07.04-1.57.13v-.02l-2.08-6.48h7.63z"/><path class="st9" d="M67.27 160.88v9.03H39.5v-9.03h.12z"/><path class="st8" d="M67.27 128.71v32.17H39.5v-32.17h27.77zm-6.82 27.2V139.7c0-2.55-2.97-4.62-6.64-4.62-3.67 0-6.64 2.07-6.64 4.62v16.21h13.28z"/><path class="st9" d="M39.5 123.62v-40.5h27.77v45.59H39.5v-5.09zm21.76-3.24V91.45H46.44v28.93h2.1v.12h10.52v-.12h2.2z"/><path class="st8" d="M39.5 80.57h27.77v2.55H39.5z"/><path class="st8" d="M39.5 74.09h27.77v6.48H39.5z"/><path class="st9" d="M39.5 69.92h27.77v4.17H39.5z"/><path class="st8" d="M39.5 63.33h27.77v6.6H39.5z"/><path class="st6" d="M61.26 91.45v28.93h-2.19v-17.01c0-2.72-2.36-4.93-5.26-4.93-2.91 0-5.26 2.21-5.26 4.93v17.01h-2.1V91.45h14.81z"/><path class="st7" d="M60.45 139.7v16.21H47.16V139.7c0-2.55 2.97-4.62 6.64-4.62 3.67-.01 6.65 2.06 6.65 4.62zm-1.39-36.34v17.01H48.54v-17.01c0-2.72 2.36-4.93 5.26-4.93 2.91.01 5.26 2.21 5.26 4.93z"/><path class="st8" d="M23.85 136.73c-1.22-.17-2.51-.26-3.84-.26-1.22 0-2.41.08-3.55.22-6.3.81-10.97 3.74-10.97 7.22v26H.62v-41.2H39.5v41.2h-4.98v-26c0-3.43-4.52-6.32-10.67-7.18z"/><path class="st8" d="M39.5 123.62v5.09H.62v-5.09h.11zm0-40.51v40.5H.62V74.09H39.5v9.02zm-9.72 7.64h1.85c0-2.94-5.18-5.32-11.57-5.32S8.49 87.81 8.49 90.75h1.85v29.86h19.44V90.75zm9.72-20.83v4.17h-7.87V56.27h7.87v7.06z"/><path class="st7" d="M39.5 56.27h-7.99c0-13.55-5.13-24.53-11.46-24.53 10.74-.01 19.45 10.98 19.45 24.53z"/><path class="st6" d="M34.52 143.91v26h-3.01v-22.76c0-3.28-4.27-6-9.84-6.45v-.07l2.17-3.9c6.16.86 10.68 3.75 10.68 7.18z"/><path class="st8" d="M31.63 56.27v17.82H8.49V56.27h.23c0-6.26 5.08-11.34 11.34-11.34S31.4 50 31.4 56.27h.23zm-5.09 0c0-3.58-2.9-6.48-6.48-6.48s-6.48 2.9-6.48 6.48c0 3.58 2.9 6.48 6.48 6.48s6.48-2.9 6.48-6.48z"/><path class="st6" d="M31.63 90.75H8.49c0-2.94 5.18-5.32 11.57-5.32s11.57 2.38 11.57 5.32z"/><path class="st7" d="M31.51 147.15v22.76h-23v-22.76c0-3.3 4.33-6.03 9.94-6.46a20.206 20.206 0 0 1 3.23.01c5.56.45 9.83 3.17 9.83 6.45z"/><path class="st9" d="M29.78 90.75v29.86h-2.15v-18.68c0-3.94-3.41-7.13-7.62-7.13s-7.62 3.19-7.62 7.13v18.68h-2.05V90.75h19.44z"/><path class="st6" d="M14.75 120.49h10.52v-17.13c0-2.72-2.36-4.93-5.26-4.93-2.91 0-5.26 2.21-5.26 4.93v17.13zm12.88.12H12.39v-18.68c0-3.94 3.41-7.13 7.62-7.13s7.62 3.19 7.62 7.13v18.68z"/><path class="st7" d="M25.38 29.42v2.31H14.73v-2.31h8.34zm-.11 73.94v17.13H14.75v-17.13c0-2.72 2.36-4.93 5.26-4.93 2.91.01 5.26 2.21 5.26 4.93z"/><circle class="st7" cx="20.06" cy="56.27" r="6.48"/><path class="st6" d="M23.85 136.73l-2.17 3.9v.07a20.206 20.206 0 0 0-3.23-.01v-.06l-1.97-3.94c1.13-.15 2.32-.22 3.55-.22 1.31-.01 2.59.09 3.82.26z"/><path class="st7" d="M23.07 27.1v2.32h-6.02V27.1h4.4zM20.16.02l1.29 27.08h-2.68L20.06.02zM8.6 56.27c0-13.55 5.13-24.53 11.46-24.53s11.46 10.98 11.46 24.53h-.12c0-6.26-5.08-11.34-11.34-11.34S8.72 50 8.72 56.27H8.6z"/><path class="st6" d="M18.44 140.63v.06c-5.61.43-9.94 3.16-9.94 6.46v22.76h-3v-26c0-3.48 4.67-6.41 10.97-7.22l1.97 3.94z"/><path class="st7" d="M20.06 31.73c-6.33 0-11.46 10.98-11.46 24.53H.62c0-13.54 8.7-24.53 19.44-24.53z"/><path class="st8" d="M.62 56.27h7.87v17.82H.62z"/><path class="st12" d="M279.05 123.62V56.27h-38.88v113.64h38.88"/><path class="st12" d="M249.77 63.21h19.67v4.4h-19.67zM39.5 69.92h238.84v4.17H.5v-4.17m239.67-9.91h38.88M1.33 80.57h277.84M1.33 83.11h277.84m-38.89 40.51h38.77m.12 5.09H.5m39.12 32.17h239.55m-39-102.99h38.88"/><path class="st13" d="M259.56 98.44c2.9 0 5.26 2.21 5.26 4.93v17.13H254.3v-17.13c0-2.73 2.35-4.93 5.26-4.93z"/><path class="st13" d="M251.94 120.61v-18.68c0-3.94 3.41-7.13 7.62-7.13s7.62 3.19 7.62 7.13v18.68"/><path class="st13" d="M249.89 90.75v29.86h19.44V90.75m0 0h1.85c0-2.94-5.18-5.32-11.57-5.32-6.39 0-11.57 2.38-11.57 5.32h21.29zm-8.11 44.47c-.53-.09-1.09-.15-1.66-.15-.54 0-1.07.04-1.57.13-2.91.49-5.07 2.31-5.07 4.49v16.21h13.29v-16.2c-.01-2.16-2.12-3.97-4.99-4.48zm38.08 34.69v-26c0-4.11-3.18-7.45-7.11-7.45s-7.11 3.34-7.11 7.45v26.12h14.21v-.12zm-267.79.11h3.01V143.9c0-3.43-4.52-6.32-10.68-7.18-1.22-.17-2.51-.26-3.84-.26-1.22 0-2.41.08-3.55.22-6.3.81-10.97 3.74-10.97 7.22v26.12h3.01"/><path class="st13" d="M21.67 140.7a20.206 20.206 0 0 0-3.23-.01c-5.61.43-9.94 3.16-9.94 6.46v22.88h23.01v-22.88c0-3.28-4.27-6-9.84-6.45zm205.26-5.63c-3.67 0-6.64 2.07-6.64 4.62v16.21h13.29v-16.2c-.01-2.56-2.98-4.63-6.65-4.63zm-27.31 0c-3.67 0-6.64 2.07-6.64 4.62v16.21h13.29v-16.2c-.01-2.56-2.99-4.63-6.65-4.63zm-27.31 0c-3.67 0-6.64 2.07-6.64 4.62v16.21h13.29v-16.2c-.01-2.56-2.99-4.63-6.65-4.63zm-27.32 0c-3.67 0-6.64 2.07-6.64 4.62v16.21h13.29v-16.2c0-2.56-2.98-4.63-6.65-4.63zm-13.61-71.74c-1.24 0-2.25.65-2.25 1.44v5.04h4.49v-5.04c.01-.8-.99-1.44-2.24-1.44zm27.78 0c-1.24 0-2.25.65-2.25 1.44v5.04h4.49v-5.04c0-.8-1-1.44-2.24-1.44zm27.77 0c-1.24 0-2.25.65-2.25 1.44v5.04h4.49v-5.04c.01-.8-1-1.44-2.24-1.44zm27.78 0c-1.24 0-2.25.65-2.25 1.44v5.04h4.49v-5.04c0-.8-1-1.44-2.24-1.44zm-97.03 71.74c-3.67 0-6.64 2.07-6.64 4.62v16.21h13.29v-16.2c0-2.56-2.98-4.63-6.65-4.63zm143.55.12l2.31-6.48m-5.55 6.48l-2.08-6.48"/><path class="st12" d="M106.16 169.91V56.27H67.27v113.64"/><path class="st12" d="M76.88 63.21h19.67v4.4H76.88zm-9.61-3.2h38.89m-38.77 63.61h38.88m-39-65.73h38.89"/><path class="st13" d="M86.67 98.44c2.9 0 5.26 2.21 5.26 4.93v17.13H81.41v-17.13c0-2.73 2.35-4.93 5.26-4.93z"/><path class="st13" d="M79.05 120.61v-18.68c0-3.94 3.41-7.13 7.62-7.13s7.62 3.19 7.62 7.13v18.68"/><path class="st13" d="M76.99 90.75v29.86h19.45V90.75m0 0h1.85c0-2.94-5.18-5.32-11.57-5.32s-11.57 2.38-11.57 5.32h21.29zm-8.11 44.47c-.53-.09-1.09-.15-1.66-.15-.54 0-1.07.04-1.57.13-2.91.49-5.07 2.31-5.07 4.49v16.21h13.29v-16.2c-.01-2.16-2.13-3.97-4.99-4.48zm.01-.03l2.31-6.48m-5.56 6.48l-2.08-6.48m-61.33 11.92l2.17-3.9.14-.27m-5.55 4.17l-1.97-3.94-.12-.23"/><path class="st12" d="M.73 123.62h38.89"/><path class="st13" d="M20.01 98.44c2.9 0 5.26 2.21 5.26 4.93v17.13H14.75v-17.13c0-2.73 2.35-4.93 5.26-4.93z"/><path class="st13" d="M12.39 120.61v-18.68c0-3.94 3.41-7.13 7.62-7.13s7.62 3.19 7.62 7.13v18.68"/><path class="st13" d="M10.34 90.75v29.86h19.44V90.75m0 0h1.85c0-2.94-5.18-5.32-11.57-5.32S8.49 87.81 8.49 90.75h21.29zm109.95 29.63v-17.01c0-2.72 2.36-4.93 5.26-4.93s5.26 2.21 5.26 4.93v17.13h-10.52v-.12z"/><path class="st13" d="M139.73 120.38h-2.1V91.45h14.82v28.93h-2.19zm-27.31 0v-17.01c0-2.72 2.36-4.93 5.26-4.93s5.26 2.21 5.26 4.93v17.13h-10.52v-.12z"/><path class="st13" d="M112.42 120.38h-2.1V91.45h14.82v28.93h-2.2zM53.8 135.07c-3.67 0-6.64 2.07-6.64 4.62v16.21h13.29v-16.2c0-2.56-2.98-4.63-6.65-4.63zm-5.26-14.69v-17.01c0-2.72 2.36-4.93 5.26-4.93s5.26 2.21 5.26 4.93v17.13H48.54v-.12z"/><path class="st13" d="M48.54 120.38h-2.1V91.45h14.82v28.93h-2.2zm118.5 0v-17.01c0-2.72 2.36-4.93 5.26-4.93s5.26 2.21 5.26 4.93v17.13h-10.52v-.12z"/><path class="st13" d="M167.04 120.38h-2.09V91.45h14.81v28.93h-2.19zm27.31 0v-17.01c0-2.72 2.36-4.93 5.26-4.93s5.26 2.21 5.26 4.93v17.13h-10.52v-.12z"/><path class="st13" d="M194.35 120.38h-2.09V91.45h14.81v28.93h-2.19zm27.31 0v-17.01c0-2.72 2.36-4.93 5.26-4.93s5.26 2.21 5.26 4.93v17.13h-10.52v-.12z"/><path class="st13" d="M221.66 120.38h-2.09V91.45h14.81v28.93h-2.19z"/><path class="st12" d="M240.05 169.91H39.5"/><path class="st13" d="M240.17 63.33H106.39"/><circle class="st12" cx="20.06" cy="56.27" r="6.48"/><path class="st12" d="M8.72 56.27c0-6.26 5.08-11.34 11.34-11.34S31.4 50 31.4 56.27h8.11v113.65H.62V56.27h7.87v17.82m23.14-17.82v17.82"/><path class="st12" d="M.62 56.27c0-13.55 8.7-24.53 19.44-24.53S39.5 42.72 39.5 56.27"/><path class="st12" d="M8.6 56.27c0-13.55 5.13-24.53 11.46-24.53s11.46 10.98 11.46 24.53"/><path class="st13" d="M67.27 63.33H39.5M23.07 29.42h2.31v2.31H14.73v-2.31h2.32m6.02 0h-6.02V27.1h6.02zM20.06.02L18.77 27.1M20.16.02l1.29 27.08"/><path class="st12" d="M279.17 123.62h26.03v46.29h-26.15v-46.29z"/></g></svg>