<svg version="1.1" id="Layer_1" xmlns="http://www.w3.org/2000/svg" x="0" y="0" viewBox="0 0 593.89 171" xml:space="preserve"><style>.st0{fill:#d68e7e}.st1{fill:#f2eadb}.st2{fill:#deb79f}.st3{fill:#ce6b66}.st4,.st5{fill:none;stroke:#93464d;stroke-miterlimit:10}.st5{fill:#ce6b66}</style><g id="XMLID_6_"><path class="st0" d="M593.39.5v144.51h-73.35V129.6l6.96 4.41v-30.08l9.17 7.35 5.17 4.15 5.1 4.09v6.78l35.21 15.77V72.75l-2.45-1.1-.09-.04-32.67-14.63V.5z"/><path class="st1" d="M576.15 125.06l3.05 1.5 2.45 1.21v14.3l-35.21-15.77V57.91l6.97 9.71v46.21l10.89 5.38 6.62 3.26z"/><path class="st2" d="M581.65 72.75v55.02l-2.45-1.21V71.65z"/><path class="st2" d="M579.2 71.65v54.91l-3.05-1.5V71.65h2.94l.02-.04z"/><path class="st0" d="M546.44 56.98l32.67 14.63-.02.04h-8.07v-2.36h-6.6v-1.67h-11.01l-6.97-9.71z"/><path class="st2" d="M576.15 71.65v53.41l-5.23-2.59.1-.2V71.65z"/><path class="st2" d="M571.02 71.65v50.62l-.1.2-6.62-3.26.12-.24V69.29h6.6z"/><path class="st2" d="M564.42 69.29v49.68l-.12.24-10.89-5.38V67.62h11.01zm-17.98-11.38v61.61l-5.1-4.09.02-.04V33.04l.02-.25 5.06.35v23.84z"/><path class="st3" d="M546.44 32.78v.36l-5.06-.35-5.1-.35-16.24-1.13L511.23 17z"/><path class="st0" d="M546.44.5v32.28L511.23 17V.5z"/><path class="st2" d="M541.38 32.79l-.02.25v82.35l-.02.04-5.17-4.15v-.01l.11-78.83z"/><path class="st2" d="M536.28 32.44l-.11 78.83v.01l-9.17-7.35V62.12h-6.96V31.31z"/><path class="st2" d="M527 103.93v30.08l-6.96-4.41V62.85l-.28-.12.28-.61H527z"/><path class="st0" d="M495.83 118.76l7.7 3.45 7.7 3.45 5.74 2.57 3.07 1.37v15.41h-50.25v-14.72l6.2 3.04 8.84 4.34v-23.84z"/><path class="st2" d="M520.04 62.85v66.75l-3.07-1.37.2-.46v-66.2l2.59 1.16z"/><path class="st1" d="M520.04 31.31v30.81l-.28.61-2.59-1.16-5.94-2.66V17z"/><path class="st1" d="M517.17 61.57v66.2l-.2.46-5.74-2.57V58.91z"/><path class="st2" d="M511.23 61.75v63.91l-7.7-3.45V61.75z"/><path class="st3" d="M511.23 59.38v2.37h-15.4v-.37l-11-14.3 26.4 11.83z"/><path class="st0" d="M511.23 17v41.91l-26.4-11.83V.5h26.4z"/><path class="st2" d="M503.53 61.75v60.46l-7.7-3.45V61.75z"/><path class="st1" d="M495.83 61.75v57.01l-11-4.93V47.08l11 14.3z"/><path class="st2" d="M484.83 113.83v23.84l-8.84-4.34.03-.06V47.08h8.81v2.56z"/><path class="st0" d="M484.83.5v46.58l-13.04-5.87-2-.9V.5z"/><path class="st3" d="M484.83 47.08h-8.81l-4.23-5.87z"/><path class="st1" d="M476.02 47.08v86.19l-.03.06-6.2-3.04V40.31l2 .9z"/><path class="st0" d="M469.79 130.29v14.72h-16.14v-22.65l7.34 3.6z"/><path class="st2" d="M469.79 129.79v.5l-8.8-4.33V41.21h8.8v2.94z"/><path class="st3" d="M469.79 40.31v.9h-8.8l-5.4-7.29z"/><path class="st0" d="M469.79.5v39.81l-14.2-6.39v-.01l-1.94-.87V.5z"/><path class="st1" d="M460.99 41.21v84.75l-7.34-3.6V33.04l1.94.87v.01z"/><path class="st0" d="M453.65 122.36v22.65h-53.07v-17.19l6.12 2.77 16.51 7.45V107.4z"/><path class="st2" d="M449.98 94.29l3.67 1.57v26.5l-30.44-14.96-.07-.03.07-.14V28.37l15.04 1.47v59.42l6.6 2.83z"/><path class="st2" d="M453.65 34.98v60.88l-3.67-1.57V34.98z"/><path class="st3" d="M453.65 33.04v1.94h-8.8V32.2h-6.6v-2.36l-15.04-1.47-8.44-12.83z"/><path class="st0" d="M453.65.5v32.54l-38.88-17.5h-.06V.5z"/><path class="st2" d="M449.98 34.98v59.31l-5.13-2.2V34.98zm-5.13 0v57.11l-6.6-2.83V32.2h6.6zm-21.64 72.42v30.64l-16.51-7.45v-23.36l15.72.17.15-.31.57.28z"/><path class="st1" d="M423.21 28.37v78.86l-.07.14-.57-.28-7.88-3.87.02-.02V66.89h.06l-.06-.03V15.54h.06z"/><path class="st3" d="M422.57 107.09l-.15.31-15.72-.17-6.12-9.96v-.98l2.96 1.45 11.15 5.48z"/><path class="st2" d="M414.71 66.89v36.31l-.02.02-11.15-5.48.23-.47V66.89z"/><path class="st3" d="M414.71 66.86v.03h-10.94l-3.19-5.13V60.7z"/><path class="st0" d="M414.71 15.54v51.32l-14.13-6.16V.5h14.13z"/><path class="st1" d="M406.7 107.23v23.36l-6.12-2.77V97.27zm-2.93-40.34v30.38l-.23.47-2.96-1.45V61.76z"/><path class="st0" d="M388.73 122.43l4.77 2.17 6.97 3.17.11.05v17.19h-36.6v-33.74h.18l6.97 3.16 12.83 5.84z"/><path class="st2" d="M400.58 96.29v31.53l-.11-.05-6.97-3.17V72.75h7.08z"/><path class="st3" d="M400.58 69.82v2.93h-11.85v-2.93h-4.77v-2.93h-12.83l-6.97-13.57 36.31 16.5z"/><path class="st0" d="M400.58 61.76v8.06h-.11l-36.31-16.5h-.18V.5h36.6v60.2z"/><path class="st2" d="M393.5 72.75v51.85l-4.77-2.17V72.75h.18zm-4.77 0v49.68l-4.77-2.16V69.82h4.77zm-4.77-2.93v50.45l-12.83-5.84V66.89h12.83z"/><path class="st1" d="M371.13 66.89v47.54l-6.97-3.16h-.18V53.32h.18z"/><path class="st0" d="M363.98 111.27v33.74h-25.5V.5h25.5v52.82z"/><path class="st4" d="M546.44.5h46.95v144.51H338.48V.5h172.75zM363.98.5v144.51M400.58.5v144.51"/><path class="st4" d="M455.59 33.91l-1.94-.87-38.88-17.5m70.06 31.54l-13.04-5.87-2-.9-14.2-6.39m29.24 13.16l26.4 11.83 5.94 2.66 2.59 1.16.28.12v66.75l-3.07-1.37-5.74-2.57-7.7-3.45-7.7-3.45-11-4.93m61.61-78.85v91.32l35.21 15.77V72.75l-2.45-1.1-.09-.04-32.67-14.63"/><path class="st4" d="M511.23 125.66V17l35.21 15.78M400.47 69.82l-36.31-16.5m36.31 74.45l-6.97-3.17-4.77-2.17-4.77-2.16-12.83-5.84-6.97-3.16m50.61-44.38l-.06-.03-14.13-6.16-.11-.05M414.71.5v102.7"/><path class="st4" d="M423.21 107.4v30.64l-16.51-7.45-6.12-2.77-.11-.05m-16.51-7.5V66.89h-12.83v48.04m13.02-45.11h4.58v52.63m4.77-49.7v51.9m-4.59-51.9h11.56m-36.31-19.43l6.97 13.57m29.34-5.32l.11.19 3.19 5.13h11m-14.19 30.38l6.12 9.96 15.72.17m-18.65-40.51v30.38m2.93 9.96v23.36m46.95-34.73l-3.67-1.57-5.13-2.2-6.6-2.83V29.84l-15.04-1.47v78.86"/><path class="st4" d="M438.25 32.2h6.6v60.18m5.13-57.4V94.3m-5.13-59.32h8.8m-38.88-19.44l8.44 12.83m46.58 15.78v100.86m-8.8-19.05V41.21h8.8m15.04 5.87h-8.81v86.19"/><path class="st4" d="M400.47 96.23l.11.06 2.96 1.45 11.15 5.48 7.88 3.87.57.28.07.03 30.44 14.96 7.34 3.6 8.8 4.33 6.2 3.04 8.84 4.34V49.64m-13.04-8.43l4.23 5.87m-20.43-13.17v.01l5.4 7.29m23.84 5.87l11 14.3v58.14m21.34-57.95v66.2m-21.34-66.02h15.4m-7.7 60.46V61.75m42.91-28.61l-5.06-.35-5.1-.35-16.24-1.13v30.81H527v71.89l-6.96-4.41v15.41m0-113.7L511.23 17V.5"/><path class="st4" d="M527 103.93l9.17 7.35 5.17 4.15 5.1 4.09m-10.16-87.08l-.11 78.83m5.19-78.23v82.35m40.29 12.38l-2.45-1.21-3.05-1.5-5.23-2.59-6.62-3.26-10.89-5.38V67.62h11.01v51.35m-11.01-51.35l-6.97-9.71"/><path class="st4" d="M564.42 69.29h6.6v52.98m5.13-50.62v53.65m-5.13-53.65h8.07m.11 0v54.91M453.65.5v144.51M469.79.5v43.65M484.83.5v49.14M546.44.5v34.48"/></g><g id="XMLID_5_"><path class="st0" d="M338.48 34.91v110.1H282.6v-11.74l5.31 3.36v-22.92l6.98 5.6 7.83 6.28v5.17l26.82 12.01V89.96l-1.94-.87-24.88-11.15V34.91z"/><path class="st1" d="M325.35 129.81l4.19 2.07v10.89l-26.82-12.01V78.65l5.3 7.4v35.21l8.3 4.09 5.04 2.49z"/><path class="st2" d="M329.54 89.96v41.92l-4.19-2.07V89.12h2.23l.02-.03z"/><path class="st0" d="M302.72 77.94l24.88 11.15-.02.03h-6.14v-1.8h-5.03v-1.27h-8.39l-5.3-7.4z"/><path class="st2" d="M325.35 89.12v40.69l-3.99-1.97.08-.16V89.12z"/><path class="st2" d="M321.44 89.12v38.56l-.08.16-5.04-2.49.09-.18V87.32h5.03z"/><path class="st2" d="M316.41 87.32v37.85l-.09.18-8.3-4.09V86.05h8.39zm-13.69-8.67v46.94l-7.83-6.28v-.01l.08-60.05 7.75.53v18.16z"/><path class="st3" d="M302.72 59.5v.28l-7.75-.53-12.37-.87-6.71-10.89z"/><path class="st0" d="M302.72 34.91V59.5l-26.83-12.01V34.91z"/><path class="st2" d="M294.97 59.25l-.08 60.05v.01l-6.98-5.6V81.86h-5.31V58.38z"/><path class="st2" d="M287.91 113.71v22.92l-5.31-3.36V82.42l-.21-.1.21-.46h5.31z"/><path class="st0" d="M264.15 125.01l5.87 2.63 5.87 2.63 6.71 3v11.74h-38.29v-11.22l4.73 2.32 6.73 3.31v-18.16z"/><path class="st1" d="M282.6 82.42v50.85l-6.71-3V79.41l6.5 2.91z"/><path class="st1" d="M282.6 58.38v23.48l-.21.46-6.5-2.91V47.49z"/><path class="st2" d="M275.89 81.58v48.69l-5.87-2.63V81.58z"/><path class="st3" d="M275.89 79.77v1.81h-11.74v-.28l-8.38-10.9 20.12 9.01z"/><path class="st0" d="M275.89 47.49v31.92l-20.12-9.01V34.91h20.12z"/><path class="st2" d="M270.02 81.58v46.06l-5.87-2.63V81.58z"/><path class="st1" d="M264.15 81.58v43.43l-8.38-3.75V70.4l8.38 10.9z"/><path class="st2" d="M255.77 121.26v18.16l-6.73-3.31.02-.04V70.4h6.71v1.95z"/><path class="st0" d="M255.77 34.91V70.4l-9.93-4.47-1.53-.69V34.91z"/><path class="st3" d="M255.77 70.4h-6.71l-3.22-4.47z"/><path class="st1" d="M249.06 70.4v65.67l-.02.04-4.73-2.32V65.24l1.53.69z"/><path class="st0" d="M244.31 133.79v11.22h-12.29v-17.26l5.59 2.75z"/><path class="st2" d="M244.31 133.41v.38l-6.7-3.29V65.93h6.7v2.23z"/><path class="st3" d="M244.31 65.24v.69h-6.7l-4.11-5.56z"/><path class="st0" d="M244.31 34.91v30.33l-10.81-4.87h-.01l-1.47-.66v-24.8z"/><path class="st1" d="M237.61 65.93v64.57l-5.59-2.75V59.71l1.47.66h.01z"/><path class="st0" d="M232.02 127.75v17.26h-40.43v-13.1l4.66 2.11 12.58 5.68v-23.34z"/><path class="st2" d="M225.31 104.69l6.71 2.87v20.19l-23.19-11.39-.06-.03.06-.1V56.15l11.45 1.12v45.27z"/><path class="st2" d="M232.02 61.18v46.38l-6.71-2.87V61.18z"/><path class="st3" d="M232.02 59.71v1.47h-6.71v-2.11h-5.03v-1.8l-11.45-1.12-6.43-9.78z"/><path class="st0" d="M232.02 34.91v24.8L202.4 46.37h-.05V34.91z"/><path class="st2" d="M225.31 61.18v43.51l-5.03-2.15V59.07h5.03zm-16.48 55.18v23.34l-12.58-5.68v-17.79l11.97.13.12-.24.43.21z"/><path class="st1" d="M208.83 56.15v60.08l-.06.1-.43-.21-6-2.95.01-.02V85.49h.05l-.05-.02v-39.1h.05z"/><path class="st3" d="M208.34 116.12l-.12.24-11.97-.13-4.66-7.59v-.75l2.88 1.42 7.87 3.86z"/><path class="st2" d="M202.35 85.49v27.66l-.01.02-7.87-3.86.07-.15V85.49z"/><path class="st3" d="M202.35 85.47v.02h-8.34l-2.42-3.91v-.8z"/><path class="st0" d="M202.35 46.37v39.1l-10.76-4.69V34.91h10.76z"/><path class="st1" d="M196.25 116.23v17.79l-4.66-2.11v-23.27zm-1.71-30.21v23.14l-.07.15-2.88-1.42V81.58l2.42 3.91h.53z"/><path class="st0" d="M182.56 127.81l8.94 4.07.09.03v13.1H163.7V119.3h.14l5.31 2.42z"/><path class="st2" d="M191.59 107.89v24.02l-.09-.03-8.94-4.07.04-37.82.1-.03h8.89z"/><path class="st3" d="M191.59 87.73v2.23h-8.89l-.1.03-13.45-4.5-5.31-10.34 27.66 12.58z"/><path class="st0" d="M191.59 81.58v6.15h-.09l-27.66-12.58h-.14V34.91h27.89v45.87z"/><path class="st2" d="M182.6 89.99l-.04 37.82-13.41-6.09V85.49z"/><path class="st1" d="M169.15 85.49v36.23l-5.31-2.42h-.14V75.15h.14z"/><path class="st0" d="M163.7 119.3v25.71h-19.42V34.91h19.42v40.24z"/><path class="st4" d="M302.72 34.91h35.76v110.1h-194.2V34.91h131.61zm-139.02 0v110.1m27.89-110.1v110.1"/><path class="st4" d="M233.49 60.37l-1.47-.66-29.62-13.34m53.37 24.03l-9.93-4.47-1.53-.69-10.81-4.87m22.27 10.03l20.12 9.01 6.5 2.91.21.1v50.85l-6.71-3-5.87-2.63-5.87-2.63-8.38-3.75m46.95-60.08v69.58l26.82 12.01V89.96l-1.94-.87-24.88-11.15"/><path class="st4" d="M275.89 130.27V47.49l26.83 12.01M191.5 87.73l-27.66-12.58m27.66 56.73l-8.94-4.07-13.41-6.09-5.31-2.42m38.56-33.81l-.05-.02-10.76-4.69-.09-.04m10.85-45.83v78.24m6.48 3.21v23.34l-12.58-5.68-4.66-2.11-.09-.03"/><path class="st4" d="M182.6 89.99l-13.45-4.5v36.6m13.45-32.1l-.04 37.82v.01m.14-37.86h8.8m-27.66-14.81l5.31 10.34m22.35-4.05l.09.14 2.42 3.91h8.39m-10.81 23.15l4.66 7.59 11.97.13m-13.68-30.34v23.14m1.71 7.07v17.79m35.77-26.46l-6.71-2.87-5.03-2.15V57.27l-11.45-1.12v60.08"/><path class="st4" d="M220.28 59.07h5.03v45.84m0-43.73h6.71M202.4 46.37l6.43 9.78m35.48 12.01v76.85m-6.7-14.51V65.93h6.7m11.46 4.47h-6.71v65.67"/><path class="st4" d="M191.5 107.84l.09.05 2.88 1.42 7.87 3.86 6 2.95.43.21.06.03 23.19 11.39 5.59 2.75 6.7 3.29 4.73 2.32 6.73 3.31V72.35m-9.93-6.42l3.22 4.47m-15.57-10.03h.01l4.11 5.56m18.16 4.47l8.38 10.9v44.29m0-44.01h11.74m-5.87 46.06V81.58m32.7-21.8l-7.75-.53-12.37-.87v23.48h5.31v54.77l-5.31-3.36v11.74m0-86.63l-6.71-10.89V34.91"/><path class="st4" d="M287.91 113.71l6.98 5.6 7.83 6.28m-7.75-66.34l-.08 60.05m34.65 12.58l-4.19-2.07-3.99-1.97-5.04-2.49-8.3-4.09V86.05h8.39v39.12m-8.39-39.12l-5.3-7.4"/><path class="st4" d="M316.41 87.32h5.03v40.36m3.91-38.56V130m-3.91-40.88h6.14m-95.56-54.21v110.1m12.29-110.1v33.25m11.46-33.25v37.44m46.95-37.44v26.27"/></g><g id="XMLID_4_"><path class="st0" d="M144.46 63.4v81.61h-41.43v-8.7l3.94 2.49v-16.99l10.98 8.8v3.84l19.88 8.9V104.2l-1.39-.62-18.49-8.28V63.4z"/><path class="st1" d="M137.83 135.27v8.08l-19.88-8.9V95.82l3.93 5.48v26.1l14.56 7.19z"/><path class="st2" d="M136.44 104.16v-.58l1.39.62v31.07l-1.39-.68zm0 0v30.43l-14.56-7.19v-26.1z"/><path class="st3" d="M136.44 103.58v.58l-14.56-2.86-3.93-5.48v-.52z"/><path class="st2" d="M117.95 95.82v34.79l-10.98-8.8V98.2h-3.94V80.8l14.92 1.03V95.3z"/><path class="st3" d="M117.95 81.63v.2l-14.92-1.03-4.97-8.08z"/><path class="st0" d="M117.95 63.4v18.23l-19.89-8.91V63.4z"/><path class="st2" d="M106.97 121.81v16.99l-3.94-2.49v-37.7l-.15-.07.15-.34h3.94z"/><path class="st0" d="M89.36 130.19l8.7 3.89 4.97 2.23v8.7H74.65v-8.32l3.51 1.73 4.99 2.45V127.4z"/><path class="st1" d="M103.03 98.61v37.7l-4.97-2.23v-37.7l4.82 2.16zm0-17.81v17.4l-.15.34-4.82-2.16V72.72z"/><path class="st2" d="M98.06 97.99v36.09l-8.7-3.89v-32.2z"/><path class="st3" d="M98.06 96.65v1.34h-8.7v-.21l-6.21-8.08 14.91 6.68z"/><path class="st0" d="M98.06 72.72v23.66L83.15 89.7V63.4h14.91z"/><path class="st1" d="M89.36 97.99v32.2l-6.21-2.79V89.7l6.21 8.08z"/><path class="st2" d="M83.15 127.4v13.47l-4.99-2.45.02-.04V89.7h4.97v1.45z"/><path class="st0" d="M83.15 63.4v26.3l-7.36-3.31-1.14-.51V63.4z"/><path class="st3" d="M83.15 89.7h-4.97l-2.39-3.31z"/><path class="st1" d="M78.18 89.7v48.68l-.02.04-3.51-1.73V85.88l1.14.51z"/><path class="st0" d="M74.65 136.69v8.32h-9.11v-12.79l4.14 2.03z"/><path class="st2" d="M74.65 136.41v.28l-4.97-2.44V86.39h4.97v1.66z"/><path class="st3" d="M74.65 85.88v.51h-4.97l-3.04-4.12z"/><path class="st0" d="M74.65 63.4v22.48l-8.01-3.61h-.01l-1.09-.49V63.4z"/><path class="st1" d="M65.54 82.28v-.5l1.09.49h.01l3.04 4.12v47.86l-4.14-2.03z"/><path class="st0" d="M65.54 132.22v12.79H35.57v-9.71l3.46 1.56 9.32 4.21v-17.3z"/><path class="st2" d="M65.54 82.28v49.94l-17.19-8.45-.04-.02.04-.08V79.14z"/><path class="st3" d="M65.54 81.78v.5l-17.19-3.14-4.77-7.25z"/><path class="st0" d="M65.54 63.4v18.38l-21.96-9.89h-.03V63.4z"/><path class="st2" d="M48.35 123.77v17.3l-9.32-4.21v-13.19l8.87.1.09-.18.32.16z"/><path class="st1" d="M48.35 79.14v44.53l-.04.08-.32-.16-4.45-2.18.01-.01v-20.51h.03l-.03-.02V71.89h.03z"/><path class="st3" d="M47.99 123.59l-.09.18-8.87-.1-3.46-5.62v-.56l1.67.82 6.3 3.1z"/><path class="st2" d="M43.55 100.89v20.51l-.01.01-6.3-3.1.13-.26v-17.16z"/><path class="st3" d="M43.55 100.87v.02h-6.18l-1.8-2.9v-.59z"/><path class="st0" d="M43.55 71.89v28.98l-7.98-3.47v-34h7.98z"/><path class="st1" d="M39.03 123.67v13.19l-3.46-1.56v-17.25zm-1.66-22.78v17.16l-.13.26-1.67-.82v-19.5z"/><path class="st0" d="M18.94 127.74l16.57 7.53.06.03v9.71H14.9v-19.06h.1z"/><path class="st2" d="M35.57 117.49v17.81l-.06-.03-16.57-7.53v-26.85l16.59 2.31h.04z"/><path class="st3" d="M35.57 102.55v.65h-.04l-16.59-2.31L15 93.23l20.51 9.32z"/><path class="st0" d="M35.57 97.99v4.56h-.06L15 93.23h-.1V63.4h20.67v34z"/><path class="st1" d="M18.94 100.89v26.85L15 125.95h-.1V93.23h.1z"/><path class="st0" d="M14.9 125.95v19.06H.5V63.4h14.4v29.83z"/><path class="st4" d="M117.95 63.4h26.51v81.61H.5V63.4h97.56zm-103.05 0v81.61M35.57 63.4v81.61"/><path class="st4" d="M66.63 82.27l-1.09-.49-21.96-9.89M83.15 89.7l-7.36-3.31-1.14-.51-8.01-3.61m16.51 7.43l14.91 6.68 4.82 2.16.15.07v37.7l-4.97-2.23-8.7-3.89-6.21-2.79m34.8-44.53v51.58l19.88 8.9V104.2l-1.39-.62-18.49-8.28"/><path class="st4" d="M98.06 134.08V72.72l19.89 8.91m-82.44 20.92L15 93.23m20.51 42.04l-16.57-7.53-3.94-1.79m28.58-25.06l-.03-.02-7.98-3.47-.06-.03m8.04-33.97v58m4.8 2.37v17.3l-9.32-4.21-3.46-1.56-.06-.03"/><path class="st4" d="M35.53 103.2l-16.59-2.31v27.13M15 93.23l3.94 7.66m16.57-3l.06.1 1.8 2.9h6.21m-8.01 17.16l3.46 5.62 8.87.1m-10.53-22.88v17.16m1.66 5.62v13.19M65.6 82.29l-.06-.01-17.19-3.14v44.53m-4.77-51.78l4.77 7.25m26.3 8.91v56.96m-4.97-10.76V86.39h4.97m8.5 3.31h-4.97v48.68"/><path class="st4" d="M35.51 117.46l.06.03 1.67.82 6.3 3.1 4.45 2.18.32.16.04.02 17.19 8.45 4.14 2.03 4.97 2.44 3.51 1.73 4.99 2.45V91.15m-7.36-4.76l2.39 3.31m-11.55-7.43h.01l3.04 4.12m13.47 3.31l6.21 8.08v32.83m0-32.62h8.7m19.89-16.16l-14.92-1.03v17.4h3.94v40.6l-3.94-2.49v8.7m0-64.21l-4.97-8.08V63.4m8.91 58.41l10.98 8.8m19.88 4.66l-1.39-.68-14.56-7.19v-26.1l14.56 2.86.68.14m-15.24-3l-3.93-5.48m18.49 7.76v31.01M65.54 63.4v81.61m9.11-81.61v24.65m8.5-24.65v27.75m34.8-27.75v19.47"/></g><path class="st5" d="M354.62 145.01h198.79v25.49H354.62z"/><path class="st5" d="M191.41 145.01h163.58v25.49H191.41z"/><path class="st5" d="M.68 145.01h191.46v25.49H.68z"/></svg>