<svg version="1.1" id="Layer_1" xmlns="http://www.w3.org/2000/svg" x="0" y="0" viewBox="0 0 196.11 172" xml:space="preserve"><style>.st1{fill:#d2dbe7}.st1,.st2,.st3,.st4,.st5{stroke:#003e51;stroke-miterlimit:10}.st2{fill:none}.st3{fill:#5fa8ce}.st4{fill:#9dbfdd}.st5{fill:#f6f8fa}.st6{fill:#5fa8ce}</style><path class="st1" d="M60.03 93.35h75.84v57.63H60.03z"/><path class="st2" d="M97.96 1.5v20.96"/><path class="st3" d="M57.08 84.28v.07c0-19.51 18.3-40.53 40.88-40.53s40.88 21.02 40.88 40.53v-.07"/><path class="st2" d="M76.97 84.28v.07c0-19.51 9.4-40.53 20.98-40.53s20.98 21.02 20.98 40.53v-.21"/><path class="st4" d="M56.97 84.35h81.97v5.8H56.97z"/><path class="st1" d="M47.52 151.2h100.87v3.2H47.52zm-4.09 3.2h109.05v3.2H43.43zm-5.45 3.2h119.95v3.2H37.98zm-21.07 3.41h162.1v3.2H16.91zM8.6 164.4h178.91v3.2H8.6zM1 167.8h194.11v3.2H1z"/><path class="st2" d="M97.96 43.81v40.33M62.3 101.79h71.22"/><path class="st4" d="M95.41 93.3h5.09v5.78h-5.09zm0 48.49h5.09v9.3h-5.09z"/><path class="st1" d="M96.22 99.08h3.47v42.71h-3.47z"/><path class="st4" d="M76.49 93.3h5.09v5.78h-5.09zm0 48.49h5.09v9.3h-5.09z"/><path class="st1" d="M77.3 99.08h3.47v42.71H77.3z"/><path class="st4" d="M57.56 93.3h5.09v5.78h-5.09zm0 48.49h5.09v9.3h-5.09z"/><path class="st1" d="M58.38 99.08h3.47v42.71h-3.47z"/><path class="st4" d="M114.33 93.3h5.09v5.78h-5.09zm0 48.49h5.09v9.3h-5.09z"/><path class="st1" d="M115.14 99.08h3.47v42.71h-3.47z"/><path class="st4" d="M133.25 93.3h5.09v5.78h-5.09zm0 48.49h5.09v9.3h-5.09z"/><path class="st1" d="M134.07 99.08h3.47v42.71h-3.47z"/><path class="st5" d="M87.22 104.36h2.55v3.5h-2.55zm18.92 0h2.55v3.5h-2.55zm18.93 0h2.55v3.5h-2.55zm-56.77 0h2.55v3.5H68.3z"/><path class="st3" d="M83.29 109.56h10.42v41.52H83.29zm18.92 0h10.42v41.52h-10.42zm18.92 0h10.42v41.52h-10.42zm-56.77 0h10.42v41.52H64.36z"/><path class="st5" d="M107.91 67.75l-6.18 4.03v12.36h12.36V71.78z"/><circle class="st3" cx="107.91" cy="77.15" r="4"/><path class="st2" d="M107.91 72.74v8.81m-4.25-4.4h8.44"/><path class="st5" d="M127.83 67.75l-6.18 4.03v12.36H134V71.78z"/><circle class="st3" cx="127.83" cy="77.15" r="4"/><path class="st2" d="M127.85 72.74v8.81m-4.24-4.4h8.43"/><path class="st5" d="M88 67.75l-6.18 4.03v12.36h12.36V71.78z"/><circle class="st3" cx="88" cy="77.15" r="4"/><path class="st2" d="M88.03 72.74v8.81m-4.25-4.4h8.44"/><path class="st5" d="M68.09 67.75l-6.18 4.03v12.36h12.36V71.78z"/><circle class="st3" cx="68.09" cy="77.15" r="4"/><path class="st2" d="M68.12 72.74v8.81m-4.25-4.4h8.44"/><path class="st4" d="M55.12 90.16h85.68v3.21H55.12z"/><g id="XMLID_1_"><path class="st6" d="M107.46 42.2v3.22H88.45V42.2h2.94c.12.01.24.02.36.02s.24-.01.36-.02h11.69c.12.01.24.02.36.02s.24-.01.36-.02h2.94z"/><path class="st6" d="M103.8 42.2H91.39a3.089 3.089 0 0 1-2.72-3c.07-3.89 6.15-5.36 6.15-7.56 0-.92-.72-1.67-1.63-1.72v-.07h9.3l.02.1c-.81.14-1.42.85-1.42 1.7 0 2.2 6.08 3.68 6.15 7.56a3.08 3.08 0 0 1-2.72 3h-.72z"/><path class="st6" d="M103.8 42.2h.72c-.12.01-.24.02-.36.02s-.24 0-.36-.02z"/><path d="M97.96 22.05c1.93 0 3.49 1.56 3.49 3.49s-1.56 3.49-3.49 3.49c-1.93 0-3.49-1.56-3.49-3.49s1.56-3.49 3.49-3.49z" fill="#d2dbe7"/><path class="st6" d="M91.39 42.2h.72c-.12.01-.24.02-.36.02s-.24 0-.36-.02z"/><path class="st2" d="M101.45 25.55c0 1.93-1.56 3.49-3.49 3.49-1.93 0-3.49-1.56-3.49-3.49s1.56-3.49 3.49-3.49c1.93-.01 3.49 1.56 3.49 3.49zm-8.3 4.29h9.34m2.03 12.36h2.94v3.23H88.45V42.2h15.35zM91.38 31.64c0-.95.77-1.72 1.72-1.72h.09c.91.05 1.63.8 1.63 1.72"/><path class="st2" d="M93.59 36.68c.75.56 1.24 1.46 1.24 2.47a3.066 3.066 0 0 1-3.08 3.07c-.12 0-.24-.01-.36-.02a3.089 3.089 0 0 1-2.72-3v-.06"/><path class="st2" d="M94.83 31.64c0 2.2-6.08 3.68-6.15 7.56v.07m15.85-7.63c0-.95-.77-1.72-1.72-1.72-.1 0-.2.01-.3.03-.81.14-1.42.85-1.42 1.7m1.24 5.03c-.75.56-1.24 1.46-1.24 2.47a3.066 3.066 0 0 0 3.08 3.07c.12 0 .24-.01.36-.02a3.089 3.089 0 0 0 2.72-3v-.06"/><path class="st2" d="M101.09 31.64c0 2.2 6.08 3.68 6.15 7.56v.07"/></g><circle class="st1" cx="97.96" cy="1.5" r=".5"/></svg>