<?xml version="1.0" encoding="utf-8"?><svg xmlns="http://www.w3.org/2000/svg" xmlns:xlink="http://www.w3.org/1999/xlink"><symbol viewBox="0 0 3 13" id="3dots" xmlns="http://www.w3.org/2000/svg"><circle cx="1.5" cy="1.5" r="1.5"/><circle cx="1.5" cy="6.5" r="1.5"/><circle cx="1.5" cy="11.5" r="1.5"/></symbol><symbol fill="none" viewBox="0 0 50 42" id="arr-back" xmlns="http://www.w3.org/2000/svg"><path d="M3 21L22.77 2M3 21l19.77 19M3 21h47"/></symbol><symbol viewBox="0 0 54 54" id="close" xmlns="http://www.w3.org/2000/svg"><path fill-rule="evenodd" clip-rule="evenodd" d="M29.121 27l23.94-23.94L50.94.94 27 24.878 3.06.939.94 3.061 24.878 27 .939 50.94l2.122 2.12L27 29.122l23.939 23.94 2.12-2.122L29.122 27z"/></symbol><symbol viewBox="0 0 22 17" id="grid" xmlns="http://www.w3.org/2000/svg"><path d="M0 0h9.662v7.246H0zm12.077 0h9.662v7.246h-9.662zM0 9.661h9.662v7.246H0zm12.077 0h9.662v7.246h-9.662z"/></symbol><symbol viewBox="0 0 15 22" id="marker" xmlns="http://www.w3.org/2000/svg"><path d="M7.667 0A7.12 7.12 0 0 0 .556 7.111c0 1.177.294 2.344.853 3.38l5.869 10.613a.444.444 0 0 0 .778 0l5.87-10.617a7.124 7.124 0 0 0 .852-3.376c0-3.92-3.19-7.111-7.111-7.111zm0 10.667A3.56 3.56 0 0 1 4.11 7.11a3.56 3.56 0 0 1 3.556-3.555 3.56 3.56 0 0 1 3.555 3.555 3.56 3.56 0 0 1-3.555 3.556z"/></symbol></svg>