<svg width="473" height="375" fill="none" xmlns="http://www.w3.org/2000/svg"><path d="M-5.166 129.526c0 111.119 83.849 144.887 122.332 152.661 25.231 5.097 68.812 8.325 109.844-5.352 41.033-13.677 82.83-38.993 107.551-78.751 24.721-39.758 31.857-68.701 31.857-117.236 0-43.06-34.915-119.783-82.064-134.31-32.605-10.046-79.007-19.624-111.374-12.488-32.367 7.136-81.3 12.488-133.29 90.22C8.6 70.75 8.584 159.345 22.358 219.492c7.645 33.386 6.215 57.853 25.23 111.118 12.842 48.173 105.003 179.931 424.086 132.782" stroke="#005164" stroke-width="2" stroke-linecap="round" stroke-linejoin="round" stroke-dasharray="10 15"/></svg>