<svg width="375" height="667" fill="none" xmlns="http://www.w3.org/2000/svg"><path d="M-90.5 315c0 218 164.5 284.248 240 299.5 49.5 10 135 16.334 215.5-10.499C445.5 577.167 527.5 527.5 576 449.5s62.5-134.782 62.5-230c0-84.48-68.5-235-161-263.5-63.966-19.708-155-38.5-218.5-24.5S99.5-44-2.5 108.5c-60.99 91.187-61.023 265-34 383 15 65.5 12.194 113.5 49.5 218 25.194 94.509 206 353 832 260.5" stroke="#005164" stroke-width="2" stroke-linecap="round" stroke-linejoin="round" stroke-dasharray="10 15"/></svg>