<svg width="1907" height="1080" fill="none" xmlns="http://www.w3.org/2000/svg"><path d="M292.5-74.5c-371 163-317.036 648.499-154 814C301.536 905 560 995 662 1004s306.5-99 306.5-99 119.42-72.666 201.5-93.5c82.08-20.834 186.22 52.266 266 31 55.09-14.685 89.08-22.23 129.5-31 53-11.5 120-112 157.5-157 60.44-72.531 78.5-176.282 78.5-271.5 0-84.48-61-160-132-212-88.5-64.816-214.5-57.5-291.5-24.5S1212.96 247.844 1170 339c-46.77 99.235-42.02 249.5-15 367.5 15 65.5 61.21 168.242 63 240.5 1.89 76.19 66.79 155.73 108.5 219.5 78 119.24 234.22 74.75 383.8 102.58 116 21.58 319.68 25.84 469.58-33.75" stroke="#005164" stroke-width="3" stroke-linecap="round" stroke-linejoin="round" stroke-dasharray="10 15"/></svg>