<svg width="46" height="33" fill="none" xmlns="http://www.w3.org/2000/svg"><path d="M44.85 5.373a5.699 5.699 0 0 0-4.009-4.01C37.281.39 23.044.39 23.044.39s-14.237 0-17.797.937c-1.91.525-3.484 2.098-4.009 4.047-.936 3.559-.936 10.94-.936 10.94s0 7.418.936 10.94a5.7 5.7 0 0 0 4.01 4.01c3.596.973 17.796.973 17.796.973s14.238 0 17.797-.937a5.699 5.699 0 0 0 4.01-4.008c.936-3.56.936-10.94.936-10.94s.037-7.42-.937-10.978z" fill="red"/><path d="M18.51 23.132l11.84-6.82-11.84-6.818v13.638z" fill="#fff"/></svg>