<svg width="29" height="21" fill="none" xmlns="http://www.w3.org/2000/svg"><path d="M14.499 21h-.008c-.875-.006-8.61-.077-10.802-.67a4.487 4.487 0 0 1-3.154-3.16c-.574-2.157-.537-6.31-.533-6.643-.004-.33-.04-4.518.531-6.693l.002-.006C.943 2.31 2.179 1.063 3.685.649l.011-.002C5.863.076 13.614.006 14.491 0h.016c.877.006 8.634.077 10.805.672a4.486 4.486 0 0 1 3.15 3.153c.595 2.177.54 6.374.534 6.728.004.35.039 4.466-.531 6.634l-.002.006a4.487 4.487 0 0 1-3.155 3.159c-.002 0-.004 0-.006.002-2.167.57-9.918.64-10.795.646h-.008zM2.723 4.417c-.504 1.92-.456 6.055-.456 6.097v.03c-.015 1.146.038 4.467.456 6.04.203.753.8 1.35 1.555 1.553 1.618.439 7.918.576 10.22.593 2.31-.017 8.62-.15 10.225-.571a2.213 2.213 0 0 0 1.552-1.553c.418-1.596.47-4.901.455-6.04v-.036c.021-1.16-.02-4.52-.453-6.106l-.001-.004a2.213 2.213 0 0 0-1.556-1.557c-1.602-.439-7.913-.576-10.221-.593-2.307.017-8.611.15-10.221.57a2.275 2.275 0 0 0-1.555 1.577zm24.646 12.48h.001zm-15.758-1.8V5.903l7.93 4.597-7.93 4.597z" fill="url(#paint0_linear)"/><defs><linearGradient id="paint0_linear" x1="0" y1="11.135" x2="29.69" y2="11.135" gradientUnits="userSpaceOnUse"><stop stop-color="#005164"/><stop offset="1" stop-color="#005164" stop-opacity=".55"/><stop offset="1" stop-color="#005164" stop-opacity="0"/></linearGradient></defs></svg>