<svg version="1.1" id="Layer_1" xmlns="http://www.w3.org/2000/svg" x="0" y="0" viewBox="0 0 359.23 170.93" xml:space="preserve"><style>.st283{fill:#354741}.st286,.st287{fill:#a6bbb4;stroke:#354741;stroke-miterlimit:10}.st287{fill:#6a8e82}</style><path fill="#e1e8e6" stroke="#354741" stroke-miterlimit="10" d="M.5 17.53h358.12v152.9H.5z"/><path class="st286" d="M13 29.31h59.35v117.56H13z"/><path class="st287" d="M18.21 35.88h4.08v4.08h-4.08z"/><path class="st287" d="M22.28 35.88h4.08v4.08h-4.08zm4.08 0h4.08v4.08h-4.08zm4.08 0h4.08v4.08h-4.08zm4.08 0h4.08v4.08h-4.08z"/><path class="st287" d="M38.59 35.88h4.08v4.08h-4.08zm4.08 0h4.08v4.08h-4.08zm4.08 0h4.08v4.08h-4.08z"/><path class="st287" d="M50.82 35.88h4.08v4.08h-4.08zm4.08 0h4.08v4.08H54.9zm4.08 0h4.08v4.08h-4.08zm4.08 0h4.08v4.08h-4.08zm-44.85 4.08h4.08v4.08h-4.08z"/><path class="st287" d="M22.28 39.96h4.08v4.08h-4.08zm4.08 0h4.08v4.08h-4.08zm4.08 0h4.08v4.08h-4.08zm4.08 0h4.08v4.08h-4.08z"/><path class="st287" d="M38.59 39.96h4.08v4.08h-4.08zm4.08 0h4.08v4.08h-4.08zm4.08 0h4.08v4.08h-4.08z"/><path class="st287" d="M50.82 39.96h4.08v4.08h-4.08zm4.08 0h4.08v4.08H54.9zm4.08 0h4.08v4.08h-4.08zm4.08 0h4.08v4.08h-4.08zm-44.85 4.08h4.08v4.08h-4.08z"/><path class="st287" d="M22.28 44.04h4.08v4.08h-4.08zm4.08 0h4.08v4.08h-4.08zm4.08 0h4.08v4.08h-4.08zm4.08 0h4.08v4.08h-4.08z"/><path class="st287" d="M38.59 44.04h4.08v4.08h-4.08zm4.08 0h4.08v4.08h-4.08zm4.08 0h4.08v4.08h-4.08z"/><path class="st287" d="M50.82 44.04h4.08v4.08h-4.08zm4.08 0h4.08v4.08H54.9zm4.08 0h4.08v4.08h-4.08zm4.08 0h4.08v4.08h-4.08zm-44.85 4.07h4.08v4.08h-4.08z"/><path class="st287" d="M22.28 48.11h4.08v4.08h-4.08zm4.08 0h4.08v4.08h-4.08zm4.08 0h4.08v4.08h-4.08zm4.08 0h4.08v4.08h-4.08z"/><path class="st287" d="M38.59 48.11h4.08v4.08h-4.08zm4.08 0h4.08v4.08h-4.08zm4.08 0h4.08v4.08h-4.08z"/><path class="st287" d="M50.82 48.11h4.08v4.08h-4.08zm4.08 0h4.08v4.08H54.9zm4.08 0h4.08v4.08h-4.08zm4.08 0h4.08v4.08h-4.08zm-44.85 4.08h4.08v4.08h-4.08z"/><path class="st287" d="M22.28 52.19h4.08v4.08h-4.08zm4.08 0h4.08v4.08h-4.08zm4.08 0h4.08v4.08h-4.08zm4.08 0h4.08v4.08h-4.08z"/><path class="st287" d="M38.59 52.19h4.08v4.08h-4.08zm4.08 0h4.08v4.08h-4.08zm4.08 0h4.08v4.08h-4.08z"/><path class="st287" d="M50.82 52.19h4.08v4.08h-4.08zm4.08 0h4.08v4.08H54.9zm4.08 0h4.08v4.08h-4.08zm4.08 0h4.08v4.08h-4.08zm-44.85 4.08h4.08v4.08h-4.08z"/><path class="st287" d="M22.28 56.27h4.08v4.08h-4.08zm4.08 0h4.08v4.08h-4.08zm4.08 0h4.08v4.08h-4.08zm4.08 0h4.08v4.08h-4.08z"/><path class="st287" d="M38.59 56.27h4.08v4.08h-4.08zm4.08 0h4.08v4.08h-4.08zm4.08 0h4.08v4.08h-4.08z"/><path class="st287" d="M50.82 56.27h4.08v4.08h-4.08zm4.08 0h4.08v4.08H54.9zm4.08 0h4.08v4.08h-4.08zm4.08 0h4.08v4.08h-4.08zm-44.85 4.08h4.08v4.08h-4.08z"/><path class="st287" d="M22.28 60.35h4.08v4.08h-4.08zm4.08 0h4.08v4.08h-4.08zm4.08 0h4.08v4.08h-4.08zm4.08 0h4.08v4.08h-4.08z"/><path class="st287" d="M38.59 60.35h4.08v4.08h-4.08zm4.08 0h4.08v4.08h-4.08zm4.08 0h4.08v4.08h-4.08z"/><path class="st287" d="M50.82 60.35h4.08v4.08h-4.08zm4.08 0h4.08v4.08H54.9zm4.08 0h4.08v4.08h-4.08zm4.08 0h4.08v4.08h-4.08zm-44.85 4.07h4.08v4.08h-4.08z"/><path class="st287" d="M22.28 64.42h4.08v4.08h-4.08zm4.08 0h4.08v4.08h-4.08zm4.08 0h4.08v4.08h-4.08zm4.08 0h4.08v4.08h-4.08z"/><path class="st287" d="M38.59 64.42h4.08v4.08h-4.08zm4.08 0h4.08v4.08h-4.08zm4.08 0h4.08v4.08h-4.08z"/><path class="st287" d="M50.82 64.42h4.08v4.08h-4.08zm4.08 0h4.08v4.08H54.9zm4.08 0h4.08v4.08h-4.08zm4.08 0h4.08v4.08h-4.08zM18.21 68.5h4.08v4.08h-4.08z"/><path class="st287" d="M22.28 68.5h4.08v4.08h-4.08zm4.08 0h4.08v4.08h-4.08zm4.08 0h4.08v4.08h-4.08zm4.08 0h4.08v4.08h-4.08z"/><path class="st287" d="M38.59 68.5h4.08v4.08h-4.08zm4.08 0h4.08v4.08h-4.08zm4.08 0h4.08v4.08h-4.08z"/><path class="st287" d="M50.82 68.5h4.08v4.08h-4.08zm4.08 0h4.08v4.08H54.9zm4.08 0h4.08v4.08h-4.08zm4.08 0h4.08v4.08h-4.08zm-44.85 4.08h4.08v4.08h-4.08z"/><path class="st287" d="M22.28 72.58h4.08v4.08h-4.08zm4.08 0h4.08v4.08h-4.08zm4.08 0h4.08v4.08h-4.08zm4.08 0h4.08v4.08h-4.08z"/><path class="st287" d="M38.59 72.58h4.08v4.08h-4.08zm4.08 0h4.08v4.08h-4.08zm4.08 0h4.08v4.08h-4.08z"/><path class="st287" d="M50.82 72.58h4.08v4.08h-4.08zm4.08 0h4.08v4.08H54.9zm4.08 0h4.08v4.08h-4.08zm4.08 0h4.08v4.08h-4.08zm-44.85 18.8h4.08v4.08h-4.08z"/><path class="st287" d="M22.28 91.38h4.08v4.08h-4.08zm4.08 0h4.08v4.08h-4.08zm4.08 0h4.08v4.08h-4.08zm4.08 0h4.08v4.08h-4.08z"/><path class="st287" d="M38.59 91.38h4.08v4.08h-4.08zm4.08 0h4.08v4.08h-4.08zm4.08 0h4.08v4.08h-4.08z"/><path class="st287" d="M50.82 91.38h4.08v4.08h-4.08zm4.08 0h4.08v4.08H54.9zm4.08 0h4.08v4.08h-4.08zm4.08 0h4.08v4.08h-4.08zm-44.85 4.08h4.08v4.08h-4.08z"/><path class="st287" d="M22.28 95.46h4.08v4.08h-4.08zm4.08 0h4.08v4.08h-4.08zm4.08 0h4.08v4.08h-4.08zm4.08 0h4.08v4.08h-4.08z"/><path class="st287" d="M38.59 95.46h4.08v4.08h-4.08zm4.08 0h4.08v4.08h-4.08zm4.08 0h4.08v4.08h-4.08z"/><path class="st287" d="M50.82 95.46h4.08v4.08h-4.08zm4.08 0h4.08v4.08H54.9zm4.08 0h4.08v4.08h-4.08zm4.08 0h4.08v4.08h-4.08zm-44.85 4.07h4.08v4.08h-4.08z"/><path class="st287" d="M22.28 99.53h4.08v4.08h-4.08zm4.08 0h4.08v4.08h-4.08zm4.08 0h4.08v4.08h-4.08zm4.08 0h4.08v4.08h-4.08z"/><path class="st287" d="M38.59 99.53h4.08v4.08h-4.08zm4.08 0h4.08v4.08h-4.08zm4.08 0h4.08v4.08h-4.08z"/><path class="st287" d="M50.82 99.53h4.08v4.08h-4.08zm4.08 0h4.08v4.08H54.9zm4.08 0h4.08v4.08h-4.08zm4.08 0h4.08v4.08h-4.08zm-44.85 4.08h4.08v4.08h-4.08z"/><path class="st287" d="M22.28 103.61h4.08v4.08h-4.08zm4.08 0h4.08v4.08h-4.08zm4.08 0h4.08v4.08h-4.08zm4.08 0h4.08v4.08h-4.08z"/><path class="st287" d="M38.59 103.61h4.08v4.08h-4.08zm4.08 0h4.08v4.08h-4.08zm4.08 0h4.08v4.08h-4.08z"/><path class="st287" d="M50.82 103.61h4.08v4.08h-4.08zm4.08 0h4.08v4.08H54.9zm4.08 0h4.08v4.08h-4.08zm4.08 0h4.08v4.08h-4.08zm-44.85 4.08h4.08v4.08h-4.08z"/><path class="st287" d="M22.28 107.69h4.08v4.08h-4.08zm4.08 0h4.08v4.08h-4.08zm4.08 0h4.08v4.08h-4.08zm4.08 0h4.08v4.08h-4.08z"/><path class="st287" d="M38.59 107.69h4.08v4.08h-4.08zm4.08 0h4.08v4.08h-4.08zm4.08 0h4.08v4.08h-4.08z"/><path class="st287" d="M50.82 107.69h4.08v4.08h-4.08zm4.08 0h4.08v4.08H54.9zm4.08 0h4.08v4.08h-4.08zm4.08 0h4.08v4.08h-4.08zm-44.85 4.07h4.08v4.08h-4.08z"/><path class="st287" d="M22.28 111.76h4.08v4.08h-4.08zm4.08 0h4.08v4.08h-4.08zm4.08 0h4.08v4.08h-4.08zm4.08 0h4.08v4.08h-4.08z"/><path class="st287" d="M38.59 111.76h4.08v4.08h-4.08zm4.08 0h4.08v4.08h-4.08zm4.08 0h4.08v4.08h-4.08z"/><path class="st287" d="M50.82 111.76h4.08v4.08h-4.08zm4.08 0h4.08v4.08H54.9zm4.08 0h4.08v4.08h-4.08zm4.08 0h4.08v4.08h-4.08zm-44.85 4.08h4.08v4.08h-4.08z"/><path class="st287" d="M22.28 115.84h4.08v4.08h-4.08zm4.08 0h4.08v4.08h-4.08zm4.08 0h4.08v4.08h-4.08zm4.08 0h4.08v4.08h-4.08z"/><path class="st287" d="M38.59 115.84h4.08v4.08h-4.08zm4.08 0h4.08v4.08h-4.08zm4.08 0h4.08v4.08h-4.08z"/><path class="st287" d="M50.82 115.84h4.08v4.08h-4.08zm4.08 0h4.08v4.08H54.9zm4.08 0h4.08v4.08h-4.08zm4.08 0h4.08v4.08h-4.08zm-44.85 4.08h4.08V124h-4.08z"/><path class="st287" d="M22.28 119.92h4.08V124h-4.08zm4.08 0h4.08V124h-4.08zm4.08 0h4.08V124h-4.08zm4.08 0h4.08V124h-4.08z"/><path class="st287" d="M38.59 119.92h4.08V124h-4.08zm4.08 0h4.08V124h-4.08zm4.08 0h4.08V124h-4.08z"/><path class="st287" d="M50.82 119.92h4.08V124h-4.08zm4.08 0h4.08V124H54.9zm4.08 0h4.08V124h-4.08zm4.08 0h4.08V124h-4.08zM18.21 124h4.08v4.08h-4.08z"/><path class="st287" d="M22.28 124h4.08v4.08h-4.08zm4.08 0h4.08v4.08h-4.08zm4.08 0h4.08v4.08h-4.08zm4.08 0h4.08v4.08h-4.08z"/><path class="st287" d="M38.59 124h4.08v4.08h-4.08zm4.08 0h4.08v4.08h-4.08zm4.08 0h4.08v4.08h-4.08z"/><path class="st287" d="M50.82 124h4.08v4.08h-4.08zm4.08 0h4.08v4.08H54.9zm4.08 0h4.08v4.08h-4.08zm4.08 0h4.08v4.08h-4.08zm-44.85 4.07h4.08v4.08h-4.08z"/><path class="st287" d="M22.28 128.07h4.08v4.08h-4.08zm4.08 0h4.08v4.08h-4.08zm4.08 0h4.08v4.08h-4.08zm4.08 0h4.08v4.08h-4.08z"/><path class="st287" d="M38.59 128.07h4.08v4.08h-4.08zm4.08 0h4.08v4.08h-4.08zm4.08 0h4.08v4.08h-4.08z"/><path class="st287" d="M50.82 128.07h4.08v4.08h-4.08zm4.08 0h4.08v4.08H54.9zm4.08 0h4.08v4.08h-4.08zm4.08 0h4.08v4.08h-4.08z"/><path class="st286" d="M81.48 29.31h59.35v117.56H81.48z"/><path class="st287" d="M86.69 35.88h4.08v4.08h-4.08zm4.08 0h4.08v4.08h-4.08z"/><path class="st287" d="M94.84 35.88h4.08v4.08h-4.08zm4.08 0H103v4.08h-4.08zm4.08 0h4.08v4.08H103zm4.08 0h4.08v4.08h-4.08z"/><path class="st287" d="M111.15 35.88h4.08v4.08h-4.08zm4.08 0h4.08v4.08h-4.08zm4.08 0h4.08v4.08h-4.08z"/><path class="st287" d="M123.38 35.88h4.08v4.08h-4.08zm4.08 0h4.08v4.08h-4.08zm4.08 0h4.08v4.08h-4.08zm-44.85 4.08h4.08v4.08h-4.08zm4.08 0h4.08v4.08h-4.08z"/><path class="st287" d="M94.84 39.96h4.08v4.08h-4.08zm4.08 0H103v4.08h-4.08zm4.08 0h4.08v4.08H103zm4.08 0h4.08v4.08h-4.08z"/><path class="st287" d="M111.15 39.96h4.08v4.08h-4.08zm4.08 0h4.08v4.08h-4.08zm4.08 0h4.08v4.08h-4.08z"/><path class="st287" d="M123.38 39.96h4.08v4.08h-4.08zm4.08 0h4.08v4.08h-4.08zm4.08 0h4.08v4.08h-4.08zm-44.85 4.08h4.08v4.08h-4.08zm4.08 0h4.08v4.08h-4.08z"/><path class="st287" d="M94.84 44.04h4.08v4.08h-4.08zm4.08 0H103v4.08h-4.08zm4.08 0h4.08v4.08H103zm4.08 0h4.08v4.08h-4.08z"/><path class="st287" d="M111.15 44.04h4.08v4.08h-4.08zm4.08 0h4.08v4.08h-4.08zm4.08 0h4.08v4.08h-4.08z"/><path class="st287" d="M123.38 44.04h4.08v4.08h-4.08zm4.08 0h4.08v4.08h-4.08zm4.08 0h4.08v4.08h-4.08zm-44.85 4.07h4.08v4.08h-4.08zm4.08 0h4.08v4.08h-4.08z"/><path class="st287" d="M94.84 48.11h4.08v4.08h-4.08zm4.08 0H103v4.08h-4.08zm4.08 0h4.08v4.08H103zm4.08 0h4.08v4.08h-4.08z"/><path class="st287" d="M111.15 48.11h4.08v4.08h-4.08zm4.08 0h4.08v4.08h-4.08zm4.08 0h4.08v4.08h-4.08z"/><path class="st287" d="M123.38 48.11h4.08v4.08h-4.08zm4.08 0h4.08v4.08h-4.08zm4.08 0h4.08v4.08h-4.08zm-44.85 4.08h4.08v4.08h-4.08zm4.08 0h4.08v4.08h-4.08z"/><path class="st287" d="M94.84 52.19h4.08v4.08h-4.08zm4.08 0H103v4.08h-4.08zm4.08 0h4.08v4.08H103zm4.08 0h4.08v4.08h-4.08z"/><path class="st287" d="M111.15 52.19h4.08v4.08h-4.08zm4.08 0h4.08v4.08h-4.08zm4.08 0h4.08v4.08h-4.08z"/><path class="st287" d="M123.38 52.19h4.08v4.08h-4.08zm4.08 0h4.08v4.08h-4.08zm4.08 0h4.08v4.08h-4.08zm-44.85 4.08h4.08v4.08h-4.08zm4.08 0h4.08v4.08h-4.08z"/><path class="st287" d="M94.84 56.27h4.08v4.08h-4.08zm4.08 0H103v4.08h-4.08zm4.08 0h4.08v4.08H103zm4.08 0h4.08v4.08h-4.08z"/><path class="st287" d="M111.15 56.27h4.08v4.08h-4.08zm4.08 0h4.08v4.08h-4.08zm4.08 0h4.08v4.08h-4.08z"/><path class="st287" d="M123.38 56.27h4.08v4.08h-4.08zm4.08 0h4.08v4.08h-4.08zm4.08 0h4.08v4.08h-4.08zm-44.85 4.08h4.08v4.08h-4.08zm4.08 0h4.08v4.08h-4.08z"/><path class="st287" d="M94.84 60.35h4.08v4.08h-4.08zm4.08 0H103v4.08h-4.08zm4.08 0h4.08v4.08H103zm4.08 0h4.08v4.08h-4.08z"/><path class="st287" d="M111.15 60.35h4.08v4.08h-4.08zm4.08 0h4.08v4.08h-4.08zm4.08 0h4.08v4.08h-4.08z"/><path class="st287" d="M123.38 60.35h4.08v4.08h-4.08zm4.08 0h4.08v4.08h-4.08zm4.08 0h4.08v4.08h-4.08zm-44.85 4.07h4.08v4.08h-4.08zm4.08 0h4.08v4.08h-4.08z"/><path class="st287" d="M94.84 64.42h4.08v4.08h-4.08zm4.08 0H103v4.08h-4.08zm4.08 0h4.08v4.08H103zm4.08 0h4.08v4.08h-4.08z"/><path class="st287" d="M111.15 64.42h4.08v4.08h-4.08zm4.08 0h4.08v4.08h-4.08zm4.08 0h4.08v4.08h-4.08z"/><path class="st287" d="M123.38 64.42h4.08v4.08h-4.08zm4.08 0h4.08v4.08h-4.08zm4.08 0h4.08v4.08h-4.08zM86.69 68.5h4.08v4.08h-4.08zm4.08 0h4.08v4.08h-4.08z"/><path class="st287" d="M94.84 68.5h4.08v4.08h-4.08zm4.08 0H103v4.08h-4.08zm4.08 0h4.08v4.08H103zm4.08 0h4.08v4.08h-4.08z"/><path class="st287" d="M111.15 68.5h4.08v4.08h-4.08zm4.08 0h4.08v4.08h-4.08zm4.08 0h4.08v4.08h-4.08z"/><path class="st287" d="M123.38 68.5h4.08v4.08h-4.08zm4.08 0h4.08v4.08h-4.08zm4.08 0h4.08v4.08h-4.08zm-44.85 4.08h4.08v4.08h-4.08zm4.08 0h4.08v4.08h-4.08z"/><path class="st287" d="M94.84 72.58h4.08v4.08h-4.08zm4.08 0H103v4.08h-4.08zm4.08 0h4.08v4.08H103zm4.08 0h4.08v4.08h-4.08z"/><path class="st287" d="M111.15 72.58h4.08v4.08h-4.08zm4.08 0h4.08v4.08h-4.08zm4.08 0h4.08v4.08h-4.08z"/><path class="st287" d="M123.38 72.58h4.08v4.08h-4.08zm4.08 0h4.08v4.08h-4.08zm4.08 0h4.08v4.08h-4.08zm-44.85 18.8h4.08v4.08h-4.08zm4.08 0h4.08v4.08h-4.08z"/><path class="st287" d="M94.84 91.38h4.08v4.08h-4.08zm4.08 0H103v4.08h-4.08zm4.08 0h4.08v4.08H103zm4.08 0h4.08v4.08h-4.08z"/><path class="st287" d="M111.15 91.38h4.08v4.08h-4.08zm4.08 0h4.08v4.08h-4.08zm4.08 0h4.08v4.08h-4.08z"/><path class="st287" d="M123.38 91.38h4.08v4.08h-4.08zm4.08 0h4.08v4.08h-4.08zm4.08 0h4.08v4.08h-4.08zm-44.85 4.08h4.08v4.08h-4.08zm4.08 0h4.08v4.08h-4.08z"/><path class="st287" d="M94.84 95.46h4.08v4.08h-4.08zm4.08 0H103v4.08h-4.08zm4.08 0h4.08v4.08H103zm4.08 0h4.08v4.08h-4.08z"/><path class="st287" d="M111.15 95.46h4.08v4.08h-4.08zm4.08 0h4.08v4.08h-4.08zm4.08 0h4.08v4.08h-4.08z"/><path class="st287" d="M123.38 95.46h4.08v4.08h-4.08zm4.08 0h4.08v4.08h-4.08zm4.08 0h4.08v4.08h-4.08zm-44.85 4.07h4.08v4.08h-4.08zm4.08 0h4.08v4.08h-4.08z"/><path class="st287" d="M94.84 99.53h4.08v4.08h-4.08zm4.08 0H103v4.08h-4.08zm4.08 0h4.08v4.08H103zm4.08 0h4.08v4.08h-4.08z"/><path class="st287" d="M111.15 99.53h4.08v4.08h-4.08zm4.08 0h4.08v4.08h-4.08zm4.08 0h4.08v4.08h-4.08z"/><path class="st287" d="M123.38 99.53h4.08v4.08h-4.08zm4.08 0h4.08v4.08h-4.08zm4.08 0h4.08v4.08h-4.08zm-44.85 4.08h4.08v4.08h-4.08zm4.08 0h4.08v4.08h-4.08z"/><path class="st287" d="M94.84 103.61h4.08v4.08h-4.08zm4.08 0H103v4.08h-4.08zm4.08 0h4.08v4.08H103zm4.08 0h4.08v4.08h-4.08z"/><path class="st287" d="M111.15 103.61h4.08v4.08h-4.08zm4.08 0h4.08v4.08h-4.08zm4.08 0h4.08v4.08h-4.08z"/><path class="st287" d="M123.38 103.61h4.08v4.08h-4.08zm4.08 0h4.08v4.08h-4.08zm4.08 0h4.08v4.08h-4.08zm-44.85 4.08h4.08v4.08h-4.08zm4.08 0h4.08v4.08h-4.08z"/><path class="st287" d="M94.84 107.69h4.08v4.08h-4.08zm4.08 0H103v4.08h-4.08zm4.08 0h4.08v4.08H103zm4.08 0h4.08v4.08h-4.08z"/><path class="st287" d="M111.15 107.69h4.08v4.08h-4.08zm4.08 0h4.08v4.08h-4.08zm4.08 0h4.08v4.08h-4.08z"/><path class="st287" d="M123.38 107.69h4.08v4.08h-4.08zm4.08 0h4.08v4.08h-4.08zm4.08 0h4.08v4.08h-4.08zm-44.85 4.07h4.08v4.08h-4.08zm4.08 0h4.08v4.08h-4.08z"/><path class="st287" d="M94.84 111.76h4.08v4.08h-4.08zm4.08 0H103v4.08h-4.08zm4.08 0h4.08v4.08H103zm4.08 0h4.08v4.08h-4.08z"/><path class="st287" d="M111.15 111.76h4.08v4.08h-4.08zm4.08 0h4.08v4.08h-4.08zm4.08 0h4.08v4.08h-4.08z"/><path class="st287" d="M123.38 111.76h4.08v4.08h-4.08zm4.08 0h4.08v4.08h-4.08zm4.08 0h4.08v4.08h-4.08zm-44.85 4.08h4.08v4.08h-4.08zm4.08 0h4.08v4.08h-4.08z"/><path class="st287" d="M94.84 115.84h4.08v4.08h-4.08zm4.08 0H103v4.08h-4.08zm4.08 0h4.08v4.08H103zm4.08 0h4.08v4.08h-4.08z"/><path class="st287" d="M111.15 115.84h4.08v4.08h-4.08zm4.08 0h4.08v4.08h-4.08zm4.08 0h4.08v4.08h-4.08z"/><path class="st287" d="M123.38 115.84h4.08v4.08h-4.08zm4.08 0h4.08v4.08h-4.08zm4.08 0h4.08v4.08h-4.08zm-44.85 4.08h4.08V124h-4.08zm4.08 0h4.08V124h-4.08z"/><path class="st287" d="M94.84 119.92h4.08V124h-4.08zm4.08 0H103V124h-4.08zm4.08 0h4.08V124H103zm4.08 0h4.08V124h-4.08z"/><path class="st287" d="M111.15 119.92h4.08V124h-4.08zm4.08 0h4.08V124h-4.08zm4.08 0h4.08V124h-4.08z"/><path class="st287" d="M123.38 119.92h4.08V124h-4.08zm4.08 0h4.08V124h-4.08zm4.08 0h4.08V124h-4.08zM86.69 124h4.08v4.08h-4.08zm4.08 0h4.08v4.08h-4.08z"/><path class="st287" d="M94.84 124h4.08v4.08h-4.08zm4.08 0H103v4.08h-4.08zm4.08 0h4.08v4.08H103zm4.08 0h4.08v4.08h-4.08z"/><path class="st287" d="M111.15 124h4.08v4.08h-4.08zm4.08 0h4.08v4.08h-4.08zm4.08 0h4.08v4.08h-4.08z"/><path class="st287" d="M123.38 124h4.08v4.08h-4.08zm4.08 0h4.08v4.08h-4.08zm4.08 0h4.08v4.08h-4.08zm-44.85 4.07h4.08v4.08h-4.08zm4.08 0h4.08v4.08h-4.08z"/><path class="st287" d="M94.84 128.07h4.08v4.08h-4.08zm4.08 0H103v4.08h-4.08zm4.08 0h4.08v4.08H103zm4.08 0h4.08v4.08h-4.08z"/><path class="st287" d="M111.15 128.07h4.08v4.08h-4.08zm4.08 0h4.08v4.08h-4.08zm4.08 0h4.08v4.08h-4.08z"/><path class="st287" d="M123.38 128.07h4.08v4.08h-4.08zm4.08 0h4.08v4.08h-4.08zm4.08 0h4.08v4.08h-4.08z"/><path class="st286" d="M149.96 29.31h59.35v117.56h-59.35z"/><path class="st287" d="M155.17 35.88h4.08v4.08h-4.08zm4.08 0h4.08v4.08h-4.08zm4.08 0h4.08v4.08h-4.08z"/><path class="st287" d="M167.4 35.88h4.08v4.08h-4.08z"/><path class="st287" d="M171.48 35.88h4.08v4.08h-4.08zm4.08 0h4.08v4.08h-4.08z"/><path class="st287" d="M179.64 35.88h4.08v4.08h-4.08z"/><path class="st287" d="M183.71 35.88h4.08v4.08h-4.08z"/><path class="st287" d="M187.79 35.88h4.08v4.08h-4.08zm4.08 0h4.08v4.08h-4.08z"/><path class="st287" d="M195.95 35.88h4.08v4.08h-4.08z"/><path class="st287" d="M200.02 35.88h4.08v4.08h-4.08zm-44.85 4.08h4.08v4.08h-4.08zm4.08 0h4.08v4.08h-4.08zm4.08 0h4.08v4.08h-4.08z"/><path class="st287" d="M167.4 39.96h4.08v4.08h-4.08z"/><path class="st287" d="M171.48 39.96h4.08v4.08h-4.08zm4.08 0h4.08v4.08h-4.08z"/><path class="st287" d="M179.64 39.96h4.08v4.08h-4.08z"/><path class="st287" d="M183.71 39.96h4.08v4.08h-4.08z"/><path class="st287" d="M187.79 39.96h4.08v4.08h-4.08zm4.08 0h4.08v4.08h-4.08z"/><path class="st287" d="M195.95 39.96h4.08v4.08h-4.08z"/><path class="st287" d="M200.02 39.96h4.08v4.08h-4.08zm-44.85 4.08h4.08v4.08h-4.08zm4.08 0h4.08v4.08h-4.08zm4.08 0h4.08v4.08h-4.08z"/><path class="st287" d="M167.4 44.04h4.08v4.08h-4.08z"/><path class="st287" d="M171.48 44.04h4.08v4.08h-4.08zm4.08 0h4.08v4.08h-4.08z"/><path class="st287" d="M179.64 44.04h4.08v4.08h-4.08z"/><path class="st287" d="M183.71 44.04h4.08v4.08h-4.08z"/><path class="st287" d="M187.79 44.04h4.08v4.08h-4.08zm4.08 0h4.08v4.08h-4.08z"/><path class="st287" d="M195.95 44.04h4.08v4.08h-4.08z"/><path class="st287" d="M200.02 44.04h4.08v4.08h-4.08zm-44.85 4.07h4.08v4.08h-4.08zm4.08 0h4.08v4.08h-4.08zm4.08 0h4.08v4.08h-4.08z"/><path class="st287" d="M167.4 48.11h4.08v4.08h-4.08z"/><path class="st287" d="M171.48 48.11h4.08v4.08h-4.08zm4.08 0h4.08v4.08h-4.08z"/><path class="st287" d="M179.64 48.11h4.08v4.08h-4.08z"/><path class="st287" d="M183.71 48.11h4.08v4.08h-4.08z"/><path class="st287" d="M187.79 48.11h4.08v4.08h-4.08zm4.08 0h4.08v4.08h-4.08z"/><path class="st287" d="M195.95 48.11h4.08v4.08h-4.08z"/><path class="st287" d="M200.02 48.11h4.08v4.08h-4.08zm-44.85 4.08h4.08v4.08h-4.08zm4.08 0h4.08v4.08h-4.08zm4.08 0h4.08v4.08h-4.08z"/><path class="st287" d="M167.4 52.19h4.08v4.08h-4.08z"/><path class="st287" d="M171.48 52.19h4.08v4.08h-4.08zm4.08 0h4.08v4.08h-4.08z"/><path class="st287" d="M179.64 52.19h4.08v4.08h-4.08z"/><path class="st287" d="M183.71 52.19h4.08v4.08h-4.08z"/><path class="st287" d="M187.79 52.19h4.08v4.08h-4.08zm4.08 0h4.08v4.08h-4.08z"/><path class="st287" d="M195.95 52.19h4.08v4.08h-4.08z"/><path class="st287" d="M200.02 52.19h4.08v4.08h-4.08zm-44.85 4.08h4.08v4.08h-4.08zm4.08 0h4.08v4.08h-4.08zm4.08 0h4.08v4.08h-4.08z"/><path class="st287" d="M167.4 56.27h4.08v4.08h-4.08z"/><path class="st287" d="M171.48 56.27h4.08v4.08h-4.08zm4.08 0h4.08v4.08h-4.08z"/><path class="st287" d="M179.64 56.27h4.08v4.08h-4.08z"/><path class="st287" d="M183.71 56.27h4.08v4.08h-4.08z"/><path class="st287" d="M187.79 56.27h4.08v4.08h-4.08zm4.08 0h4.08v4.08h-4.08z"/><path class="st287" d="M195.95 56.27h4.08v4.08h-4.08z"/><path class="st287" d="M200.02 56.27h4.08v4.08h-4.08zm-44.85 4.08h4.08v4.08h-4.08zm4.08 0h4.08v4.08h-4.08zm4.08 0h4.08v4.08h-4.08z"/><path class="st287" d="M167.4 60.35h4.08v4.08h-4.08z"/><path class="st287" d="M171.48 60.35h4.08v4.08h-4.08zm4.08 0h4.08v4.08h-4.08z"/><path class="st287" d="M179.64 60.35h4.08v4.08h-4.08z"/><path class="st287" d="M183.71 60.35h4.08v4.08h-4.08z"/><path class="st287" d="M187.79 60.35h4.08v4.08h-4.08zm4.08 0h4.08v4.08h-4.08z"/><path class="st287" d="M195.95 60.35h4.08v4.08h-4.08z"/><path class="st287" d="M200.02 60.35h4.08v4.08h-4.08zm-44.85 4.07h4.08v4.08h-4.08zm4.08 0h4.08v4.08h-4.08zm4.08 0h4.08v4.08h-4.08z"/><path class="st287" d="M167.4 64.42h4.08v4.08h-4.08z"/><path class="st287" d="M171.48 64.42h4.08v4.08h-4.08zm4.08 0h4.08v4.08h-4.08z"/><path class="st287" d="M179.64 64.42h4.08v4.08h-4.08z"/><path class="st287" d="M183.71 64.42h4.08v4.08h-4.08z"/><path class="st287" d="M187.79 64.42h4.08v4.08h-4.08zm4.08 0h4.08v4.08h-4.08z"/><path class="st287" d="M195.95 64.42h4.08v4.08h-4.08z"/><path class="st287" d="M200.02 64.42h4.08v4.08h-4.08zm-44.85 4.08h4.08v4.08h-4.08zm4.08 0h4.08v4.08h-4.08zm4.08 0h4.08v4.08h-4.08z"/><path class="st287" d="M167.4 68.5h4.08v4.08h-4.08z"/><path class="st287" d="M171.48 68.5h4.08v4.08h-4.08zm4.08 0h4.08v4.08h-4.08z"/><path class="st287" d="M179.64 68.5h4.08v4.08h-4.08z"/><path class="st287" d="M183.71 68.5h4.08v4.08h-4.08z"/><path class="st287" d="M187.79 68.5h4.08v4.08h-4.08zm4.08 0h4.08v4.08h-4.08z"/><path class="st287" d="M195.95 68.5h4.08v4.08h-4.08z"/><path class="st287" d="M200.02 68.5h4.08v4.08h-4.08zm-44.85 4.08h4.08v4.08h-4.08zm4.08 0h4.08v4.08h-4.08zm4.08 0h4.08v4.08h-4.08z"/><path class="st287" d="M167.4 72.58h4.08v4.08h-4.08z"/><path class="st287" d="M171.48 72.58h4.08v4.08h-4.08zm4.08 0h4.08v4.08h-4.08z"/><path class="st287" d="M179.64 72.58h4.08v4.08h-4.08z"/><path class="st287" d="M183.71 72.58h4.08v4.08h-4.08z"/><path class="st287" d="M187.79 72.58h4.08v4.08h-4.08zm4.08 0h4.08v4.08h-4.08z"/><path class="st287" d="M195.95 72.58h4.08v4.08h-4.08z"/><path class="st287" d="M200.02 72.58h4.08v4.08h-4.08zm-44.85 18.8h4.08v4.08h-4.08zm4.08 0h4.08v4.08h-4.08zm4.08 0h4.08v4.08h-4.08z"/><path class="st287" d="M167.4 91.38h4.08v4.08h-4.08z"/><path class="st287" d="M171.48 91.38h4.08v4.08h-4.08zm4.08 0h4.08v4.08h-4.08z"/><path class="st287" d="M179.64 91.38h4.08v4.08h-4.08z"/><path class="st287" d="M183.71 91.38h4.08v4.08h-4.08z"/><path class="st287" d="M187.79 91.38h4.08v4.08h-4.08zm4.08 0h4.08v4.08h-4.08z"/><path class="st287" d="M195.95 91.38h4.08v4.08h-4.08z"/><path class="st287" d="M200.02 91.38h4.08v4.08h-4.08zm-44.85 4.08h4.08v4.08h-4.08zm4.08 0h4.08v4.08h-4.08zm4.08 0h4.08v4.08h-4.08z"/><path class="st287" d="M167.4 95.46h4.08v4.08h-4.08z"/><path class="st287" d="M171.48 95.46h4.08v4.08h-4.08zm4.08 0h4.08v4.08h-4.08z"/><path class="st287" d="M179.64 95.46h4.08v4.08h-4.08z"/><path class="st287" d="M183.71 95.46h4.08v4.08h-4.08z"/><path class="st287" d="M187.79 95.46h4.08v4.08h-4.08zm4.08 0h4.08v4.08h-4.08z"/><path class="st287" d="M195.95 95.46h4.08v4.08h-4.08z"/><path class="st287" d="M200.02 95.46h4.08v4.08h-4.08zm-44.85 4.07h4.08v4.08h-4.08zm4.08 0h4.08v4.08h-4.08zm4.08 0h4.08v4.08h-4.08z"/><path class="st287" d="M167.4 99.53h4.08v4.08h-4.08z"/><path class="st287" d="M171.48 99.53h4.08v4.08h-4.08zm4.08 0h4.08v4.08h-4.08z"/><path class="st287" d="M179.64 99.53h4.08v4.08h-4.08z"/><path class="st287" d="M183.71 99.53h4.08v4.08h-4.08z"/><path class="st287" d="M187.79 99.53h4.08v4.08h-4.08zm4.08 0h4.08v4.08h-4.08z"/><path class="st287" d="M195.95 99.53h4.08v4.08h-4.08z"/><path class="st287" d="M200.02 99.53h4.08v4.08h-4.08zm-44.85 4.08h4.08v4.08h-4.08zm4.08 0h4.08v4.08h-4.08zm4.08 0h4.08v4.08h-4.08z"/><path class="st287" d="M167.4 103.61h4.08v4.08h-4.08z"/><path class="st287" d="M171.48 103.61h4.08v4.08h-4.08zm4.08 0h4.08v4.08h-4.08z"/><path class="st287" d="M179.64 103.61h4.08v4.08h-4.08z"/><path class="st287" d="M183.71 103.61h4.08v4.08h-4.08z"/><path class="st287" d="M187.79 103.61h4.08v4.08h-4.08zm4.08 0h4.08v4.08h-4.08z"/><path class="st287" d="M195.95 103.61h4.08v4.08h-4.08z"/><path class="st287" d="M200.02 103.61h4.08v4.08h-4.08zm-44.85 4.08h4.08v4.08h-4.08zm4.08 0h4.08v4.08h-4.08zm4.08 0h4.08v4.08h-4.08z"/><path class="st287" d="M167.4 107.69h4.08v4.08h-4.08z"/><path class="st287" d="M171.48 107.69h4.08v4.08h-4.08zm4.08 0h4.08v4.08h-4.08z"/><path class="st287" d="M179.64 107.69h4.08v4.08h-4.08z"/><path class="st287" d="M183.71 107.69h4.08v4.08h-4.08z"/><path class="st287" d="M187.79 107.69h4.08v4.08h-4.08zm4.08 0h4.08v4.08h-4.08z"/><path class="st287" d="M195.95 107.69h4.08v4.08h-4.08z"/><path class="st287" d="M200.02 107.69h4.08v4.08h-4.08zm-44.85 4.07h4.08v4.08h-4.08zm4.08 0h4.08v4.08h-4.08zm4.08 0h4.08v4.08h-4.08z"/><path class="st287" d="M167.4 111.76h4.08v4.08h-4.08z"/><path class="st287" d="M171.48 111.76h4.08v4.08h-4.08zm4.08 0h4.08v4.08h-4.08z"/><path class="st287" d="M179.64 111.76h4.08v4.08h-4.08z"/><path class="st287" d="M183.71 111.76h4.08v4.08h-4.08z"/><path class="st287" d="M187.79 111.76h4.08v4.08h-4.08zm4.08 0h4.08v4.08h-4.08z"/><path class="st287" d="M195.95 111.76h4.08v4.08h-4.08z"/><path class="st287" d="M200.02 111.76h4.08v4.08h-4.08zm-44.85 4.08h4.08v4.08h-4.08zm4.08 0h4.08v4.08h-4.08zm4.08 0h4.08v4.08h-4.08z"/><path class="st287" d="M167.4 115.84h4.08v4.08h-4.08z"/><path class="st287" d="M171.48 115.84h4.08v4.08h-4.08zm4.08 0h4.08v4.08h-4.08z"/><path class="st287" d="M179.64 115.84h4.08v4.08h-4.08z"/><path class="st287" d="M183.71 115.84h4.08v4.08h-4.08z"/><path class="st287" d="M187.79 115.84h4.08v4.08h-4.08zm4.08 0h4.08v4.08h-4.08z"/><path class="st287" d="M195.95 115.84h4.08v4.08h-4.08z"/><path class="st287" d="M200.02 115.84h4.08v4.08h-4.08zm-44.85 4.08h4.08V124h-4.08zm4.08 0h4.08V124h-4.08zm4.08 0h4.08V124h-4.08z"/><path class="st287" d="M167.4 119.92h4.08V124h-4.08z"/><path class="st287" d="M171.48 119.92h4.08V124h-4.08zm4.08 0h4.08V124h-4.08z"/><path class="st287" d="M179.64 119.92h4.08V124h-4.08z"/><path class="st287" d="M183.71 119.92h4.08V124h-4.08z"/><path class="st287" d="M187.79 119.92h4.08V124h-4.08zm4.08 0h4.08V124h-4.08z"/><path class="st287" d="M195.95 119.92h4.08V124h-4.08z"/><path class="st287" d="M200.02 119.92h4.08V124h-4.08zM155.17 124h4.08v4.08h-4.08zm4.08 0h4.08v4.08h-4.08zm4.08 0h4.08v4.08h-4.08z"/><path class="st287" d="M167.4 124h4.08v4.08h-4.08z"/><path class="st287" d="M171.48 124h4.08v4.08h-4.08zm4.08 0h4.08v4.08h-4.08z"/><path class="st287" d="M179.64 124h4.08v4.08h-4.08z"/><path class="st287" d="M183.71 124h4.08v4.08h-4.08z"/><path class="st287" d="M187.79 124h4.08v4.08h-4.08zm4.08 0h4.08v4.08h-4.08z"/><path class="st287" d="M195.95 124h4.08v4.08h-4.08z"/><path class="st287" d="M200.02 124h4.08v4.08h-4.08zm-44.85 4.07h4.08v4.08h-4.08zm4.08 0h4.08v4.08h-4.08zm4.08 0h4.08v4.08h-4.08z"/><path class="st287" d="M167.4 128.07h4.08v4.08h-4.08z"/><path class="st287" d="M171.48 128.07h4.08v4.08h-4.08zm4.08 0h4.08v4.08h-4.08z"/><path class="st287" d="M179.64 128.07h4.08v4.08h-4.08z"/><path class="st287" d="M183.71 128.07h4.08v4.08h-4.08z"/><path class="st287" d="M187.79 128.07h4.08v4.08h-4.08zm4.08 0h4.08v4.08h-4.08z"/><path class="st287" d="M195.95 128.07h4.08v4.08h-4.08z"/><path class="st287" d="M200.02 128.07h4.08v4.08h-4.08z"/><path class="st286" d="M218.45 29.31h59.35v117.56h-59.35z"/><path class="st287" d="M223.66 35.88h4.08v4.08h-4.08z"/><path class="st287" d="M227.73 35.88h4.08v4.08h-4.08zm4.08 0h4.08v4.08h-4.08z"/><path class="st287" d="M235.89 35.88h4.08v4.08h-4.08z"/><path class="st287" d="M239.96 35.88h4.08v4.08h-4.08z"/><path class="st287" d="M244.04 35.88h4.08v4.08h-4.08zm4.08 0h4.08v4.08h-4.08z"/><path class="st287" d="M252.2 35.88h4.08v4.08h-4.08z"/><path class="st287" d="M256.27 35.88h4.08v4.08h-4.08zm4.08 0h4.08v4.08h-4.08zm4.08 0h4.08v4.08h-4.08zm4.08 0h4.08v4.08h-4.08zm-44.85 4.08h4.08v4.08h-4.08z"/><path class="st287" d="M227.73 39.96h4.08v4.08h-4.08zm4.08 0h4.08v4.08h-4.08z"/><path class="st287" d="M235.89 39.96h4.08v4.08h-4.08z"/><path class="st287" d="M239.96 39.96h4.08v4.08h-4.08z"/><path class="st287" d="M244.04 39.96h4.08v4.08h-4.08zm4.08 0h4.08v4.08h-4.08z"/><path class="st287" d="M252.2 39.96h4.08v4.08h-4.08z"/><path class="st287" d="M256.27 39.96h4.08v4.08h-4.08zm4.08 0h4.08v4.08h-4.08zm4.08 0h4.08v4.08h-4.08zm4.08 0h4.08v4.08h-4.08zm-44.85 4.08h4.08v4.08h-4.08z"/><path class="st287" d="M227.73 44.04h4.08v4.08h-4.08zm4.08 0h4.08v4.08h-4.08z"/><path class="st287" d="M235.89 44.04h4.08v4.08h-4.08z"/><path class="st287" d="M239.96 44.04h4.08v4.08h-4.08z"/><path class="st287" d="M244.04 44.04h4.08v4.08h-4.08zm4.08 0h4.08v4.08h-4.08z"/><path class="st287" d="M252.2 44.04h4.08v4.08h-4.08z"/><path class="st287" d="M256.27 44.04h4.08v4.08h-4.08zm4.08 0h4.08v4.08h-4.08zm4.08 0h4.08v4.08h-4.08zm4.08 0h4.08v4.08h-4.08zm-44.85 4.07h4.08v4.08h-4.08z"/><path class="st287" d="M227.73 48.11h4.08v4.08h-4.08zm4.08 0h4.08v4.08h-4.08z"/><path class="st287" d="M235.89 48.11h4.08v4.08h-4.08z"/><path class="st287" d="M239.96 48.11h4.08v4.08h-4.08z"/><path class="st287" d="M244.04 48.11h4.08v4.08h-4.08zm4.08 0h4.08v4.08h-4.08z"/><path class="st287" d="M252.2 48.11h4.08v4.08h-4.08z"/><path class="st287" d="M256.27 48.11h4.08v4.08h-4.08zm4.08 0h4.08v4.08h-4.08zm4.08 0h4.08v4.08h-4.08zm4.08 0h4.08v4.08h-4.08zm-44.85 4.08h4.08v4.08h-4.08z"/><path class="st287" d="M227.73 52.19h4.08v4.08h-4.08zm4.08 0h4.08v4.08h-4.08z"/><path class="st287" d="M235.89 52.19h4.08v4.08h-4.08z"/><path class="st287" d="M239.96 52.19h4.08v4.08h-4.08z"/><path class="st287" d="M244.04 52.19h4.08v4.08h-4.08zm4.08 0h4.08v4.08h-4.08z"/><path class="st287" d="M252.2 52.19h4.08v4.08h-4.08z"/><path class="st287" d="M256.27 52.19h4.08v4.08h-4.08zm4.08 0h4.08v4.08h-4.08zm4.08 0h4.08v4.08h-4.08zm4.08 0h4.08v4.08h-4.08zm-44.85 4.08h4.08v4.08h-4.08z"/><path class="st287" d="M227.73 56.27h4.08v4.08h-4.08zm4.08 0h4.08v4.08h-4.08z"/><path class="st287" d="M235.89 56.27h4.08v4.08h-4.08z"/><path class="st287" d="M239.96 56.27h4.08v4.08h-4.08z"/><path class="st287" d="M244.04 56.27h4.08v4.08h-4.08zm4.08 0h4.08v4.08h-4.08z"/><path class="st287" d="M252.2 56.27h4.08v4.08h-4.08z"/><path class="st287" d="M256.27 56.27h4.08v4.08h-4.08zm4.08 0h4.08v4.08h-4.08zm4.08 0h4.08v4.08h-4.08zm4.08 0h4.08v4.08h-4.08zm-44.85 4.08h4.08v4.08h-4.08z"/><path class="st287" d="M227.73 60.35h4.08v4.08h-4.08zm4.08 0h4.08v4.08h-4.08z"/><path class="st287" d="M235.89 60.35h4.08v4.08h-4.08z"/><path class="st287" d="M239.96 60.35h4.08v4.08h-4.08z"/><path class="st287" d="M244.04 60.35h4.08v4.08h-4.08zm4.08 0h4.08v4.08h-4.08z"/><path class="st287" d="M252.2 60.35h4.08v4.08h-4.08z"/><path class="st287" d="M256.27 60.35h4.08v4.08h-4.08zm4.08 0h4.08v4.08h-4.08zm4.08 0h4.08v4.08h-4.08zm4.08 0h4.08v4.08h-4.08zm-44.85 4.07h4.08v4.08h-4.08z"/><path class="st287" d="M227.73 64.42h4.08v4.08h-4.08zm4.08 0h4.08v4.08h-4.08z"/><path class="st287" d="M235.89 64.42h4.08v4.08h-4.08z"/><path class="st287" d="M239.96 64.42h4.08v4.08h-4.08z"/><path class="st287" d="M244.04 64.42h4.08v4.08h-4.08zm4.08 0h4.08v4.08h-4.08z"/><path class="st287" d="M252.2 64.42h4.08v4.08h-4.08z"/><path class="st287" d="M256.27 64.42h4.08v4.08h-4.08zm4.08 0h4.08v4.08h-4.08zm4.08 0h4.08v4.08h-4.08zm4.08 0h4.08v4.08h-4.08zm-44.85 4.08h4.08v4.08h-4.08z"/><path class="st287" d="M227.73 68.5h4.08v4.08h-4.08zm4.08 0h4.08v4.08h-4.08z"/><path class="st287" d="M235.89 68.5h4.08v4.08h-4.08z"/><path class="st287" d="M239.96 68.5h4.08v4.08h-4.08z"/><path class="st287" d="M244.04 68.5h4.08v4.08h-4.08zm4.08 0h4.08v4.08h-4.08z"/><path class="st287" d="M252.2 68.5h4.08v4.08h-4.08z"/><path class="st287" d="M256.27 68.5h4.08v4.08h-4.08zm4.08 0h4.08v4.08h-4.08zm4.08 0h4.08v4.08h-4.08zm4.08 0h4.08v4.08h-4.08zm-44.85 4.08h4.08v4.08h-4.08z"/><path class="st287" d="M227.73 72.58h4.08v4.08h-4.08zm4.08 0h4.08v4.08h-4.08z"/><path class="st287" d="M235.89 72.58h4.08v4.08h-4.08z"/><path class="st287" d="M239.96 72.58h4.08v4.08h-4.08z"/><path class="st287" d="M244.04 72.58h4.08v4.08h-4.08zm4.08 0h4.08v4.08h-4.08z"/><path class="st287" d="M252.2 72.58h4.08v4.08h-4.08z"/><path class="st287" d="M256.27 72.58h4.08v4.08h-4.08zm4.08 0h4.08v4.08h-4.08zm4.08 0h4.08v4.08h-4.08zm4.08 0h4.08v4.08h-4.08zm-44.85 18.8h4.08v4.08h-4.08z"/><path class="st287" d="M227.73 91.38h4.08v4.08h-4.08zm4.08 0h4.08v4.08h-4.08z"/><path class="st287" d="M235.89 91.38h4.08v4.08h-4.08z"/><path class="st287" d="M239.96 91.38h4.08v4.08h-4.08z"/><path class="st287" d="M244.04 91.38h4.08v4.08h-4.08zm4.08 0h4.08v4.08h-4.08z"/><path class="st287" d="M252.2 91.38h4.08v4.08h-4.08z"/><path class="st287" d="M256.27 91.38h4.08v4.08h-4.08zm4.08 0h4.08v4.08h-4.08zm4.08 0h4.08v4.08h-4.08zm4.08 0h4.08v4.08h-4.08zm-44.85 4.08h4.08v4.08h-4.08z"/><path class="st287" d="M227.73 95.46h4.08v4.08h-4.08zm4.08 0h4.08v4.08h-4.08z"/><path class="st287" d="M235.89 95.46h4.08v4.08h-4.08z"/><path class="st287" d="M239.96 95.46h4.08v4.08h-4.08z"/><path class="st287" d="M244.04 95.46h4.08v4.08h-4.08zm4.08 0h4.08v4.08h-4.08z"/><path class="st287" d="M252.2 95.46h4.08v4.08h-4.08z"/><path class="st287" d="M256.27 95.46h4.08v4.08h-4.08zm4.08 0h4.08v4.08h-4.08zm4.08 0h4.08v4.08h-4.08zm4.08 0h4.08v4.08h-4.08zm-44.85 4.07h4.08v4.08h-4.08z"/><path class="st287" d="M227.73 99.53h4.08v4.08h-4.08zm4.08 0h4.08v4.08h-4.08z"/><path class="st287" d="M235.89 99.53h4.08v4.08h-4.08z"/><path class="st287" d="M239.96 99.53h4.08v4.08h-4.08z"/><path class="st287" d="M244.04 99.53h4.08v4.08h-4.08zm4.08 0h4.08v4.08h-4.08z"/><path class="st287" d="M252.2 99.53h4.08v4.08h-4.08z"/><path class="st287" d="M256.27 99.53h4.08v4.08h-4.08zm4.08 0h4.08v4.08h-4.08zm4.08 0h4.08v4.08h-4.08zm4.08 0h4.08v4.08h-4.08zm-44.85 4.08h4.08v4.08h-4.08z"/><path class="st287" d="M227.73 103.61h4.08v4.08h-4.08zm4.08 0h4.08v4.08h-4.08z"/><path class="st287" d="M235.89 103.61h4.08v4.08h-4.08z"/><path class="st287" d="M239.96 103.61h4.08v4.08h-4.08z"/><path class="st287" d="M244.04 103.61h4.08v4.08h-4.08zm4.08 0h4.08v4.08h-4.08z"/><path class="st287" d="M252.2 103.61h4.08v4.08h-4.08z"/><path class="st287" d="M256.27 103.61h4.08v4.08h-4.08zm4.08 0h4.08v4.08h-4.08zm4.08 0h4.08v4.08h-4.08zm4.08 0h4.08v4.08h-4.08zm-44.85 4.08h4.08v4.08h-4.08z"/><path class="st287" d="M227.73 107.69h4.08v4.08h-4.08zm4.08 0h4.08v4.08h-4.08z"/><path class="st287" d="M235.89 107.69h4.08v4.08h-4.08z"/><path class="st287" d="M239.96 107.69h4.08v4.08h-4.08z"/><path class="st287" d="M244.04 107.69h4.08v4.08h-4.08zm4.08 0h4.08v4.08h-4.08z"/><path class="st287" d="M252.2 107.69h4.08v4.08h-4.08z"/><path class="st287" d="M256.27 107.69h4.08v4.08h-4.08zm4.08 0h4.08v4.08h-4.08zm4.08 0h4.08v4.08h-4.08zm4.08 0h4.08v4.08h-4.08zm-44.85 4.07h4.08v4.08h-4.08z"/><path class="st287" d="M227.73 111.76h4.08v4.08h-4.08zm4.08 0h4.08v4.08h-4.08z"/><path class="st287" d="M235.89 111.76h4.08v4.08h-4.08z"/><path class="st287" d="M239.96 111.76h4.08v4.08h-4.08z"/><path class="st287" d="M244.04 111.76h4.08v4.08h-4.08zm4.08 0h4.08v4.08h-4.08z"/><path class="st287" d="M252.2 111.76h4.08v4.08h-4.08z"/><path class="st287" d="M256.27 111.76h4.08v4.08h-4.08zm4.08 0h4.08v4.08h-4.08zm4.08 0h4.08v4.08h-4.08zm4.08 0h4.08v4.08h-4.08zm-44.85 4.08h4.08v4.08h-4.08z"/><path class="st287" d="M227.73 115.84h4.08v4.08h-4.08zm4.08 0h4.08v4.08h-4.08z"/><path class="st287" d="M235.89 115.84h4.08v4.08h-4.08z"/><path class="st287" d="M239.96 115.84h4.08v4.08h-4.08z"/><path class="st287" d="M244.04 115.84h4.08v4.08h-4.08zm4.08 0h4.08v4.08h-4.08z"/><path class="st287" d="M252.2 115.84h4.08v4.08h-4.08z"/><path class="st287" d="M256.27 115.84h4.08v4.08h-4.08zm4.08 0h4.08v4.08h-4.08zm4.08 0h4.08v4.08h-4.08zm4.08 0h4.08v4.08h-4.08zm-44.85 4.08h4.08V124h-4.08z"/><path class="st287" d="M227.73 119.92h4.08V124h-4.08zm4.08 0h4.08V124h-4.08z"/><path class="st287" d="M235.89 119.92h4.08V124h-4.08z"/><path class="st287" d="M239.96 119.92h4.08V124h-4.08z"/><path class="st287" d="M244.04 119.92h4.08V124h-4.08zm4.08 0h4.08V124h-4.08z"/><path class="st287" d="M252.2 119.92h4.08V124h-4.08z"/><path class="st287" d="M256.27 119.92h4.08V124h-4.08zm4.08 0h4.08V124h-4.08zm4.08 0h4.08V124h-4.08zm4.08 0h4.08V124h-4.08zM223.66 124h4.08v4.08h-4.08z"/><path class="st287" d="M227.73 124h4.08v4.08h-4.08zm4.08 0h4.08v4.08h-4.08z"/><path class="st287" d="M235.89 124h4.08v4.08h-4.08z"/><path class="st287" d="M239.96 124h4.08v4.08h-4.08z"/><path class="st287" d="M244.04 124h4.08v4.08h-4.08zm4.08 0h4.08v4.08h-4.08z"/><path class="st287" d="M252.2 124h4.08v4.08h-4.08z"/><path class="st287" d="M256.27 124h4.08v4.08h-4.08zm4.08 0h4.08v4.08h-4.08zm4.08 0h4.08v4.08h-4.08zm4.08 0h4.08v4.08h-4.08zm-44.85 4.07h4.08v4.08h-4.08z"/><path class="st287" d="M227.73 128.07h4.08v4.08h-4.08zm4.08 0h4.08v4.08h-4.08z"/><path class="st287" d="M235.89 128.07h4.08v4.08h-4.08z"/><path class="st287" d="M239.96 128.07h4.08v4.08h-4.08z"/><path class="st287" d="M244.04 128.07h4.08v4.08h-4.08zm4.08 0h4.08v4.08h-4.08z"/><path class="st287" d="M252.2 128.07h4.08v4.08h-4.08z"/><path class="st287" d="M256.27 128.07h4.08v4.08h-4.08zm4.08 0h4.08v4.08h-4.08zm4.08 0h4.08v4.08h-4.08zm4.08 0h4.08v4.08h-4.08z"/><path class="st286" d="M286.93 29.31h59.35v117.56h-59.35z"/><path class="st287" d="M292.14 35.88h4.08v4.08h-4.08zm4.08 0h4.08v4.08h-4.08z"/><path class="st287" d="M300.29 35.88h4.08v4.08h-4.08zm4.08 0h4.08v4.08h-4.08zm4.08 0h4.08v4.08h-4.08zm4.08 0h4.08v4.08h-4.08z"/><path class="st287" d="M316.6 35.88h4.08v4.08h-4.08zm4.08 0h4.08v4.08h-4.08zm4.08 0h4.08v4.08h-4.08z"/><path class="st287" d="M328.83 35.88h4.08v4.08h-4.08zm4.08 0h4.08v4.08h-4.08zm4.08 0h4.08v4.08h-4.08zm-44.85 4.08h4.08v4.08h-4.08zm4.08 0h4.08v4.08h-4.08z"/><path class="st287" d="M300.29 39.96h4.08v4.08h-4.08zm4.08 0h4.08v4.08h-4.08zm4.08 0h4.08v4.08h-4.08zm4.08 0h4.08v4.08h-4.08z"/><path class="st287" d="M316.6 39.96h4.08v4.08h-4.08zm4.08 0h4.08v4.08h-4.08zm4.08 0h4.08v4.08h-4.08z"/><path class="st287" d="M328.83 39.96h4.08v4.08h-4.08zm4.08 0h4.08v4.08h-4.08zm4.08 0h4.08v4.08h-4.08zm-44.85 4.08h4.08v4.08h-4.08zm4.08 0h4.08v4.08h-4.08z"/><path class="st287" d="M300.29 44.04h4.08v4.08h-4.08zm4.08 0h4.08v4.08h-4.08zm4.08 0h4.08v4.08h-4.08zm4.08 0h4.08v4.08h-4.08z"/><path class="st287" d="M316.6 44.04h4.08v4.08h-4.08zm4.08 0h4.08v4.08h-4.08zm4.08 0h4.08v4.08h-4.08z"/><path class="st287" d="M328.83 44.04h4.08v4.08h-4.08zm4.08 0h4.08v4.08h-4.08zm4.08 0h4.08v4.08h-4.08zm-44.85 4.07h4.08v4.08h-4.08zm4.08 0h4.08v4.08h-4.08z"/><path class="st287" d="M300.29 48.11h4.08v4.08h-4.08zm4.08 0h4.08v4.08h-4.08zm4.08 0h4.08v4.08h-4.08zm4.08 0h4.08v4.08h-4.08z"/><path class="st287" d="M316.6 48.11h4.08v4.08h-4.08zm4.08 0h4.08v4.08h-4.08zm4.08 0h4.08v4.08h-4.08z"/><path class="st287" d="M328.83 48.11h4.08v4.08h-4.08zm4.08 0h4.08v4.08h-4.08zm4.08 0h4.08v4.08h-4.08zm-44.85 4.08h4.08v4.08h-4.08zm4.08 0h4.08v4.08h-4.08z"/><path class="st287" d="M300.29 52.19h4.08v4.08h-4.08zm4.08 0h4.08v4.08h-4.08zm4.08 0h4.08v4.08h-4.08zm4.08 0h4.08v4.08h-4.08z"/><path class="st287" d="M316.6 52.19h4.08v4.08h-4.08zm4.08 0h4.08v4.08h-4.08zm4.08 0h4.08v4.08h-4.08z"/><path class="st287" d="M328.83 52.19h4.08v4.08h-4.08zm4.08 0h4.08v4.08h-4.08zm4.08 0h4.08v4.08h-4.08zm-44.85 4.08h4.08v4.08h-4.08zm4.08 0h4.08v4.08h-4.08z"/><path class="st287" d="M300.29 56.27h4.08v4.08h-4.08zm4.08 0h4.08v4.08h-4.08zm4.08 0h4.08v4.08h-4.08zm4.08 0h4.08v4.08h-4.08z"/><path class="st287" d="M316.6 56.27h4.08v4.08h-4.08zm4.08 0h4.08v4.08h-4.08zm4.08 0h4.08v4.08h-4.08z"/><path class="st287" d="M328.83 56.27h4.08v4.08h-4.08zm4.08 0h4.08v4.08h-4.08zm4.08 0h4.08v4.08h-4.08zm-44.85 4.08h4.08v4.08h-4.08zm4.08 0h4.08v4.08h-4.08z"/><path class="st287" d="M300.29 60.35h4.08v4.08h-4.08zm4.08 0h4.08v4.08h-4.08zm4.08 0h4.08v4.08h-4.08zm4.08 0h4.08v4.08h-4.08z"/><path class="st287" d="M316.6 60.35h4.08v4.08h-4.08zm4.08 0h4.08v4.08h-4.08zm4.08 0h4.08v4.08h-4.08z"/><path class="st287" d="M328.83 60.35h4.08v4.08h-4.08zm4.08 0h4.08v4.08h-4.08zm4.08 0h4.08v4.08h-4.08zm-44.85 4.07h4.08v4.08h-4.08zm4.08 0h4.08v4.08h-4.08z"/><path class="st287" d="M300.29 64.42h4.08v4.08h-4.08zm4.08 0h4.08v4.08h-4.08zm4.08 0h4.08v4.08h-4.08zm4.08 0h4.08v4.08h-4.08z"/><path class="st287" d="M316.6 64.42h4.08v4.08h-4.08zm4.08 0h4.08v4.08h-4.08zm4.08 0h4.08v4.08h-4.08z"/><path class="st287" d="M328.83 64.42h4.08v4.08h-4.08zm4.08 0h4.08v4.08h-4.08zm4.08 0h4.08v4.08h-4.08zm-44.85 4.08h4.08v4.08h-4.08zm4.08 0h4.08v4.08h-4.08z"/><path class="st287" d="M300.29 68.5h4.08v4.08h-4.08zm4.08 0h4.08v4.08h-4.08zm4.08 0h4.08v4.08h-4.08zm4.08 0h4.08v4.08h-4.08z"/><path class="st287" d="M316.6 68.5h4.08v4.08h-4.08zm4.08 0h4.08v4.08h-4.08zm4.08 0h4.08v4.08h-4.08z"/><path class="st287" d="M328.83 68.5h4.08v4.08h-4.08zm4.08 0h4.08v4.08h-4.08zm4.08 0h4.08v4.08h-4.08zm-44.85 4.08h4.08v4.08h-4.08zm4.08 0h4.08v4.08h-4.08z"/><path class="st287" d="M300.29 72.58h4.08v4.08h-4.08zm4.08 0h4.08v4.08h-4.08zm4.08 0h4.08v4.08h-4.08zm4.08 0h4.08v4.08h-4.08z"/><path class="st287" d="M316.6 72.58h4.08v4.08h-4.08zm4.08 0h4.08v4.08h-4.08zm4.08 0h4.08v4.08h-4.08z"/><path class="st287" d="M328.83 72.58h4.08v4.08h-4.08zm4.08 0h4.08v4.08h-4.08zm4.08 0h4.08v4.08h-4.08zM292.14 91.38h4.08v4.08h-4.08zm4.08 0h4.08v4.08h-4.08z"/><path class="st287" d="M300.29 91.38h4.08v4.08h-4.08zm4.08 0h4.08v4.08h-4.08zm4.08 0h4.08v4.08h-4.08zm4.08 0h4.08v4.08h-4.08z"/><path class="st287" d="M316.6 91.38h4.08v4.08h-4.08zm4.08 0h4.08v4.08h-4.08zm4.08 0h4.08v4.08h-4.08z"/><path class="st287" d="M328.83 91.38h4.08v4.08h-4.08zm4.08 0h4.08v4.08h-4.08zm4.08 0h4.08v4.08h-4.08zm-44.85 4.08h4.08v4.08h-4.08zm4.08 0h4.08v4.08h-4.08z"/><path class="st287" d="M300.29 95.46h4.08v4.08h-4.08zm4.08 0h4.08v4.08h-4.08zm4.08 0h4.08v4.08h-4.08zm4.08 0h4.08v4.08h-4.08z"/><path class="st287" d="M316.6 95.46h4.08v4.08h-4.08zm4.08 0h4.08v4.08h-4.08zm4.08 0h4.08v4.08h-4.08z"/><path class="st287" d="M328.83 95.46h4.08v4.08h-4.08zm4.08 0h4.08v4.08h-4.08zm4.08 0h4.08v4.08h-4.08zm-44.85 4.07h4.08v4.08h-4.08zm4.08 0h4.08v4.08h-4.08z"/><path class="st287" d="M300.29 99.53h4.08v4.08h-4.08zm4.08 0h4.08v4.08h-4.08zm4.08 0h4.08v4.08h-4.08zm4.08 0h4.08v4.08h-4.08z"/><path class="st287" d="M316.6 99.53h4.08v4.08h-4.08zm4.08 0h4.08v4.08h-4.08zm4.08 0h4.08v4.08h-4.08z"/><path class="st287" d="M328.83 99.53h4.08v4.08h-4.08zm4.08 0h4.08v4.08h-4.08zm4.08 0h4.08v4.08h-4.08zm-44.85 4.08h4.08v4.08h-4.08zm4.08 0h4.08v4.08h-4.08z"/><path class="st287" d="M300.29 103.61h4.08v4.08h-4.08zm4.08 0h4.08v4.08h-4.08zm4.08 0h4.08v4.08h-4.08zm4.08 0h4.08v4.08h-4.08z"/><path class="st287" d="M316.6 103.61h4.08v4.08h-4.08zm4.08 0h4.08v4.08h-4.08zm4.08 0h4.08v4.08h-4.08z"/><path class="st287" d="M328.83 103.61h4.08v4.08h-4.08zm4.08 0h4.08v4.08h-4.08zm4.08 0h4.08v4.08h-4.08zm-44.85 4.08h4.08v4.08h-4.08zm4.08 0h4.08v4.08h-4.08z"/><path class="st287" d="M300.29 107.69h4.08v4.08h-4.08zm4.08 0h4.08v4.08h-4.08zm4.08 0h4.08v4.08h-4.08zm4.08 0h4.08v4.08h-4.08z"/><path class="st287" d="M316.6 107.69h4.08v4.08h-4.08zm4.08 0h4.08v4.08h-4.08zm4.08 0h4.08v4.08h-4.08z"/><path class="st287" d="M328.83 107.69h4.08v4.08h-4.08zm4.08 0h4.08v4.08h-4.08zm4.08 0h4.08v4.08h-4.08zm-44.85 4.07h4.08v4.08h-4.08zm4.08 0h4.08v4.08h-4.08z"/><path class="st287" d="M300.29 111.76h4.08v4.08h-4.08zm4.08 0h4.08v4.08h-4.08zm4.08 0h4.08v4.08h-4.08zm4.08 0h4.08v4.08h-4.08z"/><path class="st287" d="M316.6 111.76h4.08v4.08h-4.08zm4.08 0h4.08v4.08h-4.08zm4.08 0h4.08v4.08h-4.08z"/><path class="st287" d="M328.83 111.76h4.08v4.08h-4.08zm4.08 0h4.08v4.08h-4.08zm4.08 0h4.08v4.08h-4.08zm-44.85 4.08h4.08v4.08h-4.08zm4.08 0h4.08v4.08h-4.08z"/><path class="st287" d="M300.29 115.84h4.08v4.08h-4.08zm4.08 0h4.08v4.08h-4.08zm4.08 0h4.08v4.08h-4.08zm4.08 0h4.08v4.08h-4.08z"/><path class="st287" d="M316.6 115.84h4.08v4.08h-4.08zm4.08 0h4.08v4.08h-4.08zm4.08 0h4.08v4.08h-4.08z"/><path class="st287" d="M328.83 115.84h4.08v4.08h-4.08zm4.08 0h4.08v4.08h-4.08zm4.08 0h4.08v4.08h-4.08zm-44.85 4.08h4.08V124h-4.08zm4.08 0h4.08V124h-4.08z"/><path class="st287" d="M300.29 119.92h4.08V124h-4.08zm4.08 0h4.08V124h-4.08zm4.08 0h4.08V124h-4.08zm4.08 0h4.08V124h-4.08z"/><path class="st287" d="M316.6 119.92h4.08V124h-4.08zm4.08 0h4.08V124h-4.08zm4.08 0h4.08V124h-4.08z"/><path class="st287" d="M328.83 119.92h4.08V124h-4.08zm4.08 0h4.08V124h-4.08zm4.08 0h4.08V124h-4.08zM292.14 124h4.08v4.08h-4.08zm4.08 0h4.08v4.08h-4.08z"/><path class="st287" d="M300.29 124h4.08v4.08h-4.08zm4.08 0h4.08v4.08h-4.08zm4.08 0h4.08v4.08h-4.08zm4.08 0h4.08v4.08h-4.08z"/><path class="st287" d="M316.6 124h4.08v4.08h-4.08zm4.08 0h4.08v4.08h-4.08zm4.08 0h4.08v4.08h-4.08z"/><path class="st287" d="M328.83 124h4.08v4.08h-4.08zm4.08 0h4.08v4.08h-4.08zm4.08 0h4.08v4.08h-4.08zm-44.85 4.07h4.08v4.08h-4.08zm4.08 0h4.08v4.08h-4.08z"/><path class="st287" d="M300.29 128.07h4.08v4.08h-4.08zm4.08 0h4.08v4.08h-4.08zm4.08 0h4.08v4.08h-4.08zm4.08 0h4.08v4.08h-4.08z"/><path class="st287" d="M316.6 128.07h4.08v4.08h-4.08zm4.08 0h4.08v4.08h-4.08zm4.08 0h4.08v4.08h-4.08z"/><path class="st287" d="M328.83 128.07h4.08v4.08h-4.08zm4.08 0h4.08v4.08h-4.08zm4.08 0h4.08v4.08h-4.08z"/><path fill="#88a59b" stroke="#354741" stroke-miterlimit="10" d="M.61 146.87h358.12v23.56H.61z"/><g><path class="st283" d="M150.15 6.58c.08-.08.19-.24.24-.23 1.57.49 2.65-.75 3.96-1.14.36-.11.58-.08.78.08.21.17 0 .43-.07.64-.1.32-.67.56-.36.88.26.26.73 0 1.11-.09.77-.18 1.18-.78 1.68-1.28.2-.2.29-.58.69-.26.42.33 0 .51-.13.73-.29.52-.69.98-1.09 1.42-.15.17-.31.42-.18.66.14.26.45.17.65.11 1.22-.33 2.53-.42 3.11-1.92.35-.92 1.91-1.37 2.93-1.11.14.04.34.02.31.22-.18 1.15.6.65 1.03.55 1.21-.3 2.39-.74 3.59-.95.18.2.01.3-.02.43-.04.16-.25.31-.11.48.2.25.38 0 .55-.08 2.63-1.15 3.21-1.23 5.3-.73-1.05 2.01-2.89 2.72-5.23 3.04 1.32.51 2.4.33 3.48.11.94-.19 1.55-.61 1.71-1.7.13-.93 1.59-1.76 2.68-1.75.2 0 .58-.16.59.18.01.28-.09.67-.56.66-1.01-.02-1.51.62-1.84 1.45-.3.75.07 1.25.87 1.21.9-.05 1.65-.75 1.81-1.72.03-.18.06-.36.04-.54-.03-.48.41-.54.66-.56.29-.03.16.32.2.53.12.61.1 1.16-.31 1.67-.22.27-.06.44.2.55.51.22.97.16 1.43-.18.7-.52 1.09-1.25 1.49-1.99.16-.3.25-.87.81-.63.62.27.12.63.01.95-.2.59-.57 1.42-.1 1.74.5.34.85-.54 1.28-.87.59-.46.72-1.37 1.64-1.55.32-.06.53-.04.67.17.19.27-.03.49-.27.53-.46.08-.58.51-.84.77s-.66.59-.42 1c.27.47.86.37 1.23.25.96-.31 2.04-.48 2.44-1.69.29-.88 1.14-1.17 1.96-1.41.29-.09.71-.31.85.09s-.18.62-.61.68c-.43.05-.79.29-1.07.62-.38.44-.71.93-.34 1.53.39.64 1.09.45 1.54.27.73-.29 1.31-.86 1.21-1.79-.17-1.52-.53-2.97-1.63-4.2 2.85-1.41 5.61-1.13 8.36.15.24.11.7.13.38.66-.31.53-.58.13-.81.02-1.81-.91-3.7-1.06-5.67-.71-.58.1-.65.26-.5.83.23.93.72 1.77.93 2.69.11.46.42.33.59.16.33-.34.82-.38 1.14-.7.18-.17.36-.32.6-.06.23.25.1.41-.06.61-.28.35-.35.81-.63 1.17-.27.35-.31.83.07 1.15.38.32.72.03 1.05-.2.7-.49 1.28-1.12 1.72-1.82.28-.44.75-.58 1.03-.97.15-.22.31-.05.45.06.17.13.21.25.05.44-.38.47-.76.95-1.09 1.46-.15.23-.41.52-.21.82.19.29.58.23.84.19 1.29-.2 2.37-.84 3.21-1.8.43-.49.93-.87 1.41-1.29.25-.22.61-.28.83-.09.22.2-.03.49-.16.72-.16.29-.72.53-.37.87.23.22.73 0 1.07-.18.52-.27.94-.68 1.34-1.1.2-.22.33-.41.63-.09.23.24.43.38.08.7-.42.38-.85.76-1.1 1.3-.28.61-.11.91.57.94 1.07.05 2.57-.91 2.99-1.91.5-1.22 2.92-1.94 3.88-1.09.43.38.77.63 1.34.36.16-.08.46-.16.56.08.12.26-.16.3-.33.42-.41.31-.7.69-.88 1.21-.23.65.07.76.58.75.85-.02 1.58-.37 2.22-.88.84-.67 1.66-1.36 2.31-2.24.12-.16.26-.43.58-.24.3.18.43.42.33.75-.12.42-.44.77-.47 1.33 1.24-.49 2.19-1.36 3.28-1.98.41-.23.67-.12.98.07.24.14.27.39.18.63-.06.18-.29.29-.23.59.52-.34 1.03-.62 1.49-.97.31-.24.59-.4.96-.17.38.24.38.56.21.94-.06.13-.06.29-.1.44-.23.91.05 1.23.94 1 1.04-.27 2.07-.78 3.13-.09-1.18.75-2.59.8-3.89 1.16-.51.14-.95-.03-1.03-.68-.05-.41-.14-.82-.22-1.28-.82.26-1.47.74-1.94 1.38-.45.61-.95.94-1.77.72.3-.71.7-1.37.91-2.3-1.06.55-1.96 1.07-2.76 1.74-.51.42-1.02.8-1.69.92-.21.04-.46.13-.6-.04-.17-.2.08-.38.15-.56.09-.24.38-.4.26-.78-.3.1-.56.24-.82.44-1.14.88-2.37 1.41-3.81.68-.34-.18-.58.02-.83.14-.96.47-1.86.5-2.77-.18-.59-.43-1.18-.12-1.76.17-.77.38-1.56.77-2.47.38-.38-.17-.64-.42-.79-.8-.09-.23.22-.73-.28-.66-.52.07-1.17-.3-1.56.37-.18.31-.39.6-.6.9-.24.35-.62.21-.91.16-.44-.07-.06-.43-.11-.71-1.32.73-2.61 1.07-4.03.41-.43-.2-.84.22-1.27.34-1.5.42-1.85.18-1.83-1.35v-.63c-.62.06-.89.5-1.16.86-1.13 1.45-2.35 1.7-3.92.7-.23-.15-.46-.17-.68-.08-.82.35-1.68.48-2.55.42-1-.07-1.99-.59-2.98.05-.1.07-.27-.02-.37-.18-.37-.58-.86-.41-1.34-.19-1 .45-2.1.1-3.04.28-1.35.25-2.45-.76-3.67-.36-1.24.4-2.5.5-3.78.46-.81-.02-1.55-.25-2.1-.92-.41-.51-.66-.03-.78.25-.17.4-.39.53-.81.51-.56-.03-.51-.26-.26-.61.49-.67.82-1.41 1.17-2.25-1.06.16-1.78.38-2.26 1.39-.69 1.48-2.56 1.85-4.02 1.14-.63-.31-1.36-.1-2.02.06-.67.16-1.34.33-2.04.27-.59-.05-1.17-.1-1.13-.92.01-.14-.04-.38-.22-.31-.46.18-1.04 0-1.41.46-.13.16-.29.31-.37.49-.24.59-.67.54-1.19.39-.06-.48.25-.8.51-1.15.26-.35.51-.72.63-1.3-.92.5-2 .39-2.42 1.65-.32.95-2.53 1.26-3.36.53-.52-.45-.96-.41-1.55-.25-.97.26-1.94.65-2.98.22-1.04-.44-1.26-1.32-.5-2.15.4-.44.78-.91 1.16-1.37.04-.05.03-.15.07-.37-1.26.94-2.54 1.62-3.82 2.3-2.51 1.33-5.11 2.33-8.06 1.86-.93-.15-1.65-.67-2.43-1.1-.35-.19-.4-.43-.04-.74.48-.4 1.05-.71 1.61-.74 1-.04 1.96-.29 2.96-.28.35 0 .72-.07.73.51.01.64-.43.44-.74.45-.78.01-1.57-.01-2.35-.04-.37-.02-.72.01-1.01.29.21.57.73.72 1.23.77 1.87.22 3.7.16 5.48-.62 3.11-1.37 5.81-3.43 8.7-5.17.95-.57 1.87-1.19 2.8-1.78.18-.12.31-.47.62-.03.28.39.16.58-.14.79-1.15.82-2.25 1.68-3.24 2.69-.86.88-1.8 1.68-2.48 2.7-.19.29-.6.58-.36 1 .26.47.76.35 1.15.27 1.8-.34 3.46-.98 4.85-2.22.34-.3.7-.57 1.05-.85.21-.17.43-.18.66-.03.25.15.26.39.26.63 0 .36-.26.31-.51.34-.28 0-.61.1-.38.58-.9-.1-1.26.64-1.78 1.13-.23.21-.04.43.09.53.44.31.94.21 1.35-.04.33-.2.43-.57.32-1-.04-.18-.51-.45.02-.62zm59.89 1.73c.52 0 1-.18 1.41-.57.5-.47.82-1.06.46-1.65-.35-.57-1-.34-1.54-.15-.22.08-.47.13-.65.27-.53.43-.71 1.01-.59 1.67.1.51.52.4.91.43zM162.9 6c-1.22-.04-1.96.52-1.99 1.41-.02.65.29.9.93.9 1.01 0 2.09-.8 2.06-1.62-.03-.69-.52-.77-1-.69zm5.81 1.22c1.2-.17 2.46-.13 3.46-.99.22-.19.6-.36.48-.67-.12-.31-.5-.2-.8-.15-1.19.19-2.31.58-3.3 1.28-.17.12-.43.18-.32.44.07.17.31.06.48.09zm-16.7 8.08c.47.02 1.05.26.92-.6-.02-.16-.02-.39.22-.42.2-.03.37-.06.53.18.3.43.66.63.9-.09.17-.53.55-.11.72-.06.61.16.25.76.37 1.15.07.23-.26.29-.48.24-1.55-.35-3.09.07-4.64-.02-.38-.02-.77.13-1.14-.14-.09-.07-.34-.05-.42.03-.5.46-.97.59-1.45-.01-.55.58-1.09-.16-1.69-.01-.76.18-1.59.13-2.38.03-.23-.03-.48-.08-.71-.06-1.13.11-1.13.12-1.12-1.02 0-.18.05-.35.08-.53.07-.01.14-.04.17-.02.79.58.78.57 1.78.28.47-.14.86-.05.78.56-.04.27-.06.52.26.53.33.01.19-.29.24-.47.21-.82.65-.97 1.26-.29.63.7 1.04.84 1.51-.12.12-.24.46-.47.84-.29.32.15.54.33.41.74-.1.32.13.47.39.45.43-.02.16-.27.16-.49 0-.29.1-.58.55-.66.63-.12 1.23.03 1.81.12.53.08.4.6.13.99zm7.96-1.88a.75.75 0 0 1 .9-.77c1.23.24 2.46.01 3.65.14 1.12.12 1.18.15.81 1.16-.1.27.06.37.15.55.39.77.17 1.17-.69 1.19-1.02.03-2.05-.01-3.07.01-.39.01-1.62.21-1.63.02-.05-.75-.08-1.5-.12-2.3zm2.88 1.73c.3 0 .6.03.9 0 .21-.02.54.14.58-.22.04-.4-.31-.49-.61-.48-.68.01-1.37.06-2.05.11-.2.02-.43.06-.39.37.03.27.24.22.4.23.39 0 .78-.01 1.17-.01zm.01-1.8h-1.26c-.15 0-.3.03-.31.23-.02.25.13.3.33.3h2.34c.18 0 .38-.01.37-.27-.01-.24-.21-.26-.39-.26h-1.08zm49.21 2.16c.78-.91.68-1.93 1.11-2.77.17-.32.27-.44.62-.45 1.12-.01 2.23-.06 3.34-.1.31-.01.5.02.49.41-.03.75-.02 1.5-.01 2.25 0 .32-.08.54-.45.48-.26-.04-.7.16-.66-.33.03-.39-.13-.45-.4-.34-.5.21-1.01.09-1.52.14-.22.02-.51-.11-.64.18-.38.84-1.07.45-1.88.53zm3.57-2.34c-.4 0-.64.01-.88 0-.34-.02-.56.02-.57.46-.01.43.18.5.53.48.48-.03.96-.03 1.44-.05.38-.01.39-.28.4-.56.01-.34-.22-.39-.46-.39-.21-.01-.41.05-.46.06zm-10.65 1.35c0-.18-.03-.36.01-.54.07-.35-.15-.95.37-.96.54-.02 1.27-.4 1.62.48.21.55.77.21 1.16.24.57.04 1.29.22 1.2-.84-.04-.44.52-.4.87-.43.46-.05.49.38.47.61-.08.66-.06 1.31-.06 1.97 0 .57-.42.61-.8.63-.44.02-.42-.34-.38-.63.07-.49-.15-.65-.61-.62-.42.03-.84.08-1.26.04-.42-.04-.7.2-.72.51-.06 1.23-.96.7-1.5.68-.79-.02-.17-.71-.36-1.05-.03-.03-.02-.06-.01-.09-.01 0-.01 0 0 0zm-32.65-1.13c-.7.92-1.56 1.24-2.15 1.93-.4.48-1.14.41-1.77.35-.31-.03-.24-.28-.25-.48 0-.57 0-1.14.01-1.7.01-.28-.18-.68.15-.8.31-.11.76-.12 1.03.03.21.12.28.51.11.89-.14.32-.03.75-.03 1.18.72-.08 1.19-.53 1.53-.95.58-.71 1.33-.85 2.12-1.09.83-.25.77.2.76.69-.01.54-.06 1.07-.09 1.61-.01.32.09.71-.46.64-.43-.06-.96.02-.97-.66 0-.46.01-.9.01-1.64z"/><path class="st283" d="M217.42 4.13c2.8-1.81 9.9-1.47 12.1.65-.55.57-1 .63-1.73.11-1.36-.98-3.02-1.11-4.65-1.11-1.37-.01-2.75-.01-4.09.47-.43.15-.99-.06-1.63-.12zM202 13.4c-.84.64-1.68 1.26-2.51 1.9-.44.34-.93.5-1.43.28-.52-.22-.24-.74-.28-1.13-.04-.36.02-.72-.02-1.08-.07-.52-.06-.79.65-.8.8-.01.58.43.59.84.01.41-.18 1 .18 1.16.4.18.73-.36 1.09-.61.79-.56 1.38-1.41 2.58-1.35.47.02.49.15.53.42.13.73-.09 1.46.06 2.22.1.49-.54.25-.85.32-.39.08-.53-.1-.53-.5-.01-.54.16-1.11-.06-1.67zm-11.34.7c0-.33.03-.66-.01-.99-.04-.45.21-.57.58-.61.4-.04.71.11.66.52-.09.76.37.71.87.7.45-.01.9.05 1.35.05.49 0 1 .01.88-.74-.06-.37.16-.6.53-.53.32.05.75.02.72.58-.03.63-.02 1.26.01 1.89.03.48-.1.72-.64.74-.47.01-.64-.15-.63-.61.03-.72-.46-.82-1.03-.77-.36.03-.72.13-1.07.1-.71-.05-1.21.01-1.05.94.08.44-.34.31-.58.33-.3.02-.63.06-.61-.41.03-.41.02-.8.02-1.19zm-4.14-1.47h1.96c.24 0 .4.05.39.35-.01.28-.15.36-.4.36-.79 0-1.57-.01-2.36.01-.2 0-.56-.14-.52.27.04.38.33.07.48.08.72.04 1.45.01 2.17.02.26 0 .58-.11.61.32.03.43-.28.37-.55.37-.69 0-1.39-.01-2.08.02-.25.01-.67-.19-.64.35.03.48.41.34.68.34.69.01 1.39.01 2.08.02.19 0 .47-.08.49.23.03.39-.3.3-.51.3-1.09.01-2.17-.01-3.26.01-.4.01-.65-.09-.59-.55.01-.12 0-.24 0-.36.02-.68-.22-1.57.13-2 .36-.44 1.29-.03 1.92-.14zm-3.87 1.51c0 .3-.03.6 0 .9.05.52-.18.66-.68.67-.51.01-.63-.2-.58-.64.01-.09 0-.18 0-.27 0-1.48-.01-1.44-1.46-1.47-.59-.01-.79.24-.88.73-.06.32-.13.64-.21.95-.14.56-1.21.97-1.67.65-.16-.12-.12-.25-.01-.37.49-.51.57-1.13.64-1.8.06-.51.36-.89 1.01-.86.96.04 1.93.07 2.89-.01.83-.07 1.08.23.95 1-.03.16 0 .34 0 .52zm-25.65.99c.21-.44.72-.39.86-.84.09-.28.5-.11.59-.01.27.34.3.81.2 1.19-.1.41-.46.19-.73.09-.46-.17-.87.07-1.31.15-.26.05-.65.06-.6-.3.04-.33-.26-.8.24-1.01.66-.31.61.26.75.73zm-38.57-4.73c-.29.28-.5.62-.68.99-.31.62-1.24.96-1.84.67-.2-.09-.45-.28-.33-.54.41-.86.05-1.76.25-2.7-.44.13-.53.39-.6.68-.1.45-.39.78-.74 1.07-.31.26-.64.12-.93.05-.38-.09-.17-.4-.19-.65-.04-.88.11-1.78-.19-2.86-.48 1.31-1.35 2.15-1.79 3.26-.36.9-1.22.27-1.94.48.93-1.21.82-2.33-.11-3.39-.72.28-.45 1.15-.93 1.56-.47.4-1.03.18-1.53.15-.34-.02-.24-.34-.2-.63.17-1.43-.11-2.85-.18-4.28-.02-.48.03-.77.49-.61.36.13 1.19-.69 1.1.49-.04.52.08 1.06.13 1.66.71-.28.9-.98 1.17-1.47.53-.96 1.16-.97 2.07-.6-.48.5-.62 1.16-.99 1.73-.46.7.35 1.19.57 1.77.37-.11.41-.38.53-.57.9-1.45 1.51-1.74 3.08-1.33.41.11.36.66.3.96-.1.48-.03.94-.04 1.59.73-.47.83-1.88 1.94-1.35.89.42.41 1.41.62 2.24.5-.6.9-1.16 1.23-1.77.25-.45 1.31-.78 1.59-.4.23.32.14 1.03-.22 1.27-.94.63-.53 1.19-.1 1.83.38.57.6 1.23 1.05 1.77.3.35.24.6-.35.62-.85.02-1.54-.06-1.72-1.09-.06-.21-.21-.49-.52-.6z"/></g><ellipse cx="113.63" cy="8.3" rx="11.66" ry="7.8" fill="none" stroke="#354741" stroke-miterlimit="10"/></svg>