<svg version="1.1" id="Layer_1" xmlns="http://www.w3.org/2000/svg" x="0" y="0" viewBox="0 0 179.79 171.14" xml:space="preserve"><style>.st0{fill:#6a8e82}.st1{fill:#88a59b}.st2{fill:#a6bbb4}.st3{fill:#e1e8e6}.st5{fill:none;stroke:#354741;stroke-miterlimit:10}</style><g id="XMLID_2_"><path class="st2" d="M141.72.64l37.32 49.02-2.29 1.29-37.04-44.67zm35.03 50.31l-2.18 1.22-.02-.04-36.43-41.37 1.59-4.48z"/><path class="st3" d="M174.55 52.13l.02.04-.13.07v37.44l-36.32-25.33V10.76l36.43 41.37zM151.7 68.32V56.36l-5.22-5.13V64l5.22 4.32zm-.31-22.71V33.69l-5.17-6.3v12.82l5.17 5.4zm23.05 99.22v21.64l-36.26 4.15-.05-.44v-30.4l36.31 5.05zm-21.48 14.34v-12.14l-5.4-.45v12.59h5.4z"/><path class="st2" d="M174.44 141.41v3.42l-36.32-5.05v-5.11z"/><path class="st3" d="M174.44 91.93v49.47l-36.32-6.73V68.05l36.32 23.88zm-21.79 43.63v-12.1l-5.35-1.62v12.64l5.35 1.08zm-.32-21.81v-12.5l-5.31-2.34v12.68l5.31 2.16zm-.31-21.59V79.7l-5.26-3.51v12.73l5.26 3.24z"/><path class="st2" d="M174.44 89.69v2.24l-36.32-23.88v-3.69z"/><path class="st0" d="M152.96 147.03v12.14h-5.4v-12.59zm-.31-23.57v12.1l-5.36-1.08v-12.64zm-.32-22.22v12.51l-5.31-2.16V98.91zm-.31-21.54v12.46l-5.27-3.24V76.19zm-.32-23.34v11.96l-5.22-4.31V51.23zm-.31-22.67v11.92l-5.18-5.4V27.4z"/><path class="st1" d="M93.15 25.93L141.72.64l-2.01 5.64-.02-.02L.5 76.19v-2.02l2.15-1.12 1.26-.66 5.61-2.92 1.36-.7 6.72-3.51 18.56-9.66 3.92-2.04 3.99-2.07 24.56-12.8 2.48-1.29 8.54-4.45 2.75-1.42 2.65-1.39z"/><path class="st1" d="M139.71 6.28l-1.59 4.48L.5 78.68v-2.49L139.69 6.26z"/><path class="st2" d="M138.12 170.19l.05.44-.05.01L.5 157.37v-9.65l137.62-7.94v30.41zm-13.49-10.12v-13.49h-6.52v13.49h6.52zm-21.15-.79V147.1h-5.77v12.18h5.77zm-14.11-.54v-11.31h-5.26v11.31h5.26zm-14.1-.52v-10.44h-4.76v10.44h4.76zm-14.1-.53v-9.56h-4.26v9.56h4.26zM50 157.16v-8.69h-3.76v8.69H50zm-9.98-.27v-8.25h-3.51v8.25h3.51zm-10.29-.52v-7.38h-6.81v7.38h6.81zm-10.86-.27v-6.94h-2.75v6.94h2.75zm-7.05-.27v-6.51h-2.5v6.51h2.5zm-7.05-.26v-6.07H2.52v6.07h2.25z"/><path class="st1" d="M138.12 134.67v5.11L.5 147.72v-2.95z"/><path class="st2" d="M138.12 68.05v66.62L.5 144.77v-35.04l137.62-41.68zm-12.82 65.52v-12.63l-7.2.9v12.14l7.2-.41zm-21.23 1.55v-11.68l-6.36.78v11.27l6.36-.37zm0-21.22v-11.71l-6.36 1.37v11.27l6.36-.93zm0-20.85V81.34l-6.36 1.97v11.27l6.36-1.53zm-14.15 43.09v-11.03l-5.81.7v10.69l5.81-.36zm0-19.92v-11.1l-5.81 1.24v10.69l5.81-.83zm0-19.6v-11.1l-5.81 1.79V98l5.81-1.38zm-14.16 40.55v-10.39l-5.25.62v10.11l5.25-.34zm0-18.62v-10.49l-5.25 1.11v10.11l5.25-.73zm0-18.37V89.7l-5.25 1.6v10.11l5.25-1.23zM61.61 138.2v-9.75l-4.7.54v9.52l4.7-.31zm0-17.33V111l-4.7.98v9.53l4.7-.64zm0-17.12v-9.87l-4.7 1.42v9.52l4.7-1.07zm-11.23 35.02v-9.11l-4.14.46v8.94l4.14-.29zm0-16.25v-9.26l-4.14.85v8.94l4.14-.53zm0-16.1v-9.26l-4.14 1.23v8.94l4.14-.91zm-10 33.32v-8.79l-3.86.42v8.65l3.86-.28zm0-15.39v-8.95l-3.86.78v8.65l3.86-.48zm0-15.25v-8.95l-3.86 1.14v8.65l3.86-.84zm-10.42 16.68v-8.34l-7.04 1.55v8.07l7.04-1.28zm-.23 14.53v-8.16l-6.81.79v8.07l6.81-.7zm0-28.32v-8.34l-6.81 1.63v8.07l6.81-1.36zm-10.58 29.29v-7.83l-3.03.3v7.78l3.03-.25zm0-13.44v-8.03l-3.03.58v7.78l3.03-.33zm0-13.39v-8.03l-3.03.86v7.78l3.03-.61zm-7.08 27.34v-7.52l-2.75.27v7.49l2.75-.24zm0-12.79v-7.73l-2.75.51v7.49l2.75-.27zm0-12.76v-7.73l-2.75.77v7.49l2.75-.53zM5 142.3v-7.2l-2.47.22v7.2L5 142.3zm0-12.14v-7.42l-2.47.45v7.2l2.47-.23zm0-12.14v-7.42l-2.47.67v7.2l2.47-.45z"/><path class="st1" d="M138.12 64.36v3.69L.5 109.73v-1.92z"/><path class="st2" d="M19.95 84.56l3.04 1.3 7.06-2.43-.09-.27V67.87l-3.37-.45-.22.11-6.3 3.04v13.71l-.12.28zm21.57-6.3l-.09-.27V62.7l-3.37-.45-.22.11-6.3 3.04v13.71l-.12.27 3.04 1.3 7.06-2.42zm96.6-67.5v53.61L.5 107.81V78.68l137.62-67.92zM125.3 62.51v-13.3l-7.2 2.92v12.59l7.2-2.21zm-.48-23.35V25.49l-6.69 3.34V41.9l6.69-2.74zm-19.93 7.99V34.03l-6.41 3.21v12.53l6.41-2.62zm-.82 22.46V57.3l-6.36 2.57v11.72l6.36-1.98zm-14.15 4.73V62.7l-5.81 2.33v11.14l5.81-1.83zm-.77-20.48V41.68l-5.96 2.98V56.3l5.96-2.44zM75.76 79.07V68.1l-5.25 2.09v10.56l5.25-1.68zm-.55-19.14V47.75l-5.96 2.98v11.64l5.96-2.44zM61.89 64.5V54.38l-4.95 2.47v9.67l4.95-2.02zm-.28 19.31V73.5l-4.7 1.85v9.98l4.7-1.52zM51.54 69.45V59.33L46.6 61.8v9.67l4.94-2.02zm-1.16 17.96v-9.64l-4.14 1.61v9.39l4.14-1.36zm-10 3.49v-9.31l-3.86 1.49v9.1l3.86-1.28zm-10.65 3.38v-8.64l-6.81 2.61v8.52l6.81-2.49zM19.15 98v-8.31l-3.03 1.14v8.23L19.15 98zm-.66-15.29v-7.87l-3.37 1.57v7.87l3.37-1.57zm-6.42 17.65v-7.98L9.32 93.4v7.94l2.75-.98zm-.55-14.27v-8.1L8.6 79.57v7.65l2.92-1.13zM5 102.73v-7.65l-2.47.9v7.65l2.47-.9zm0-13.94v-7.65l-2.47 1.12v7.65L5 88.79z"/><path class="st0" d="M125.3 120.94v12.63l-7.19.41v-12.14zm0-71.73v13.3l-7.19 2.22v-12.6zm-.48-23.72v13.67l-6.69 2.74V28.83zm-6.71 121.09h6.52v13.49h-6.52zM104.89 34.03v13.12l-6.41 2.62V37.24zm-.82 89.41v11.68l-6.36.37v-11.27zm0-21.25v11.71l-6.36.93v-11.27zm0-20.85v11.71l-6.36 1.53V83.31zm0-24.04v12.31l-6.36 1.98V59.87zm-6.36 89.79h5.77v12.18h-5.77z"/><path class="st2" d="M93.15 23.8v2.13l-8.1 4.21V17.5z"/><path class="st0" d="M89.92 125.11v11.03l-5.81.36v-10.69zm0-19.99v11.1l-5.81.83v-10.69zm0-19.6v11.1l-5.81 1.37V87.3zm0-22.82v11.64l-5.81 1.83V65.03zm-5.81 84.74h5.26v11.31h-5.26zm5.04-105.76v12.18l-5.95 2.43V44.65z"/><path class="st1" d="M85.05 30.14l-2.65 1.39-.05-.09V19.08l2.7-1.58z"/><path class="st2" d="M79.65 31v1.95l-8.54 4.45V26.05z"/><path class="st0" d="M75.76 126.78v10.39l-5.25.33v-10.1zm0-18.72v10.49l-5.25.73v-10.11zm0-18.36v10.48l-5.25 1.22V91.3zm0-21.6v10.97l-5.25 1.67V70.19zm-5.25 79.68h4.76v10.44h-4.76zm4.7-100.03v12.18l-5.96 2.43V50.73z"/><path class="st1" d="M71.11 26.05V37.4l-2.48 1.29V27.62z"/><path class="st0" d="M61.89 54.38V64.5l-4.95 2.02v-9.67zm-.28 74.06v9.76l-4.7.31v-9.53zm0-17.45v9.88l-4.7.63v-9.53zm0-17.11v9.87l-4.7 1.07v-9.53zm0-20.38v10.31l-4.7 1.51v-9.97zm-4.7 74.62h4.26v9.56h-4.26zm-5.37-88.79v10.12l-4.94 2.02V61.8zm-1.16 70.33v9.11l-4.14.29v-8.94zm0-16.4v9.26l-4.14.52v-8.94zm0-16.1v9.26l-4.14.91v-8.94zm0-19.39v9.64l-4.14 1.36v-9.39zm-4.14 70.7H50v8.69h-3.76z"/><path class="st2" d="M44.07 51.48v.01l-3.99 2.07v-2.55z"/><path class="st1" d="M41.43 77.99l.09.27-7.06 2.43-3.05-1.3.12-.27 6.07-2.25.21.06zm0-5.97v5.97l-3.62-1.06.02-.06v-6.19z"/><path class="st0" d="M41.43 62.7v9.32l-3.6-1.34v-8.32l.22-.11zm-1.05 68.24v8.8l-3.86.28v-8.66zm0-15.54v8.95l-3.86.48v-8.65zm0-15.25v8.95l-3.86.84v-8.65zm0-18.56v9.31l-3.86 1.28v-9.1z"/><path class="st1" d="M40.08 51.01v2.55l-3.92 2.04v-2.57z"/><path class="st0" d="M36.52 148.64h3.51v8.25h-3.51z"/><path class="st1" d="M37.83 70.68v6.19l-.02.06-.21-.06-6.07 2.25v-5.76z"/><path class="st0" d="M37.83 62.36v8.32l-6.3 2.68V65.4z"/><path class="st1" d="M29.96 83.16l.09.27-7.06 2.43-3.04-1.3.11-.27 6.07-2.25.21.06z"/><path class="st0" d="M29.96 117.44v8.34l-7.04 1.27v-8.07z"/><path class="st1" d="M29.96 77.19v5.97l-3.62-1.06.02-.06v-6.18z"/><path class="st0" d="M29.96 67.87v9.32l-3.6-1.33v-8.33l.22-.11zm-7.04 81.11h6.81v7.38h-6.81zm6.81-16.82v8.15l-6.81.71v-8.07zm0-28.51v8.34l-6.81 1.36v-8.07zm0-18.01v8.64l-6.81 2.48v-8.52z"/><path class="st1" d="M26.36 75.86v6.18l-.02.06-.21-.06-6.07 2.25v-5.76z"/><path class="st0" d="M26.36 67.53v8.33l-6.3 2.67v-7.96zm-7.21 65.91v7.84l-3.03.24v-7.77zm0-13.64v8.04l-3.03.32v-7.77zm0-13.38v8.03l-3.03.61v-7.78zm0-16.73V98l-3.03 1.05v-8.23zm-3.03 59.47h2.75v6.94h-2.75zm2.37-74.32v7.87l-3.37 1.58v-7.87z"/><path class="st2" d="M17.6 65.26l-6.72 3.51-.04-.07v-8.83l6.75 2.83v2.55z"/><path class="st0" d="M12.07 134.27v7.52l-2.75.24v-7.49zm0-13V129l-2.75.28v-7.49zm0-12.76v7.73l-2.75.52v-7.49zm0-16.13v7.98l-2.75.98V93.4zm-2.75 56.95h2.5v6.51h-2.5zm2.2-71.34v8.1L8.6 87.21v-7.64z"/><path class="st1" d="M10.84 68.7l.04.07-1.36.7-.03-.04v-8.98l1.13-.67.22.09z"/><path class="st2" d="M9.49 69.43l.03.04-5.61 2.92-.04-.07V63.7l5.62 2.37z"/><path class="st0" d="M5 135.11v7.19l-2.48.23v-7.2zm0-12.37v7.42l-2.48.23v-7.2zm0-12.14v7.42l-2.48.45v-7.2zm0-15.52v7.65l-2.48.9v-7.65zm0-13.94v7.65l-2.48 1.12v-7.65zM2.52 149.5h2.25v6.07H2.52z"/><path class="st1" d="M3.87 72.32l.04.07-1.26.66-.13-.23v-8.54l1.13-.68.22.1z"/><path class="st5" d="M138.12 170.19V10.76l1.59-4.48 2.01-5.64"/><path class="st5" d="M.5 147.72v9.65l137.62 13.27.05-.01 36.27-4.15V52.25l.13-.08 2.18-1.22 2.29-1.29L141.72.64 93.15 25.93l-8.1 4.21-2.65 1.39-2.75 1.42-8.54 4.45-2.48 1.29-24.56 12.8-3.99 2.07-3.92 2.04-18.56 9.66-6.72 3.51-1.36.7-5.61 2.92-1.26.66L.5 74.17v70.6z"/><path class="st5" d="M.5 78.68l137.62-67.92 36.43 41.37"/><path class="st5" d="M.5 76.19L139.69 6.26l.02.02 37.04 44.67.05.06M.5 107.81l137.62-43.45 36.32 25.33"/><path class="st5" d="M.5 109.73l137.62-41.68 36.32 23.88M.5 144.77l137.62-10.1 36.32 6.74"/><path class="st5" d="M.5 147.72l137.62-7.94 36.32 5.05M2.52 82.26v7.65L5 88.79v-7.65zm0 13.72v7.65l2.48-.9v-7.65zm9.55-3.6L9.32 93.4v7.94l2.75-.98zm7.08-2.69l-3.03 1.13v8.23L19.15 98zm10.58-4.05l-6.81 2.6v8.52l6.81-2.48zm10.65-4.05l-3.86 1.49v9.1l3.86-1.28zm10-3.82l-4.14 1.61v9.39l4.14-1.36zm11.23-4.27l-4.7 1.85v9.97l4.7-1.51zm14.15-5.4l-5.25 2.09v10.55l5.25-1.67zm14.16-5.4l-5.81 2.33v11.14l5.81-1.83zm14.15-5.4l-6.36 2.57v11.72l6.36-1.98zm14.04-5.17v12.6l7.19-2.22v-13.3zM2.52 111.27v7.2l2.48-.45v-7.42zm9.55-2.76l-2.75.76v7.49l2.75-.52zm7.08-2.09l-3.03.86v7.78l3.03-.61zm10.58-2.77l-6.81 1.63v8.07l6.81-1.36zm10.65-3.5l-3.86 1.14v8.65l3.86-.84zm10-2.99l-4.14 1.23v8.94l4.14-.91zm11.23-3.28l-4.7 1.41v9.53l4.7-1.07zm14.15-4.18l-5.25 1.6v10.1l5.25-1.22zm14.16-4.18l-5.81 1.78v10.69l5.81-1.37zm14.15-4.18l-6.36 1.97v11.27l6.36-1.53zM2.52 123.19v7.2l2.48-.23v-7.42zm9.55-1.92l-2.75.52v7.49l2.75-.28zm7.08-1.47l-3.03.59v7.77l3.03-.32zm10.81-2.36l-7.04 1.54v8.07l7.04-1.27zm10.42-2.04l-3.86.78v8.65l3.86-.48zm10-2.14l-4.14.84v8.94l4.14-.52zm11.23-2.27l-4.7.98v9.53l4.7-.63zm14.15-2.93l-5.25 1.11v10.11l5.25-.73zm14.16-2.94l-5.81 1.24v10.69l5.81-.83zm14.15-2.93l-6.36 1.37v11.27l6.36-.93zM2.52 135.33v7.2L5 142.3v-7.19zm9.55-1.06l-2.75.27v7.49l2.75-.24zm7.08-.83l-3.03.31v7.77l3.03-.24zm10.58-1.28l-6.81.79v8.07l6.81-.71zm10.65-1.22l-3.86.42v8.66l3.86-.28zm10-1.28l-4.14.46v8.94l4.14-.29zm11.23-1.22l-4.7.54v9.53l4.7-.31zm14.15-1.66l-5.25.62v10.1l5.25-.33zm14.16-1.67l-5.81.7v10.69l5.81-.36zm14.15-1.67l-6.36.78v11.27l6.36-.37zm14.04-1.6v12.14l7.19-.41v-12.63zM2.52 149.5h2.25v6.07H2.52zm6.8-.17h2.5v6.51h-2.5zm6.8-.17h2.75v6.94h-2.75zm6.8-.18h6.81v7.38h-6.81zm13.6-.34h3.51v8.25h-3.51zm9.72-.17H50v8.69h-3.76zm10.67-.35h4.26v9.56h-4.26zm13.6-.34h4.76v10.44h-4.76zm13.6-.34h5.26v11.31h-5.26zm13.6-.35h5.77v12.18h-5.77zm20.4-.51h6.52v13.49h-6.52zM8.6 79.57v7.64l2.92-1.12v-8.1zm6.52-3.15v7.87l3.37-1.58v-7.87zm14.84 6.74l-3.62-1.06-.21-.06-6.07 2.25V70.57l6.3-3.04.22-.11 3.38.45v9.32zm-3.6-15.74v14.62"/><path class="st5" d="M20.06 78.53l6.3-2.67 3.6 1.33m-10.12 7.32l.11.05 3.04 1.3 7.06-2.43.13-.04m11.25-5.4l-3.62-1.06-.21-.06-6.07 2.25V65.4l6.3-3.04.22-.11 3.38.45v9.32zm-3.6-15.74v14.62"/><path class="st5" d="M31.53 73.36l6.3-2.68 3.6 1.34m-10.12 7.32l.1.05 3.05 1.3 7.06-2.43.13-.04M46.6 61.8v9.67l4.94-2.02V59.33zm10.34-4.95v9.67l4.95-2.02V54.38zm12.31-6.12v11.63l5.96-2.43V47.75zm13.95-6.08v11.64l5.95-2.43V41.68zm15.28-7.41v12.53l6.41-2.62V34.03zm19.65-8.41V41.9l6.69-2.74V25.49zm28.08-1.43v12.81l5.18 5.4V33.69zm.27 23.83v12.78l5.22 4.31V56.36zm.27 24.96v12.73l5.27 3.24V79.7zm.27 22.72v12.68l5.31 2.16v-12.51zm.27 22.93v12.64l5.36 1.08v-12.1zm.27 24.74v12.59h5.4v-12.14zM2.52 72.82v-8.54l1.13-.68.22.1 5.62 2.37"/><path class="st5" d="M17.59 65.25V62.7l-6.75-2.83-.22-.09-1.13.67v8.98M3.87 63.6v8.72m6.97-12.54v8.92m25.32-13.1v-2.57l3.92-2.02 3.99.47m-3.99-.47v2.7m39.57-20.65V31l-8.54-4.95-2.48 1.57v11.07m2.48-12.64V37.4m22.04-11.35V23.8l-8.1-6.3-2.7 1.58v12.36m2.7-13.94v12.64"/></g></svg>