<svg version="1.1" id="Layer_1" xmlns="http://www.w3.org/2000/svg" x="0" y="0" viewBox="0 0 374.61 171" xml:space="preserve"><style>.st2{fill:#f2eadb}.st3{fill:#deb79f}.st4{fill:#ce6b66}.st5{fill:#d68e7e}.st8{fill:none;stroke:#93464d;stroke-miterlimit:10}</style><path fill="#ce6b66" stroke="#93464d" stroke-miterlimit="10" d="M.5 139.45h275.28v31.05H.5z"/><g id="XMLID_2_"><path class="st3" d="M279.21 72.92c-.51-.23-.98-.54-1.39-.92-.73-.68-1.45-1.54-1.38-2.23v-.01c.72-3.96 2.07-9.83 4.23-13.36.5-.81 1.04-1.5 1.62-2.01.36-.32.74-.57 1.13-.74 5.53-2.37 12.11-4.21 14.47-5.53 2.37-1.32 3.16-2.63 5.53-2.37.51.06 2.72-1 5.88-2.72 0 0 6.49 3.25 6.49 12.72 0 7.44-1.32 13.16-15.26 16.05-10.21 2.12-16.89 1.84-19.74 1.54-.56-.05-1.09-.19-1.58-.42z"/><path class="st4" d="M229.73 138.39s-1.32 3.16-4.21 2.37c-3.29-.9-6.61-.51-8.22-.21-.7.13-1.42.02-2.05-.3-1.5-.78-4.12-2.3-4.48-3.64l10.8-7.43s.1-.02.28-.05c1.07.83 4.95 3.81 6.3 4.26 1.58.53 8.68-.26 8.95 0 .18.18 1.76 2.52 2.71 3.93a.685.685 0 0 1-.57 1.07h-9.51z"/><path class="st2" d="M234.85 63.92c1.11-1.34 1.94-2.71 2.51-4.22.79-2.11 13.42-10.53 15-12.37 1.58-1.84 2.63-7.63 6.32-9.47 3.64-1.82 11.34-2.82 11.53-2.84 7.42-2.84 21.37-6.63 21.37-6.63s5.53-3.68 7.37-4.74 6.32-1.58 6.32-1.58l35-13.69s8.42 0 10.79-.26c2.37-.26 2.63-.79 2.63-.79C365.8.75 369.74-.04 370.53.75c.79.79-1.32 3.95-1.32 3.95 1.58-.53 4.21-.26 4.74.26.53.53 0 3.68-4.74 4.74-4.74 1.05-8.42 4.74-8.42 4.74s7.37-.53 8.95 1.58c1.58 2.11-1.58 3.16-1.58 3.16s-7.9.26-10.53.79c-2.63.53-7.11.53-8.42.26-1.32-.26-2.89-.26-2.89-.26-1.44 1.86-25.54 16.82-37.02 23.07-3.16 1.72-5.37 2.78-5.88 2.72-2.37-.26-3.16 1.05-5.53 2.37s-8.95 3.16-14.47 5.53c-.39.17-.77.42-1.13.74-.22.07-13.1 4.29-16.23 7.42-3.16 3.16-16.04 13.69-42.76 16.71 3.33-4.65 8.7-11.6 10.13-13.03.5-.53.98-1.05 1.42-1.58-.01.01 0 0 0 0z"/><path class="st3" d="M215.91 132.73l-.79-3.68-5.25-2.76c-9.68-8.05-13.15-8.97-14.36-9.21-1.32-.26-17.11 2.89-17.11 2.89-2.37.53-20-.79-24.48-1.05-1.1-.07-2.45.03-3.89.21l-.06-.47c10.53-6.32 21.58-8.42 30.27-10.26 8.68-1.84 18.95-8.16 18.95-8.16 13.42-2.11 25.79-5.26 25.79-5.26s15.26 3.95 25.53 5c10.26 1.05 17.11 0 17.11 0 .06.19.11.39.15.58.32 1.33.39 2.66.29 3.9-.23 2.74-1.33 5.1-2.54 6.31-1.84 1.84-11.05 3.68-13.95 5-2.89 1.32-13.16 4.74-13.16 4.74-5.94 6.42-14.89 8.33-16.57 8.64-.18.03-.28.05-.28.05l-10.8 7.43-2.6 1.78.9-.66 6.85-5.02z"/><path class="st5" d="M208.17 138.39l-3.05 2.24h-.21z"/><path class="st5" d="M197.98 125.99c1.03-.07 1.62-.1 1.62-.1l5.53.26 4.76.13 5.25 2.76.79 3.68-6.84 5-.9.66-3.26 2.24-9.79.13h-41.58l-12.14-.05c-5.3-.09-12.95-.3-18.88-.47 1.8-1.22 7.65-4.87 13.12-4.87h.13v.13c4.21 1.05 8.13-.58 8.13-.58-.24-.24-.38-.58-.37-.95.01-.22.01-.46 0-.71v-.01l.26-2.89s2.11-.53 4.21-.26c2.11.26 5.79-.53 5.79-.53l.04.1c1.51-.58 3.06-1.61 4.3-3.39l.02-.05c1.02.54 7.13 3.46 16.95 2.02 8.55-1.23 18.92-1.99 22.86-2.25zm-44.44 14.77h41.58l-10 .13-31.58-.13z"/><path class="st5" d="M158.16 126.24l-.02.05c-1.25 1.78-2.8 2.81-4.3 3.39l-.04-.1 4.21-3.42c0-.01.05.02.15.08z"/><path class="st2" d="M148.08 119.42s-5.46 3.71-5.72 4.76c-.04.16-.02.51.04.99l-.07.01c-6.07.21-8.93 3.21-8.93 3.21-1.58 0-11.84.26-16.05 1.32s-15 .26-18.95-.79c-3.95-1.05-10.1-5.43-10.1-5.43.98.07 1.68.17 1.68.17s.51.09 1.37.23c4.6.77 19.31 3.19 21.52 3.19 2.13 0 7.9-2.59 12.39-4.14 1.05-.36 2.03-.66 2.87-.86 4.47-1.05 8.95-.53 10.79-.79 1.2-.18 5.24-1.22 9.16-1.87z"/><path class="st3" d="M197.98 125.99c-3.93.26-14.3 1.01-22.86 2.27-9.82 1.44-15.93-1.48-16.95-2.02-.1-.06-.15-.08-.15-.08l-4.21 3.42s-3.68.79-5.79.53-4.21.26-4.21.26l-.26 2.89c-.07-2.5-.9-6.24-1.14-8.08-.06-.48-.09-.83-.04-.99.26-1.05 5.72-4.76 5.72-4.76.66-.11 1.32-.21 1.97-.29 1.44-.18 2.79-.28 3.89-.21 4.47.26 22.11 1.58 24.48 1.05 0 0 15.79-3.16 17.11-2.89 1.22.24 4.68 1.16 14.36 9.21l-4.76-.13-5.53-.26c-.02-.02-.61.02-1.63.08z"/><path class="st3" d="M84.32 131.56c-1.28-2.8-2.09-5.55-1.97-6.59.18-1.64 3.76-1.64 5.95-1.49 0 0 6.16 4.38 10.1 5.43 3.95 1.05 14.74 1.84 18.95.79s14.47-1.32 16.05-1.32c0 0 2.85-3 8.93-3.21l.07-.01c.24 1.84 1.07 5.58 1.14 8.08v.01l-.53 1.84s-.78.26-7.24.26h-.13c-5.48 0-11.32 3.65-13.12 4.87-5.05-.14-8.85-.27-8.85-.27s-19.21 0-23.16-.79c-2.21-.42-4.57-4.06-6.19-7.6z"/><path class="st5" d="M143.9 134.92s-3.92 1.63-8.13.58v-.13c6.46 0 7.24-.26 7.24-.26l.53-1.84c.01.25.01.49 0 .71-.02.36.12.7.36.94zm-2.5 5.79l-19.44-.08s.2-.15.56-.39c5.93.17 13.59.38 18.88.47z"/><path class="st4" d="M125.25 122.86l.02.07c-4.49 1.54-10.26 4.14-12.39 4.14-2.22 0-16.92-2.42-21.52-3.19 11.62-2 24.01-2.99 33.89-1.02z"/><path class="st3" d="M133.5 106.55c1.06-.15 1.75-.26 1.75-.26 34.48-17.9 62.64-17.11 68.95-17.9 6.32-.79 14.74-3.16 16.84-6.58.48-.77 1.27-1.93 2.24-3.29 26.72-3.03 39.6-13.55 42.76-16.71 3.13-3.13 16.01-7.35 16.23-7.42-.58.51-1.12 1.2-1.62 2.01-2.16 3.53-3.51 9.4-4.23 13.36v.01c-.07.7.66 1.56 1.38 2.23.41.38.88.69 1.39.92.02.92.23 11.9-.53 14.68-.79 2.89-5.53 10.79-6.84 11.84-.26.21-.56.52-.87.9-1.3 1.55-2.86 4.11-2.86 4.11h-.04c.11-1.24.03-2.57-.29-3.9-.04-.19-.09-.39-.15-.58 0 0-6.84 1.05-17.11 0-10.26-1.05-25.53-5-25.53-5s-12.37 3.16-25.79 5.26c0 0-10.26 6.32-18.95 8.16-8.68 1.84-19.74 3.95-30.27 10.26l.06.47c-.64.08-1.31.18-1.97.29-3.92.65-7.96 1.69-9.15 1.87-1.84.26-6.32-.26-10.79.79-.84.2-1.82.5-2.87.86l-.02-.07c-9.87-1.97-22.26-.99-33.89 1.02-.87-.14-1.37-.23-1.37-.23s-.7-.1-1.68-.17c-2.19-.15-5.77-.15-5.95 1.49-.12 1.05.69 3.79 1.97 6.59-20.48.6-26.97 7.62-26.97 7.62s-12.9.26-13.95 0c-1.05-.26-1.58-2.11-1.58-2.11-1.84-10.79 6.84-14.74 8.68-15 1.84-.26 13.16-1.32 20.26-2.37s11.32-3.16 26.05-8.42 23.42-4.21 26.84-3.95c2.46.19 7.27-.41 9.87-.78z"/><path class="st8" d="M234.84 63.93c-.43.53-.91 1.04-1.43 1.57-1.43 1.43-6.8 8.37-10.13 13.03-.97 1.36-1.77 2.52-2.24 3.29-2.11 3.42-10.53 5.79-16.84 6.58-6.32.79-34.48 0-68.95 17.9 0 0-.69.11-1.75.26-2.59.37-7.4.98-9.83.79-3.42-.26-12.11-1.32-26.84 3.95s-18.95 7.37-26.05 8.42-18.42 2.11-20.26 2.37c-1.84.26-10.53 4.21-8.68 15 0 0 .53 1.84 1.58 2.11 1.05.26 13.95 0 13.95 0s6.5-7.02 26.97-7.62c.13-.01.26-.01.4-.01M270.2 35.01c-.19.02-7.89 1.02-11.53 2.84-3.68 1.84-4.74 7.63-6.32 9.47-1.58 1.84-14.21 10.26-15 12.37-.57 1.51-1.4 2.88-2.51 4.22"/><path class="st8" d="M149.99 118.65c10.53-6.32 21.58-8.42 30.27-10.26 8.68-1.84 18.95-8.16 18.95-8.16 13.42-2.11 25.79-5.26 25.79-5.26s15.26 3.95 25.53 5c10.26 1.05 17.11 0 17.11 0 .06.19.11.39.15.58.32 1.33.39 2.66.29 3.9-.23 2.74-1.33 5.1-2.54 6.31-1.84 1.84-11.05 3.68-13.95 5-2.89 1.32-13.16 4.74-13.16 4.74-5.94 6.42-14.89 8.33-16.57 8.64-.18.03-.28.05-.28.05l-10.8 7.43-2.6 1.78-3.26 2.24-.19.13h-58.95c-1.09 0-2.6-.02-4.37-.05-5.3-.09-12.95-.3-18.88-.47-5.05-.14-8.85-.27-8.85-.27s-19.21 0-23.16-.79c-2.2-.44-4.57-4.08-6.19-7.62-1.28-2.8-2.09-5.55-1.97-6.59.18-1.64 3.76-1.64 5.95-1.49.98.07 1.68.17 1.68.17s.51.09 1.37.23c4.6.77 19.31 3.19 21.52 3.19 2.13 0 7.9-2.59 12.39-4.14 1.05-.36 2.03-.66 2.87-.86 4.47-1.05 8.95-.53 10.79-.79 1.19-.17 5.23-1.22 9.15-1.87.66-.11 1.32-.21 1.97-.29 1.44-.18 2.79-.28 3.89-.21 4.47.26 22.11 1.58 24.48 1.05 0 0 15.79-3.16 17.11-2.89 1.22.24 4.68 1.16 14.36 9.21.78.65 1.61 1.35 2.48 2.11m66.84-55.54v.06c.02.92.23 11.9-.53 14.68-.79 2.89-5.53 10.79-6.84 11.84-.26.21-.56.52-.87.9-1.3 1.55-2.86 4.11-2.86 4.11m8.32-34.68c-.44 2.43-.64 4.15-.64 4.15m6.49-19.53c-.58.51-1.12 1.2-1.62 2.01-2.16 3.53-3.51 9.4-4.23 13.36m-21.96-19.01c2.63-6.05 7.9-11.32 11.84-13.95.76-.5 2.14-1.12 3.9-1.79 7.42-2.84 21.37-6.63 21.37-6.63s5.53-3.68 7.37-4.74 6.32-1.58 6.32-1.58l35-13.69s8.42 0 10.79-.26c2.37-.26 2.63-.79 2.63-.79C365.8.74 369.74-.05 370.53.74c.79.79-1.32 3.95-1.32 3.95 1.58-.53 4.21-.26 4.74.26.53.53 0 3.68-4.74 4.74-4.74 1.05-8.42 4.74-8.42 4.74s7.37-.53 8.95 1.58c1.58 2.11-1.58 3.16-1.58 3.16s-7.9.26-10.53.79c-2.63.53-7.11.53-8.42.26-1.32-.26-2.89-.26-2.89-.26-1.44 1.86-25.54 16.82-37.02 23.07-3.16 1.72-5.37 2.78-5.88 2.72-2.37-.26-3.16 1.05-5.53 2.37s-8.95 3.16-14.47 5.53c-.39.17-.77.42-1.13.74"/><path class="st8" d="M270.97 100.34s-.71-4.32-.71-5.37c0 0-7.11.53-10.79 0m21.19-38.57s-6.19 3.83-8.82 11.46-3.68 15.26-7.9 19.21m18.34-32.68c-.22.07-13.1 4.29-16.24 7.42-3.16 3.16-16.04 13.69-42.76 16.71m21.71-14.34s4.47-2.63 9.47-3.16c5-.53 10.79-1.84 10.79-1.84m-30.41 4.75s.01-.01 0 0c.16-.11 2.58-1.86 4.62-2.12M358.95 9.7c-.53.35-4.74.53-6.45 2.48"/><path class="st8" d="M293.94 45.49s10.53-4.74 12.9-6.84 12.11-10 16.32-12.63c4.21-2.63 18.69-9.47 19.74-9.74s3.95-2.37 3.95-2.37 3.16 2.89 4.74 3.16c1.58.26 2.89-1.05 3.16-1.84.2-.61-1.46-2.3-2.24-3.05-.24-.23-.39-.37-.39-.37m-42.83 31.22s6.49 3.25 6.49 12.72c0 7.44-1.32 13.16-15.26 16.05-10.21 2.12-16.89 1.84-19.74 1.54-.55-.06-1.08-.2-1.58-.43-.51-.23-.98-.54-1.39-.92-.73-.68-1.45-1.54-1.38-2.23v-.01"/><path class="st8" d="M296.05 71.02l-.75-1.64c-.31-.69-1.13-1-1.82-.69l-6.2 2.8a.76.76 0 0 1-1-.39l-1.55-3.76m4.21-9.48c2.89 2.37 4.21 6.84 4.21 6.84s-2.63.26-4.21-1.32m8.95.53s7.37 2.89 10.79-3.95m-25.79 11.85s.26-1.84-1.58-5.26m-2.1 1.84s1.84 1.05 2.11 2.11c.26 1.05 0 1.32 0 1.32m-13.17 28.41s-.12.11-.37.32c-2.25 1.77-15.22 10.34-54.89 9.16m-79.39-3.16s2.54.53 6.49 0 35-11.84 52.64-11.58 11.58 0 11.58 0m-56.13 24.45s-5.46 3.71-5.72 4.76c-.04.16-.02.51.04.99.24 1.84 1.07 5.58 1.14 8.08v.01c.01.25.01.49 0 .71-.02.37.13.71.37.95.22.22.54.36.88.35.63-.02 1.41.03 2.3.23 2.37.53 6.84 2.89 6.84 2.89"/><path class="st8" d="M148.14 130.23s2.76.58 5.7-.56c1.51-.58 3.06-1.61 4.3-3.39m-69.84-2.79s6.16 4.38 10.1 5.43c3.95 1.05 14.74 1.84 18.95.79s14.47-1.32 16.05-1.32c0 0 2.85-3 8.93-3.21m1.57 9.74s-3.92 1.63-8.13.58m37.11-7.11s13.64-2.27 25.09-2.4c2.6-.03 5.09.05 7.28.29m-113.9-2.4c11.63-2.01 24.02-2.99 33.89-1.02m-70.53 10.53s12.21-4.36 27.62-7.74m53.44-12c-7.11-4.74-11.58 1.05-18.16.79s-9.21-1.58-9.21-1.58m113.17 16.06s.1.08.28.22c1.07.83 4.95 3.81 6.3 4.26 1.58.53 8.68-.26 8.95 0 .18.18 1.76 2.52 2.71 3.93a.685.685 0 0 1-.57 1.07h-9.51s-1.32 3.16-4.21 2.37c-3.29-.9-6.61-.51-8.22-.21-.7.13-1.42.02-2.05-.3-1.5-.78-4.12-2.3-4.48-3.64m18.96 1.77s.26-1.84-4.21-2.89m69.21-95.01c-25.53 17.37-37.11 15.26-37.11 15.26"/></g><path class="st2" d="M205.12 94.84s7.9-2.11 15.79-12.9l-4.21 3.16-11.58 3.16-17.63 1.58L170.38 93l-22.9 7.11-12.37 6.58h3.68l12.11-3.16 21.05-5.79 13.69-2.89h19.48z"/><path class="st4" d="M195.38 116.94l1.32.53 10.79 6.84 4.21 3.42s2.89 2.37 3.68 5.79l6.84-4.21 6.05-2.11 6.32-3.42 3.68-3.42 10.26-3.42 7.9-2.89 7.37-2.37 3.16-3.16 1.05-6.58-.26-1.84-7.9.26-19.48-1.84L228 95.63l-2.63-.79s6.32 15.79 27.37 11.84l-16.58 2.37-23.42.79m44.88-54.09s11.58 2.11 37.11-15.26c0 0 8.63 2.42 16.45-5.4 9.74-9.74 35.53-21.05 35.53-21.05l5.79 3.16 2.37-1.58-1.58-2.63-.53-1.05 5.79-2.37s9.21-3.68 10.79-4.74c1.58-1.05 3.95 0 3.95 0l.79 1.05-1.58 2.37-7.37 2.63-3.95 3.42 3.68.26 4.21.79 1.05 1.84-1.32 1.84-9.74.79-8.42.53-4.47-.26-22.63 14.74-19.21 10.79-2.63.26-5.53 3.16-15.53 5.79-13.16 5.79-11.84 8.42-2.89 1.05s-11.84 2.11-7.37-6.05l5.79-2.37 8.95-1.84s-10-2.63-2.5-4.08zm51.72 13.3s-10.26 0-20.26-11.05c0 0-1.84 5.79-12.63 8.42v3.16l1.32 2.37 2.89 1.58h10.26l9.47-1.58 8.95-2.9z"/><path class="st5" d="M276.44 69.57l2.89-11.58-2.89 1.84-3.16 5-5 14.47-3.68 7.11s-6.84 6.84-8.16 7.9c0 0 5.26 1.32 13.69.53v2.89l.79 2.37 4.47-5.79 3.42-6.84.53-12.37-.26-2.24-2.63-2.5v-.79z"/><path class="st4" d="M213.13 109.84s-7.22-3.16-14.07-9.74l-4.74 2.89-8.95 3.68-19.48 5.26-13.69 5-1.32 1.05v1.32h6.58l17.63.79 6.05-.79 11.58-2.37h2.63l3.68 1.05 14.1-8.14z"/><path class="st5" d="M143.8 130.37s2.11-.53 4.21-.26c2.11.26 5.79-.53 5.79-.53l4.21-3.42s6.32 3.68 17.11 2.11c10.79-1.58 24.48-2.37 24.48-2.37l5.53.26 4.75.13 5.25 2.76.79 3.68-6.84 5-3.95 2.89-20 .26-63.16-.26s7.11-5.26 13.69-5.26c6.58 0 7.37-.26 7.37-.26l.53-1.84.24-2.89z"/><path class="st8" d="M270.21 35.01s-7.85 1-11.53 2.85c-3.68 1.84-4.74 7.63-6.32 9.47-1.58 1.84-14.21 10.26-15 12.37-.79 2.11-2.11 3.95-3.95 5.79-1.84 1.84-10.26 12.9-12.37 16.32-2.11 3.42-10.53 5.79-16.84 6.58-6.32.79-34.48 0-68.95 17.9 0 0-8.16 1.32-11.58 1.05-3.42-.26-12.11-1.32-26.84 3.95s-18.95 7.37-26.05 8.42-18.42 2.11-20.26 2.37c-1.84.26-10.53 4.21-8.68 15 0 0 .53 1.84 1.58 2.11 1.05.26 13.95 0 13.95 0s6.58-7.11 27.37-7.63"/><path class="st8" d="M149.98 118.65c10.53-6.32 21.58-8.42 30.27-10.26 8.68-1.84 18.95-8.16 18.95-8.16 13.42-2.11 25.79-5.26 25.79-5.26s15.26 3.95 25.53 5c10.26 1.05 17.11 0 17.11 0 1.32 4.47-.26 8.95-2.11 10.79-1.84 1.84-11.05 3.68-13.95 5-2.89 1.32-13.16 4.74-13.16 4.74-6.58 7.11-16.84 8.68-16.84 8.68l-16.84 11.58h-58.95c-7.1 0-32.11-.79-32.11-.79s-19.21 0-23.16-.79c-3.95-.79-8.42-11.84-8.16-14.21.26-2.37 7.63-1.32 7.63-1.32s20.26 3.42 22.9 3.42 10.79-3.95 15.26-5c4.47-1.05 8.95-.53 10.79-.79 1.84-.26 10.53-2.63 15-2.37s22.11 1.58 24.48 1.05c0 0 15.79-3.16 17.11-2.89s5.26 1.32 16.84 11.32"/><path class="st8" d="M279.2 72.86s.26 11.84-.53 14.74c-.79 2.89-5.53 10.79-6.84 11.84-1.32 1.05-3.73 5.01-3.73 5.01m-13.63-53.7c2.63-6.05 7.9-11.32 11.84-13.95 3.95-2.63 25.27-8.42 25.27-8.42s5.53-3.68 7.37-4.74c1.84-1.05 6.32-1.58 6.32-1.58l35-13.69s8.42 0 10.79-.26c2.37-.26 2.63-.79 2.63-.79C365.8.74 369.74-.05 370.53.74c.79.79-1.32 3.95-1.32 3.95 1.58-.53 4.21-.26 4.74.26.53.53 0 3.68-4.74 4.74-4.74 1.05-8.42 4.74-8.42 4.74s7.37-.53 8.95 1.58-1.58 3.16-1.58 3.16-7.9.26-10.53.79c-2.63.53-7.11.53-8.42.26-1.32-.26-2.89-.26-2.89-.26-1.84 2.37-40.53 26.05-42.9 25.79s-3.16 1.05-5.53 2.37-8.95 3.16-14.47 5.53c-5.53 2.37-7.63 20.26-7.63 20.26"/><path class="st8" d="M270.97 100.34s-.71-4.32-.71-5.37c0 0-7.11.53-10.79 0m21.19-38.57s-6.19 3.83-8.83 11.47-3.68 15.26-7.9 19.21m18.35-32.69s-13.08 4.26-16.24 7.42c-3.16 3.16-16.04 13.68-42.76 16.71m21.71-14.34s4.47-2.63 9.47-3.16 10.79-1.84 10.79-1.84m-30.4 4.75s2.51-1.86 4.62-2.12M358.95 9.7c-.53.35-4.74.53-6.45 2.48"/><path class="st8" d="M293.94 45.49s10.53-4.74 12.9-6.84c2.37-2.11 12.11-10 16.32-12.63s18.69-9.47 19.74-9.74 3.95-2.37 3.95-2.37 3.16 2.89 4.74 3.16 2.89-1.05 3.16-1.84c.26-.79-2.63-3.42-2.63-3.42M309.3 43.03s6.49 3.25 6.49 12.72c0 7.44-1.32 13.16-15.26 16.05-10.21 2.12-16.89 1.84-19.74 1.54a5.181 5.181 0 0 1-2.97-1.35c-.73-.68-1.46-1.54-1.38-2.24"/><path class="st8" d="M296.05 71.02l-.75-1.64c-.31-.69-1.13-1-1.82-.69l-6.2 2.8a.755.755 0 0 1-1-.4l-1.55-3.76m4.21-9.47c2.89 2.37 4.21 6.84 4.21 6.84s-2.63.26-4.21-1.32m8.95.53s7.37 2.89 10.79-3.95m-25.79 11.85s.26-1.84-1.58-5.26m-2.11 1.84s1.84 1.05 2.11 2.11c.26 1.05 0 1.32 0 1.32m-13.16 28.41s-11.05 10.79-55.27 9.47m-79.38-3.15s2.54.53 6.49 0 35-11.84 52.64-11.58 11.58 0 11.58 0m-56.13 24.45s-5.46 3.71-5.73 4.76c-.21.86 1.31 6.77 1.18 9.79-.03.72.54 1.32 1.25 1.3.63-.02 1.41.03 2.3.23 2.37.53 6.84 2.89 6.84 2.89m-5.78-8.16s6.32 1.32 10-3.95"/><path class="st8" d="M88.3 123.49s6.16 4.38 10.1 5.43c3.95 1.05 14.74 1.84 18.95.79s14.47-1.32 16.05-1.32c0 0 2.85-3 8.93-3.21m1.57 9.73s-3.92 1.64-8.13.58m37.11-7.1s20.53-3.42 32.37-2.11m-113.9-2.4c11.63-2.01 24.02-2.99 33.89-1.02m-70.53 10.53s12.21-4.36 27.62-7.74m53.44-12c-7.11-4.74-11.58 1.05-18.16.79s-9.21-1.58-9.21-1.58m113.17 16.06s5 3.95 6.58 4.47c1.58.53 8.68-.26 8.95 0 .18.18 1.76 2.52 2.71 3.93a.685.685 0 0 1-.57 1.07h-9.51s-1.32 3.16-4.21 2.37c-3.29-.9-6.61-.5-8.22-.21-.7.13-1.42.02-2.05-.3-1.5-.78-4.12-2.3-4.49-3.64m18.97 1.78s.26-1.84-4.21-2.89m69.21-95.01c-25.53 17.37-37.11 15.26-37.11 15.26"/></svg>