<svg width="15" height="22" viewBox="0 0 15 22" fill="" xmlns="http://www.w3.org/2000/svg">
<path d="M7.66679 0C3.74579 0 0.555664 3.19013 0.555664 7.11113C0.555664 8.28821 0.849956 9.45529 1.40941 10.4905L7.27792 21.1042C7.35604 21.2457 7.50492 21.3333 7.66679 21.3333C7.82867 21.3333 7.97754 21.2457 8.05567 21.1042L13.9263 10.487C14.4836 9.45529 14.7779 8.28817 14.7779 7.11108C14.7779 3.19013 11.5878 0 7.66679 0ZM7.66679 10.6667C5.70629 10.6667 4.11125 9.07163 4.11125 7.11113C4.11125 5.15063 5.70629 3.55558 7.66679 3.55558C9.62729 3.55558 11.2223 5.15063 11.2223 7.11113C11.2223 9.07163 9.62729 10.6667 7.66679 10.6667Z"/>
</svg>
