<svg width="14" height="23" viewBox="0 0 14 23" fill="" xmlns="http://www.w3.org/2000/svg">
<path d="M6.28988 1.00003C4.73498 1.16787 3.29481 1.89753 2.23977 3.05199C1.18473 4.20646 0.587386 5.70634 0.559879 7.27003C0.459879 12.13 6.22988 14.77 6.22988 23H7.64988C7.64988 14.84 13.3299 12.18 13.3299 7.39003C13.3314 6.4942 13.1452 5.60799 12.7831 4.78857C12.4211 3.96915 11.8914 3.23471 11.228 2.63262C10.5647 2.03054 9.78253 1.57418 8.93198 1.29298C8.08142 1.01178 7.18137 0.911983 6.28988 1.00003ZM7.18988 11.25C6.63897 11.2881 6.08628 11.2081 5.56876 11.0154C5.05124 10.8228 4.58081 10.5218 4.18892 10.1328C3.79702 9.74373 3.49269 9.2755 3.29626 8.7594C3.09983 8.24329 3.01583 7.6912 3.04988 7.14003C3.09756 6.39131 3.36019 5.67224 3.80627 5.06903C4.25235 4.46582 4.86294 4.00407 5.56485 3.73915C6.26675 3.47424 7.03017 3.41739 7.76357 3.57543C8.49697 3.73348 9.16921 4.0997 9.69971 4.6302C10.2302 5.1607 10.5964 5.83294 10.7545 6.56634C10.9125 7.29974 10.8557 8.06316 10.5908 8.76506C10.3258 9.46696 9.86409 10.0776 9.26088 10.5236C8.65767 10.9697 7.9386 11.2323 7.18988 11.28V11.25Z" fill="white"/>
</svg>
