<svg width="791" height="1024" viewBox="0 0 791 1024" fill="none" xmlns="http://www.w3.org/2000/svg">
<path d="M2 -40C189 -0.5 437.5 140 555.158 292.997C672.817 445.995 605.658 400.571 612.307 429.572C618.955 458.572 608.835 550.285 590.997 578.364C573.158 606.442 554.758 617.061 532.658 612.071C501.658 605.071 490.658 555.071 518.92 525.34C567.396 474.343 661.671 458.145 694.788 396.479C708.505 370.937 712.939 344.071 709.704 314.499C696.951 197.88 465.841 339.234 427.915 374.166C406.644 393.758 372.324 432.747 415.004 451.633C449.315 466.817 495.138 458.592 530.327 452.135C576.158 443.724 600.158 435.571 648.909 419.571C686.658 407.182 763.658 446.071 779.776 499.016C792.578 541.071 802.317 607.234 739.658 640.071C712.891 654.099 660.897 663.242 634.619 642.167C573.658 584.571 684.961 509.48 693.033 456.647C698.658 429.572 691.929 343.694 648.909 347.09C624.38 349.027 617.404 388.906 620.658 406.571C626.868 440.278 656.103 471.219 673.227 500.019C770.729 664 753.5 914.5 693.033 1134" stroke="#005164" stroke-width="3" stroke-linecap="round" stroke-linejoin="round" stroke-dasharray="10 15"/>
</svg>
