<svg width="376" height="375" viewBox="0 0 376 375" fill="none" xmlns="http://www.w3.org/2000/svg">
<path d="M1 -77C89.839 -58.2257 207.895 8.55366 263.792 81.2731C319.688 153.993 287.783 132.403 290.941 146.187C294.1 159.97 289.292 203.561 280.818 216.907C272.343 230.253 263.602 235.3 253.103 232.928C238.375 229.601 233.149 205.836 246.576 191.705C269.606 167.466 314.393 159.767 330.126 130.458C336.643 118.318 338.749 105.548 337.213 91.4928C331.154 36.064 221.359 103.249 203.341 119.852C193.236 129.164 176.932 147.696 197.208 156.672C213.508 163.889 235.278 159.98 251.995 156.911C273.768 152.913 285.17 149.038 308.33 141.433C326.264 135.545 362.845 154.029 370.502 179.193C376.584 199.182 381.21 230.629 351.443 246.236C338.726 252.904 314.026 257.25 301.541 247.233C272.581 219.857 325.458 184.167 329.292 159.056C331.965 146.187 328.768 105.369 308.33 106.983C296.677 107.904 293.363 126.858 294.909 135.254C297.859 151.275 311.748 165.981 319.883 179.67C366.204 257.61 358.019 376.672 329.292 481" stroke="#005164" stroke-width="2" stroke-linecap="round" stroke-linejoin="round" stroke-dasharray="7 12"/>
</svg>
