<svg width="627" height="768" viewBox="0 0 627 768" fill="none" xmlns="http://www.w3.org/2000/svg">
<path d="M2 -57C149.986 -25.7095 346.641 85.5894 439.752 206.788C532.863 327.988 479.716 292.004 484.977 314.978C490.238 337.951 482.23 410.602 468.113 432.845C453.997 455.088 439.435 463.5 421.946 459.547C397.414 454.002 388.709 414.394 411.074 390.842C449.437 350.444 524.043 337.612 550.25 288.763C561.105 268.529 564.614 247.247 562.055 223.821C551.962 131.44 369.069 243.416 339.055 271.087C322.222 286.607 295.063 317.493 328.838 332.454C355.991 344.482 392.254 337.967 420.101 332.851C456.371 326.189 475.364 319.73 513.943 307.055C543.817 297.241 604.752 328.048 617.507 369.989C627.638 403.303 635.345 455.715 585.759 481.727C564.576 492.84 523.43 500.083 502.635 483.388C454.392 437.762 542.474 378.278 548.861 336.426C553.313 314.978 547.988 246.948 513.943 249.639C494.532 251.173 489.011 282.763 491.587 296.757C496.5 323.459 519.636 347.969 533.188 370.783C610.348 500.683 596.713 699.12 548.861 873" stroke="#005164" stroke-width="3" stroke-linecap="round" stroke-linejoin="round" stroke-dasharray="10 15"/>
</svg>
