<svg width="1003" height="1080" viewBox="0 0 1003 1080" fill="none" xmlns="http://www.w3.org/2000/svg">
<path d="M2 -201C239.3 -150.868 554.642 27.4497 703.949 221.629C853.256 415.808 768.033 358.157 776.469 394.964C784.905 431.771 772.064 548.169 749.427 583.806C726.791 619.442 703.441 632.919 675.397 626.586C636.058 617.702 622.1 554.243 657.963 516.51C719.479 451.786 839.112 431.228 881.136 352.964C898.543 320.547 904.169 286.45 900.065 248.918C883.881 100.909 590.607 280.311 542.479 324.646C515.487 349.51 471.935 398.993 526.095 422.964C569.635 442.235 627.784 431.796 672.438 423.6C730.598 412.926 761.053 402.578 822.917 382.272C870.82 366.547 968.532 415.904 988.985 483.101C1005.23 536.475 1017.59 620.447 938.077 662.122C904.109 679.926 838.13 691.53 804.783 664.783C727.425 591.684 868.667 496.381 878.909 429.328C886.048 394.964 877.509 285.971 822.917 290.282C791.79 292.739 782.938 343.352 787.067 365.772C794.947 408.552 832.046 447.821 853.777 484.373C977.505 692.492 955.641 1010.42 878.909 1289" stroke="#005164" stroke-width="3" stroke-linecap="round" stroke-linejoin="round" stroke-dasharray="10 15"/>
</svg>
