<svg width="835" height="1009" viewBox="0 0 835 1009" fill="none" xmlns="http://www.w3.org/2000/svg">
<path d="M91.0002 -1C40.6808 81.8174 17.6577 162.485 5.99995 259.5C-0.311871 312.026 0.77354 362.913 12.7752 414.813C12.7752 414.813 40.6756 498.738 81.6612 533.008C126.5 570.5 152.627 580.651 204.714 591.59C255.201 602.194 289.642 600.258 342.5 586.5C379 577 438 525.5 457.885 505.336C475 487.98 485.5 475.064 497.5 456C523.196 415.177 534.786 388.7 545.023 355.2C555.5 296 567.949 192.54 497.5 173.5C467.129 165.292 439.473 164.402 411.519 178.422C366.5 201 331.727 272.386 307.5 324C282.4 377.473 271.299 461.653 261 518C254 570 246.5 626.426 246.5 678C246.5 732.379 265.586 778.372 291.999 824.596C341.391 911.031 425 970.5 523 993C599 1010.45 732.994 1017.09 832.636 977.234" stroke="#005164" stroke-width="3" stroke-linecap="round" stroke-linejoin="round" stroke-dasharray="10 15"/>
</svg>
