<svg width="792" height="959" viewBox="0 0 792 959" fill="none" xmlns="http://www.w3.org/2000/svg">
<path d="M86.2631 0C38.5151 78.6471 16.6685 155.253 5.6065 247.382C-0.382767 297.264 0.647176 345.588 12.0356 394.874C12.0356 394.874 38.5101 474.573 77.4013 507.118C119.949 542.722 144.741 552.362 194.166 562.75C242.073 572.82 274.754 570.981 324.911 557.916C359.545 548.895 415.53 499.988 434.399 480.839C450.64 464.357 460.603 452.092 471.99 433.988C496.373 395.22 507.371 370.077 517.084 338.263C527.026 282.044 538.838 183.794 471.99 165.713C443.171 157.918 416.928 157.073 390.403 170.387C347.684 191.828 314.688 259.619 291.699 308.635C267.882 359.415 257.348 439.356 247.576 492.866C240.933 542.247 233.816 595.832 233.816 644.809C233.816 696.449 251.927 740.127 276.99 784.023C323.858 866.106 403.195 922.58 496.187 943.947C568.303 960.517 695.45 966.825 790 928.975" stroke="#005164" stroke-width="3" stroke-linecap="round" stroke-linejoin="round" stroke-dasharray="10 15"/>
</svg>
