<svg width="22" height="21" viewBox="0 0 22 21" fill="none" xmlns="http://www.w3.org/2000/svg">
<path fill-rule="evenodd" clip-rule="evenodd" d="M15.4461 0H6.55392C2.94007 0 0 2.80643 0 6.25601V14.744C0 18.1936 2.94007 21 6.55392 21H15.4461C19.0599 21 22 18.1936 22 14.744V6.25601C22 2.80643 19.0599 0 15.4461 0ZM19.7868 14.744C19.7868 17.0323 17.8434 18.8874 15.4461 18.8874H6.55392C4.15663 18.8874 2.2132 17.0323 2.2132 14.744V6.25601C2.2132 3.96765 4.15663 2.1126 6.55392 2.1126H15.4461C17.8434 2.1126 19.7868 3.96765 19.7868 6.25601V14.744ZM11 5.0686C7.86258 5.0686 5.31006 7.5051 5.31006 10.4999C5.31006 13.4947 7.86258 15.9313 11 15.9313C14.1375 15.9313 16.69 13.4948 16.69 10.4999C16.69 7.50506 14.1375 5.0686 11 5.0686ZM11 13.8187C9.07985 13.8187 7.52326 12.3329 7.52326 10.5C7.52326 8.66704 9.07989 7.1812 11 7.1812C12.9202 7.1812 14.4768 8.66704 14.4768 10.5C14.4768 12.3328 12.9202 13.8187 11 13.8187ZM18.0643 5.10932C18.0643 5.8281 17.4538 6.41079 16.7008 6.41079C15.9478 6.41079 15.3374 5.8281 15.3374 5.10932C15.3374 4.39055 15.9478 3.80786 16.7008 3.80786C17.4538 3.80786 18.0643 4.39055 18.0643 5.10932Z" fill="url(#paint0_linear)"/>
<defs>
<linearGradient id="paint0_linear" x1="1.18506e-07" y1="10" x2="22" y2="10" gradientUnits="userSpaceOnUse">
<stop stop-color="#005164"/>
<stop offset="1" stop-color="#005164" stop-opacity="0.55"/>
</linearGradient>
</defs>
</svg>
