<svg id="Слой_1" data-name="Слой 1" xmlns="http://www.w3.org/2000/svg" viewBox="0 0 262 90">
  <defs>
    <style>
      .cls-1 {
        fill: #4d4d4d;
      }
    </style>
  </defs>
  <title>Безымянный-1</title>
  <g>
    <path class="cls-1" d="M239.47,43.29c-.17.92-.27,1.85-.51,2.76-1.68,6.44-6,10.16-12.37,11.56a20.23,20.23,0,0,1-4.26.39c-5.15,0-10.29,0-15.44,0-.9,0-1.12.27-1.11,1.13.05,3.77,0,7.53,0,11.3,0,.74-.2,1-1,1a14.72,14.72,0,0,0-2.1,0c-.81.06-1.09-.18-1.09-1.06,0-7.34,0-14.69,0-22V26.8c.37,0,.63-.05.9-.05,6.88,0,13.76-.06,20.65,0A16.39,16.39,0,0,1,235,31.55a14.66,14.66,0,0,1,4.26,9.23,6.82,6.82,0,0,0,.2.87ZM205.85,30.35V54.42a3.33,3.33,0,0,0,.65.12c6.12,0,12.24,0,18.36-.14a10.11,10.11,0,0,0,6.93-3.08A12.87,12.87,0,0,0,233,35.09a11.28,11.28,0,0,0-9.32-4.75c-5.73-.13-11.45-.05-17.18-.06C206.33,30.28,206.13,30.32,205.85,30.35Z"/>
    <path class="cls-1" d="M151.81,37.63c-.87-.61-1.72-1.3-2.66-1.85-6.16-3.61-12.46-4.16-18.73-.39C126.12,38,124,42,123.36,46.93a15.82,15.82,0,0,0,17.42,18.14A19.28,19.28,0,0,0,151,60.94l.78-.59,3.29,6.31A19.63,19.63,0,0,1,148,70.8c-9.79,2.92-18.75,1.66-26.26-5.72a20.94,20.94,0,0,1-6.13-13.18C114.76,44,117,37.12,123,31.71a21.8,21.8,0,0,1,12.76-5.5c4.89-.52,9.68-.16,14.16,2a46.46,46.46,0,0,1,4.66,2.85.89.89,0,0,1,.25.85C153.88,33.82,152.86,35.68,151.81,37.63Z"/>
    <path class="cls-1" d="M106.86,71.38c-1.48,0-2.78,0-4.07,0-.19,0-.42-.38-.54-.63-1.16-2.54-2.31-5.08-3.42-7.64a1,1,0,0,0-1.09-.71q-14.07,0-28.14,0a1.07,1.07,0,0,0-1.14.79c-1.07,2.5-2.2,5-3.27,7.5a1.05,1.05,0,0,1-1.16.77c-1.05,0-2.11,0-3.34,0l.87-2.06q9.28-20.86,18.55-41.73a1.21,1.21,0,0,1,1.34-.89c1.55.06,3.1.06,4.66,0,.72,0,1,.31,1.24.89Q96.13,47.32,104.91,67C105.54,68.4,106.16,69.81,106.86,71.38ZM97,58.78c-.11-.33-.19-.58-.29-.83q-5.81-13.48-11.6-27a1.19,1.19,0,0,0-1.3-.83,1.21,1.21,0,0,0-1.31.83Q76.6,44.43,70.68,57.88c-.11.26-.21.54-.34.9Z"/>
    <path class="cls-1" d="M66.47,26.82v3.26H47.7v1.24q0,19.49,0,39c0,.88-.23,1.2-1.11,1.12a23.62,23.62,0,0,0-2.38,0c-.46,0-.67-.19-.63-.66a5.93,5.93,0,0,0,0-.73V30.14H24.86V26.82Z"/>
    <path class="cls-1" d="M101.33,35.29l-3.79,1.45C96.74,35,96,33.22,95.2,31.48a.74.74,0,0,1,.33-.6c2.85-1.36,5.65-2.85,8.61-3.94,1.25-.47,2.81-.08,4.33-.08V61.13c-.12-.21-.24-.42-.34-.64q-3.27-7.29-6.51-14.61a3.72,3.72,0,0,1-.28-1.4c0-2.64,0-5.28,0-7.91Z"/>
    <path class="cls-1" d="M194,37.63c-.87-.61-1.72-1.3-2.66-1.85-6.16-3.61-12.46-4.16-18.73-.39-4.3,2.58-6.45,6.65-7.05,11.54a15.53,15.53,0,0,0,3.39,12.45,15.71,15.71,0,0,0,14,5.69,19.28,19.28,0,0,0,10.25-4.13l.79-.59,3.28,6.31a19.63,19.63,0,0,1-7.13,4.14c-9.79,2.92-18.75,1.66-26.26-5.72a20.94,20.94,0,0,1-6.13-13.18c-.82-7.93,1.47-14.78,7.43-20.19a21.8,21.8,0,0,1,12.76-5.5c4.89-.52,9.68-.16,14.16,2a46.46,46.46,0,0,1,4.66,2.85.92.92,0,0,1,.26.85C196,33.82,195,35.68,194,37.63Z"/>
  </g>
</svg>
