<?xml version="1.0" encoding="utf-8"?>
<!-- Generator: Adobe Illustrator 24.0.1, SVG Export Plug-In . SVG Version: 6.00 Build 0)  -->
<svg version="1.1" id="Слой_1" xmlns="http://www.w3.org/2000/svg" xmlns:xlink="http://www.w3.org/1999/xlink" x="0px" y="0px"
	 viewBox="0 0 262 90" style="enable-background:new 0 0 262 90;" xml:space="preserve">
<style type="text/css">
	.st0{fill:#4D4D4D;}
	.st1{fill:url(#SVGID_1_);}
	.st2{fill:url(#SVGID_2_);}
	.st3{fill:url(#SVGID_3_);}
</style>
<title>Безымянный-1</title>
<path class="st0" d="M239.5,43.3c-0.2,0.9-0.3,1.8-0.5,2.8c-1.7,6.4-6,10.2-12.4,11.6c-1.4,0.3-2.8,0.4-4.3,0.4
	c-5.1,0-10.3,0-15.4,0c-0.9,0-1.1,0.3-1.1,1.1c0.1,3.8,0,7.5,0,11.3c0,0.7-0.2,1-1,1c-0.7,0-1.4,0-2.1,0c-0.8,0.1-1.1-0.2-1.1-1.1
	c0-7.3,0-14.7,0-22V26.8c0.4,0,0.6,0,0.9,0c6.9,0,13.8-0.1,20.6,0c4.4-0.1,8.7,1.7,11.9,4.8c2.5,2.5,4,5.7,4.3,9.2
	c0,0.3,0.1,0.6,0.2,0.9L239.5,43.3z M205.9,30.4v24.1c0.2,0.1,0.4,0.1,0.6,0.1c6.1,0,12.2,0,18.4-0.1c2.6-0.1,5.1-1.2,6.9-3.1
	c4.2-4.4,4.7-11.2,1.2-16.2c-2.1-3-5.6-4.8-9.3-4.8c-5.7-0.1-11.4,0-17.2-0.1C206.3,30.3,206.1,30.3,205.9,30.4z"/>
<linearGradient id="SVGID_1_" gradientUnits="userSpaceOnUse" x1="115.4363" y1="49.1275" x2="155.07" y2="49.1275">
	<stop  offset="0" style="stop-color:#99C169"/>
	<stop  offset="0.5" style="stop-color:#679632"/>
	<stop  offset="1" style="stop-color:#507D26"/>
</linearGradient>
<path class="st1" d="M151.8,37.6c-0.9-0.6-1.7-1.3-2.7-1.8c-6.2-3.6-12.5-4.2-18.7-0.4c-4.3,2.6-6.4,6.6-7.1,11.5
	c-1.3,8.6,4.6,16.7,13.2,18.1c1.4,0.2,2.8,0.2,4.2,0.1c3.7-0.4,7.3-1.8,10.2-4.1l0.8-0.6l3.3,6.3c-2,1.9-4.4,3.3-7.1,4.1
	c-9.8,2.9-18.8,1.7-26.3-5.7c-3.6-3.5-5.7-8.2-6.1-13.2c-0.8-7.9,1.4-14.8,7.4-20.2c3.5-3.2,8-5.1,12.8-5.5c4.9-0.5,9.7-0.2,14.2,2
	c1.6,0.9,3.2,1.8,4.7,2.9c0.2,0.2,0.3,0.5,0.2,0.9C153.9,33.8,152.9,35.7,151.8,37.6z"/>
<path class="st0" d="M106.9,71.4c-1.5,0-2.8,0-4.1,0c-0.2,0-0.4-0.4-0.5-0.6c-1.2-2.5-2.3-5.1-3.4-7.6c-0.1-0.5-0.6-0.8-1.1-0.7
	c-9.4,0-18.8,0-28.1,0c-0.5-0.1-1,0.3-1.1,0.8c-1.1,2.5-2.2,5-3.3,7.5c-0.1,0.5-0.6,0.8-1.2,0.8c-1,0-2.1,0-3.3,0l0.9-2.1
	c6.2-13.9,12.4-27.8,18.5-41.7c0.2-0.6,0.7-1,1.3-0.9c1.6,0.1,3.1,0.1,4.7,0c0.7,0,1,0.3,1.2,0.9c5.9,13.1,11.7,26.2,17.6,39.3
	C105.5,68.4,106.2,69.8,106.9,71.4z M97,58.8c-0.1-0.3-0.2-0.6-0.3-0.8c-3.9-9-7.7-18-11.6-27c-0.2-0.6-0.7-0.9-1.3-0.8
	c-0.6-0.1-1.1,0.3-1.3,0.8c-3.9,9-7.9,18-11.8,26.9c-0.1,0.3-0.2,0.5-0.3,0.9L97,58.8z"/>
<path class="st0" d="M66.5,26.8v3.3H47.7v1.2c0,13,0,26,0,39c0,0.9-0.2,1.2-1.1,1.1c-0.8,0-1.6,0-2.4,0c-0.5,0-0.7-0.2-0.6-0.7
	c0-0.2,0-0.5,0-0.7V30.1H24.9v-3.3H66.5z"/>
<linearGradient id="SVGID_2_" gradientUnits="userSpaceOnUse" x1="95.2" y1="43.9191" x2="108.47" y2="43.9191">
	<stop  offset="0" style="stop-color:#99C169"/>
	<stop  offset="0.5" style="stop-color:#679632"/>
	<stop  offset="1" style="stop-color:#507D26"/>
</linearGradient>
<path class="st2" d="M101.3,35.3l-3.8,1.5c-0.8-1.7-1.5-3.5-2.3-5.3c0-0.2,0.1-0.5,0.3-0.6c2.8-1.4,5.7-2.9,8.6-3.9
	c1.2-0.5,2.8-0.1,4.3-0.1v34.3c-0.1-0.2-0.2-0.4-0.3-0.6c-2.2-4.9-4.3-9.7-6.5-14.6c-0.2-0.4-0.3-0.9-0.3-1.4c0-2.6,0-5.3,0-7.9
	L101.3,35.3z"/>
<linearGradient id="SVGID_3_" gradientUnits="userSpaceOnUse" x1="157.5891" y1="49.1275" x2="197.27" y2="49.1275">
	<stop  offset="0" style="stop-color:#99C169"/>
	<stop  offset="0.5" style="stop-color:#679632"/>
	<stop  offset="1" style="stop-color:#507D26"/>
</linearGradient>
<path class="st3" d="M194,37.6c-0.9-0.6-1.7-1.3-2.7-1.8c-6.2-3.6-12.5-4.2-18.7-0.4c-4.3,2.6-6.4,6.7-7.1,11.5
	c-0.7,4.4,0.5,9,3.4,12.5c3.4,4.2,8.7,6.3,14,5.7c3.7-0.3,7.3-1.8,10.2-4.1l0.8-0.6l3.3,6.3c-2.1,1.9-4.5,3.3-7.1,4.1
	c-9.8,2.9-18.8,1.7-26.3-5.7c-3.6-3.5-5.7-8.2-6.1-13.2c-0.8-7.9,1.5-14.8,7.4-20.2c3.5-3.2,8-5.1,12.8-5.5c4.9-0.5,9.7-0.2,14.2,2
	c1.6,0.9,3.2,1.8,4.7,2.9c0.2,0.2,0.3,0.5,0.3,0.9C196,33.8,195,35.7,194,37.6z"/>
</svg>
