<svg id="Слой_1" data-name="Слой 1" xmlns="http://www.w3.org/2000/svg" viewBox="0 0 262 140">
  <defs>
    <style>
      .cls-1 {
        fill: #5c5c5b;
      }
    </style>
  </defs>
  <title>Безымянный-1</title>
  <g>
    <path class="cls-1" d="M38.33,101.62a.37.37,0,0,1-.13.28.51.51,0,0,1-.32.1H35.66a.69.69,0,0,1-.34-.07.86.86,0,0,1-.26-.25l-2.79-4.19H30.7v4a.52.52,0,0,1-.14.36.49.49,0,0,1-.38.15H28.4a.51.51,0,0,1-.51-.51V91.35A.5.5,0,0,1,28,91a.52.52,0,0,1,.36-.14h1.78a.52.52,0,0,1,.38.14.54.54,0,0,1,.14.38v3.82h1.59l2.56-4a1,1,0,0,1,.25-.26.58.58,0,0,1,.33-.09h2a.54.54,0,0,1,.35.11.36.36,0,0,1,.13.28,1,1,0,0,1-.11.28l-3.05,4.72,3.5,5.12A.5.5,0,0,1,38.33,101.62Z"/>
    <path class="cls-1" d="M41.41,100.93a5,5,0,0,1-1.48-3.57l0-.94,0-1a4.94,4.94,0,0,1,1.5-3.55,5.48,5.48,0,0,1,3.89-1.3,5.44,5.44,0,0,1,3.87,1.3,4.94,4.94,0,0,1,1.5,3.55c0,.17,0,.49,0,1s0,.77,0,.94a5,5,0,0,1-1.48,3.57,5.47,5.47,0,0,1-3.89,1.29A5.5,5.5,0,0,1,41.41,100.93Zm5.66-1.59a3.26,3.26,0,0,0,.66-2.08c0-.15,0-.43,0-.84s0-.7,0-.84a3.24,3.24,0,0,0-.67-2.09,2.49,2.49,0,0,0-3.5,0,3.24,3.24,0,0,0-.67,2.09l0,.84,0,.84a3.21,3.21,0,0,0,.67,2.08,2.52,2.52,0,0,0,3.51,0Z"/>
    <path class="cls-1" d="M65.74,91a.37.37,0,0,1,.13.29v10.31a.44.44,0,0,1-.13.33.45.45,0,0,1-.32.12H63.51a.48.48,0,0,1-.33-.12.49.49,0,0,1-.13-.33v-6l-2.27,4.17a2,2,0,0,1-.29.39.58.58,0,0,1-.38.13H59.4a.54.54,0,0,1-.37-.13,2,2,0,0,1-.31-.39l-2.26-4.08v5.86a.44.44,0,0,1-.13.33A.49.49,0,0,1,56,102H54.1a.48.48,0,0,1-.33-.12.49.49,0,0,1-.13-.33V91.24a.43.43,0,0,1,.13-.28.45.45,0,0,1,.3-.13H55.9a.61.61,0,0,1,.56.37l3.29,6,3.28-6a.62.62,0,0,1,.58-.37h1.83A.44.44,0,0,1,65.74,91Z"/>
    <path class="cls-1" d="M81.4,91a.41.41,0,0,1,.13.29v10.31a.49.49,0,0,1-.13.33.45.45,0,0,1-.32.12H79.16a.45.45,0,0,1-.32-.12.49.49,0,0,1-.13-.33v-6l-2.27,4.17a2,2,0,0,1-.29.39.58.58,0,0,1-.38.13h-.71a.58.58,0,0,1-.38-.13,3.1,3.1,0,0,1-.31-.39l-2.25-4.08v5.86a.49.49,0,0,1-.13.33.5.5,0,0,1-.35.12H69.75a.45.45,0,0,1-.32-.12.49.49,0,0,1-.13-.33V91.24a.43.43,0,0,1,.13-.28.45.45,0,0,1,.3-.13h1.83a.61.61,0,0,1,.56.37l3.28,6,3.29-6a.61.61,0,0,1,.58-.37H81.1A.44.44,0,0,1,81.4,91Z"/>
    <path class="cls-1" d="M95.21,91a.42.42,0,0,1,.14.3.68.68,0,0,1-.09.35l-4.08,9.75a27,27,0,0,1-1.2,2.52,5.3,5.3,0,0,1-1.33,1.58,3,3,0,0,1-1.92.63h-1a.5.5,0,0,1-.37-.15.51.51,0,0,1-.15-.37v-1.25a.49.49,0,0,1,.15-.36.5.5,0,0,1,.37-.15h.66a1.19,1.19,0,0,0,.95-.37,6.06,6.06,0,0,0,.79-1.46l.22-.53-4.21-9.84a.79.79,0,0,1-.09-.31.49.49,0,0,1,.14-.33.45.45,0,0,1,.33-.14H86.3a.6.6,0,0,1,.58.41l2.84,7,2.92-7a.57.57,0,0,1,.58-.41H94.9A.5.5,0,0,1,95.21,91Z"/>
    <path class="cls-1" d="M98,101.85a.49.49,0,0,1-.15-.36V91.35A.5.5,0,0,1,98,91a.52.52,0,0,1,.36-.14h1.83a.51.51,0,0,1,.37.15.54.54,0,0,1,.15.37v3.82h4.79V91.35a.5.5,0,0,1,.15-.37.49.49,0,0,1,.36-.15h1.83a.48.48,0,0,1,.51.52v10.14a.48.48,0,0,1-.14.36.47.47,0,0,1-.37.15H106a.51.51,0,0,1-.51-.51v-4h-4.79v4a.53.53,0,0,1-.15.36.51.51,0,0,1-.37.15H98.36A.49.49,0,0,1,98,101.85Z"/>
    <path class="cls-1" d="M122.33,91a.46.46,0,0,1,.15.33v10.19a.52.52,0,0,1-.14.36.5.5,0,0,1-.38.15h-1.83a.51.51,0,0,1-.51-.51V94.63l-5.09,7a.71.71,0,0,1-.61.34h-1.65a.48.48,0,0,1-.49-.49V91.35a.5.5,0,0,1,.15-.38.52.52,0,0,1,.36-.14h1.83a.49.49,0,0,1,.36.15.5.5,0,0,1,.15.37V98.2l5.1-7a.74.74,0,0,1,.6-.35H122A.54.54,0,0,1,122.33,91Z"/>
    <path class="cls-1" d="M136.25,101.62a.37.37,0,0,1-.13.28.52.52,0,0,1-.33.1h-2.21a.66.66,0,0,1-.34-.07.86.86,0,0,1-.26-.25l-2.79-4.19h-1.57v4a.52.52,0,0,1-.14.36.49.49,0,0,1-.38.15h-1.78a.51.51,0,0,1-.37-.15.49.49,0,0,1-.15-.36V91.35A.5.5,0,0,1,126,91a.55.55,0,0,1,.37-.14h1.78a.52.52,0,0,1,.38.14.54.54,0,0,1,.14.38v3.82h1.59l2.55-4a1.27,1.27,0,0,1,.26-.26.57.57,0,0,1,.32-.09h2a.56.56,0,0,1,.35.11.35.35,0,0,1,.12.28.84.84,0,0,1-.1.28l-3.05,4.72,3.5,5.12A.5.5,0,0,1,136.25,101.62Z"/>
    <path class="cls-1" d="M139.9,101.78a3.61,3.61,0,0,1-1.44-1.19,2.93,2.93,0,0,1,.66-4,7.19,7.19,0,0,1,3.24-1.23l2.95-.43v-.45a1.86,1.86,0,0,0-.48-1.39,2,2,0,0,0-1.5-.48,2.24,2.24,0,0,0-1.14.26,3.76,3.76,0,0,0-.7.53c-.18.18-.29.3-.35.35a.33.33,0,0,1-.32.26h-1.68a.46.46,0,0,1-.47-.47,2.31,2.31,0,0,1,.52-1.22,4.21,4.21,0,0,1,1.56-1.18,6.09,6.09,0,0,1,2.6-.5,5.14,5.14,0,0,1,3.7,1.14,4,4,0,0,1,1.16,3v6.75a.52.52,0,0,1-.14.36.5.5,0,0,1-.38.15h-1.78a.51.51,0,0,1-.37-.15.49.49,0,0,1-.15-.36v-.84a3.46,3.46,0,0,1-1.33,1.13,4.73,4.73,0,0,1-2.15.44A4.62,4.62,0,0,1,139.9,101.78Zm4.68-2.4a3.07,3.07,0,0,0,.75-2.23v-.43l-2.15.34c-1.65.26-2.47.81-2.47,1.66a1.19,1.19,0,0,0,.57,1.06,2.41,2.41,0,0,0,1.36.38A2.59,2.59,0,0,0,144.58,99.38Z"/>
    <path class="cls-1" d="M160.57,104.47a.49.49,0,0,1-.15-.36V102H152a.51.51,0,0,1-.51-.51V91.35a.5.5,0,0,1,.15-.38.52.52,0,0,1,.36-.14h1.83a.49.49,0,0,1,.36.15.5.5,0,0,1,.15.37v8.36h4.56V91.35a.5.5,0,0,1,.15-.38.52.52,0,0,1,.36-.14h1.81a.48.48,0,0,1,.51.52v8.36h1a.53.53,0,0,1,.38.13.54.54,0,0,1,.14.38v3.89a.49.49,0,0,1-.15.36.52.52,0,0,1-.37.16h-1.8A.51.51,0,0,1,160.57,104.47Z"/>
    <path class="cls-1" d="M176.35,91a.46.46,0,0,1,.15.33v10.19a.52.52,0,0,1-.14.36.5.5,0,0,1-.38.15h-1.82a.5.5,0,0,1-.37-.15.49.49,0,0,1-.15-.36V94.63l-5.09,7a.71.71,0,0,1-.6.34h-1.66a.48.48,0,0,1-.49-.49V91.35A.5.5,0,0,1,166,91a.52.52,0,0,1,.36-.14h1.83a.53.53,0,0,1,.37.15.5.5,0,0,1,.15.37V98.2l5.09-7a.74.74,0,0,1,.6-.35H176A.52.52,0,0,1,176.35,91Z"/>
    <path class="cls-1" d="M180.89,100.93a5,5,0,0,1-1.48-3.57l0-.94,0-1a4.94,4.94,0,0,1,1.5-3.55,6.44,6.44,0,0,1,7.76,0,4.94,4.94,0,0,1,1.5,3.55c0,.17,0,.49,0,1s0,.77,0,.94a5,5,0,0,1-1.48,3.57,6.54,6.54,0,0,1-7.8,0Zm5.66-1.59a3.26,3.26,0,0,0,.66-2.08c0-.15,0-.43,0-.84s0-.7,0-.84a3.24,3.24,0,0,0-.67-2.09,2.16,2.16,0,0,0-1.74-.72,2.21,2.21,0,0,0-1.76.72,3.24,3.24,0,0,0-.66,2.09l0,.84,0,.84a3.21,3.21,0,0,0,.66,2.08,2.23,2.23,0,0,0,1.76.71A2.18,2.18,0,0,0,186.55,99.34Z"/>
    <path class="cls-1" d="M193.28,101.85a.49.49,0,0,1-.15-.36V91.35a.5.5,0,0,1,.15-.38.52.52,0,0,1,.36-.14h1.83a.53.53,0,0,1,.37.15.54.54,0,0,1,.15.37v3.82h4.79V91.35a.5.5,0,0,1,.15-.37.49.49,0,0,1,.36-.15h1.83a.48.48,0,0,1,.51.52v10.14a.48.48,0,0,1-.14.36.47.47,0,0,1-.37.15h-1.83a.51.51,0,0,1-.51-.51v-4H196v4a.51.51,0,0,1-.52.51h-1.83A.49.49,0,0,1,193.28,101.85Z"/>
    <path class="cls-1" d="M207.21,101.85a.49.49,0,0,1-.15-.36V91.35a.5.5,0,0,1,.15-.38.52.52,0,0,1,.36-.14h1.83a.49.49,0,0,1,.36.15.5.5,0,0,1,.15.37v3.82h4.79V91.35a.5.5,0,0,1,.15-.37.51.51,0,0,1,.37-.15h1.83a.51.51,0,0,1,.37.14.54.54,0,0,1,.14.38v10.14a.52.52,0,0,1-.14.36.48.48,0,0,1-.37.15h-1.83a.51.51,0,0,1-.37-.15.49.49,0,0,1-.15-.36v-4h-4.79v4a.51.51,0,0,1-.51.51h-1.83A.49.49,0,0,1,207.21,101.85Z"/>
    <path class="cls-1" d="M222.05,100.93a5,5,0,0,1-1.48-3.57l0-.94,0-1a4.94,4.94,0,0,1,1.5-3.55,6.44,6.44,0,0,1,7.76,0,4.94,4.94,0,0,1,1.5,3.55c0,.17,0,.49,0,1s0,.77,0,.94a5,5,0,0,1-1.48,3.57,6.54,6.54,0,0,1-7.8,0Zm5.66-1.59a3.26,3.26,0,0,0,.66-2.08c0-.15,0-.43,0-.84s0-.7,0-.84a3.24,3.24,0,0,0-.67-2.09,2.16,2.16,0,0,0-1.74-.72,2.21,2.21,0,0,0-1.76.72,3.24,3.24,0,0,0-.67,2.09l0,.84,0,.84a3.21,3.21,0,0,0,.67,2.08,2.23,2.23,0,0,0,1.76.71A2.18,2.18,0,0,0,227.71,99.34Z"/>
    <path class="cls-1" d="M235.37,100.84a5.44,5.44,0,0,1-1.49-3.91l0-.53a6.08,6.08,0,0,1,1.41-4.24,5.76,5.76,0,0,1,7.84,0,6,6,0,0,1,1.39,4.13v.45a.51.51,0,0,1-.15.37.53.53,0,0,1-.39.15h-7.13v.17a3.36,3.36,0,0,0,.66,2,2,2,0,0,0,1.68.78,2.43,2.43,0,0,0,2-1,1.24,1.24,0,0,1,.3-.29,1,1,0,0,1,.37,0h1.89a.52.52,0,0,1,.33.1.4.4,0,0,1,.14.31,2,2,0,0,1-.61,1.21,5.06,5.06,0,0,1-1.75,1.21,6.27,6.27,0,0,1-2.65.52A5.21,5.21,0,0,1,235.37,100.84Zm6.15-5.41v0a3.08,3.08,0,0,0-.63-2,2.32,2.32,0,0,0-3.45,0,3.13,3.13,0,0,0-.62,2v0Z"/>
    <path class="cls-1" d="M29.12,127.56a3.61,3.61,0,0,1-1.44-1.19,2.93,2.93,0,0,1,.66-4,7,7,0,0,1,3.24-1.22l2.94-.43v-.46a1.86,1.86,0,0,0-.47-1.39,2,2,0,0,0-1.5-.47,2.22,2.22,0,0,0-1.14.25,3.45,3.45,0,0,0-.7.53l-.35.35a.33.33,0,0,1-.33.26H28.36a.44.44,0,0,1-.33-.13.41.41,0,0,1-.14-.34,2.26,2.26,0,0,1,.52-1.21A4.12,4.12,0,0,1,30,116.9a6.09,6.09,0,0,1,2.6-.5,5.1,5.1,0,0,1,3.69,1.14,4,4,0,0,1,1.16,3v6.75a.52.52,0,0,1-.13.36.48.48,0,0,1-.38.16H35.13a.47.47,0,0,1-.37-.16.49.49,0,0,1-.15-.36v-.84a3.46,3.46,0,0,1-1.33,1.13,4.76,4.76,0,0,1-2.15.44A4.62,4.62,0,0,1,29.12,127.56Zm4.67-2.4a3,3,0,0,0,.76-2.23v-.43l-2.15.34c-1.65.26-2.47.81-2.47,1.66a1.19,1.19,0,0,0,.57,1.06,2.41,2.41,0,0,0,1.36.38A2.55,2.55,0,0,0,33.79,125.16Z"/>
    <path class="cls-1" d="M40.91,127.63a.49.49,0,0,1-.15-.36V117.13a.5.5,0,0,1,.15-.38.52.52,0,0,1,.36-.14h6.81a.52.52,0,0,1,.38.14.54.54,0,0,1,.14.38v1.27a.52.52,0,0,1-.14.36.49.49,0,0,1-.38.15H43.61v8.36a.49.49,0,0,1-.15.36.46.46,0,0,1-.36.16H41.27A.46.46,0,0,1,40.91,127.63Z"/>
    <path class="cls-1" d="M51.94,126.63a5.51,5.51,0,0,1-1.5-3.91l0-.54A6,6,0,0,1,51.83,118a5,5,0,0,1,3.9-1.55A5,5,0,0,1,59.67,118a6,6,0,0,1,1.38,4.12v.45a.51.51,0,0,1-.15.37.5.5,0,0,1-.38.15H53.39v.17a3.29,3.29,0,0,0,.65,2,2,2,0,0,0,1.69.78,2.41,2.41,0,0,0,2-1,1.08,1.08,0,0,1,.31-.29,1,1,0,0,1,.36,0h1.89a.47.47,0,0,1,.33.11.34.34,0,0,1,.14.3,2,2,0,0,1-.61,1.21,5,5,0,0,1-1.75,1.21,6.25,6.25,0,0,1-2.64.52A5.22,5.22,0,0,1,51.94,126.63Zm6.15-5.42v0a3.08,3.08,0,0,0-.63-2,2.13,2.13,0,0,0-1.73-.76,2.09,2.09,0,0,0-1.72.76,3.08,3.08,0,0,0-.62,2v0Z"/>
    <path class="cls-1" d="M64.05,127.63a.49.49,0,0,1-.15-.36V117.13a.5.5,0,0,1,.15-.38.53.53,0,0,1,.37-.14h1.82a.5.5,0,0,1,.37.15.51.51,0,0,1,.15.37V121h4.79v-3.82a.51.51,0,0,1,.15-.37.5.5,0,0,1,.37-.15h1.82a.48.48,0,0,1,.52.52v10.14a.52.52,0,0,1-.14.36.48.48,0,0,1-.38.16H72.07a.47.47,0,0,1-.37-.16.49.49,0,0,1-.15-.36v-4H66.76v4a.49.49,0,0,1-.15.36.47.47,0,0,1-.37.16H64.42A.47.47,0,0,1,64.05,127.63Z"/>
    <path class="cls-1" d="M81,127.63a.49.49,0,0,1-.15-.36v-8.36H77.36a.51.51,0,0,1-.37-.15.49.49,0,0,1-.15-.36v-1.27a.5.5,0,0,1,.15-.38.55.55,0,0,1,.37-.14h9.77a.52.52,0,0,1,.38.14.54.54,0,0,1,.14.38v1.27a.52.52,0,0,1-.14.36.49.49,0,0,1-.38.15H83.65v8.36a.48.48,0,0,1-.14.36.44.44,0,0,1-.37.16H81.36A.47.47,0,0,1,81,127.63Z"/>
    <path class="cls-1" d="M91.06,126.69a5,5,0,0,1-1.49-3.63l0-.86,0-.86a5,5,0,0,1,1.49-3.63,5.34,5.34,0,0,1,3.77-1.31,6.22,6.22,0,0,1,2.87.6,4.43,4.43,0,0,1,1.74,1.47,3.33,3.33,0,0,1,.61,1.67.39.39,0,0,1-.14.36.51.51,0,0,1-.37.15H97.63a.54.54,0,0,1-.35-.09,1.13,1.13,0,0,1-.21-.36,2.55,2.55,0,0,0-.85-1.18,2.33,2.33,0,0,0-1.34-.37,2.17,2.17,0,0,0-1.71.69,3.25,3.25,0,0,0-.66,2.11l0,.79,0,.71q.13,2.79,2.37,2.79a2.29,2.29,0,0,0,1.35-.35,2.53,2.53,0,0,0,.84-1.19,1,1,0,0,1,.2-.35.53.53,0,0,1,.36-.1h1.91a.51.51,0,0,1,.37.15.39.39,0,0,1,.14.36,3.25,3.25,0,0,1-.6,1.62,4.5,4.5,0,0,1-1.72,1.5,6.13,6.13,0,0,1-2.9.62A5.34,5.34,0,0,1,91.06,126.69Z"/>
    <path class="cls-1" d="M106.15,127.63a.49.49,0,0,1-.15-.36v-8.36h-3.48a.51.51,0,0,1-.37-.15.49.49,0,0,1-.15-.36v-1.27a.5.5,0,0,1,.15-.38.55.55,0,0,1,.37-.14h9.77a.52.52,0,0,1,.38.14.54.54,0,0,1,.14.38v1.27a.52.52,0,0,1-.14.36.49.49,0,0,1-.38.15h-3.48v8.36a.48.48,0,0,1-.14.36.44.44,0,0,1-.37.16h-1.78A.47.47,0,0,1,106.15,127.63Z"/>
    <path class="cls-1" d="M115.37,127.63a.49.49,0,0,1-.15-.36V117.13a.5.5,0,0,1,.15-.38.52.52,0,0,1,.36-.14h4.77a5.74,5.74,0,0,1,3.36.82,2.63,2.63,0,0,1,1.13,2.28,2.53,2.53,0,0,1-.32,1.36,2.8,2.8,0,0,1-1,.89,2.67,2.67,0,0,1,1.17,1,2.93,2.93,0,0,1,.42,1.55,2.77,2.77,0,0,1-1.16,2.41,5.73,5.73,0,0,1-3.39.84h-5A.46.46,0,0,1,115.37,127.63Zm5.09-6.46a2.19,2.19,0,0,0,1.35-.37,1.2,1.2,0,0,0,.5-1,1,1,0,0,0-.48-.92,2.67,2.67,0,0,0-1.37-.28H118v2.6Zm.11,4.66a2.55,2.55,0,0,0,1.37-.32,1.11,1.11,0,0,0,.49-1,1.14,1.14,0,0,0-.46-1,2.5,2.5,0,0,0-1.4-.31H118v2.64Z"/>
    <path class="cls-1" d="M129.31,126.71a5,5,0,0,1-1.48-3.57l0-.94,0-1a5,5,0,0,1,1.5-3.55,6.44,6.44,0,0,1,7.76,0,5,5,0,0,1,1.5,3.55c0,.18,0,.49,0,1s0,.77,0,.94a5,5,0,0,1-1.48,3.57,6.54,6.54,0,0,1-7.8,0Zm5.66-1.59a3.26,3.26,0,0,0,.66-2.08c0-.15,0-.43,0-.84s0-.7,0-.84a3.26,3.26,0,0,0-.67-2.09,2.16,2.16,0,0,0-1.74-.72,2.21,2.21,0,0,0-1.76.72,3.32,3.32,0,0,0-.66,2.09l0,.84,0,.84a3.26,3.26,0,0,0,.66,2.08,2.23,2.23,0,0,0,1.76.71A2.18,2.18,0,0,0,135,125.12Z"/>
  </g>
  <g>
    <path class="cls-1" d="M103.69,21.58a14.26,14.26,0,0,0-6.21-5.35,22.44,22.44,0,0,0-9.79-2,20.14,20.14,0,0,0-9.63,2.14A14.92,14.92,0,0,0,72,22.07a14.76,14.76,0,0,0-2,7.56,13,13,0,0,0,2.11,7.31,14.84,14.84,0,0,0,5.48,5,17.34,17.34,0,0,0,7.09,2,5.74,5.74,0,0,0,1.66-.12L77.72,55.57a1.45,1.45,0,0,0-.25.8,1.4,1.4,0,0,0,.37,1,1.22,1.22,0,0,0,.92.39h8.63a2.58,2.58,0,0,0,2.2-1.22L99.2,43.4l1.1-1.53a45.63,45.63,0,0,0,4.13-6.52,13.67,13.67,0,0,0,1.37-6.15A14.14,14.14,0,0,0,103.69,21.58ZM92.25,34a6.79,6.79,0,0,1-8.9,0,5.91,5.91,0,0,1-1.71-4.46,5.87,5.87,0,0,1,1.74-4.47,6.75,6.75,0,0,1,8.84,0A5.82,5.82,0,0,1,94,29.57,5.87,5.87,0,0,1,92.25,34Z"/>
    <path class="cls-1" d="M37.3,14.88H28.69a1.31,1.31,0,0,0-1.3,1.31V56.41a1.3,1.3,0,0,0,1.3,1.3H37.3a1.3,1.3,0,0,0,1.3-1.3V16.19A1.31,1.31,0,0,0,37.3,14.88Z"/>
    <path class="cls-1" d="M52.57,35.38,66.79,16.93a1.27,1.27,0,0,0-1-2H56.19a2.46,2.46,0,0,0-1.93.94L38.6,35.65,55.05,56.76a2.44,2.44,0,0,0,1.94,1H67a1.27,1.27,0,0,0,1-2Z"/>
  </g>
</svg>
