<svg version="1.1" id="Слой_1" xmlns="http://www.w3.org/2000/svg" xmlns:xlink="http://www.w3.org/1999/xlink" x="0px" y="0px" viewBox="0 0 432.2 427.8" style="enable-background:new 0 0 432.2 427.8;" xml:space="preserve">
    <style type="text/css">
    .st0 {
        fill: #005666;
    }

    .st1 {
        fill: none;
        stroke: #005666;
        stroke-width: 4;
        stroke-linecap: round;
        stroke-linejoin: round;
    }

    .st2 {
        fill: none;
        stroke: #005666;
        stroke-width: 4;
        stroke-linecap: round;
        stroke-linejoin: round;
        stroke-dasharray: 18, 18, 18, 18;
    }

    .st3 {
        fill: none;
        stroke: #005666;
        stroke-width: 4;
        stroke-linecap: round;
        stroke-linejoin: round;
        stroke-dasharray: 18, 18, 18, 18, 18, 18;
    }

    .st4 {
        fill: #5D9FC9;
    }

    .st5 {
        fill: #3F6077;
    }

    .st6 {
        fill: #CC1417;
    }

    .st7 {
        fill: #8D0801;
    }
    </style>
    <title>logo</title>
    <path class="st0" d="M5.7,198.7l0.2-5.1l37.1,1.3l-0.2,5.1l-21.6-0.7l14.2,15.2l6.9,0.2l-0.2,5.1L5,218.4l0.2-5.1l22.9,0.8
	l-14.2-15.1L5.7,198.7z" />
    <path class="st0" d="M57,142.7c-4.5,12.2-10.7,22.2-25.8,16.7s-13.5-17.1-9-29.3l4.8,1.8c-4,11-4.2,19,5.9,22.7
	c9.6,3.5,14.7-2.7,19.2-13.6L57,142.7z" />
    <path class="st0" d="M58.8,71.8l4,3.2l-6.8,8.7l25.2,19.7l-3.1,4.1L52.9,87.8l-7.1,9.1l-4-3.2L58.8,71.8z" />
    <path class="st0" d="M121.4,67.3c-7.1,4.8-17.1,2.2-23.5-7.4c-6.8-10.1-4.8-19.5,2.5-24.4c7.6-5.1,17.1-2,23.3,7.2
	C131.1,54,127.8,63.1,121.4,67.3z M118.3,62.8c4.6-3.1,5.4-10.2,0.9-17c-3.4-5.1-10.4-9.7-16-6s-4.7,11.4-0.9,17.2
	C106.8,63.6,113.6,65.9,118.3,62.8z" />
    <path class="st0" d="M162.5,31l4,14.2l-4.9,1.4l-10.1-35.7l1.3-0.4c7.4-2.1,20.1-5.7,23,4.7C178.4,24.2,168.7,29.1,162.5,31z
	 M161.1,26.2c4.8-1.4,11.3-4.4,9.8-9.5c-1.2-4.3-7.8-3.7-13.1-2.2L161.1,26.2z" />
    <path class="st0" d="M232.1,0.4l5.1,0.1l-0.8,37.1l-5.1-0.1l0.5-21.6l-15,14.3l-0.2,6.9l-5.1-0.1L212.4,0l5.1,0.1L217,23l15-14.3
	L232.1,0.4z" />
    <path class="st0" d="M298.5,15.3l4.9,1.7L291,52l-4.9-1.7l7.2-20.4l-18.7,8.9l-2.3,6.5l-4.8-1.8l12.4-35l4.9,1.7l-7.7,21.6l18.8-8.9
	L298.5,15.3z" />
    <path class="st0" d="M418.5,135.4l-4.7,2.2l-4.7-10l-28.9,13.6l-2.2-4.6l28.9-13.6l-4.9-10.4l4.7-2.2L418.5,135.4z" />
    <path class="st0" d="M395.9,203.6l11.3-4.6l-1.7-14l-12-1.8l-0.6-5.4l38.1,6l1.2,10.5l-35.7,14.6L395.9,203.6z M410.8,185.7
	l1.3,11.2l14.5-5.9l-0.3-2.8L410.8,185.7z" />
    <path class="st0" d="M425.9,270.4l-5-1l2.2-10.8l-31.3-6.4l1-5l31.3,6.4l2.3-11.3l5,1L425.9,270.4z" />
    <path class="st0" d="M367,311.5l11.8,3l7-12.2l-8.6-8.7l2.7-4.7l26.9,27.5l-5.3,9.2l-37.3-9.6L367,311.5z M389.6,306.2l-5.6,9.7
	l15.1,3.9l1.4-2.5L389.6,306.2z" />
    <path class="st0" d="M351.5,352.4l-10-10.8l3.8-3.5l25.2,27.2l-1,0.9c-5.6,5.2-15.4,14.1-22.7,6.2
	C340.5,365.6,346.9,357,351.5,352.4z M355,356.2c-3.7,3.4-8.1,9-4.5,12.9c3,3.3,8.6-0.2,12.7-4L355,356.2z" />
    <path class="st0" d="M284.6,378.6c11.7-5.6,23.2-8.3,30.1,6.3s-2.4,21.6-14.2,27.2l-2.2-4.7c10.6-5.1,16.3-10.6,11.7-20.3
	c-4.4-9.2-12.3-8.4-23.2-3.8L284.6,378.6z" />
    <path class="st0" d="M233.5,427.8l-0.7-5.1l10.9-1.4l-4.1-31.7l5.1-0.7l4.2,31.7l11.5-1.5l0.7,5.1L233.5,427.8z" />
    <path class="st0" d="M175.4,385.6l1,12.2l13.9,2.6l5.4-11l5.3,1l-17.2,34.5l-10.4-2l-3.2-38.4L175.4,385.6z M187.9,405.2l-11-2.1
	l1.3,15.6l2.8,0.5L187.9,405.2z" />
    <path class="st0" d="M106.4,396l-4.5-2.5l18.4-32.2l4.5,2.5l-8.4,14.8l12.8,7.3l8.4-14.8l4.5,2.5l-18.4,32.2l-4.5-2.5l7.4-12.9
	l-12.8-7.3L106.4,396z" />
    <path class="st0" d="M80.1,323.4l-6.8,10.2l9.2,10.7l11-5.3l3.5,4.1l-34.9,16.4l-6.9-8l21.3-32.1L80.1,323.4z M77.7,346.6l-7.4-8.5
	l-8.6,13l1.9,2.2L77.7,346.6z" />
    <path class="st1" d="M374.5,8.4c0.8,3.3,1.5,6.6,2,9.8" />
    <path class="st2" d="M378.1,36.1c0.1,21.3-6.5,40.7-20.1,58.5" />
    <path class="st3" d="M352.3,101.5c-13.1,14.6-31.3,28.2-54.8,40.9c-23.9,12.9-45,22-65,35c-21.5,14-4,42-31,60
	C123.8,289.2,47.1,243.1,10,307" />
    <path class="st1" d="M5.8,315c-1.3,2.9-2.6,6-3.8,9.2" />
    <polygon class="st4" points="127.5,209.9 297.5,142.4 202.4,235.1 " />
    <path class="st5" d="M289,147.9l-87,84.9l-68.6-23.1L289,147.9 M297.8,140.3c-0.3,0-0.5,0-0.8,0.1L126.7,208c-1,0.5-1.4,1.7-1,2.7
	c0.2,0.5,0.6,0.8,1,1l75.1,25.3c0.7,0.2,1.5,0.1,2-0.5l95.3-92.9c0.8-0.8,0.7-2.1-0.1-2.8C298.7,140.5,298.2,140.3,297.8,140.3
	L297.8,140.3z" />
    <path class="st6" d="M202.3,235.6c-0.1-0.3,0-0.6,0.2-0.9l94.6-91.3l-72.8,167L202.3,235.6z" />
    <path class="st7" d="M300.2,143.2L300.2,143.2 M291.3,151.8l-66.5,152.8l-20.4-69L291.3,151.8 M298.5,139.9c-0.4,0-0.8,0.2-1,0.4
	l-96.3,93c-0.8,0.7-1.1,1.8-0.8,2.9l23.7,80.2l75.9-174.3c0.3-0.8,0-1.7-0.8-2C298.9,140,298.7,139.9,298.5,139.9L298.5,139.9z" />
</svg>