<svg id="Слой_1" data-name="Слой 1" xmlns="http://www.w3.org/2000/svg" viewBox="0 0 246 250">
  <defs>
    <style>
      .cls-1 {
        fill: #005666;
      }

      .cls-2, .cls-3 {
        fill: none;
        stroke: #005666;
        stroke-linecap: round;
        stroke-linejoin: round;
        stroke-width: 2px;
      }

      .cls-2 {
        stroke-dasharray: 18 18 18 18;
      }

      .cls-3 {
        stroke-dasharray: 18 18 18 18 18 18;
      }

      .cls-4 {
        fill: #5d9fc9;
      }

      .cls-5 {
        fill: #3f6077;
      }

      .cls-6 {
        fill: #cc1417;
      }

      .cls-7 {
        fill: #8d0801;
      }
    </style>
  </defs>
  <title>Безымянный-1</title>
  <g>
    <path class="cls-1" d="M17,116.37l.08-2.6,18.7.63L35.65,117l-10.9-.36,7.15,7.64,3.5.12-.08,2.6-18.7-.66.09-2.59,11.54.39L21.1,116.5Z"/>
    <path class="cls-1" d="M42.81,88.17c-2.25,6.16-5.41,11.17-13,8.41S23,88,25.26,81.79l2.43.91c-2,5.55-2.11,9.58,3,11.45,4.83,1.76,7.41-1.34,9.69-6.85Z"/>
    <path class="cls-1" d="M43.75,52.41l2,1.6-3.41,4.38,12.7,9.92-1.57,2L40.77,60.45,37.19,65l-2-1.59Z"/>
    <path class="cls-1" d="M75.29,50.15c-3.61,2.4-8.63,1.12-11.86-3.73C60,41.31,61,36.57,64.7,34.11s8.63-1,11.74,3.65C80.2,43.41,78.51,48,75.29,50.15Zm-1.55-2.31c2.32-1.54,2.75-5.13.45-8.57-1.71-2.58-5.22-4.91-8.06-3S63.77,42,65.7,44.91C67.93,48.27,71.38,49.41,73.74,47.84Z"/>
    <path class="cls-1" d="M96,31.85,98,39l-2.49.71-5.11-18,.67-.19c3.73-1.06,10.13-2.86,11.6,2.36C104,28.41,99.15,30.85,96,31.85Zm-.7-2.47c2.44-.7,5.68-2.2,4.94-4.8-.61-2.15-3.92-1.88-6.62-1.11Z"/>
    <path class="cls-1" d="M131.14,16.41l2.59.06-.39,18.71-2.6-.06.25-10.9-7.57,7.23-.08,3.5-2.59-.06.42-18.7,2.6.06-.27,11.54,7.57-7.23Z"/>
    <path class="cls-1" d="M164.6,23.89l2.44.87-6.25,17.65-2.44-.87L162,31.27l-9.45,4.5-1.17,3.3-2.4-.89,6.25-17.64,2.45.86L153.8,32.28l9.46-4.5Z"/>
    <path class="cls-1" d="M225.11,84.45l-2.35,1.1-2.37-5-14.58,6.86L204.71,85l14.58-6.86-2.48-5.27,2.34-1.11Z"/>
    <path class="cls-1" d="M213.7,118.84l5.7-2.34-.84-7.06-6.06-.92-.32-2.71,19.19,3,.63,5.31-18,7.35Zm7.52-9,.67,5.63,7.29-3-.17-1.43Z"/>
    <path class="cls-1" d="M228.82,152.56l-2.52-.51,1.11-5.44-15.79-3.24.51-2.52,15.79,3.24,1.17-5.71,2.52.51Z"/>
    <path class="cls-1" d="M199.12,173.28l6,1.52,3.55-6.15-4.32-4.39,1.37-2.36,13.57,13.9-2.67,4.62-18.8-4.84Zm11.41-2.69-2.83,4.9,7.62,2,.72-1.25Z"/>
    <path class="cls-1" d="M191.32,193.9l-5-5.46,1.91-1.76,12.71,13.73-.5.47c-2.85,2.63-7.76,7.12-11.44,3.14C185.78,200.56,189,196.19,191.32,193.9Zm1.74,1.89c-1.86,1.72-4.07,4.54-2.24,6.51,1.51,1.65,4.35-.09,6.41-2Z"/>
    <path class="cls-1" d="M157.59,207.12c5.92-2.8,11.7-4.16,15.17,3.16s-1.22,10.9-7.15,13.72l-1.09-2.36c5.32-2.56,8.22-5.35,5.9-10.26-2.2-4.63-6.21-4.24-11.71-1.92Z"/>
    <path class="cls-1" d="M131.82,231.92l-.33-2.56,5.51-.73-2.1-16,2.57-.34,2.1,16,5.77-.76.34,2.57Z"/>
    <path class="cls-1" d="M102.53,210.64l.5,6.14,7,1.33,2.72-5.53,2.68.51-8.67,17.38-5.25-1-1.6-19.35Zm6.29,9.88-5.54-1.06.64,7.85,1.42.27Z"/>
    <path class="cls-1" d="M67.73,215.86l-2.24-1.28,9.25-16.25L77,199.61l-4.26,7.47,6.44,3.66,4.25-7.48,2.25,1.29L76.42,220.8l-2.26-1.28L77.87,213l-6.43-3.66Z"/>
    <path class="cls-1" d="M54.47,179.28l-3.41,5.13,4.65,5.38,5.55-2.65L63,189.2l-17.57,8.28-3.5-4,10.75-16.18Zm-1.19,11.66-3.71-4.28-4.36,6.55.95,1.09Z"/>
    <path class="cls-2" d="M204.74,34.42A46.51,46.51,0,0,1,194.6,63.89"/>
    <path class="cls-3" d="M191.7,67.38c-6.61,7.38-15.77,14.21-27.61,20.63-12,6.53-22.69,11.1-32.77,17.65-10.83,7.06-2,21.18-15.63,30.26C76.51,162,37.82,138.76,19.13,171"/>
    <polygon class="cls-4" points="78.39 122.01 164.09 87.99 116.16 134.75 78.39 122.01"/>
    <path class="cls-5" d="M159.78,90.79,115.91,133.6,81.33,121.93l78.45-31.14m4.44-3.86a1,1,0,0,0-.38.07L78,121.1a1,1,0,0,0,0,1.84l37.85,12.77a1,1,0,0,0,1-.23l48-46.86a1,1,0,0,0-.05-1.42,1,1,0,0,0-.62-.27Z"/>
    <path class="cls-6" d="M116.08,135a.46.46,0,0,1,.12-.44l47.71-46-36.68,84.2Z"/>
    <path class="cls-7" d="M165.46,88.4h0M161,92.74,127.41,169.8,117.14,135,161,92.72m3.64-6a.75.75,0,0,0-.53.22l-48.56,46.9a1.45,1.45,0,0,0-.39,1.45l11.93,40.41,38.27-87.87a.77.77,0,0,0-.41-1,.67.67,0,0,0-.31-.07Z"/>
  </g>
</svg>
