<svg width="53" height="91" viewBox="0 0 53 91" fill="none" xmlns="http://www.w3.org/2000/svg">
<path d="M23.58 0.142479C17.243 0.836779 11.3714 3.83501 7.05766 8.57922C2.74396 13.3234 0.282033 19.4905 0.130023 25.9328C-0.259977 46.0616 23.35 56.9702 23.35 91.0001H29.16C29.16 57.2431 52.38 46.2436 52.38 26.4282C52.3702 22.7341 51.5961 19.0829 50.1076 15.7092C48.6191 12.3356 46.449 9.31394 43.7368 6.8385C41.0246 4.36307 37.8302 2.48856 34.3589 1.33538C30.8875 0.182211 27.2159 -0.224125 23.58 0.142479ZM27.28 42.5434C24.033 42.7605 20.7977 41.9715 18.0057 40.2816C15.2137 38.5918 12.9978 36.0814 11.6534 33.0855C10.3091 30.0895 9.90026 26.7503 10.4815 23.5134C11.0628 20.2765 12.6065 17.2956 14.9067 14.9686C17.2069 12.6415 20.1543 11.0789 23.3556 10.4891C26.557 9.89924 29.8601 10.3103 32.8245 11.6674C35.7888 13.0245 38.2733 15.2632 39.9467 18.0847C41.62 20.9063 42.4026 24.1766 42.19 27.4594C41.9491 31.3785 40.3012 35.0738 37.5558 37.8512C34.8103 40.6287 31.1563 42.2972 27.28 42.5434Z" fill="#005164"/>
</svg>
