<svg width="53" height="90" viewBox="0 0 53 90" fill="none" xmlns="http://www.w3.org/2000/svg">
<path d="M23.4999 0.169948C17.1638 0.854414 11.2923 3.818 6.97839 8.509C2.66451 13.2 0.202235 19.2988 0.049945 25.6699C-0.340055 45.5799 23.2699 56.3699 23.2699 89.9999H29.0799C29.0799 56.6099 52.2999 45.7299 52.2999 26.1299C52.2861 22.4789 51.5089 18.8711 50.0185 15.5381C48.528 12.2052 46.3572 9.22063 43.6452 6.77612C40.9333 4.33161 37.7402 2.48113 34.2709 1.34346C30.8017 0.205795 27.1328 -0.193929 23.4999 0.169948ZM27.1899 42.0999C23.9432 42.3126 20.7088 41.5304 17.9181 39.8576C15.1274 38.1847 12.913 35.7009 11.5702 32.7372C10.2274 29.7735 9.82015 26.4708 10.4027 23.2697C10.9851 20.0686 12.5297 17.1212 14.8305 14.8205C17.1312 12.5198 20.0786 10.9752 23.2797 10.3927C26.4808 9.81016 29.7835 10.2174 32.7472 11.5602C35.7109 12.903 38.1947 15.1174 39.8676 17.9081C41.5404 20.6988 42.3226 23.9332 42.1099 27.1799C41.8709 31.0588 40.2222 34.7164 37.4743 37.4643C34.7264 40.2122 31.0687 41.8609 27.1899 42.0999Z" fill="#5FA8CE"/>
</svg>
