<?xml version="1.0" encoding="utf-8"?>
<!-- Generator: Adobe Illustrator 23.1.0, SVG Export Plug-In . SVG Version: 6.00 Build 0)  -->
<svg version="1.1" id="Layer_1" xmlns="http://www.w3.org/2000/svg" xmlns:xlink="http://www.w3.org/1999/xlink" x="0px" y="0px"
	 viewBox="0 0 196.11 172" style="enable-background:new 0 0 196.11 172;" xml:space="preserve">
<style type="text/css">
	.st0{fill:none;stroke:#755343;stroke-width:5;stroke-miterlimit:10;}
	.st1{fill:#D2DBE7;stroke:#003E51;stroke-miterlimit:10;}
	.st2{fill:none;stroke:#003E51;stroke-miterlimit:10;}
	.st3{fill:#5FA8CE;stroke:#003E51;stroke-miterlimit:10;}
	.st4{fill:#9DBFDD;stroke:#003E51;stroke-miterlimit:10;}
	.st5{fill:#F6F8FA;stroke:#003E51;stroke-miterlimit:10;}
	.st6{fill:#5FA8CE;}
	.st7{fill:#D2DBE7;}
</style>
<path class="st0" d="M-200.94-1880"/>
<path class="st0" d="M-191.99-1859.53"/>
<g>
	<rect x="60.03" y="93.35" class="st1" width="75.84" height="57.63"/>
	<line class="st2" x1="97.96" y1="1.5" x2="97.96" y2="22.46"/>
	<path class="st3" d="M57.08,84.28v0.07c0-19.51,18.3-40.53,40.88-40.53s40.88,21.02,40.88,40.53v-0.07"/>
	<path class="st2" d="M76.97,84.28v0.07c0-19.51,9.4-40.53,20.98-40.53s20.98,21.02,20.98,40.53v-0.21"/>
	<rect x="56.97" y="84.35" class="st4" width="81.97" height="5.8"/>
	<rect x="47.52" y="151.2" class="st1" width="100.87" height="3.2"/>
	<rect x="43.43" y="154.4" class="st1" width="109.05" height="3.2"/>
	<rect x="37.98" y="157.6" class="st1" width="119.95" height="3.2"/>
	<rect x="16.91" y="161.01" class="st1" width="162.1" height="3.2"/>
	<rect x="8.6" y="164.4" class="st1" width="178.91" height="3.2"/>
	<rect x="1" y="167.8" class="st1" width="194.11" height="3.2"/>
	<polyline class="st2" points="97.96,43.81 97.96,77.4 97.96,84.14 	"/>
	<line class="st2" x1="62.3" y1="101.79" x2="133.52" y2="101.79"/>
	<rect x="95.41" y="93.3" class="st4" width="5.09" height="5.78"/>
	<rect x="95.41" y="141.79" class="st4" width="5.09" height="9.3"/>
	<rect x="96.22" y="99.08" class="st1" width="3.47" height="42.71"/>
	<rect x="76.49" y="93.3" class="st4" width="5.09" height="5.78"/>
	<rect x="76.49" y="141.79" class="st4" width="5.09" height="9.3"/>
	<rect x="77.3" y="99.08" class="st1" width="3.47" height="42.71"/>
	<rect x="57.56" y="93.3" class="st4" width="5.09" height="5.78"/>
	<rect x="57.56" y="141.79" class="st4" width="5.09" height="9.3"/>
	<rect x="58.38" y="99.08" class="st1" width="3.47" height="42.71"/>
	<rect x="114.33" y="93.3" class="st4" width="5.09" height="5.78"/>
	<rect x="114.33" y="141.79" class="st4" width="5.09" height="9.3"/>
	<rect x="115.14" y="99.08" class="st1" width="3.47" height="42.71"/>
	<rect x="133.25" y="93.3" class="st4" width="5.09" height="5.78"/>
	<rect x="133.25" y="141.79" class="st4" width="5.09" height="9.3"/>
	<rect x="134.07" y="99.08" class="st1" width="3.47" height="42.71"/>
	<rect x="87.22" y="104.36" class="st5" width="2.55" height="3.5"/>
	<rect x="106.14" y="104.36" class="st5" width="2.55" height="3.5"/>
	<rect x="125.07" y="104.36" class="st5" width="2.55" height="3.5"/>
	<rect x="68.3" y="104.36" class="st5" width="2.55" height="3.5"/>
	<rect x="83.29" y="109.56" class="st3" width="10.42" height="41.52"/>
	<rect x="102.21" y="109.56" class="st3" width="10.42" height="41.52"/>
	<rect x="121.13" y="109.56" class="st3" width="10.42" height="41.52"/>
	<rect x="64.36" y="109.56" class="st3" width="10.42" height="41.52"/>
	<polygon class="st5" points="107.91,67.75 101.73,71.78 101.73,84.14 114.09,84.14 114.09,71.78 	"/>
	<circle class="st3" cx="107.91" cy="77.15" r="4"/>
	<g>
		<line class="st2" x1="107.91" y1="72.74" x2="107.91" y2="81.55"/>
		<line class="st2" x1="103.66" y1="77.15" x2="112.1" y2="77.15"/>
	</g>
	<polygon class="st5" points="127.83,67.75 121.65,71.78 121.65,84.14 134,84.14 134,71.78 	"/>
	<circle class="st3" cx="127.83" cy="77.15" r="4"/>
	<g>
		<line class="st2" x1="127.85" y1="72.74" x2="127.85" y2="81.55"/>
		<line class="st2" x1="123.61" y1="77.15" x2="132.04" y2="77.15"/>
	</g>
	<polygon class="st5" points="88,67.75 81.82,71.78 81.82,84.14 94.18,84.14 94.18,71.78 	"/>
	<circle class="st3" cx="88" cy="77.15" r="4"/>
	<g>
		<line class="st2" x1="88.03" y1="72.74" x2="88.03" y2="81.55"/>
		<line class="st2" x1="83.78" y1="77.15" x2="92.22" y2="77.15"/>
	</g>
	<polygon class="st5" points="68.09,67.75 61.91,71.78 61.91,84.14 74.27,84.14 74.27,71.78 	"/>
	<circle class="st3" cx="68.09" cy="77.15" r="4"/>
	<g>
		<line class="st2" x1="68.12" y1="72.74" x2="68.12" y2="81.55"/>
		<line class="st2" x1="63.87" y1="77.15" x2="72.31" y2="77.15"/>
	</g>
	<rect x="55.12" y="90.16" class="st4" width="85.68" height="3.21"/>
	<g>
		<g id="XMLID_1_">
			<g>
				<path class="st6" d="M107.46,42.2v3.22H88.45V42.2h2.94c0.12,0.01,0.24,0.02,0.36,0.02s0.24-0.01,0.36-0.02h11.69
					c0.12,0.01,0.24,0.02,0.36,0.02c0.12,0,0.24-0.01,0.36-0.02H107.46z"/>
				<path class="st6" d="M103.8,42.2H92.11h-0.72c-1.51-0.18-2.69-1.45-2.72-3c0.07-3.89,6.15-5.36,6.15-7.56
					c0-0.92-0.72-1.67-1.63-1.72v-0.07h9.3l0.02,0.1c-0.81,0.14-1.42,0.85-1.42,1.7c0,2.2,6.08,3.68,6.15,7.56
					c-0.03,1.55-1.2,2.82-2.72,3H103.8z"/>
				<path class="st6" d="M103.8,42.2h0.72c-0.12,0.01-0.24,0.02-0.36,0.02C104.04,42.22,103.92,42.22,103.8,42.2z"/>
				<path class="st7" d="M97.96,22.05c1.93,0,3.49,1.56,3.49,3.49s-1.56,3.49-3.49,3.49c-1.93,0-3.49-1.56-3.49-3.49
					S96.03,22.05,97.96,22.05z"/>
				<path class="st6" d="M91.39,42.2h0.72c-0.12,0.01-0.24,0.02-0.36,0.02S91.51,42.22,91.39,42.2z"/>
			</g>
			<g>
				<path class="st2" d="M101.45,25.55c0,1.93-1.56,3.49-3.49,3.49c-1.93,0-3.49-1.56-3.49-3.49s1.56-3.49,3.49-3.49
					C99.89,22.05,101.45,23.62,101.45,25.55z"/>
				<polyline class="st2" points="93.15,29.84 93.19,29.84 102.49,29.84 				"/>
				<polygon class="st2" points="104.52,42.2 107.46,42.2 107.46,45.43 88.45,45.43 88.45,42.2 91.39,42.2 92.11,42.2 103.8,42.2 
									"/>
				<path class="st2" d="M91.38,31.64c0-0.95,0.77-1.72,1.72-1.72c0.03,0,0.06,0,0.09,0c0.91,0.05,1.63,0.8,1.63,1.72"/>
				<path class="st2" d="M93.59,36.68c0.75,0.56,1.24,1.46,1.24,2.47c0,1.58-1.19,2.88-2.72,3.05c-0.12,0.01-0.24,0.02-0.36,0.02
					s-0.24-0.01-0.36-0.02c-1.51-0.18-2.69-1.45-2.72-3c0-0.02,0-0.04,0-0.06"/>
				<path class="st2" d="M94.83,31.64c0,2.2-6.08,3.68-6.15,7.56c0,0.02,0,0.04,0,0.07"/>
				<path class="st2" d="M104.53,31.64c0-0.95-0.77-1.72-1.72-1.72c-0.1,0-0.2,0.01-0.3,0.03c-0.81,0.14-1.42,0.85-1.42,1.7"/>
				<path class="st2" d="M102.33,36.68c-0.75,0.56-1.24,1.46-1.24,2.47c0,1.58,1.19,2.88,2.72,3.05c0.12,0.01,0.24,0.02,0.36,0.02
					c0.12,0,0.24-0.01,0.36-0.02c1.51-0.18,2.69-1.45,2.72-3c0-0.02,0-0.04,0-0.06"/>
				<path class="st2" d="M101.09,31.64c0,2.2,6.08,3.68,6.15,7.56c0,0.02,0,0.04,0,0.07"/>
			</g>
		</g>
	</g>
	<circle class="st1" cx="97.96" cy="1.5" r="0.5"/>
</g>
</svg>
