<?xml version="1.0" encoding="utf-8"?>
<!-- Generator: Adobe Illustrator 23.1.0, SVG Export Plug-In . SVG Version: 6.00 Build 0)  -->
<svg version="1.1" id="Layer_1" xmlns="http://www.w3.org/2000/svg" xmlns:xlink="http://www.w3.org/1999/xlink" x="0px" y="0px"
	 viewBox="0 0 179.79 171.14" style="enable-background:new 0 0 179.79 171.14;" xml:space="preserve">
<style type="text/css">
	.st0{fill:#6A8E82;}
	.st1{fill:#88A59B;}
	.st2{fill:#A6BBB4;}
	.st3{fill:#E1E8E6;}
	.st4{fill:none;stroke:#354741;stroke-width:5;stroke-miterlimit:10;}
	.st5{fill:none;stroke:#354741;stroke-miterlimit:10;}
</style>
<g id="XMLID_2_">
	<g>
		<polygon class="st2" points="141.72,0.64 179.04,49.66 176.75,50.95 139.71,6.28 		"/>
		<polygon class="st2" points="176.75,50.95 174.57,52.17 174.55,52.13 138.12,10.76 139.71,6.28 		"/>
		<path class="st3" d="M174.55,52.13l0.02,0.04l-0.13,0.07v37.44l-36.32-25.33V10.76L174.55,52.13z M151.7,68.32V56.36l-5.22-5.13
			v12.77L151.7,68.32z M151.39,45.61V33.69l-5.17-6.3v12.82L151.39,45.61z"/>
		<path class="st3" d="M174.44,144.83v21.64l-36.26,4.15l-0.05-0.44v-30.4L174.44,144.83z M152.96,159.17v-12.14l-5.4-0.45v12.59
			H152.96z"/>
		<polygon class="st2" points="174.44,141.41 174.44,144.83 138.12,139.78 138.12,134.67 		"/>
		<path class="st3" d="M174.44,91.93v49.47l-36.32-6.73V68.05L174.44,91.93z M152.65,135.56v-12.1l-5.35-1.62v12.64L152.65,135.56z
			 M152.33,113.75v-12.5l-5.31-2.34v12.68L152.33,113.75z M152.02,92.16V79.7l-5.26-3.51v12.73L152.02,92.16z"/>
		<polygon class="st2" points="174.44,89.69 174.44,91.93 138.12,68.05 138.12,64.36 		"/>
		<polygon class="st0" points="152.96,147.03 152.96,159.17 147.56,159.17 147.56,146.58 		"/>
		<polygon class="st0" points="152.65,123.46 152.65,135.56 147.29,134.48 147.29,121.84 		"/>
		<polygon class="st0" points="152.33,101.24 152.33,113.75 147.02,111.59 147.02,98.91 		"/>
		<polygon class="st0" points="152.02,79.7 152.02,92.16 146.75,88.92 146.75,76.19 		"/>
		<polygon class="st0" points="151.7,56.36 151.7,68.32 146.48,64.01 146.48,51.23 		"/>
		<polygon class="st0" points="151.39,33.69 151.39,45.61 146.21,40.21 146.21,27.4 		"/>
		<polygon class="st1" points="93.15,25.93 141.72,0.64 139.71,6.28 139.69,6.26 0.5,76.19 0.5,74.17 2.65,73.05 3.91,72.39 
			9.52,69.47 10.88,68.77 17.6,65.26 36.16,55.6 40.08,53.56 44.07,51.49 68.63,38.69 71.11,37.4 79.65,32.95 82.4,31.53 
			85.05,30.14 		"/>
		<polygon class="st1" points="139.71,6.28 138.12,10.76 0.5,78.68 0.5,76.19 139.69,6.26 		"/>
		<path class="st2" d="M138.12,170.19l0.05,0.44l-0.05,0.01L0.5,157.37v-9.65l137.62-7.94V170.19z M124.63,160.07v-13.49h-6.52
			v13.49H124.63z M103.48,159.28v-12.18h-5.77v12.18H103.48z M89.37,158.74v-11.31h-5.26v11.31H89.37z M75.27,158.22v-10.44h-4.76
			v10.44H75.27z M61.17,157.69v-9.56h-4.26v9.56H61.17z M50,157.16v-8.69h-3.76v8.69H50z M40.02,156.89v-8.25h-3.51v8.25H40.02z
			 M29.73,156.37v-7.38h-6.81v7.38H29.73z M18.87,156.1v-6.94h-2.75v6.94H18.87z M11.82,155.83v-6.51h-2.5v6.51H11.82z M4.77,155.57
			v-6.07H2.52v6.07H4.77z"/>
		<polygon class="st1" points="138.12,134.67 138.12,139.78 0.5,147.72 0.5,144.77 		"/>
		<path class="st2" d="M138.12,68.05v66.62L0.5,144.77v-35.04L138.12,68.05z M125.3,133.57v-12.63l-7.2,0.9v12.14L125.3,133.57z
			 M104.07,135.12v-11.68l-6.36,0.78v11.27L104.07,135.12z M104.07,113.9v-11.71l-6.36,1.37v11.27L104.07,113.9z M104.07,93.05
			V81.34l-6.36,1.97v11.27L104.07,93.05z M89.92,136.14v-11.03l-5.81,0.7v10.69L89.92,136.14z M89.92,116.22v-11.1l-5.81,1.24v10.69
			L89.92,116.22z M89.92,96.62v-11.1l-5.81,1.79v10.69L89.92,96.62z M75.76,137.17v-10.39l-5.25,0.62v10.11L75.76,137.17z
			 M75.76,118.55v-10.49l-5.25,1.11v10.11L75.76,118.55z M75.76,100.18V89.7l-5.25,1.6v10.11L75.76,100.18z M61.61,138.2v-9.75
			l-4.7,0.54v9.52L61.61,138.2z M61.61,120.87v-9.87l-4.7,0.98v9.53L61.61,120.87z M61.61,103.75v-9.87l-4.7,1.42v9.52L61.61,103.75
			z M50.38,138.77v-9.11l-4.14,0.46v8.94L50.38,138.77z M50.38,122.52v-9.26l-4.14,0.85v8.94L50.38,122.52z M50.38,106.42v-9.26
			l-4.14,1.23v8.94L50.38,106.42z M40.38,139.74v-8.79l-3.86,0.42v8.65L40.38,139.74z M40.38,124.35v-8.95l-3.86,0.78v8.65
			L40.38,124.35z M40.38,109.1v-8.95l-3.86,1.14v8.65L40.38,109.1z M29.96,125.78v-8.34l-7.04,1.55v8.07L29.96,125.78z
			 M29.73,140.31v-8.16l-6.81,0.79v8.07L29.73,140.31z M29.73,111.99v-8.34l-6.81,1.63v8.07L29.73,111.99z M19.15,141.28v-7.83
			l-3.03,0.3v7.78L19.15,141.28z M19.15,127.84v-8.03l-3.03,0.58v7.78L19.15,127.84z M19.15,114.45v-8.03l-3.03,0.86v7.78
			L19.15,114.45z M12.07,141.79v-7.52l-2.75,0.27v7.49L12.07,141.79z M12.07,129v-7.73l-2.75,0.51v7.49L12.07,129z M12.07,116.24
			v-7.73l-2.75,0.77v7.49L12.07,116.24z M5,142.3v-7.2l-2.47,0.22v7.2L5,142.3z M5,130.16v-7.42l-2.47,0.45v7.2L5,130.16z M5,118.02
			v-7.42l-2.47,0.67v7.2L5,118.02z"/>
		<polygon class="st1" points="138.12,64.36 138.12,68.05 0.5,109.73 0.5,107.81 		"/>
		<path class="st2" d="M19.95,84.56l3.04,1.3l7.06-2.43l-0.09-0.27v-5.97v-9.32l-3.37-0.45l-0.22,0.11l-6.3,3.04v7.96v5.75
			L19.95,84.56z M41.52,78.26l-0.09-0.27v-5.97V62.7l-3.37-0.45l-0.22,0.11l-6.3,3.04v7.96v5.75l-0.12,0.27l3.04,1.3L41.52,78.26z
			 M138.12,10.76v53.61L0.5,107.81V78.68L138.12,10.76z M125.3,62.51V49.21l-7.2,2.92v12.59L125.3,62.51z M124.82,39.16V25.49
			l-6.69,3.34V41.9L124.82,39.16z M104.89,47.15V34.03l-6.41,3.21v12.53L104.89,47.15z M104.07,69.61V57.3l-6.36,2.57v11.72
			L104.07,69.61z M89.92,74.34V62.7l-5.81,2.33v11.14L89.92,74.34z M89.15,53.86V41.68l-5.96,2.98v11.64L89.15,53.86z M75.76,79.07
			V68.1l-5.25,2.09v10.56L75.76,79.07z M75.21,59.93V47.75l-5.96,2.98v11.64L75.21,59.93z M61.89,64.5V54.38l-4.95,2.47v9.67
			L61.89,64.5z M61.61,83.81V73.5l-4.7,1.85v9.98L61.61,83.81z M51.54,69.45V59.33L46.6,61.8v9.67L51.54,69.45z M50.38,87.41v-9.64
			l-4.14,1.61v9.39L50.38,87.41z M40.38,90.9v-9.31l-3.86,1.49v9.1L40.38,90.9z M29.73,94.28v-8.64l-6.81,2.61v8.52L29.73,94.28z
			 M19.15,98v-8.31l-3.03,1.14v8.23L19.15,98z M18.49,82.71v-7.87l-3.37,1.57v7.87L18.49,82.71z M12.07,100.36v-7.98L9.32,93.4v7.94
			L12.07,100.36z M11.52,86.09v-8.1L8.6,79.57v7.65L11.52,86.09z M5,102.73v-7.65l-2.47,0.9v7.65L5,102.73z M5,88.79v-7.65
			l-2.47,1.12v7.65L5,88.79z"/>
		<polygon class="st0" points="125.3,120.94 125.3,133.57 118.11,133.98 118.11,121.84 		"/>
		<polygon class="st0" points="125.3,49.21 125.3,62.51 118.11,64.73 118.11,52.13 		"/>
		<polygon class="st0" points="124.82,25.49 124.82,39.16 118.13,41.9 118.13,28.83 		"/>
		<rect x="118.11" y="146.58" class="st0" width="6.52" height="13.49"/>
		<polygon class="st0" points="104.89,34.03 104.89,47.15 98.48,49.77 98.48,37.24 		"/>
		<polygon class="st0" points="104.07,123.44 104.07,135.12 97.71,135.49 97.71,124.22 		"/>
		<polygon class="st0" points="104.07,102.19 104.07,113.9 97.71,114.83 97.71,103.56 		"/>
		<polygon class="st0" points="104.07,81.34 104.07,93.05 97.71,94.58 97.71,83.31 		"/>
		<polygon class="st0" points="104.07,57.3 104.07,69.61 97.71,71.59 97.71,59.87 		"/>
		<rect x="97.71" y="147.09" class="st0" width="5.77" height="12.18"/>
		<polygon class="st2" points="93.15,23.8 93.15,25.93 85.05,30.14 85.05,17.5 		"/>
		<polygon class="st0" points="89.92,125.11 89.92,136.14 84.11,136.5 84.11,125.81 		"/>
		<polygon class="st0" points="89.92,105.12 89.92,116.22 84.11,117.05 84.11,106.36 		"/>
		<polygon class="st0" points="89.92,85.52 89.92,96.62 84.11,97.99 84.11,87.3 		"/>
		<polygon class="st0" points="89.92,62.7 89.92,74.34 84.11,76.17 84.11,65.03 		"/>
		<rect x="84.11" y="147.44" class="st0" width="5.26" height="11.31"/>
		<polygon class="st0" points="89.15,41.68 89.15,53.86 83.2,56.29 83.2,44.65 		"/>
		<polygon class="st1" points="85.05,30.14 82.4,31.53 82.35,31.44 82.35,19.08 85.05,17.5 		"/>
		<polygon class="st2" points="79.65,31 79.65,32.95 71.11,37.4 71.11,26.05 		"/>
		<polygon class="st0" points="75.76,126.78 75.76,137.17 70.51,137.5 70.51,127.4 		"/>
		<polygon class="st0" points="75.76,108.06 75.76,118.55 70.51,119.28 70.51,109.17 		"/>
		<polygon class="st0" points="75.76,89.7 75.76,100.18 70.51,101.4 70.51,91.3 		"/>
		<polygon class="st0" points="75.76,68.1 75.76,79.07 70.51,80.74 70.51,70.19 		"/>
		<rect x="70.51" y="147.78" class="st0" width="4.76" height="10.44"/>
		<polygon class="st0" points="75.21,47.75 75.21,59.93 69.25,62.36 69.25,50.73 		"/>
		<polygon class="st1" points="71.11,26.05 71.11,37.4 68.63,38.69 68.63,38.69 68.63,27.62 		"/>
		<polygon class="st0" points="61.89,54.38 61.89,64.5 56.94,66.52 56.94,56.85 		"/>
		<polygon class="st0" points="61.61,128.44 61.61,138.2 56.91,138.51 56.91,128.98 		"/>
		<polygon class="st0" points="61.61,110.99 61.61,120.87 56.91,121.5 56.91,111.97 		"/>
		<polygon class="st0" points="61.61,93.88 61.61,103.75 56.91,104.82 56.91,95.29 		"/>
		<polygon class="st0" points="61.61,73.5 61.61,83.81 56.91,85.32 56.91,75.35 		"/>
		<rect x="56.91" y="148.12" class="st0" width="4.26" height="9.56"/>
		<polygon class="st0" points="51.54,59.33 51.54,69.45 46.6,71.47 46.6,61.8 		"/>
		<polygon class="st0" points="50.38,129.66 50.38,138.77 46.24,139.06 46.24,130.12 		"/>
		<polygon class="st0" points="50.38,113.26 50.38,122.52 46.24,123.04 46.24,114.1 		"/>
		<polygon class="st0" points="50.38,97.16 50.38,106.42 46.24,107.33 46.24,98.39 		"/>
		<polygon class="st0" points="50.38,77.77 50.38,87.41 46.24,88.77 46.24,79.38 		"/>
		<rect x="46.24" y="148.47" class="st0" width="3.76" height="8.69"/>
		<polygon class="st2" points="44.07,51.48 44.07,51.49 40.08,53.56 40.08,51.01 		"/>
		<polygon class="st1" points="41.43,77.99 41.52,78.26 34.46,80.69 31.41,79.39 31.53,79.12 37.6,76.87 37.81,76.93 		"/>
		<polygon class="st1" points="41.43,72.02 41.43,77.99 37.81,76.93 37.83,76.87 37.83,70.68 		"/>
		<polygon class="st0" points="41.43,62.7 41.43,72.02 37.83,70.68 37.83,62.36 38.05,62.25 		"/>
		<polygon class="st0" points="40.38,130.94 40.38,139.74 36.52,140.02 36.52,131.36 		"/>
		<polygon class="st0" points="40.38,115.4 40.38,124.35 36.52,124.83 36.52,116.18 		"/>
		<polygon class="st0" points="40.38,100.15 40.38,109.1 36.52,109.94 36.52,101.29 		"/>
		<polygon class="st0" points="40.38,81.59 40.38,90.9 36.52,92.18 36.52,83.08 		"/>
		<polygon class="st1" points="40.08,51.01 40.08,53.56 36.16,55.6 36.16,53.03 		"/>
		<rect x="36.52" y="148.64" class="st0" width="3.51" height="8.25"/>
		<polygon class="st1" points="37.83,70.68 37.83,76.87 37.81,76.93 37.6,76.87 31.53,79.12 31.53,73.36 		"/>
		<polygon class="st0" points="37.83,62.36 37.83,70.68 31.53,73.36 31.53,65.4 		"/>
		<polygon class="st1" points="29.96,83.16 30.05,83.43 22.99,85.86 19.95,84.56 20.06,84.29 26.13,82.04 26.34,82.1 		"/>
		<polygon class="st0" points="29.96,117.44 29.96,125.78 22.92,127.05 22.92,118.98 		"/>
		<polygon class="st1" points="29.96,77.19 29.96,83.16 26.34,82.1 26.36,82.04 26.36,75.86 		"/>
		<polygon class="st0" points="29.96,67.87 29.96,77.19 26.36,75.86 26.36,67.53 26.58,67.42 		"/>
		<rect x="22.92" y="148.98" class="st0" width="6.81" height="7.38"/>
		<polygon class="st0" points="29.73,132.16 29.73,140.31 22.92,141.02 22.92,132.95 		"/>
		<polygon class="st0" points="29.73,103.65 29.73,111.99 22.92,113.35 22.92,105.28 		"/>
		<polygon class="st0" points="29.73,85.64 29.73,94.28 22.92,96.76 22.92,88.24 		"/>
		<polygon class="st1" points="26.36,75.86 26.36,82.04 26.34,82.1 26.13,82.04 20.06,84.29 20.06,78.53 		"/>
		<polygon class="st0" points="26.36,67.53 26.36,75.86 20.06,78.53 20.06,70.57 		"/>
		<polygon class="st0" points="19.15,133.44 19.15,141.28 16.12,141.52 16.12,133.75 		"/>
		<polygon class="st0" points="19.15,119.8 19.15,127.84 16.12,128.16 16.12,120.39 		"/>
		<polygon class="st0" points="19.15,106.42 19.15,114.45 16.12,115.06 16.12,107.28 		"/>
		<polygon class="st0" points="19.15,89.69 19.15,98 16.12,99.05 16.12,90.82 		"/>
		<rect x="16.12" y="149.16" class="st0" width="2.75" height="6.94"/>
		<polygon class="st0" points="18.49,74.84 18.49,82.71 15.12,84.29 15.12,76.42 		"/>
		<polygon class="st2" points="17.6,65.26 10.88,68.77 10.84,68.7 10.84,59.87 17.59,62.7 17.59,65.25 		"/>
		<polygon class="st0" points="12.07,134.27 12.07,141.79 9.32,142.03 9.32,134.54 		"/>
		<polygon class="st0" points="12.07,121.27 12.07,129 9.32,129.28 9.32,121.79 		"/>
		<polygon class="st0" points="12.07,108.51 12.07,116.24 9.32,116.76 9.32,109.27 		"/>
		<polygon class="st0" points="12.07,92.38 12.07,100.36 9.32,101.34 9.32,93.4 		"/>
		<rect x="9.32" y="149.33" class="st0" width="2.5" height="6.51"/>
		<polygon class="st0" points="11.52,77.99 11.52,86.09 8.6,87.21 8.6,79.57 		"/>
		<polygon class="st1" points="10.84,68.7 10.88,68.77 9.52,69.47 9.49,69.43 9.49,66.07 9.49,60.45 10.62,59.78 10.84,59.87 		"/>
		<polygon class="st2" points="9.49,69.43 9.52,69.47 3.91,72.39 3.87,72.32 3.87,63.7 9.49,66.07 		"/>
		<polygon class="st0" points="5,135.11 5,142.3 2.52,142.53 2.52,135.33 		"/>
		<polygon class="st0" points="5,122.74 5,130.16 2.52,130.39 2.52,123.19 		"/>
		<polygon class="st0" points="5,110.6 5,118.02 2.52,118.47 2.52,111.27 		"/>
		<polygon class="st0" points="5,95.08 5,102.73 2.52,103.63 2.52,95.98 		"/>
		<polygon class="st0" points="5,81.14 5,88.79 2.52,89.91 2.52,82.26 		"/>
		<rect x="2.52" y="149.5" class="st0" width="2.25" height="6.07"/>
		<polygon class="st1" points="3.87,72.32 3.91,72.39 2.65,73.05 2.52,72.82 2.52,64.28 3.65,63.6 3.87,63.7 		"/>
	</g>
	<g>
		<polyline class="st5" points="138.12,170.19 138.12,139.78 138.12,134.67 138.12,68.05 138.12,64.36 138.12,10.76 139.71,6.28 
			141.72,0.64 		"/>
		<polygon class="st5" points="0.5,147.72 0.5,157.37 138.12,170.64 138.17,170.63 174.44,166.48 174.44,144.83 174.44,141.41 
			174.44,91.93 174.44,89.69 174.44,52.25 174.57,52.17 176.75,50.95 179.04,49.66 141.72,0.64 93.15,25.93 85.05,30.14 82.4,31.53 
			79.65,32.95 71.11,37.4 68.63,38.69 44.07,51.49 40.08,53.56 36.16,55.6 17.6,65.26 10.88,68.77 9.52,69.47 3.91,72.39 
			2.65,73.05 0.5,74.17 0.5,76.19 0.5,78.68 0.5,107.81 0.5,109.73 0.5,144.77 		"/>
		<polyline class="st5" points="0.5,78.68 138.12,10.76 174.55,52.13 		"/>
		<polyline class="st5" points="0.5,76.19 139.69,6.26 139.71,6.28 176.75,50.95 176.8,51.01 		"/>
		<polyline class="st5" points="0.5,107.81 138.12,64.36 174.44,89.69 		"/>
		<polyline class="st5" points="0.5,109.73 138.12,68.05 174.44,91.93 		"/>
		<polyline class="st5" points="0.5,144.77 138.12,134.67 174.44,141.41 		"/>
		<polyline class="st5" points="0.5,147.72 138.12,139.78 174.44,144.83 		"/>
		<polygon class="st5" points="2.52,82.26 2.52,89.91 5,88.79 5,81.14 		"/>
		<polygon class="st5" points="2.52,95.98 2.52,103.63 5,102.73 5,95.08 		"/>
		<polygon class="st5" points="12.07,92.38 9.32,93.4 9.32,101.34 12.07,100.36 		"/>
		<polygon class="st5" points="19.15,89.69 16.12,90.82 16.12,99.05 19.15,98 		"/>
		<polygon class="st5" points="29.73,85.64 22.92,88.24 22.92,96.76 29.73,94.28 		"/>
		<polygon class="st5" points="40.38,81.59 36.52,83.08 36.52,92.18 40.38,90.9 		"/>
		<polygon class="st5" points="50.38,77.77 46.24,79.38 46.24,88.77 50.38,87.41 		"/>
		<polygon class="st5" points="61.61,73.5 56.91,75.35 56.91,85.32 61.61,83.81 		"/>
		<polygon class="st5" points="75.76,68.1 70.51,70.19 70.51,80.74 75.76,79.07 		"/>
		<polygon class="st5" points="89.92,62.7 84.11,65.03 84.11,76.17 89.92,74.34 		"/>
		<polygon class="st5" points="104.07,57.3 97.71,59.87 97.71,71.59 104.07,69.61 		"/>
		<polygon class="st5" points="118.11,52.13 118.11,64.73 125.3,62.51 125.3,49.21 		"/>
		<polygon class="st5" points="2.52,111.27 2.52,118.47 5,118.02 5,110.6 		"/>
		<polygon class="st5" points="12.07,108.51 9.32,109.27 9.32,116.76 12.07,116.24 		"/>
		<polygon class="st5" points="19.15,106.42 16.12,107.28 16.12,115.06 19.15,114.45 		"/>
		<polygon class="st5" points="29.73,103.65 22.92,105.28 22.92,113.35 29.73,111.99 		"/>
		<polygon class="st5" points="40.38,100.15 36.52,101.29 36.52,109.94 40.38,109.1 		"/>
		<polygon class="st5" points="50.38,97.16 46.24,98.39 46.24,107.33 50.38,106.42 		"/>
		<polygon class="st5" points="61.61,93.88 56.91,95.29 56.91,104.82 61.61,103.75 		"/>
		<polygon class="st5" points="75.76,89.7 70.51,91.3 70.51,101.4 75.76,100.18 		"/>
		<polygon class="st5" points="89.92,85.52 84.11,87.3 84.11,97.99 89.92,96.62 		"/>
		<polygon class="st5" points="104.07,81.34 97.71,83.31 97.71,94.58 104.07,93.05 		"/>
		<polygon class="st5" points="2.52,123.19 2.52,130.39 5,130.16 5,122.74 		"/>
		<polygon class="st5" points="12.07,121.27 9.32,121.79 9.32,129.28 12.07,129 		"/>
		<polygon class="st5" points="19.15,119.8 16.12,120.39 16.12,128.16 19.15,127.84 		"/>
		<polygon class="st5" points="29.96,117.44 22.92,118.98 22.92,127.05 29.96,125.78 		"/>
		<polygon class="st5" points="40.38,115.4 36.52,116.18 36.52,124.83 40.38,124.35 		"/>
		<polygon class="st5" points="50.38,113.26 46.24,114.1 46.24,123.04 50.38,122.52 		"/>
		<polygon class="st5" points="61.61,110.99 56.91,111.97 56.91,121.5 61.61,120.87 		"/>
		<polygon class="st5" points="75.76,108.06 70.51,109.17 70.51,119.28 75.76,118.55 		"/>
		<polygon class="st5" points="89.92,105.12 84.11,106.36 84.11,117.05 89.92,116.22 		"/>
		<polygon class="st5" points="104.07,102.19 97.71,103.56 97.71,114.83 104.07,113.9 		"/>
		<polygon class="st5" points="2.52,135.33 2.52,142.53 5,142.3 5,135.11 		"/>
		<polygon class="st5" points="12.07,134.27 9.32,134.54 9.32,142.03 12.07,141.79 		"/>
		<polygon class="st5" points="19.15,133.44 16.12,133.75 16.12,141.52 19.15,141.28 		"/>
		<polygon class="st5" points="29.73,132.16 22.92,132.95 22.92,141.02 29.73,140.31 		"/>
		<polygon class="st5" points="40.38,130.94 36.52,131.36 36.52,140.02 40.38,139.74 		"/>
		<polygon class="st5" points="50.38,129.66 46.24,130.12 46.24,139.06 50.38,138.77 		"/>
		<polygon class="st5" points="61.61,128.44 56.91,128.98 56.91,138.51 61.61,138.2 		"/>
		<polygon class="st5" points="75.76,126.78 70.51,127.4 70.51,137.5 75.76,137.17 		"/>
		<polygon class="st5" points="89.92,125.11 84.11,125.81 84.11,136.5 89.92,136.14 		"/>
		<polygon class="st5" points="104.07,123.44 97.71,124.22 97.71,135.49 104.07,135.12 		"/>
		<polygon class="st5" points="118.11,121.84 118.11,133.98 125.3,133.57 125.3,120.94 		"/>
		<rect x="2.52" y="149.5" class="st5" width="2.25" height="6.07"/>
		<rect x="9.32" y="149.33" class="st5" width="2.5" height="6.51"/>
		<rect x="16.12" y="149.16" class="st5" width="2.75" height="6.94"/>
		<rect x="22.92" y="148.98" class="st5" width="6.81" height="7.38"/>
		<rect x="36.52" y="148.64" class="st5" width="3.51" height="8.25"/>
		<rect x="46.24" y="148.47" class="st5" width="3.76" height="8.69"/>
		<rect x="56.91" y="148.12" class="st5" width="4.26" height="9.56"/>
		<rect x="70.51" y="147.78" class="st5" width="4.76" height="10.44"/>
		<rect x="84.11" y="147.44" class="st5" width="5.26" height="11.31"/>
		<rect x="97.71" y="147.09" class="st5" width="5.77" height="12.18"/>
		<rect x="118.11" y="146.58" class="st5" width="6.52" height="13.49"/>
		<polygon class="st5" points="8.6,79.57 8.6,87.21 11.52,86.09 11.52,77.99 		"/>
		<polygon class="st5" points="15.12,76.42 15.12,84.29 18.49,82.71 18.49,74.84 		"/>
		<polygon class="st5" points="29.96,83.16 26.34,82.1 26.13,82.04 20.06,84.29 20.06,78.53 20.06,70.57 26.36,67.53 26.58,67.42 
			29.96,67.87 29.96,77.19 		"/>
		<polyline class="st5" points="26.36,67.42 26.36,67.53 26.36,75.86 26.36,82.04 		"/>
		<polyline class="st5" points="20.06,78.53 26.36,75.86 29.96,77.19 		"/>
		<polyline class="st5" points="19.84,84.51 19.95,84.56 22.99,85.86 30.05,83.43 30.18,83.39 		"/>
		<polygon class="st5" points="41.43,77.99 37.81,76.93 37.6,76.87 31.53,79.12 31.53,73.36 31.53,65.4 37.83,62.36 38.05,62.25 
			41.43,62.7 41.43,72.02 		"/>
		<polyline class="st5" points="37.83,62.25 37.83,62.36 37.83,70.68 37.83,76.87 		"/>
		<polyline class="st5" points="31.53,73.36 37.83,70.68 41.43,72.02 		"/>
		<polyline class="st5" points="31.31,79.34 31.41,79.39 34.46,80.69 41.52,78.26 41.65,78.22 		"/>
		<polygon class="st5" points="46.6,61.8 46.6,71.47 51.54,69.45 51.54,59.33 		"/>
		<polygon class="st5" points="56.94,56.85 56.94,66.52 61.89,64.5 61.89,54.38 		"/>
		<polygon class="st5" points="69.25,50.73 69.25,62.36 75.21,59.93 75.21,47.75 		"/>
		<polygon class="st5" points="83.2,44.65 83.2,56.29 89.15,53.86 89.15,41.68 		"/>
		<polygon class="st5" points="98.48,37.24 98.48,49.77 104.89,47.15 104.89,34.03 		"/>
		<polygon class="st5" points="118.13,28.83 118.13,41.9 124.82,39.16 124.82,25.49 		"/>
		<polygon class="st5" points="146.21,27.4 146.21,40.21 151.39,45.61 151.39,33.69 		"/>
		<polygon class="st5" points="146.48,51.23 146.48,64.01 151.7,68.32 151.7,56.36 		"/>
		<polygon class="st5" points="146.75,76.19 146.75,88.92 152.02,92.16 152.02,79.7 		"/>
		<polygon class="st5" points="147.02,98.91 147.02,111.59 152.33,113.75 152.33,101.24 		"/>
		<polygon class="st5" points="147.29,121.84 147.29,134.48 152.65,135.56 152.65,123.46 		"/>
		<polygon class="st5" points="147.56,146.58 147.56,159.17 152.96,159.17 152.96,147.03 		"/>
		<polyline class="st5" points="2.52,72.82 2.52,64.28 3.65,63.6 3.87,63.7 9.49,66.07 		"/>
		<polyline class="st5" points="17.59,65.25 17.59,62.7 10.84,59.87 10.62,59.78 9.49,60.45 9.49,66.07 9.49,69.43 		"/>
		<polyline class="st5" points="3.87,63.6 3.87,63.7 3.87,72.32 		"/>
		<polyline class="st5" points="10.84,59.78 10.84,59.87 10.84,68.7 		"/>
		<polyline class="st5" points="36.16,55.6 36.16,53.03 40.08,51.01 44.07,51.48 		"/>
		<polyline class="st5" points="40.08,51.01 40.08,53.56 40.08,53.71 		"/>
		<polyline class="st5" points="79.65,33.06 79.65,32.95 79.65,31 71.11,26.05 68.63,27.62 68.63,38.69 		"/>
		<line class="st5" x1="71.11" y1="26.05" x2="71.11" y2="37.4"/>
		<polyline class="st5" points="93.15,26.05 93.15,25.93 93.15,23.8 85.05,17.5 82.35,19.08 82.35,31.44 		"/>
		<line class="st5" x1="85.05" y1="17.5" x2="85.05" y2="30.14"/>
	</g>
</g>
</svg>
