<?xml version="1.0" encoding="utf-8"?>
<!-- Generator: Adobe Illustrator 23.1.0, SVG Export Plug-In . SVG Version: 6.00 Build 0)  -->
<svg version="1.1" id="Layer_1" xmlns="http://www.w3.org/2000/svg" xmlns:xlink="http://www.w3.org/1999/xlink" x="0px" y="0px"
	 viewBox="0 0 305.7 170.52" style="enable-background:new 0 0 305.7 170.52;" xml:space="preserve">
<style type="text/css">
	.st0{fill:#F2EADB;}
	.st1{fill:#DEB79F;}
	.st2{fill:#CE6B66;}
	.st3{fill:#D68E7E;}
	.st4{fill:none;stroke:#93464D;stroke-width:5;stroke-miterlimit:10;}
	.st5{fill:none;stroke:#93464D;stroke-width:5;}
	.st6{fill:#E1E8E6;}
	.st7{fill:#6A8E82;}
	.st8{fill:#A6BBB4;}
	.st9{fill:#88A59B;}
	.st10{fill:none;stroke:#354741;stroke-width:5;stroke-miterlimit:10;}
	.st11{fill:none;stroke:#354741;stroke-width:5;}
	.st12{fill:none;stroke:#354741;stroke-miterlimit:10;}
	.st13{fill:none;stroke:#354741;}
	.st14{fill:#5FA8CE;}
	.st15{fill:#D2DBE7;}
	.st16{fill:#9DBFDD;}
	.st17{fill:#F6F8FA;}
	.st18{fill:none;stroke:#003E51;stroke-width:5;stroke-miterlimit:10;}
	.st19{fill:none;stroke:#003E51;stroke-width:5;}
</style>
<g>
	<g id="XMLID_4_">
		<g>
			<path class="st8" d="M279.05,160.88v-32.17v-5.09h0.12h26.04v46.29h-5.9v-26c0-4.11-3.18-7.45-7.11-7.45
				c-3.93,0-7.11,3.34-7.11,7.45v26h-6.04V160.88z"/>
			<path class="st7" d="M299.3,143.91v26h-14.21v-26c0-4.11,3.18-7.45,7.11-7.45C296.12,136.46,299.3,139.8,299.3,143.91z"/>
			<rect x="240.17" y="160.88" class="st9" width="38.88" height="9.03"/>
			<path class="st8" d="M279.05,128.71v32.17h-38.88v-32.17h15.74l2.08,6.48l0,0.02c-2.91,0.49-5.07,2.31-5.07,4.49v16.21h13.29
				V139.7c0-2.15-2.12-3.96-4.98-4.48l0.01-0.03l2.31-6.48H279.05z"/>
			<polygon class="st8" points="279.05,123.62 279.05,128.71 263.54,128.71 255.91,128.71 240.17,128.71 240.17,123.62 
				240.28,123.62 			"/>
			<path class="st8" d="M279.05,83.11v40.5h-38.77h-0.12v-40.5H279.05z M269.33,90.75h1.85c0-2.94-5.18-5.32-11.57-5.32
				c-6.39,0-11.57,2.38-11.57,5.32h1.85v29.86h2.05h15.24h2.15V90.75z"/>
			<rect x="240.17" y="80.57" class="st8" width="38.88" height="2.55"/>
			<path class="st8" d="M279.05,60.01v20.56h-38.88v-6.48h38.17v-4.17h-38.17v-6.6v-3.31H279.05z M269.44,67.61v-4.4h-19.67v4.4
				H269.44z"/>
			<rect x="240.17" y="57.89" class="st8" width="38.88" height="2.13"/>
			<rect x="240.17" y="56.27" class="st8" width="38.88" height="1.62"/>
			<rect x="240.17" y="69.92" class="st8" width="38.17" height="4.17"/>
			<path class="st6" d="M271.18,90.75h-1.85h-19.44h-1.85c0-2.94,5.18-5.32,11.57-5.32C266,85.43,271.18,87.81,271.18,90.75z"/>
			<rect x="249.77" y="63.21" class="st6" width="19.67" height="4.4"/>
			<path class="st9" d="M269.33,90.75v29.86h-2.15v-18.68c0-3.94-3.41-7.13-7.62-7.13c-4.21,0-7.62,3.19-7.62,7.13v18.68h-2.05
				V90.75H269.33z"/>
			<path class="st6" d="M254.3,120.49h10.52v-17.13c0-2.72-2.36-4.93-5.26-4.93c-2.91,0-5.26,2.21-5.26,4.93V120.49z M267.18,120.61
				h-15.24v-18.68c0-3.94,3.41-7.13,7.62-7.13c4.21,0,7.62,3.19,7.62,7.13V120.61z"/>
			<path class="st7" d="M266.2,139.7v16.21h-13.29V139.7c0-2.18,2.16-4,5.07-4.49c0.5-0.09,1.03-0.13,1.57-0.13
				c0.57,0,1.13,0.05,1.66,0.15C264.09,135.73,266.2,137.54,266.2,139.7z"/>
			<path class="st7" d="M264.82,103.36v17.13H254.3v-17.13c0-2.72,2.36-4.93,5.26-4.93C262.47,98.44,264.82,100.64,264.82,103.36z"
				/>
			<path class="st6" d="M263.54,128.71l-2.31,6.48l-0.01,0.03c-0.53-0.09-1.09-0.15-1.66-0.15c-0.54,0-1.07,0.04-1.57,0.13l0-0.02
				l-2.08-6.48H263.54z"/>
			<polygon class="st9" points="240.17,160.88 240.17,169.91 240.05,169.91 106.16,169.91 106.16,160.88 			"/>
			<path class="st8" d="M240.17,128.71v32.17H106.16v-32.17h110.38H240.17z M233.57,155.91V139.7c0-2.55-2.97-4.62-6.64-4.62
				c-3.67,0-6.64,2.07-6.64,4.62v16.21H233.57z M206.26,155.91V139.7c0-2.55-2.97-4.62-6.64-4.62c-3.67,0-6.64,2.07-6.64,4.62v16.21
				H206.26z M178.95,155.91V139.7c0-2.55-2.97-4.62-6.64-4.62c-3.67,0-6.64,2.07-6.64,4.62v16.21H178.95z M151.64,155.91V139.7
				c0-2.55-2.97-4.62-6.64-4.62c-3.67,0-6.64,2.07-6.64,4.62v16.21H151.64z M124.33,155.91V139.7c0-2.55-2.97-4.62-6.64-4.62
				c-3.67,0-6.64,2.07-6.64,4.62v16.21H124.33z"/>
			<path class="st9" d="M106.16,123.62v-40.5h134.01v40.5v5.09h-23.63H106.16V123.62z M234.38,120.38V91.45h-14.81v28.93h2.1v0.12
				h10.52v-0.12H234.38z M207.07,120.38V91.45h-14.81v28.93h2.1v0.12h10.52v-0.12H207.07z M179.76,120.38V91.45h-14.81v28.93h2.1
				v0.12h10.52v-0.12H179.76z M152.45,120.38V91.45h-14.81v28.93h2.1v0.12h10.52v-0.12H152.45z M125.14,120.38V91.45h-14.81v28.93
				h2.1v0.12h10.52v-0.12H125.14z"/>
			<rect x="106.16" y="80.57" class="st8" width="134.01" height="2.55"/>
			<rect x="106.16" y="74.09" class="st8" width="134.01" height="6.48"/>
			<polygon class="st9" points="240.17,69.92 240.17,74.09 106.16,74.09 106.16,69.92 129.14,69.92 156.91,69.92 184.69,69.92 
				212.46,69.92 			"/>
			<path class="st8" d="M240.17,63.33v6.6h-27.7v-0.12h4.49v-5.04c0-0.79-1-1.44-2.25-1.44H240.17z"/>
			<path class="st6" d="M234.38,91.45v28.93h-2.19v-17.01c0-2.72-2.36-4.93-5.26-4.93c-2.91,0-5.26,2.21-5.26,4.93v17.01h-2.1V91.45
				H234.38z"/>
			<path class="st7" d="M233.57,139.7v16.21h-13.29V139.7c0-2.55,2.97-4.62,6.64-4.62C230.6,135.07,233.57,137.14,233.57,139.7z"/>
			<path class="st7" d="M232.19,103.36v17.01h-10.52v-17.01c0-2.72,2.36-4.93,5.26-4.93C229.83,98.44,232.19,100.64,232.19,103.36z"
				/>
			<path class="st6" d="M216.95,64.76v5.04h-4.49v-5.04c0-0.79,1-1.44,2.25-1.44S216.95,63.97,216.95,64.76z"/>
			<path class="st8" d="M186.93,63.33h27.77c-1.24,0-2.25,0.65-2.25,1.44v5.04v0.12h-27.77v-0.12h4.49v-5.04
				C189.18,63.97,188.17,63.33,186.93,63.33z"/>
			<path class="st6" d="M207.07,91.45v28.93h-2.19v-17.01c0-2.72-2.36-4.93-5.26-4.93c-2.91,0-5.26,2.21-5.26,4.93v17.01h-2.1V91.45
				H207.07z"/>
			<path class="st7" d="M206.26,139.7v16.21h-13.29V139.7c0-2.55,2.97-4.62,6.64-4.62C203.28,135.07,206.26,137.14,206.26,139.7z"/>
			<path class="st7" d="M204.88,103.36v17.01h-10.52v-17.01c0-2.72,2.36-4.93,5.26-4.93C202.52,98.44,204.88,100.64,204.88,103.36z"
				/>
			<path class="st6" d="M189.18,64.76v5.04h-4.49v-5.04c0-0.79,1-1.44,2.25-1.44S189.18,63.97,189.18,64.76z"/>
			<path class="st8" d="M159.16,63.33h27.77c-1.24,0-2.25,0.65-2.25,1.44v5.04v0.12h-27.77v-0.12h4.49v-5.04
				C161.4,63.97,160.4,63.33,159.16,63.33z"/>
			<path class="st6" d="M179.76,91.45v28.93h-2.19v-17.01c0-2.72-2.36-4.93-5.26-4.93c-2.91,0-5.26,2.21-5.26,4.93v17.01h-2.1V91.45
				H179.76z"/>
			<path class="st7" d="M178.95,139.7v16.21h-13.29V139.7c0-2.55,2.97-4.62,6.64-4.62C175.97,135.07,178.95,137.14,178.95,139.7z"/>
			<path class="st7" d="M177.57,103.36v17.01h-10.52v-17.01c0-2.72,2.36-4.93,5.26-4.93C175.21,98.44,177.57,100.64,177.57,103.36z"
				/>
			<path class="st6" d="M161.4,64.76v5.04h-4.49v-5.04c0-0.79,1-1.44,2.25-1.44S161.4,63.97,161.4,64.76z"/>
			<path class="st8" d="M131.38,63.33h27.77c-1.24,0-2.25,0.65-2.25,1.44v5.04v0.12h-27.77v-0.12h4.49v-5.04
				C133.63,63.97,132.63,63.33,131.38,63.33z"/>
			<path class="st6" d="M152.45,91.45v28.93h-2.19v-17.01c0-2.72-2.36-4.93-5.26-4.93c-2.91,0-5.26,2.21-5.26,4.93v17.01h-2.1V91.45
				H152.45z"/>
			<path class="st7" d="M151.64,139.7v16.21h-13.29V139.7c0-2.55,2.97-4.62,6.64-4.62C148.66,135.07,151.64,137.14,151.64,139.7z"/>
			<path class="st7" d="M150.26,103.36v17.01h-10.52v-17.01c0-2.72,2.36-4.93,5.26-4.93C147.9,98.44,150.26,100.64,150.26,103.36z"
				/>
			<path class="st6" d="M133.63,64.76v5.04h-4.49v-5.04c0-0.79,1-1.44,2.25-1.44C132.63,63.33,133.63,63.97,133.63,64.76z"/>
			<path class="st8" d="M106.39,63.33h25c-1.24,0-2.25,0.65-2.25,1.44v5.04v0.12h-22.98v-6.6H106.39z"/>
			<path class="st6" d="M125.14,91.45v28.93h-2.19v-17.01c0-2.72-2.36-4.93-5.26-4.93c-2.91,0-5.26,2.21-5.26,4.93v17.01h-2.1V91.45
				H125.14z"/>
			<path class="st7" d="M124.33,139.7v16.21h-13.29V139.7c0-2.55,2.97-4.62,6.64-4.62C121.35,135.07,124.33,137.14,124.33,139.7z"/>
			<path class="st7" d="M122.94,103.36v17.01h-10.52v-17.01c0-2.72,2.36-4.93,5.26-4.93C120.59,98.44,122.94,100.64,122.94,103.36z"
				/>
			<rect x="67.27" y="160.88" class="st9" width="38.88" height="9.03"/>
			<path class="st8" d="M106.16,128.71v32.17H67.27v-32.17h15.74l2.08,6.48l0,0.02c-2.91,0.49-5.07,2.31-5.07,4.49v16.21h13.29
				V139.7c0-2.15-2.12-3.96-4.98-4.48l0.01-0.03l2.31-6.48H106.16z"/>
			<polygon class="st8" points="106.16,123.62 106.16,128.71 90.65,128.71 83.01,128.71 67.27,128.71 67.27,123.62 67.39,123.62 			
				"/>
			<path class="st8" d="M106.16,83.11v40.5H67.39h-0.12v-40.5H106.16z M96.44,90.75h1.85c0-2.94-5.18-5.32-11.57-5.32
				s-11.57,2.38-11.57,5.32h1.85v29.86h2.05h15.24h2.15V90.75z"/>
			<rect x="67.27" y="80.57" class="st8" width="38.88" height="2.55"/>
			<rect x="67.27" y="74.09" class="st8" width="38.88" height="6.48"/>
			<rect x="67.27" y="69.92" class="st8" width="38.88" height="4.17"/>
			<path class="st8" d="M106.16,63.33v6.6H67.27v-6.6v-3.31h38.88V63.33z M96.55,67.61v-4.4H76.88v4.4H96.55z"/>
			<rect x="67.27" y="57.89" class="st8" width="38.88" height="2.13"/>
			<rect x="67.27" y="56.27" class="st8" width="38.88" height="1.62"/>
			<path class="st6" d="M98.29,90.75h-1.85H76.99h-1.85c0-2.94,5.18-5.32,11.57-5.32S98.29,87.81,98.29,90.75z"/>
			<rect x="76.88" y="63.21" class="st6" width="19.67" height="4.4"/>
			<path class="st9" d="M96.44,90.75v29.86h-2.15v-18.68c0-3.94-3.41-7.13-7.62-7.13c-4.21,0-7.62,3.19-7.62,7.13v18.68h-2.05V90.75
				H96.44z"/>
			<path class="st6" d="M81.41,120.49h10.52v-17.13c0-2.72-2.36-4.93-5.26-4.93c-2.91,0-5.26,2.21-5.26,4.93V120.49z M94.29,120.61
				H79.05v-18.68c0-3.94,3.41-7.13,7.62-7.13c4.21,0,7.62,3.19,7.62,7.13V120.61z"/>
			<path class="st7" d="M93.31,139.7v16.21H80.02V139.7c0-2.18,2.16-4,5.07-4.49c0.5-0.09,1.03-0.13,1.57-0.13
				c0.57,0,1.13,0.05,1.66,0.15C91.19,135.73,93.31,137.54,93.31,139.7z"/>
			<path class="st7" d="M91.93,103.36v17.13H81.41v-17.13c0-2.72,2.36-4.93,5.26-4.93C89.57,98.44,91.93,100.64,91.93,103.36z"/>
			<path class="st6" d="M90.65,128.71l-2.31,6.48l-0.01,0.03c-0.53-0.09-1.09-0.15-1.66-0.15c-0.54,0-1.07,0.04-1.57,0.13l0-0.02
				l-2.08-6.48H90.65z"/>
			<polygon class="st9" points="67.27,160.88 67.27,169.91 39.5,169.91 39.5,160.88 39.62,160.88 			"/>
			<path class="st8" d="M67.27,128.71v32.17H39.62H39.5v-32.17H67.27z M60.45,155.91V139.7c0-2.55-2.97-4.62-6.64-4.62
				c-3.67,0-6.64,2.07-6.64,4.62v16.21H60.45z"/>
			<path class="st9" d="M39.5,123.62v-40.5h27.77v40.5v5.09H39.5V123.62z M61.26,120.38V91.45H46.44v28.93h2.1v0.12h10.52v-0.12
				H61.26z"/>
			<rect x="39.5" y="80.57" class="st8" width="27.77" height="2.55"/>
			<rect x="39.5" y="74.09" class="st8" width="27.77" height="6.48"/>
			<rect x="39.5" y="69.92" class="st9" width="27.77" height="4.17"/>
			<rect x="39.5" y="63.33" class="st8" width="27.77" height="6.6"/>
			<path class="st6" d="M61.26,91.45v28.93h-2.19v-17.01c0-2.72-2.36-4.93-5.26-4.93c-2.91,0-5.26,2.21-5.26,4.93v17.01h-2.1V91.45
				H61.26z"/>
			<path class="st7" d="M60.45,139.7v16.21H47.16V139.7c0-2.55,2.97-4.62,6.64-4.62C57.47,135.07,60.45,137.14,60.45,139.7z"/>
			<path class="st7" d="M59.06,103.36v17.01H48.54v-17.01c0-2.72,2.36-4.93,5.26-4.93C56.71,98.44,59.06,100.64,59.06,103.36z"/>
			<path class="st8" d="M23.85,136.73c-1.22-0.17-2.51-0.26-3.84-0.26c-1.22,0-2.41,0.08-3.55,0.22c-6.3,0.81-10.97,3.74-10.97,7.22
				v26H5.18H0.62v-41.2H39.5v32.17v9.03h-4.98v-26C34.52,140.48,30,137.59,23.85,136.73z"/>
			<polygon class="st8" points="39.5,123.62 39.5,128.71 0.62,128.71 0.62,123.62 0.73,123.62 			"/>
			<path class="st8" d="M39.5,83.11v40.5H0.73H0.62V74.09h7.87h23.14h7.87v6.48V83.11z M29.78,90.75h1.85
				c0-2.94-5.18-5.32-11.57-5.32S8.49,87.81,8.49,90.75h1.85v29.86h2.05h15.24h2.15V90.75z"/>
			<polygon class="st8" points="39.5,69.92 39.5,74.09 31.63,74.09 31.63,56.27 39.5,56.27 39.5,63.33 			"/>
			<path class="st7" d="M39.5,56.27h-7.87h-0.12c0-13.55-5.13-24.53-11.46-24.53C30.79,31.73,39.5,42.72,39.5,56.27z"/>
			<path class="st6" d="M34.52,143.91v26h-3.01v-22.76c0-3.28-4.27-6-9.84-6.45l0-0.07l2.17-3.9
				C30,137.59,34.52,140.48,34.52,143.91z"/>
			<path class="st8" d="M31.63,56.27v17.82H8.49V56.27H8.6h0.12c0-6.26,5.08-11.34,11.34-11.34S31.4,50,31.4,56.27h0.12H31.63z
				 M26.54,56.27c0-3.58-2.9-6.48-6.48-6.48s-6.48,2.9-6.48,6.48c0,3.58,2.9,6.48,6.48,6.48S26.54,59.85,26.54,56.27z"/>
			<path class="st6" d="M31.63,90.75h-1.85H10.34H8.49c0-2.94,5.18-5.32,11.57-5.32S31.63,87.81,31.63,90.75z"/>
			<path class="st7" d="M31.51,147.15v22.76H8.51v-22.76c0-3.3,4.33-6.03,9.94-6.46c0.51-0.04,1.04-0.06,1.57-0.06
				c0.56,0,1.12,0.02,1.66,0.07C27.24,141.15,31.51,143.87,31.51,147.15z"/>
			<path class="st9" d="M29.78,90.75v29.86h-2.15v-18.68c0-3.94-3.41-7.13-7.62-7.13c-4.21,0-7.62,3.19-7.62,7.13v18.68h-2.05V90.75
				H29.78z"/>
			<path class="st6" d="M14.75,120.49h10.52v-17.13c0-2.72-2.36-4.93-5.26-4.93c-2.91,0-5.26,2.21-5.26,4.93V120.49z M27.63,120.61
				H12.39v-18.68c0-3.94,3.41-7.13,7.62-7.13c4.21,0,7.62,3.19,7.62,7.13V120.61z"/>
			<polygon class="st7" points="25.38,29.42 25.38,31.73 20.06,31.73 14.73,31.73 14.73,29.42 17.05,29.42 23.07,29.42 			"/>
			<path class="st7" d="M25.27,103.36v17.13H14.75v-17.13c0-2.72,2.36-4.93,5.26-4.93C22.92,98.44,25.27,100.64,25.27,103.36z"/>
			<circle class="st7" cx="20.06" cy="56.27" r="6.48"/>
			<path class="st6" d="M23.85,136.73l-2.17,3.9l0,0.07c-0.54-0.05-1.1-0.07-1.66-0.07c-0.53,0-1.06,0.02-1.57,0.06l0-0.06
				l-1.97-3.94c1.13-0.15,2.32-0.22,3.55-0.22C21.34,136.46,22.62,136.56,23.85,136.73z"/>
			<polygon class="st7" points="23.07,27.1 23.07,29.42 17.05,29.42 17.05,27.1 18.77,27.1 21.45,27.1 			"/>
			<polygon class="st7" points="20.16,0.02 21.45,27.1 18.77,27.1 20.06,0.02 			"/>
			<path class="st7" d="M8.6,56.27c0-13.55,5.13-24.53,11.46-24.53s11.46,10.98,11.46,24.53H31.4c0-6.26-5.08-11.34-11.34-11.34
				S8.72,50,8.72,56.27H8.6z"/>
			<path class="st6" d="M18.44,140.63l0,0.06c-5.61,0.43-9.94,3.16-9.94,6.46v22.76H5.5v-26c0-3.48,4.67-6.41,10.97-7.22
				L18.44,140.63z"/>
			<path class="st7" d="M20.06,31.73c-6.33,0-11.46,10.98-11.46,24.53H8.49H0.62C0.62,42.72,9.32,31.73,20.06,31.73z"/>
			<rect x="0.62" y="56.27" class="st8" width="7.87" height="17.82"/>
		</g>
		<g>
			<polyline class="st12" points="279.05,123.62 279.05,83.11 279.05,80.57 279.05,60.01 279.05,57.89 279.05,56.27 240.17,56.27 
				240.17,57.89 240.17,60.01 240.17,63.33 240.17,69.92 240.17,74.09 240.17,80.57 240.17,83.11 240.17,123.62 240.17,128.71 
				240.17,160.88 240.17,169.91 279.05,169.91 			"/>
			<rect x="249.77" y="63.21" class="st12" width="19.67" height="4.4"/>
			<polyline class="st12" points="39.5,69.92 67.27,69.92 106.16,69.92 129.14,69.92 156.91,69.92 184.69,69.92 212.46,69.92 
				240.17,69.92 278.34,69.92 278.34,74.09 240.17,74.09 106.16,74.09 67.27,74.09 39.5,74.09 31.63,74.09 8.49,74.09 0.62,74.09 
				0.5,74.09 0.5,69.92 			"/>
			<line class="st12" x1="240.17" y1="60.01" x2="279.05" y2="60.01"/>
			<polyline class="st12" points="1.33,80.57 39.5,80.57 67.27,80.57 106.16,80.57 240.17,80.57 279.05,80.57 279.17,80.57 			"/>
			<polyline class="st12" points="1.33,83.11 39.5,83.11 67.27,83.11 106.16,83.11 240.17,83.11 279.05,83.11 279.17,83.11 			"/>
			<line class="st12" x1="240.28" y1="123.62" x2="279.05" y2="123.62"/>
			<polyline class="st12" points="279.17,128.71 279.05,128.71 263.54,128.71 255.91,128.71 240.17,128.71 216.54,128.71 
				106.16,128.71 90.65,128.71 83.01,128.71 67.27,128.71 39.5,128.71 0.62,128.71 0.5,128.71 			"/>
			<polyline class="st12" points="39.62,160.88 67.27,160.88 106.16,160.88 240.17,160.88 279.05,160.88 279.17,160.88 			"/>
			<line class="st12" x1="240.17" y1="57.89" x2="279.05" y2="57.89"/>
			<path class="st13" d="M259.56,98.44c2.9,0,5.26,2.21,5.26,4.93v17.13H254.3v-17.13C254.3,100.64,256.65,98.44,259.56,98.44z"/>
			<path class="st13" d="M251.94,120.61v-18.68c0-3.94,3.41-7.13,7.62-7.13c4.21,0,7.62,3.19,7.62,7.13v18.68"/>
			<polyline class="st13" points="249.89,90.75 249.89,120.61 251.94,120.61 267.18,120.61 269.33,120.61 269.33,90.75 			"/>
			<path class="st13" d="M269.33,90.75h1.85c0-2.94-5.18-5.32-11.57-5.32c-6.39,0-11.57,2.38-11.57,5.32h1.85H269.33z"/>
			<path class="st13" d="M261.22,135.22c-0.53-0.09-1.09-0.15-1.66-0.15c-0.54,0-1.07,0.04-1.57,0.13
				c-2.91,0.49-5.07,2.31-5.07,4.49v16.21h13.29V139.7C266.2,137.54,264.09,135.73,261.22,135.22z"/>
			<path class="st13" d="M299.3,169.91v-26c0-4.11-3.18-7.45-7.11-7.45c-3.93,0-7.11,3.34-7.11,7.45v26v0.12h14.21V169.91z"/>
			<path class="st13" d="M31.51,170.02h3.01v-0.12v-26c0-3.43-4.52-6.32-10.68-7.18c-1.22-0.17-2.51-0.26-3.84-0.26
				c-1.22,0-2.41,0.08-3.55,0.22c-6.3,0.81-10.97,3.74-10.97,7.22v26v0.12h3.01"/>
			<path class="st13" d="M21.67,140.7c-0.54-0.05-1.1-0.07-1.66-0.07c-0.53,0-1.06,0.02-1.57,0.06c-5.61,0.43-9.94,3.16-9.94,6.46
				v22.76v0.12h23.01v-0.12v-22.76C31.51,143.87,27.24,141.15,21.67,140.7z"/>
			<path class="st13" d="M226.93,135.07c-3.67,0-6.64,2.07-6.64,4.62v16.21h13.29V139.7C233.57,137.14,230.6,135.07,226.93,135.07z"
				/>
			<path class="st13" d="M199.62,135.07c-3.67,0-6.64,2.07-6.64,4.62v16.21h13.29V139.7C206.26,137.14,203.28,135.07,199.62,135.07z
				"/>
			<path class="st13" d="M172.31,135.07c-3.67,0-6.64,2.07-6.64,4.62v16.21h13.29V139.7C178.95,137.14,175.97,135.07,172.31,135.07z
				"/>
			<path class="st13" d="M144.99,135.07c-3.67,0-6.64,2.07-6.64,4.62v16.21h13.29V139.7C151.64,137.14,148.66,135.07,144.99,135.07z
				"/>
			<path class="st13" d="M131.38,63.33c-1.24,0-2.25,0.65-2.25,1.44v5.04h4.49v-5.04C133.63,63.97,132.63,63.33,131.38,63.33z"/>
			<path class="st13" d="M159.16,63.33c-1.24,0-2.25,0.65-2.25,1.44v5.04h4.49v-5.04C161.4,63.97,160.4,63.33,159.16,63.33z"/>
			<path class="st13" d="M186.93,63.33c-1.24,0-2.25,0.65-2.25,1.44v5.04h4.49v-5.04C189.18,63.97,188.17,63.33,186.93,63.33z"/>
			<path class="st13" d="M214.71,63.33c-1.24,0-2.25,0.65-2.25,1.44v5.04h4.49v-5.04C216.95,63.97,215.95,63.33,214.71,63.33z"/>
			<path class="st13" d="M117.68,135.07c-3.67,0-6.64,2.07-6.64,4.62v16.21h13.29V139.7C124.33,137.14,121.35,135.07,117.68,135.07z
				"/>
			<line class="st13" x1="261.23" y1="135.19" x2="263.54" y2="128.71"/>
			<line class="st13" x1="257.99" y1="135.19" x2="255.91" y2="128.71"/>
			<polyline class="st12" points="106.16,169.91 106.16,160.88 106.16,128.71 106.16,123.62 106.16,83.11 106.16,80.57 
				106.16,74.09 106.16,69.92 106.16,63.33 106.16,60.01 106.16,57.89 106.16,56.27 67.27,56.27 67.27,57.89 67.27,60.01 
				67.27,63.33 67.27,69.92 67.27,74.09 67.27,80.57 67.27,83.11 67.27,123.62 67.27,128.71 67.27,160.88 67.27,169.91 			"/>
			<rect x="76.88" y="63.21" class="st12" width="19.67" height="4.4"/>
			<line class="st12" x1="67.27" y1="60.01" x2="106.16" y2="60.01"/>
			<polyline class="st12" points="67.39,123.62 106.16,123.62 106.27,123.62 			"/>
			<line class="st12" x1="67.27" y1="57.89" x2="106.16" y2="57.89"/>
			<path class="st13" d="M86.67,98.44c2.9,0,5.26,2.21,5.26,4.93v17.13H81.41v-17.13C81.41,100.64,83.76,98.44,86.67,98.44z"/>
			<path class="st13" d="M79.05,120.61v-18.68c0-3.94,3.41-7.13,7.62-7.13c4.21,0,7.62,3.19,7.62,7.13v18.68"/>
			<polyline class="st13" points="76.99,90.75 76.99,120.61 79.05,120.61 94.29,120.61 96.44,120.61 96.44,90.75 			"/>
			<path class="st13" d="M96.44,90.75h1.85c0-2.94-5.18-5.32-11.57-5.32s-11.57,2.38-11.57,5.32h1.85H96.44z"/>
			<path class="st13" d="M88.33,135.22c-0.53-0.09-1.09-0.15-1.66-0.15c-0.54,0-1.07,0.04-1.57,0.13c-2.91,0.49-5.07,2.31-5.07,4.49
				v16.21h13.29V139.7C93.31,137.54,91.19,135.73,88.33,135.22z"/>
			<line class="st13" x1="88.34" y1="135.19" x2="90.65" y2="128.71"/>
			<line class="st13" x1="85.09" y1="135.19" x2="83.01" y2="128.71"/>
			<polyline class="st13" points="21.68,140.63 23.85,136.73 23.99,136.46 			"/>
			<polyline class="st13" points="18.44,140.63 16.47,136.69 16.35,136.46 			"/>
			<polyline class="st12" points="0.73,123.62 39.5,123.62 39.62,123.62 			"/>
			<path class="st13" d="M20.01,98.44c2.9,0,5.26,2.21,5.26,4.93v17.13H14.75v-17.13C14.75,100.64,17.1,98.44,20.01,98.44z"/>
			<path class="st13" d="M12.39,120.61v-18.68c0-3.94,3.41-7.13,7.62-7.13c4.21,0,7.62,3.19,7.62,7.13v18.68"/>
			<polyline class="st13" points="10.34,90.75 10.34,120.61 12.39,120.61 27.63,120.61 29.78,120.61 29.78,90.75 			"/>
			<path class="st13" d="M29.78,90.75h1.85c0-2.94-5.18-5.32-11.57-5.32S8.49,87.81,8.49,90.75h1.85H29.78z"/>
			<path class="st13" d="M139.73,120.38v-17.01c0-2.72,2.36-4.93,5.26-4.93c2.9,0,5.26,2.21,5.26,4.93v17.01v0.12h-10.52V120.38z"/>
			<polygon class="st13" points="139.73,120.38 137.63,120.38 137.63,91.45 152.45,91.45 152.45,120.38 150.26,120.38 			"/>
			<path class="st13" d="M112.42,120.38v-17.01c0-2.72,2.36-4.93,5.26-4.93c2.9,0,5.26,2.21,5.26,4.93v17.01v0.12h-10.52V120.38z"/>
			<polygon class="st13" points="112.42,120.38 110.32,120.38 110.32,91.45 125.14,91.45 125.14,120.38 122.94,120.38 			"/>
			<path class="st13" d="M53.8,135.07c-3.67,0-6.64,2.07-6.64,4.62v16.21h13.29V139.7C60.45,137.14,57.47,135.07,53.8,135.07z"/>
			<path class="st13" d="M48.54,120.38v-17.01c0-2.72,2.36-4.93,5.26-4.93c2.9,0,5.26,2.21,5.26,4.93v17.01v0.12H48.54V120.38z"/>
			<polygon class="st13" points="48.54,120.38 46.44,120.38 46.44,91.45 61.26,91.45 61.26,120.38 59.06,120.38 			"/>
			<path class="st13" d="M167.04,120.38v-17.01c0-2.72,2.36-4.93,5.26-4.93c2.9,0,5.26,2.21,5.26,4.93v17.01v0.12h-10.52V120.38z"/>
			<polygon class="st13" points="167.04,120.38 164.95,120.38 164.95,91.45 179.76,91.45 179.76,120.38 177.57,120.38 			"/>
			<path class="st13" d="M194.35,120.38v-17.01c0-2.72,2.36-4.93,5.26-4.93c2.9,0,5.26,2.21,5.26,4.93v17.01v0.12h-10.52V120.38z"/>
			<polygon class="st13" points="194.35,120.38 192.26,120.38 192.26,91.45 207.07,91.45 207.07,120.38 204.88,120.38 			"/>
			<path class="st13" d="M221.66,120.38v-17.01c0-2.72,2.36-4.93,5.26-4.93c2.9,0,5.26,2.21,5.26,4.93v17.01v0.12h-10.52V120.38z"/>
			<polygon class="st13" points="221.66,120.38 219.57,120.38 219.57,91.45 234.38,91.45 234.38,120.38 232.19,120.38 			"/>
			<polyline class="st12" points="240.05,169.91 106.16,169.91 67.27,169.91 39.5,169.91 			"/>
			<polyline class="st13" points="240.17,63.33 214.71,63.33 186.93,63.33 159.16,63.33 131.38,63.33 106.39,63.33 			"/>
			<circle class="st12" cx="20.06" cy="56.27" r="6.48"/>
			<path class="st12" d="M8.72,56.27c0-6.26,5.08-11.34,11.34-11.34S31.4,50,31.4,56.27h0.12h0.12h7.87v7.06v6.6v4.17v6.48v2.55
				v40.5v5.09v32.17v9.03h-4.98h-3.01H8.51H5.5H5.18H0.62v-41.2v-5.09V74.09V56.27h7.87v17.82"/>
			<line class="st12" x1="31.63" y1="56.27" x2="31.63" y2="74.09"/>
			<path class="st12" d="M0.62,56.27c0-13.55,8.7-24.53,19.44-24.53S39.5,42.72,39.5,56.27"/>
			<path class="st12" d="M8.6,56.27c0-13.55,5.13-24.53,11.46-24.53s11.46,10.98,11.46,24.53"/>
			<line class="st13" x1="67.27" y1="63.33" x2="39.5" y2="63.33"/>
			<polyline class="st13" points="23.07,29.42 25.38,29.42 25.38,31.73 20.06,31.73 14.73,31.73 14.73,29.42 17.05,29.42 			"/>
			<polygon class="st13" points="23.07,29.42 17.05,29.42 17.05,27.1 18.77,27.1 21.45,27.1 23.07,27.1 			"/>
			<line class="st13" x1="20.06" y1="0.02" x2="18.77" y2="27.1"/>
			<line class="st13" x1="20.16" y1="0.02" x2="21.45" y2="27.1"/>
			<polygon class="st12" points="279.17,123.62 305.2,123.62 305.2,169.91 299.3,169.91 285.09,169.91 279.05,169.91 279.05,160.88 
				279.05,128.71 279.05,123.62 			"/>
		</g>
	</g>
</g>
</svg>
