<?xml version="1.0" encoding="utf-8"?>
<!-- Generator: Adobe Illustrator 23.1.0, SVG Export Plug-In . SVG Version: 6.00 Build 0)  -->
<svg version="1.1" id="Layer_1" xmlns="http://www.w3.org/2000/svg" xmlns:xlink="http://www.w3.org/1999/xlink" x="0px" y="0px"
	 viewBox="0 0 374.61 171" style="enable-background:new 0 0 374.61 171;" xml:space="preserve">
<style type="text/css">
	.st0{fill:#CE6B66;stroke:#93464D;stroke-width:5;stroke-miterlimit:10;}
	.st1{fill:#93464D;stroke:#93464D;stroke-width:5;stroke-miterlimit:10;}
	.st2{fill:#F2EADB;}
	.st3{fill:#DEB79F;}
	.st4{fill:#CE6B66;}
	.st5{fill:#D68E7E;}
	.st6{fill:none;stroke:#93464D;stroke-width:5;stroke-miterlimit:10;}
	.st7{fill:#CE6B66;stroke:#93464D;stroke-miterlimit:10;}
	.st8{fill:none;stroke:#93464D;stroke-miterlimit:10;}
</style>
<g>
	<rect x="0.5" y="139.45" class="st7" width="275.28" height="31.05"/>
	<g>
		<g>
			<g id="XMLID_2_">
				<g>
					<path class="st3" d="M279.21,72.92c-0.51-0.23-0.98-0.54-1.39-0.92c-0.73-0.68-1.45-1.54-1.38-2.23c0,0,0-0.01,0-0.01
						c0.72-3.96,2.07-9.83,4.23-13.36c0.5-0.81,1.04-1.5,1.62-2.01c0,0,0,0,0,0c0.36-0.32,0.74-0.57,1.13-0.74
						c5.53-2.37,12.11-4.21,14.47-5.53c2.37-1.32,3.16-2.63,5.53-2.37c0.51,0.06,2.72-1,5.88-2.72c0,0,6.49,3.25,6.49,12.72
						c0,7.44-1.32,13.16-15.26,16.05c-10.21,2.12-16.89,1.84-19.74,1.54C280.23,73.29,279.7,73.15,279.21,72.92z"/>
					<path class="st4" d="M229.73,138.39c0,0-1.32,3.16-4.21,2.37c-3.29-0.9-6.61-0.51-8.22-0.21c-0.7,0.13-1.42,0.02-2.05-0.3
						c-1.5-0.78-4.12-2.3-4.48-3.64l10.8-7.43c0,0,0.1-0.02,0.28-0.05c1.07,0.83,4.95,3.81,6.3,4.26c1.58,0.53,8.68-0.26,8.95,0
						c0.18,0.18,1.76,2.52,2.71,3.93c0.31,0.46-0.02,1.07-0.57,1.07H229.73z"/>
					<path class="st2" d="M234.85,63.92c1.11-1.34,1.94-2.71,2.51-4.22c0.79-2.11,13.42-10.53,15-12.37
						c1.58-1.84,2.63-7.63,6.32-9.47c3.64-1.82,11.34-2.82,11.53-2.84c0,0,0,0,0,0c7.42-2.84,21.37-6.63,21.37-6.63
						s5.53-3.68,7.37-4.74s6.32-1.58,6.32-1.58l35-13.69c0,0,8.42,0,10.79-0.26c2.37-0.26,2.63-0.79,2.63-0.79
						c12.11-6.58,16.05-7.37,16.84-6.58c0.79,0.79-1.32,3.95-1.32,3.95c1.58-0.53,4.21-0.26,4.74,0.26c0.53,0.53,0,3.68-4.74,4.74
						c-4.74,1.05-8.42,4.74-8.42,4.74s7.37-0.53,8.95,1.58c1.58,2.11-1.58,3.16-1.58,3.16s-7.9,0.26-10.53,0.79
						c-2.63,0.53-7.11,0.53-8.42,0.26c-1.32-0.26-2.89-0.26-2.89-0.26c-1.44,1.86-25.54,16.82-37.02,23.07
						c-3.16,1.72-5.37,2.78-5.88,2.72c-2.37-0.26-3.16,1.05-5.53,2.37c-2.37,1.32-8.95,3.16-14.47,5.53
						c-0.39,0.17-0.77,0.42-1.13,0.74c0,0,0,0,0,0c-0.22,0.07-13.1,4.29-16.23,7.42c-3.16,3.16-16.04,13.69-42.76,16.71
						c3.33-4.65,8.7-11.6,10.13-13.03C233.93,64.97,234.41,64.45,234.85,63.92C234.84,63.93,234.85,63.92,234.85,63.92z"/>
					<path class="st3" d="M215.91,132.73l-0.79-3.68l-5.25-2.76c-9.68-8.05-13.15-8.97-14.36-9.21c-1.32-0.26-17.11,2.89-17.11,2.89
						c-2.37,0.53-20-0.79-24.48-1.05c-1.1-0.07-2.45,0.03-3.89,0.21l-0.06-0.47c10.53-6.32,21.58-8.42,30.27-10.26
						c8.68-1.84,18.95-8.16,18.95-8.16c13.42-2.11,25.79-5.26,25.79-5.26s15.26,3.95,25.53,5c10.26,1.05,17.11,0,17.11,0
						c0.06,0.19,0.11,0.39,0.15,0.58c0.32,1.33,0.39,2.66,0.29,3.9c-0.23,2.74-1.33,5.1-2.54,6.31c-1.84,1.84-11.05,3.68-13.95,5
						c-2.89,1.32-13.16,4.74-13.16,4.74c-5.94,6.42-14.89,8.33-16.57,8.64c-0.18,0.03-0.28,0.05-0.28,0.05l-10.8,7.43l-2.6,1.78
						l0.9-0.66L215.91,132.73z"/>
					<polygon class="st5" points="208.17,138.39 205.12,140.63 204.91,140.63 					"/>
					<path class="st5" d="M197.98,125.99c1.03-0.07,1.62-0.1,1.62-0.1l5.53,0.26l4.76,0.13l5.25,2.76l0.79,3.68l-6.84,5l-0.9,0.66
						l-3.26,2.24l-9.79,0.13c-11.5,0-30.57,0-41.58,0l-12.14-0.05c-5.3-0.09-12.95-0.3-18.88-0.47c1.8-1.22,7.65-4.87,13.12-4.87
						c0.04,0,0.09,0,0.13,0v0.13c4.21,1.05,8.13-0.58,8.13-0.58c-0.24-0.24-0.38-0.58-0.37-0.95c0.01-0.22,0.01-0.46,0-0.71
						c0,0,0-0.01,0-0.01l0.26-2.89c0,0,2.11-0.53,4.21-0.26c2.11,0.26,5.79-0.53,5.79-0.53l0.04,0.1c1.51-0.58,3.06-1.61,4.3-3.39
						l0.02-0.05c1.02,0.54,7.13,3.46,16.95,2.02C183.67,127.01,194.04,126.25,197.98,125.99z"/>
					<path class="st5" d="M153.54,140.76c11.01,0,30.09,0,41.58,0l-10,0.13L153.54,140.76z"/>
					<path class="st5" d="M158.16,126.24l-0.02,0.05c-1.25,1.78-2.8,2.81-4.3,3.39l-0.04-0.1l4.21-3.42
						C158.01,126.15,158.06,126.18,158.16,126.24z"/>
					<path class="st2" d="M148.08,119.42c0,0-5.46,3.71-5.72,4.76c-0.04,0.16-0.02,0.51,0.04,0.99l-0.07,0.01
						c-6.07,0.21-8.93,3.21-8.93,3.21c-1.58,0-11.84,0.26-16.05,1.32s-15,0.26-18.95-0.79c-3.95-1.05-10.1-5.43-10.1-5.43v0
						c0.98,0.07,1.68,0.17,1.68,0.17s0.51,0.09,1.37,0.23c4.6,0.77,19.31,3.19,21.52,3.19c2.13,0,7.9-2.59,12.39-4.14
						c1.05-0.36,2.03-0.66,2.87-0.86c4.47-1.05,8.95-0.53,10.79-0.79C140.12,121.11,144.16,120.07,148.08,119.42z"/>
					<path class="st3" d="M197.98,125.99c-3.93,0.26-14.3,1.01-22.86,2.27c-9.82,1.44-15.93-1.48-16.95-2.02
						c-0.1-0.06-0.15-0.08-0.15-0.08l-4.21,3.42c0,0-3.68,0.79-5.79,0.53c-2.11-0.26-4.21,0.26-4.21,0.26l-0.26,2.89
						c-0.07-2.5-0.9-6.24-1.14-8.08c-0.06-0.48-0.09-0.83-0.04-0.99c0.26-1.05,5.72-4.76,5.72-4.76c0.66-0.11,1.32-0.21,1.97-0.29
						c1.44-0.18,2.79-0.28,3.89-0.21c4.47,0.26,22.11,1.58,24.48,1.05c0,0,15.79-3.16,17.11-2.89c1.22,0.24,4.68,1.16,14.36,9.21
						l-4.76-0.13l-5.53-0.26C199.59,125.89,199,125.93,197.98,125.99z"/>
					<path class="st3" d="M84.32,131.56c-1.28-2.8-2.09-5.55-1.97-6.59c0.18-1.64,3.76-1.64,5.95-1.49v0c0,0,6.16,4.38,10.1,5.43
						c3.95,1.05,14.74,1.84,18.95,0.79s14.47-1.32,16.05-1.32c0,0,2.85-3,8.93-3.21l0.07-0.01c0.24,1.84,1.07,5.58,1.14,8.08
						c0,0,0,0.01,0,0.01l-0.53,1.84c0,0-0.78,0.26-7.24,0.26c-0.04,0-0.09,0-0.13,0c-5.48,0-11.32,3.65-13.12,4.87
						c-5.05-0.14-8.85-0.27-8.85-0.27s-19.21,0-23.16-0.79C88.3,138.74,85.94,135.1,84.32,131.56z"/>
					<path class="st5" d="M143.9,134.92c0,0-3.92,1.63-8.13,0.58v-0.13c6.46,0,7.24-0.26,7.24-0.26l0.53-1.84
						c0.01,0.25,0.01,0.49,0,0.71C143.52,134.34,143.66,134.68,143.9,134.92z"/>
					<path class="st5" d="M141.4,140.71l-19.44-0.08c0,0,0.2-0.15,0.56-0.39C128.45,140.41,136.11,140.62,141.4,140.71z"/>
					<path class="st4" d="M125.25,122.86l0.02,0.07c-4.49,1.54-10.26,4.14-12.39,4.14c-2.22,0-16.92-2.42-21.52-3.19
						C102.98,121.88,115.37,120.89,125.25,122.86z"/>
					<path class="st3" d="M133.5,106.55c1.06-0.15,1.75-0.26,1.75-0.26c34.48-17.9,62.64-17.11,68.95-17.9
						c6.32-0.79,14.74-3.16,16.84-6.58c0.48-0.77,1.27-1.93,2.24-3.29c26.72-3.03,39.6-13.55,42.76-16.71
						c3.13-3.13,16.01-7.35,16.23-7.42c-0.58,0.51-1.12,1.2-1.62,2.01c-2.16,3.53-3.51,9.4-4.23,13.36c0,0,0,0.01,0,0.01
						c-0.07,0.7,0.66,1.56,1.38,2.23c0.41,0.38,0.88,0.69,1.39,0.92c0.02,0.92,0.23,11.9-0.53,14.68
						c-0.79,2.89-5.53,10.79-6.84,11.84c-0.26,0.21-0.56,0.52-0.87,0.9c-1.3,1.55-2.86,4.11-2.86,4.11l-0.04,0
						c0.11-1.24,0.03-2.57-0.29-3.9c-0.04-0.19-0.09-0.39-0.15-0.58c0,0-6.84,1.05-17.11,0c-10.26-1.05-25.53-5-25.53-5
						s-12.37,3.16-25.79,5.26c0,0-10.26,6.32-18.95,8.16c-8.68,1.84-19.74,3.95-30.27,10.26l0.06,0.47
						c-0.64,0.08-1.31,0.18-1.97,0.29c-3.92,0.65-7.96,1.69-9.15,1.87c-1.84,0.26-6.32-0.26-10.79,0.79
						c-0.84,0.2-1.82,0.5-2.87,0.86l-0.02-0.07c-9.87-1.97-22.26-0.99-33.89,1.02c-0.87-0.14-1.37-0.23-1.37-0.23
						s-0.7-0.1-1.68-0.17c-2.19-0.15-5.77-0.15-5.95,1.49c-0.12,1.05,0.69,3.79,1.97,6.59c-20.48,0.6-26.97,7.62-26.97,7.62
						s-12.9,0.26-13.95,0c-1.05-0.26-1.58-2.11-1.58-2.11c-1.84-10.79,6.84-14.74,8.68-15c1.84-0.26,13.16-1.32,20.26-2.37
						s11.32-3.16,26.05-8.42s23.42-4.21,26.84-3.95C126.09,107.52,130.9,106.92,133.5,106.55z"/>
				</g>
				<g>
					<path class="st8" d="M234.84,63.93c-0.43,0.53-0.91,1.04-1.43,1.57c-1.43,1.43-6.8,8.37-10.13,13.03
						c-0.97,1.36-1.77,2.52-2.24,3.29c-2.11,3.42-10.53,5.79-16.84,6.58c-6.32,0.79-34.48,0-68.95,17.9c0,0-0.69,0.11-1.75,0.26
						c-2.59,0.37-7.4,0.98-9.83,0.79c-3.42-0.26-12.11-1.32-26.84,3.95s-18.95,7.37-26.05,8.42s-18.42,2.11-20.26,2.37
						c-1.84,0.26-10.53,4.21-8.68,15c0,0,0.53,1.84,1.58,2.11c1.05,0.26,13.95,0,13.95,0s6.5-7.02,26.97-7.62
						c0.13-0.01,0.26-0.01,0.4-0.01"/>
					<path class="st8" d="M270.2,35.01c-0.19,0.02-7.89,1.02-11.53,2.84c-3.68,1.84-4.74,7.63-6.32,9.47
						c-1.58,1.84-14.21,10.26-15,12.37c-0.57,1.51-1.4,2.88-2.51,4.22"/>
					<path class="st8" d="M149.99,118.65c10.53-6.32,21.58-8.42,30.27-10.26c8.68-1.84,18.95-8.16,18.95-8.16
						c13.42-2.11,25.79-5.26,25.79-5.26s15.26,3.95,25.53,5c10.26,1.05,17.11,0,17.11,0c0.06,0.19,0.11,0.39,0.15,0.58
						c0.32,1.33,0.39,2.66,0.29,3.9c-0.23,2.74-1.33,5.1-2.54,6.31c-1.84,1.84-11.05,3.68-13.95,5c-2.89,1.32-13.16,4.74-13.16,4.74
						c-5.94,6.42-14.89,8.33-16.57,8.64c-0.18,0.03-0.28,0.05-0.28,0.05l-10.8,7.43l-2.6,1.78l-3.26,2.24l-0.19,0.13
						c0,0-3.86,0-9.61,0c-11.5,0-30.57,0-41.58,0c-3.68,0-6.47,0-7.76,0c-1.09,0-2.6-0.02-4.37-0.05c-5.3-0.09-12.95-0.3-18.88-0.47
						c-5.05-0.14-8.85-0.27-8.85-0.27s-19.21,0-23.16-0.79c-2.2-0.44-4.57-4.08-6.19-7.62c-1.28-2.8-2.09-5.55-1.97-6.59
						c0.18-1.64,3.76-1.64,5.95-1.49c0.98,0.07,1.68,0.17,1.68,0.17s0.51,0.09,1.37,0.23c4.6,0.77,19.31,3.19,21.52,3.19
						c2.13,0,7.9-2.59,12.39-4.14c1.05-0.36,2.03-0.66,2.87-0.86c4.47-1.05,8.95-0.53,10.79-0.79c1.19-0.17,5.23-1.22,9.15-1.87
						c0.66-0.11,1.32-0.21,1.97-0.29c1.44-0.18,2.79-0.28,3.89-0.21c4.47,0.26,22.11,1.58,24.48,1.05c0,0,15.79-3.16,17.11-2.89
						c1.22,0.24,4.68,1.16,14.36,9.21c0.78,0.65,1.61,1.35,2.48,2.11"/>
					<path class="st8" d="M279.21,72.86c0,0,0,0.02,0,0.06c0.02,0.92,0.23,11.9-0.53,14.68c-0.79,2.89-5.53,10.79-6.84,11.84
						c-0.26,0.21-0.56,0.52-0.87,0.9c-1.3,1.55-2.86,4.11-2.86,4.11"/>
					<path class="st8" d="M276.43,69.77c-0.44,2.43-0.64,4.15-0.64,4.15"/>
					<path class="st8" d="M282.28,54.39c-0.58,0.51-1.12,1.2-1.62,2.01c-2.16,3.53-3.51,9.4-4.23,13.36"/>
					<path class="st8" d="M254.47,50.75c2.63-6.05,7.9-11.32,11.84-13.95c0.76-0.5,2.14-1.12,3.9-1.79c0,0,0,0,0,0
						c7.42-2.84,21.37-6.63,21.37-6.63s5.53-3.68,7.37-4.74s6.32-1.58,6.32-1.58l35-13.69c0,0,8.42,0,10.79-0.26
						c2.37-0.26,2.63-0.79,2.63-0.79c12.11-6.58,16.05-7.37,16.84-6.58c0.79,0.79-1.32,3.95-1.32,3.95
						c1.58-0.53,4.21-0.26,4.74,0.26c0.53,0.53,0,3.68-4.74,4.74c-4.74,1.05-8.42,4.74-8.42,4.74s7.37-0.53,8.95,1.58
						c1.58,2.11-1.58,3.16-1.58,3.16s-7.9,0.26-10.53,0.79c-2.63,0.53-7.11,0.53-8.42,0.26c-1.32-0.26-2.89-0.26-2.89-0.26
						c-1.44,1.86-25.54,16.82-37.02,23.07c-3.16,1.72-5.37,2.78-5.88,2.72c-2.37-0.26-3.16,1.05-5.53,2.37
						c-2.37,1.32-8.95,3.16-14.47,5.53c-0.39,0.17-0.77,0.42-1.13,0.74"/>
					<path class="st8" d="M270.97,100.34c0,0-0.71-4.32-0.71-5.37c0,0-7.11,0.53-10.79,0"/>
					<path class="st8" d="M280.66,56.4c0,0-6.19,3.83-8.82,11.46s-3.68,15.26-7.9,19.21"/>
					<path class="st8" d="M282.28,54.39C282.28,54.39,282.28,54.39,282.28,54.39c-0.22,0.07-13.1,4.29-16.24,7.42
						c-3.16,3.16-16.04,13.69-42.76,16.71"/>
					<path class="st8" d="M244.99,64.18c0,0,4.47-2.63,9.47-3.16c5-0.53,10.79-1.84,10.79-1.84"/>
					<path class="st8" d="M234.84,63.93C234.84,63.93,234.85,63.92,234.84,63.93c0.16-0.11,2.58-1.86,4.62-2.12"/>
					<path class="st8" d="M358.95,9.7c-0.53,0.35-4.74,0.53-6.45,2.48"/>
					<path class="st8" d="M293.94,45.49c0,0,10.53-4.74,12.9-6.84s12.11-10,16.32-12.63c4.21-2.63,18.69-9.47,19.74-9.74
						s3.95-2.37,3.95-2.37s3.16,2.89,4.74,3.16c1.58,0.26,2.89-1.05,3.16-1.84c0.2-0.61-1.46-2.3-2.24-3.05
						c-0.24-0.23-0.39-0.37-0.39-0.37"/>
					<path class="st8" d="M309.29,43.03c0,0,6.49,3.25,6.49,12.72c0,7.44-1.32,13.16-15.26,16.05c-10.21,2.12-16.89,1.84-19.74,1.54
						c-0.55-0.06-1.08-0.2-1.58-0.43c-0.51-0.23-0.98-0.54-1.39-0.92c-0.73-0.68-1.45-1.54-1.38-2.23c0,0,0-0.01,0-0.01"/>
					<path class="st8" d="M296.05,71.02l-0.75-1.64c-0.31-0.69-1.13-1-1.82-0.69l-6.2,2.8c-0.38,0.17-0.84-0.01-1-0.39l-1.55-3.76"
						/>
					<path class="st8" d="M288.94,57.86c2.89,2.37,4.21,6.84,4.21,6.84s-2.63,0.26-4.21-1.32"/>
					<path class="st8" d="M297.89,63.91c0,0,7.37,2.89,10.79-3.95"/>
					<path class="st8" d="M282.89,71.81c0,0,0.26-1.84-1.58-5.26"/>
					<path class="st8" d="M279.21,68.39c0,0,1.84,1.05,2.11,2.11c0.26,1.05,0,1.32,0,1.32"/>
					<path class="st8" d="M268.15,100.23c0,0-0.12,0.11-0.37,0.32c-2.25,1.77-15.22,10.34-54.89,9.16"/>
					<path class="st8" d="M133.5,106.55c0,0,2.54,0.53,6.49,0c3.95-0.53,35-11.84,52.64-11.58s11.58,0,11.58,0"/>
					<path class="st8" d="M148.08,119.42c0,0-5.46,3.71-5.72,4.76c-0.04,0.16-0.02,0.51,0.04,0.99c0.24,1.84,1.07,5.58,1.14,8.08
						c0,0,0,0.01,0,0.01c0.01,0.25,0.01,0.49,0,0.71c-0.02,0.37,0.13,0.71,0.37,0.95c0.22,0.22,0.54,0.36,0.88,0.35
						c0.63-0.02,1.41,0.03,2.3,0.23c2.37,0.53,6.84,2.89,6.84,2.89"/>
					<path class="st8" d="M148.14,130.23c0,0,2.76,0.58,5.7-0.56c1.51-0.58,3.06-1.61,4.3-3.39"/>
					<path class="st8" d="M88.3,123.49c0,0,6.16,4.38,10.1,5.43c3.95,1.05,14.74,1.84,18.95,0.79s14.47-1.32,16.05-1.32
						c0,0,2.85-3,8.93-3.21"/>
					<path class="st8" d="M143.9,134.92c0,0-3.92,1.63-8.13,0.58"/>
					<path class="st8" d="M172.88,128.39c0,0,13.64-2.27,25.09-2.4c2.6-0.03,5.09,0.05,7.28,0.29"/>
					<path class="st8" d="M91.35,123.88c11.63-2.01,24.02-2.99,33.89-1.02"/>
					<path class="st8" d="M54.71,133.39c0,0,12.21-4.36,27.62-7.74"/>
					<path class="st8" d="M135.77,113.65c-7.11-4.74-11.58,1.05-18.16,0.79c-6.58-0.26-9.21-1.58-9.21-1.58"/>
					<path class="st8" d="M221.57,128.92c0,0,0.1,0.08,0.28,0.22c1.07,0.83,4.95,3.81,6.3,4.26c1.58,0.53,8.68-0.26,8.95,0
						c0.18,0.18,1.76,2.52,2.71,3.93c0.31,0.46-0.02,1.07-0.57,1.07h-9.51c0,0-1.32,3.16-4.21,2.37c-3.29-0.9-6.61-0.51-8.22-0.21
						c-0.7,0.13-1.42,0.02-2.05-0.3c-1.5-0.78-4.12-2.3-4.48-3.64"/>
					<path class="st8" d="M229.73,138.39c0,0,0.26-1.84-4.21-2.89"/>
					<path class="st8" d="M294.73,40.49c-25.53,17.37-37.11,15.26-37.11,15.26"/>
				</g>
			</g>
		</g>
		<path class="st2" d="M205.12,94.84c0,0,7.9-2.11,15.79-12.9l-4.21,3.16l-11.58,3.16l-17.63,1.58l-17.11,3.16l-22.9,7.11
			l-12.37,6.58h3.68l12.11-3.16l21.05-5.79l13.69-2.89h13.16H205.12z"/>
		<path class="st4" d="M195.38,116.94l1.32,0.53l10.79,6.84l4.21,3.42c0,0,2.89,2.37,3.68,5.79l6.84-4.21l6.05-2.11l6.32-3.42
			l3.68-3.42l10.26-3.42l7.9-2.89l7.37-2.37l3.16-3.16l1.05-6.58l-0.26-1.84l-7.9,0.26l-19.48-1.84l-12.37-2.89l-2.63-0.79
			c0,0,6.32,15.79,27.37,11.84l-16.58,2.37l-23.42,0.79"/>
		<path class="st4" d="M257.62,55.75c0,0,11.58,2.11,37.11-15.26c0,0,8.63,2.42,16.45-5.4c9.74-9.74,35.53-21.05,35.53-21.05
			l5.79,3.16l2.37-1.58l-1.58-2.63l-0.53-1.05l5.79-2.37c0,0,9.21-3.68,10.79-4.74c1.58-1.05,3.95,0,3.95,0l0.79,1.05l-1.58,2.37
			l-7.37,2.63l-3.95,3.42l3.68,0.26l4.21,0.79l1.05,1.84l-1.32,1.84l-9.74,0.79l-8.42,0.53l-4.47-0.26l-22.63,14.74l-19.21,10.79
			l-2.63,0.26l-5.53,3.16l-15.53,5.79l-13.16,5.79l-11.84,8.42l-2.89,1.05c0,0-11.84,2.11-7.37-6.05l5.79-2.37l8.95-1.84
			C260.12,59.83,250.12,57.2,257.62,55.75z"/>
		<path class="st4" d="M309.34,69.05c0,0-10.26,0-20.26-11.05c0,0-1.84,5.79-12.63,8.42v3.16l1.32,2.37l2.89,1.58h10.26l9.47-1.58
			L309.34,69.05z"/>
		<path class="st5" d="M276.44,69.57l2.89-11.58l-2.89,1.84l-3.16,5l-5,14.47l-3.68,7.11c0,0-6.84,6.84-8.16,7.9
			c0,0,5.26,1.32,13.69,0.53v2.89l0.79,2.37l4.47-5.79l3.42-6.84l0.53-12.37l-0.26-2.24l-2.63-2.5V69.57z"/>
		<path class="st4" d="M213.13,109.84c0,0-7.22-3.16-14.07-9.74l-4.74,2.89l-8.95,3.68l-19.48,5.26l-13.69,5l-1.32,1.05v1.32h6.58
			l17.63,0.79l6.05-0.79l11.58-2.37h2.63l3.68,1.05L213.13,109.84z"/>
		<g>
			<path class="st5" d="M143.8,130.37c0,0,2.11-0.53,4.21-0.26c2.11,0.26,5.79-0.53,5.79-0.53l4.21-3.42c0,0,6.32,3.68,17.11,2.11
				c10.79-1.58,24.48-2.37,24.48-2.37l5.53,0.26l4.75,0.13l5.25,2.76l0.79,3.68l-6.84,5l-3.95,2.89l-20,0.26l-63.16-0.26
				c0,0,7.11-5.26,13.69-5.26c6.58,0,7.37-0.26,7.37-0.26l0.53-1.84L143.8,130.37z"/>
			<path class="st8" d="M270.21,35.01c0,0-7.85,1-11.53,2.85c-3.68,1.84-4.74,7.63-6.32,9.47c-1.58,1.84-14.21,10.26-15,12.37
				c-0.79,2.11-2.11,3.95-3.95,5.79c-1.84,1.84-10.26,12.9-12.37,16.32c-2.11,3.42-10.53,5.79-16.84,6.58
				c-6.32,0.79-34.48,0-68.95,17.9c0,0-8.16,1.32-11.58,1.05c-3.42-0.26-12.11-1.32-26.84,3.95s-18.95,7.37-26.05,8.42
				s-18.42,2.11-20.26,2.37c-1.84,0.26-10.53,4.21-8.68,15c0,0,0.53,1.84,1.58,2.11c1.05,0.26,13.95,0,13.95,0s6.58-7.11,27.37-7.63
				"/>
			<path class="st8" d="M149.98,118.65c10.53-6.32,21.58-8.42,30.27-10.26c8.68-1.84,18.95-8.16,18.95-8.16
				c13.42-2.11,25.79-5.26,25.79-5.26s15.26,3.95,25.53,5c10.26,1.05,17.11,0,17.11,0c1.32,4.47-0.26,8.95-2.11,10.79
				c-1.84,1.84-11.05,3.68-13.95,5c-2.89,1.32-13.16,4.74-13.16,4.74c-6.58,7.11-16.84,8.68-16.84,8.68l-16.84,11.58
				c0,0-51.85,0-58.95,0s-32.11-0.79-32.11-0.79s-19.21,0-23.16-0.79c-3.95-0.79-8.42-11.84-8.16-14.21
				c0.26-2.37,7.63-1.32,7.63-1.32s20.26,3.42,22.9,3.42s10.79-3.95,15.26-5c4.47-1.05,8.95-0.53,10.79-0.79
				c1.84-0.26,10.53-2.63,15-2.37s22.11,1.58,24.48,1.05c0,0,15.79-3.16,17.11-2.89s5.26,1.32,16.84,11.32"/>
			<path class="st8" d="M279.2,72.86c0,0,0.26,11.84-0.53,14.74c-0.79,2.89-5.53,10.79-6.84,11.84c-1.32,1.05-3.73,5.01-3.73,5.01"
				/>
			<path class="st8" d="M254.47,50.75c2.63-6.05,7.9-11.32,11.84-13.95c3.95-2.63,25.27-8.42,25.27-8.42s5.53-3.68,7.37-4.74
				c1.84-1.05,6.32-1.58,6.32-1.58l35-13.69c0,0,8.42,0,10.79-0.26c2.37-0.26,2.63-0.79,2.63-0.79c12.11-6.58,16.05-7.37,16.84-6.58
				c0.79,0.79-1.32,3.95-1.32,3.95c1.58-0.53,4.21-0.26,4.74,0.26c0.53,0.53,0,3.68-4.74,4.74c-4.74,1.05-8.42,4.74-8.42,4.74
				s7.37-0.53,8.95,1.58s-1.58,3.16-1.58,3.16s-7.9,0.26-10.53,0.79c-2.63,0.53-7.11,0.53-8.42,0.26c-1.32-0.26-2.89-0.26-2.89-0.26
				c-1.84,2.37-40.53,26.05-42.9,25.79s-3.16,1.05-5.53,2.37c-2.37,1.32-8.95,3.16-14.47,5.53c-5.53,2.37-7.63,20.26-7.63,20.26"/>
			<path class="st8" d="M270.97,100.34c0,0-0.71-4.32-0.71-5.37c0,0-7.11,0.53-10.79,0"/>
			<path class="st8" d="M280.66,56.4c0,0-6.19,3.83-8.83,11.47s-3.68,15.26-7.9,19.21"/>
			<path class="st8" d="M282.28,54.39c0,0-13.08,4.26-16.24,7.42c-3.16,3.16-16.04,13.68-42.76,16.71"/>
			<path class="st8" d="M244.99,64.18c0,0,4.47-2.63,9.47-3.16s10.79-1.84,10.79-1.84"/>
			<path class="st8" d="M234.85,63.93c0,0,2.51-1.86,4.62-2.12"/>
			<path class="st8" d="M358.95,9.7c-0.53,0.35-4.74,0.53-6.45,2.48"/>
			<path class="st8" d="M293.94,45.49c0,0,10.53-4.74,12.9-6.84c2.37-2.11,12.11-10,16.32-12.63s18.69-9.47,19.74-9.74
				s3.95-2.37,3.95-2.37s3.16,2.89,4.74,3.16s2.89-1.05,3.16-1.84c0.26-0.79-2.63-3.42-2.63-3.42"/>
			<path class="st8" d="M309.3,43.03c0,0,6.49,3.25,6.49,12.72c0,7.44-1.32,13.16-15.26,16.05c-10.21,2.12-16.89,1.84-19.74,1.54
				c-1.11-0.12-2.15-0.59-2.97-1.35c-0.73-0.68-1.46-1.54-1.38-2.24"/>
			<path class="st8" d="M296.05,71.02l-0.75-1.64c-0.31-0.69-1.13-1-1.82-0.69l-6.2,2.8c-0.38,0.17-0.84-0.01-1-0.4l-1.55-3.76"/>
			<path class="st8" d="M288.94,57.86c2.89,2.37,4.21,6.84,4.21,6.84s-2.63,0.26-4.21-1.32"/>
			<path class="st8" d="M297.89,63.91c0,0,7.37,2.89,10.79-3.95"/>
			<path class="st8" d="M282.89,71.81c0,0,0.26-1.84-1.58-5.26"/>
			<path class="st8" d="M279.2,68.39c0,0,1.84,1.05,2.11,2.11c0.26,1.05,0,1.32,0,1.32"/>
			<path class="st8" d="M268.15,100.23c0,0-11.05,10.79-55.27,9.47"/>
			<path class="st8" d="M133.5,106.55c0,0,2.54,0.53,6.49,0c3.95-0.53,35-11.84,52.64-11.58s11.58,0,11.58,0"/>
			<path class="st8" d="M148.08,119.42c0,0-5.46,3.71-5.73,4.76c-0.21,0.86,1.31,6.77,1.18,9.79c-0.03,0.72,0.54,1.32,1.25,1.3
				c0.63-0.02,1.41,0.03,2.3,0.23c2.37,0.53,6.84,2.89,6.84,2.89"/>
			<path class="st8" d="M148.14,130.23c0,0,6.32,1.32,10-3.95"/>
			<path class="st8" d="M88.3,123.49c0,0,6.16,4.38,10.1,5.43c3.95,1.05,14.74,1.84,18.95,0.79s14.47-1.32,16.05-1.32
				c0,0,2.85-3,8.93-3.21"/>
			<path class="st8" d="M143.9,134.91c0,0-3.92,1.64-8.13,0.58"/>
			<path class="st8" d="M172.88,128.39c0,0,20.53-3.42,32.37-2.11"/>
			<path class="st8" d="M91.35,123.88c11.63-2.01,24.02-2.99,33.89-1.02"/>
			<path class="st8" d="M54.71,133.39c0,0,12.21-4.36,27.62-7.74"/>
			<path class="st8" d="M135.77,113.65c-7.11-4.74-11.58,1.05-18.16,0.79c-6.58-0.26-9.21-1.58-9.21-1.58"/>
			<path class="st8" d="M221.57,128.92c0,0,5,3.95,6.58,4.47c1.58,0.53,8.68-0.26,8.95,0c0.18,0.18,1.76,2.52,2.71,3.93
				c0.31,0.46-0.02,1.07-0.57,1.07h-9.51c0,0-1.32,3.16-4.21,2.37c-3.29-0.9-6.61-0.5-8.22-0.21c-0.7,0.13-1.42,0.02-2.05-0.3
				c-1.5-0.78-4.12-2.3-4.49-3.64"/>
			<path class="st8" d="M229.73,138.39c0,0,0.26-1.84-4.21-2.89"/>
			<path class="st8" d="M294.73,40.49c-25.53,17.37-37.11,15.26-37.11,15.26"/>
		</g>
	</g>
</g>
</svg>
