<?xml version="1.0" encoding="utf-8"?>
<!-- Generator: Adobe Illustrator 23.1.0, SVG Export Plug-In . SVG Version: 6.00 Build 0)  -->
<svg version="1.1" id="Layer_1" xmlns="http://www.w3.org/2000/svg" xmlns:xlink="http://www.w3.org/1999/xlink" x="0px" y="0px"
	 viewBox="0 0 593.89 171" style="enable-background:new 0 0 593.89 171;" xml:space="preserve">
<style type="text/css">
	.st0{fill:#D68E7E;}
	.st1{fill:#F2EADB;}
	.st2{fill:#DEB79F;}
	.st3{fill:#CE6B66;}
	.st4{fill:none;stroke:#93464D;stroke-miterlimit:10;}
	.st5{fill:#CE6B66;stroke:#93464D;stroke-miterlimit:10;}
</style>
<g>
	<g>
		<g id="XMLID_6_">
			<g>
				<polygon class="st0" points="593.39,0.5 593.39,145.01 520.04,145.01 520.04,129.6 527,134.01 527,103.93 536.17,111.28 
					541.34,115.43 546.44,119.52 546.44,126.3 581.65,142.07 581.65,127.77 581.65,72.75 579.2,71.65 579.11,71.61 546.44,56.98 
					546.44,34.98 546.44,33.14 546.44,32.78 546.44,0.5 				"/>
				<polygon class="st1" points="576.15,125.06 579.2,126.56 581.65,127.77 581.65,142.07 546.44,126.3 546.44,119.52 546.44,57.91 
					553.41,67.62 553.41,113.83 564.3,119.21 570.92,122.47 				"/>
				<polygon class="st2" points="581.65,72.75 581.65,127.77 579.2,126.56 579.2,71.65 				"/>
				<polygon class="st2" points="579.2,71.65 579.2,126.56 576.15,125.06 576.15,71.65 579.09,71.65 579.11,71.61 				"/>
				<polygon class="st0" points="546.44,56.98 579.11,71.61 579.09,71.65 576.15,71.65 571.02,71.65 571.02,69.29 564.42,69.29 
					564.42,67.62 553.41,67.62 546.44,57.91 				"/>
				<polygon class="st2" points="576.15,71.65 576.15,125.06 570.92,122.47 571.02,122.27 571.02,71.65 				"/>
				<polygon class="st2" points="571.02,71.65 571.02,122.27 570.92,122.47 564.3,119.21 564.42,118.97 564.42,69.29 571.02,69.29 
									"/>
				<polygon class="st2" points="564.42,69.29 564.42,118.97 564.3,119.21 553.41,113.83 553.41,67.62 564.42,67.62 				"/>
				<polygon class="st2" points="546.44,57.91 546.44,119.52 541.34,115.43 541.36,115.39 541.36,33.04 541.38,32.79 546.44,33.14 
					546.44,34.98 546.44,56.98 				"/>
				<polygon class="st3" points="546.44,32.78 546.44,33.14 541.38,32.79 536.28,32.44 520.04,31.31 511.23,17 				"/>
				<polygon class="st0" points="546.44,0.5 546.44,32.78 511.23,17 511.23,0.5 				"/>
				<polygon class="st2" points="541.38,32.79 541.36,33.04 541.36,115.39 541.34,115.43 536.17,111.28 536.17,111.27 536.28,32.44 
									"/>
				<polygon class="st2" points="536.28,32.44 536.17,111.27 536.17,111.28 527,103.93 527,62.12 520.04,62.12 520.04,31.31 				"/>
				<polygon class="st2" points="527,103.93 527,134.01 520.04,129.6 520.04,62.85 519.76,62.73 520.04,62.12 527,62.12 				"/>
				<polygon class="st0" points="495.83,118.76 503.53,122.21 511.23,125.66 516.97,128.23 520.04,129.6 520.04,145.01 
					469.79,145.01 469.79,130.29 475.99,133.33 484.83,137.67 484.83,113.83 				"/>
				<polygon class="st2" points="520.04,62.85 520.04,129.6 516.97,128.23 517.17,127.77 517.17,61.57 519.76,62.73 				"/>
				<polygon class="st1" points="520.04,31.31 520.04,62.12 519.76,62.73 517.17,61.57 511.23,58.91 511.23,17 				"/>
				<polygon class="st1" points="517.17,61.57 517.17,127.77 516.97,128.23 511.23,125.66 511.23,61.75 511.23,59.38 511.23,58.91 
									"/>
				<polygon class="st2" points="511.23,61.75 511.23,125.66 503.53,122.21 503.53,61.75 				"/>
				<polygon class="st3" points="511.23,59.38 511.23,61.75 503.53,61.75 495.83,61.75 495.83,61.38 484.83,47.08 511.23,58.91 				
					"/>
				<polygon class="st0" points="511.23,17 511.23,58.91 484.83,47.08 484.83,0.5 511.23,0.5 				"/>
				<polygon class="st2" points="503.53,61.75 503.53,122.21 495.83,118.76 495.83,61.75 				"/>
				<polygon class="st1" points="495.83,61.75 495.83,118.76 484.83,113.83 484.83,49.64 484.83,47.08 495.83,61.38 				"/>
				<polygon class="st2" points="484.83,113.83 484.83,137.67 475.99,133.33 476.02,133.27 476.02,47.08 484.83,47.08 484.83,49.64 
									"/>
				<polygon class="st0" points="484.83,0.5 484.83,47.08 471.79,41.21 469.79,40.31 469.79,0.5 				"/>
				<polygon class="st3" points="484.83,47.08 476.02,47.08 471.79,41.21 				"/>
				<polygon class="st1" points="476.02,47.08 476.02,133.27 475.99,133.33 469.79,130.29 469.79,129.79 469.79,44.15 469.79,41.21 
					469.79,40.31 471.79,41.21 				"/>
				<polygon class="st0" points="469.79,130.29 469.79,145.01 453.65,145.01 453.65,122.36 460.99,125.96 				"/>
				<polygon class="st2" points="469.79,129.79 469.79,130.29 460.99,125.96 460.99,41.21 469.79,41.21 469.79,44.15 				"/>
				<polygon class="st3" points="469.79,40.31 469.79,41.21 460.99,41.21 455.59,33.92 				"/>
				<polygon class="st0" points="469.79,0.5 469.79,40.31 455.59,33.92 455.59,33.91 453.65,33.04 453.65,0.5 				"/>
				<polygon class="st1" points="460.99,41.21 460.99,125.96 453.65,122.36 453.65,95.86 453.65,34.98 453.65,33.04 455.59,33.91 
					455.59,33.92 				"/>
				<polygon class="st0" points="453.65,122.36 453.65,145.01 400.58,145.01 400.58,127.82 406.7,130.59 423.21,138.04 
					423.21,107.4 				"/>
				<polygon class="st2" points="449.98,94.29 453.65,95.86 453.65,122.36 423.21,107.4 423.14,107.37 423.21,107.23 423.21,28.37 
					438.25,29.84 438.25,32.2 438.25,89.26 444.85,92.09 				"/>
				<polygon class="st2" points="453.65,34.98 453.65,95.86 449.98,94.29 449.98,34.98 				"/>
				<polygon class="st3" points="453.65,33.04 453.65,34.98 449.98,34.98 444.85,34.98 444.85,32.2 438.25,32.2 438.25,29.84 
					423.21,28.37 414.77,15.54 				"/>
				<polygon class="st0" points="453.65,0.5 453.65,33.04 414.77,15.54 414.71,15.54 414.71,0.5 				"/>
				<polygon class="st2" points="449.98,34.98 449.98,94.29 444.85,92.09 444.85,34.98 				"/>
				<polygon class="st2" points="444.85,34.98 444.85,92.09 438.25,89.26 438.25,32.2 444.85,32.2 				"/>
				<polygon class="st2" points="423.21,107.4 423.21,138.04 406.7,130.59 406.7,107.23 422.42,107.4 422.57,107.09 423.14,107.37 
									"/>
				<polygon class="st1" points="423.21,28.37 423.21,107.23 423.14,107.37 422.57,107.09 414.69,103.22 414.71,103.2 414.71,66.89 
					414.77,66.89 414.71,66.86 414.71,15.54 414.77,15.54 				"/>
				<polygon class="st3" points="422.57,107.09 422.42,107.4 406.7,107.23 400.58,97.27 400.58,96.29 403.54,97.74 414.69,103.22 
									"/>
				<polygon class="st2" points="414.71,66.89 414.71,103.2 414.69,103.22 403.54,97.74 403.77,97.27 403.77,66.89 				"/>
				<polygon class="st3" points="414.71,66.86 414.71,66.89 403.77,66.89 400.58,61.76 400.58,60.7 				"/>
				<polygon class="st0" points="414.71,15.54 414.71,66.86 400.58,60.7 400.58,0.5 414.71,0.5 				"/>
				<polygon class="st1" points="406.7,107.23 406.7,130.59 400.58,127.82 400.58,97.27 				"/>
				<polygon class="st1" points="403.77,66.89 403.77,97.27 403.54,97.74 400.58,96.29 400.58,72.75 400.58,69.82 400.58,61.76 				
					"/>
				<polygon class="st0" points="388.73,122.43 393.5,124.6 400.47,127.77 400.58,127.82 400.58,145.01 363.98,145.01 
					363.98,111.27 364.16,111.27 371.13,114.43 383.96,120.27 				"/>
				<polygon class="st2" points="400.58,96.29 400.58,97.27 400.58,127.82 400.47,127.77 393.5,124.6 393.5,72.75 400.47,72.75 
					400.58,72.75 				"/>
				<polygon class="st3" points="400.58,69.82 400.58,72.75 400.47,72.75 393.5,72.75 388.91,72.75 388.73,72.75 388.73,69.82 
					384.15,69.82 383.96,69.82 383.96,66.89 371.13,66.89 364.16,53.32 400.47,69.82 				"/>
				<polygon class="st0" points="400.58,61.76 400.58,69.82 400.47,69.82 364.16,53.32 363.98,53.32 363.98,0.5 400.58,0.5 
					400.58,60.7 				"/>
				<polygon class="st2" points="393.5,72.75 393.5,124.6 388.73,122.43 388.73,72.75 388.91,72.75 				"/>
				<polygon class="st2" points="388.73,72.75 388.73,122.43 383.96,120.27 383.96,69.82 384.15,69.82 388.73,69.82 				"/>
				<polygon class="st2" points="383.96,69.82 383.96,120.27 371.13,114.43 371.13,66.89 383.96,66.89 				"/>
				<polygon class="st1" points="371.13,66.89 371.13,114.43 364.16,111.27 363.98,111.27 363.98,53.32 364.16,53.32 				"/>
				<polygon class="st0" points="363.98,111.27 363.98,145.01 338.48,145.01 338.48,0.5 363.98,0.5 363.98,53.32 				"/>
			</g>
			<g>
				<polygon class="st4" points="546.44,0.5 593.39,0.5 593.39,145.01 520.04,145.01 469.79,145.01 453.65,145.01 400.58,145.01 
					363.98,145.01 338.48,145.01 338.48,0.5 363.98,0.5 400.58,0.5 414.71,0.5 453.65,0.5 469.79,0.5 484.83,0.5 511.23,0.5 				"/>
				<polyline class="st4" points="363.98,0.5 363.98,53.32 363.98,111.27 363.98,145.01 				"/>
				<polyline class="st4" points="400.58,0.5 400.58,60.7 400.58,61.76 400.58,69.82 400.58,72.75 400.58,96.29 400.58,97.27 
					400.58,127.82 400.58,145.01 				"/>
				<polyline class="st4" points="455.59,33.91 453.65,33.04 414.77,15.54 				"/>
				<polyline class="st4" points="484.83,47.08 471.79,41.21 469.79,40.31 455.59,33.92 				"/>
				<polyline class="st4" points="484.83,47.08 511.23,58.91 517.17,61.57 519.76,62.73 520.04,62.85 520.04,129.6 516.97,128.23 
					511.23,125.66 503.53,122.21 495.83,118.76 484.83,113.83 				"/>
				<polyline class="st4" points="546.44,34.98 546.44,56.98 546.44,57.91 546.44,119.52 546.44,126.3 581.65,142.07 581.65,127.77 
					581.65,72.75 579.2,71.65 579.11,71.61 546.44,56.98 				"/>
				<polyline class="st4" points="511.23,125.66 511.23,61.75 511.23,59.38 511.23,58.91 511.23,17 546.44,32.78 				"/>
				<line class="st4" x1="400.47" y1="69.82" x2="364.16" y2="53.32"/>
				<polyline class="st4" points="400.47,127.77 393.5,124.6 388.73,122.43 383.96,120.27 371.13,114.43 364.16,111.27 				"/>
				<polyline class="st4" points="414.77,66.89 414.71,66.86 400.58,60.7 400.47,60.65 				"/>
				<polyline class="st4" points="414.71,0.5 414.71,15.54 414.71,66.86 414.71,66.89 414.71,103.2 				"/>
				<polyline class="st4" points="423.21,107.4 423.21,138.04 406.7,130.59 400.58,127.82 400.47,127.77 				"/>
				<polyline class="st4" points="383.96,120.27 383.96,69.82 383.96,66.89 371.13,66.89 371.13,114.43 371.13,114.93 				"/>
				<polyline class="st4" points="384.15,69.82 388.73,69.82 388.73,72.75 388.73,122.43 388.73,122.45 				"/>
				<polyline class="st4" points="393.5,72.75 393.5,124.6 393.5,124.65 				"/>
				<polyline class="st4" points="388.91,72.75 393.5,72.75 400.47,72.75 				"/>
				<line class="st4" x1="364.16" y1="53.32" x2="371.13" y2="66.89"/>
				<polyline class="st4" points="400.47,61.57 400.58,61.76 403.77,66.89 414.71,66.89 414.77,66.89 				"/>
				<polyline class="st4" points="400.58,97.27 406.7,107.23 422.42,107.4 				"/>
				<line class="st4" x1="403.77" y1="66.89" x2="403.77" y2="97.27"/>
				<line class="st4" x1="406.7" y1="107.23" x2="406.7" y2="130.59"/>
				<polyline class="st4" points="453.65,95.86 449.98,94.29 444.85,92.09 438.25,89.26 438.25,32.2 438.25,29.84 423.21,28.37 
					423.21,107.23 				"/>
				<polyline class="st4" points="438.25,32.2 444.85,32.2 444.85,34.98 444.85,92.09 444.85,92.38 				"/>
				<polyline class="st4" points="449.98,34.98 449.98,94.29 449.98,94.3 				"/>
				<polyline class="st4" points="444.85,34.98 449.98,34.98 453.65,34.98 				"/>
				<line class="st4" x1="414.77" y1="15.54" x2="423.21" y2="28.37"/>
				<polyline class="st4" points="469.79,44.15 469.79,129.79 469.79,130.29 469.79,145.01 				"/>
				<polyline class="st4" points="460.99,125.96 460.99,41.21 469.79,41.21 				"/>
				<polyline class="st4" points="484.83,47.08 476.02,47.08 476.02,133.27 				"/>
				<polyline class="st4" points="400.47,96.23 400.58,96.29 403.54,97.74 414.69,103.22 422.57,107.09 423.14,107.37 423.21,107.4 
					453.65,122.36 460.99,125.96 469.79,130.29 475.99,133.33 484.83,137.67 484.83,113.83 484.83,49.64 				"/>
				<line class="st4" x1="471.79" y1="41.21" x2="476.02" y2="47.08"/>
				<polyline class="st4" points="455.59,33.91 455.59,33.92 460.99,41.21 				"/>
				<polyline class="st4" points="484.83,47.08 495.83,61.38 495.83,61.75 495.83,118.76 495.83,119.52 				"/>
				<line class="st4" x1="517.17" y1="61.57" x2="517.17" y2="127.77"/>
				<polyline class="st4" points="495.83,61.75 503.53,61.75 511.23,61.75 				"/>
				<line class="st4" x1="503.53" y1="122.21" x2="503.53" y2="61.75"/>
				<polyline class="st4" points="546.44,33.14 541.38,32.79 536.28,32.44 520.04,31.31 520.04,62.12 527,62.12 527,103.93 
					527,134.01 520.04,129.6 520.04,145.01 				"/>
				<polyline class="st4" points="520.04,31.31 511.23,17 511.23,0.5 				"/>
				<polyline class="st4" points="527,103.93 536.17,111.28 541.34,115.43 546.44,119.52 				"/>
				<line class="st4" x1="536.28" y1="32.44" x2="536.17" y2="111.27"/>
				<line class="st4" x1="541.36" y1="33.04" x2="541.36" y2="115.39"/>
				<polyline class="st4" points="581.65,127.77 579.2,126.56 576.15,125.06 570.92,122.47 564.3,119.21 553.41,113.83 
					553.41,67.62 564.42,67.62 564.42,69.29 564.42,118.97 				"/>
				<line class="st4" x1="553.41" y1="67.62" x2="546.44" y2="57.91"/>
				<polyline class="st4" points="564.42,69.29 571.02,69.29 571.02,71.65 571.02,122.27 				"/>
				<polyline class="st4" points="576.15,71.65 576.15,125.06 576.15,125.3 				"/>
				<polyline class="st4" points="571.02,71.65 576.15,71.65 579.09,71.65 				"/>
				<line class="st4" x1="579.2" y1="71.65" x2="579.2" y2="126.56"/>
				<polyline class="st4" points="453.65,0.5 453.65,33.04 453.65,34.98 453.65,95.86 453.65,122.36 453.65,145.01 				"/>
				<polyline class="st4" points="469.79,0.5 469.79,40.31 469.79,41.21 469.79,44.15 				"/>
				<polyline class="st4" points="484.83,0.5 484.83,47.08 484.83,49.64 				"/>
				<polyline class="st4" points="546.44,0.5 546.44,32.78 546.44,33.14 546.44,34.98 				"/>
			</g>
		</g>
	</g>
	<g>
		<g id="XMLID_5_">
			<g>
				<polygon class="st0" points="338.48,34.91 338.48,145.01 282.6,145.01 282.6,133.27 287.91,136.63 287.91,113.71 294.89,119.31 
					302.72,125.59 302.72,130.76 329.54,142.77 329.54,131.88 329.54,89.96 327.6,89.09 302.72,77.94 302.72,61.18 302.72,59.78 
					302.72,59.5 302.72,34.91 				"/>
				<polygon class="st1" points="325.35,129.81 329.54,131.88 329.54,142.77 302.72,130.76 302.72,125.59 302.72,78.65 
					308.02,86.05 308.02,121.26 316.32,125.35 321.36,127.84 				"/>
				<polygon class="st2" points="329.54,89.96 329.54,131.88 325.35,129.81 325.35,89.12 327.58,89.12 327.6,89.09 				"/>
				<polygon class="st0" points="302.72,77.94 327.6,89.09 327.58,89.12 325.35,89.12 321.44,89.12 321.44,87.32 316.41,87.32 
					316.41,86.05 308.02,86.05 302.72,78.65 				"/>
				<polygon class="st2" points="325.35,89.12 325.35,129.81 321.36,127.84 321.44,127.68 321.44,89.12 				"/>
				<polygon class="st2" points="321.44,89.12 321.44,127.68 321.36,127.84 316.32,125.35 316.41,125.17 316.41,87.32 321.44,87.32 
									"/>
				<polygon class="st2" points="316.41,87.32 316.41,125.17 316.32,125.35 308.02,121.26 308.02,86.05 316.41,86.05 				"/>
				<polygon class="st2" points="302.72,78.65 302.72,125.59 294.89,119.31 294.89,119.3 294.97,59.25 302.72,59.78 302.72,61.18 
					302.72,77.94 				"/>
				<polygon class="st3" points="302.72,59.5 302.72,59.78 294.97,59.25 282.6,58.38 275.89,47.49 				"/>
				<polygon class="st0" points="302.72,34.91 302.72,59.5 275.89,47.49 275.89,34.91 				"/>
				<polygon class="st2" points="294.97,59.25 294.89,119.3 294.89,119.31 287.91,113.71 287.91,81.86 282.6,81.86 282.6,58.38 				
					"/>
				<polygon class="st2" points="287.91,113.71 287.91,136.63 282.6,133.27 282.6,82.42 282.39,82.32 282.6,81.86 287.91,81.86 				
					"/>
				<polygon class="st0" points="264.15,125.01 270.02,127.64 275.89,130.27 282.6,133.27 282.6,145.01 244.31,145.01 
					244.31,133.79 249.04,136.11 255.77,139.42 255.77,121.26 				"/>
				<polygon class="st1" points="282.6,82.42 282.6,133.27 275.89,130.27 275.89,81.58 275.89,79.77 275.89,79.41 282.39,82.32 				
					"/>
				<polygon class="st1" points="282.6,58.38 282.6,81.86 282.39,82.32 275.89,79.41 275.89,47.49 				"/>
				<polygon class="st2" points="275.89,81.58 275.89,130.27 270.02,127.64 270.02,81.58 				"/>
				<polygon class="st3" points="275.89,79.77 275.89,81.58 270.02,81.58 264.15,81.58 264.15,81.3 255.77,70.4 275.89,79.41 				
					"/>
				<polygon class="st0" points="275.89,47.49 275.89,79.41 255.77,70.4 255.77,34.91 275.89,34.91 				"/>
				<polygon class="st2" points="270.02,81.58 270.02,127.64 264.15,125.01 264.15,81.58 				"/>
				<polygon class="st1" points="264.15,81.58 264.15,125.01 255.77,121.26 255.77,72.35 255.77,70.4 264.15,81.3 				"/>
				<polygon class="st2" points="255.77,121.26 255.77,139.42 249.04,136.11 249.06,136.07 249.06,70.4 255.77,70.4 255.77,72.35 
									"/>
				<polygon class="st0" points="255.77,34.91 255.77,70.4 245.84,65.93 244.31,65.24 244.31,34.91 				"/>
				<polygon class="st3" points="255.77,70.4 249.06,70.4 245.84,65.93 				"/>
				<polygon class="st1" points="249.06,70.4 249.06,136.07 249.04,136.11 244.31,133.79 244.31,133.41 244.31,68.16 244.31,65.93 
					244.31,65.24 245.84,65.93 				"/>
				<polygon class="st0" points="244.31,133.79 244.31,145.01 232.02,145.01 232.02,127.75 237.61,130.5 				"/>
				<polygon class="st2" points="244.31,133.41 244.31,133.79 237.61,130.5 237.61,65.93 244.31,65.93 244.31,68.16 				"/>
				<polygon class="st3" points="244.31,65.24 244.31,65.93 237.61,65.93 233.5,60.37 				"/>
				<polygon class="st0" points="244.31,34.91 244.31,65.24 233.5,60.37 233.49,60.37 232.02,59.71 232.02,34.91 				"/>
				<polygon class="st1" points="237.61,65.93 237.61,130.5 232.02,127.75 232.02,107.56 232.02,61.18 232.02,59.71 233.49,60.37 
					233.5,60.37 				"/>
				<polygon class="st0" points="232.02,127.75 232.02,145.01 191.59,145.01 191.59,131.91 196.25,134.02 208.83,139.7 
					208.83,116.36 				"/>
				<polygon class="st2" points="225.31,104.69 232.02,107.56 232.02,127.75 208.83,116.36 208.77,116.33 208.83,116.23 
					208.83,56.15 220.28,57.27 220.28,59.07 220.28,102.54 				"/>
				<polygon class="st2" points="232.02,61.18 232.02,107.56 225.31,104.69 225.31,61.18 				"/>
				<polygon class="st3" points="232.02,59.71 232.02,61.18 225.31,61.18 225.31,59.07 220.28,59.07 220.28,57.27 208.83,56.15 
					202.4,46.37 				"/>
				<polygon class="st0" points="232.02,34.91 232.02,59.71 202.4,46.37 202.35,46.37 202.35,34.91 				"/>
				<polygon class="st2" points="225.31,61.18 225.31,104.69 220.28,102.54 220.28,59.07 225.31,59.07 				"/>
				<polygon class="st2" points="208.83,116.36 208.83,139.7 196.25,134.02 196.25,116.23 208.22,116.36 208.34,116.12 
					208.77,116.33 				"/>
				<polygon class="st1" points="208.83,56.15 208.83,116.23 208.77,116.33 208.34,116.12 202.34,113.17 202.35,113.15 
					202.35,85.49 202.4,85.49 202.35,85.47 202.35,46.37 202.4,46.37 				"/>
				<polygon class="st3" points="208.34,116.12 208.22,116.36 196.25,116.23 191.59,108.64 191.59,107.89 194.47,109.31 
					202.34,113.17 				"/>
				<polygon class="st2" points="202.35,85.49 202.35,113.15 202.34,113.17 194.47,109.31 194.54,109.16 194.54,86.02 194.54,85.49 
									"/>
				<polygon class="st3" points="202.35,85.47 202.35,85.49 194.54,85.49 194.01,85.49 191.59,81.58 191.59,80.78 				"/>
				<polygon class="st0" points="202.35,46.37 202.35,85.47 191.59,80.78 191.59,34.91 202.35,34.91 				"/>
				<polygon class="st1" points="196.25,116.23 196.25,134.02 191.59,131.91 191.59,108.64 				"/>
				<polygon class="st1" points="194.54,86.02 194.54,109.16 194.47,109.31 191.59,107.89 191.59,89.96 191.59,87.73 191.59,81.58 
					194.01,85.49 194.54,85.49 				"/>
				<polygon class="st0" points="182.56,127.81 191.5,131.88 191.59,131.91 191.59,145.01 163.7,145.01 163.7,119.3 163.84,119.3 
					169.15,121.72 				"/>
				<polygon class="st2" points="191.59,107.89 191.59,108.64 191.59,131.91 191.5,131.88 182.56,127.81 182.6,89.99 182.7,89.96 
					191.5,89.96 191.59,89.96 				"/>
				<polygon class="st3" points="191.59,87.73 191.59,89.96 191.5,89.96 182.7,89.96 182.6,89.99 169.15,85.49 163.84,75.15 
					191.5,87.73 				"/>
				<polygon class="st0" points="191.59,81.58 191.59,87.73 191.5,87.73 163.84,75.15 163.7,75.15 163.7,34.91 191.59,34.91 
					191.59,80.78 				"/>
				<polygon class="st2" points="182.6,89.99 182.56,127.81 169.15,121.72 169.15,85.49 				"/>
				<polygon class="st1" points="169.15,85.49 169.15,121.72 163.84,119.3 163.7,119.3 163.7,75.15 163.84,75.15 				"/>
				<polygon class="st0" points="163.7,119.3 163.7,145.01 144.28,145.01 144.28,34.91 163.7,34.91 163.7,75.15 				"/>
			</g>
			<g>
				<polygon class="st4" points="302.72,34.91 338.48,34.91 338.48,145.01 282.6,145.01 244.31,145.01 232.02,145.01 191.59,145.01 
					163.7,145.01 144.28,145.01 144.28,34.91 163.7,34.91 191.59,34.91 202.35,34.91 232.02,34.91 244.31,34.91 255.77,34.91 
					275.89,34.91 				"/>
				<polyline class="st4" points="163.7,34.91 163.7,75.15 163.7,119.3 163.7,145.01 				"/>
				<polyline class="st4" points="191.59,34.91 191.59,80.78 191.59,81.58 191.59,87.73 191.59,89.96 191.59,107.89 191.59,108.64 
					191.59,131.91 191.59,145.01 				"/>
				<polyline class="st4" points="233.49,60.37 232.02,59.71 202.4,46.37 				"/>
				<polyline class="st4" points="255.77,70.4 245.84,65.93 244.31,65.24 233.5,60.37 				"/>
				<polyline class="st4" points="255.77,70.4 275.89,79.41 282.39,82.32 282.6,82.42 282.6,133.27 275.89,130.27 270.02,127.64 
					264.15,125.01 255.77,121.26 				"/>
				<polyline class="st4" points="302.72,61.18 302.72,77.94 302.72,78.65 302.72,125.59 302.72,130.76 329.54,142.77 
					329.54,131.88 329.54,89.96 327.6,89.09 302.72,77.94 				"/>
				<polyline class="st4" points="275.89,130.27 275.89,81.58 275.89,79.77 275.89,79.41 275.89,47.49 302.72,59.5 				"/>
				<line class="st4" x1="191.5" y1="87.73" x2="163.84" y2="75.15"/>
				<polyline class="st4" points="191.5,131.88 182.56,127.81 169.15,121.72 163.84,119.3 				"/>
				<polyline class="st4" points="202.4,85.49 202.35,85.47 191.59,80.78 191.5,80.74 				"/>
				<polyline class="st4" points="202.35,34.91 202.35,46.37 202.35,85.47 202.35,85.49 202.35,113.15 				"/>
				<polyline class="st4" points="208.83,116.36 208.83,139.7 196.25,134.02 191.59,131.91 191.5,131.88 				"/>
				<polyline class="st4" points="182.6,89.99 169.15,85.49 169.15,121.72 169.15,122.09 				"/>
				<polyline class="st4" points="182.6,89.99 182.56,127.81 182.56,127.82 				"/>
				<line class="st4" x1="182.7" y1="89.96" x2="191.5" y2="89.96"/>
				<line class="st4" x1="163.84" y1="75.15" x2="169.15" y2="85.49"/>
				<polyline class="st4" points="191.5,81.44 191.59,81.58 194.01,85.49 194.54,85.49 202.35,85.49 202.4,85.49 				"/>
				<polyline class="st4" points="191.59,108.64 196.25,116.23 208.22,116.36 				"/>
				<line class="st4" x1="194.54" y1="86.02" x2="194.54" y2="109.16"/>
				<line class="st4" x1="196.25" y1="116.23" x2="196.25" y2="134.02"/>
				<polyline class="st4" points="232.02,107.56 225.31,104.69 220.28,102.54 220.28,59.07 220.28,57.27 208.83,56.15 
					208.83,116.23 				"/>
				<polyline class="st4" points="220.28,59.07 225.31,59.07 225.31,61.18 225.31,104.69 225.31,104.91 				"/>
				<line class="st4" x1="225.31" y1="61.18" x2="232.02" y2="61.18"/>
				<line class="st4" x1="202.4" y1="46.37" x2="208.83" y2="56.15"/>
				<polyline class="st4" points="244.31,68.16 244.31,133.41 244.31,133.79 244.31,145.01 				"/>
				<polyline class="st4" points="237.61,130.5 237.61,65.93 244.31,65.93 				"/>
				<polyline class="st4" points="255.77,70.4 249.06,70.4 249.06,136.07 				"/>
				<polyline class="st4" points="191.5,107.84 191.59,107.89 194.47,109.31 202.34,113.17 208.34,116.12 208.77,116.33 
					208.83,116.36 232.02,127.75 237.61,130.5 244.31,133.79 249.04,136.11 255.77,139.42 255.77,121.26 255.77,72.35 				"/>
				<line class="st4" x1="245.84" y1="65.93" x2="249.06" y2="70.4"/>
				<polyline class="st4" points="233.49,60.37 233.5,60.37 237.61,65.93 				"/>
				<polyline class="st4" points="255.77,70.4 264.15,81.3 264.15,81.58 264.15,125.01 264.15,125.59 				"/>
				<polyline class="st4" points="264.15,81.58 270.02,81.58 275.89,81.58 				"/>
				<line class="st4" x1="270.02" y1="127.64" x2="270.02" y2="81.58"/>
				<polyline class="st4" points="302.72,59.78 294.97,59.25 282.6,58.38 282.6,81.86 287.91,81.86 287.91,113.71 287.91,136.63 
					282.6,133.27 282.6,145.01 				"/>
				<polyline class="st4" points="282.6,58.38 275.89,47.49 275.89,34.91 				"/>
				<polyline class="st4" points="287.91,113.71 294.89,119.31 302.72,125.59 				"/>
				<line class="st4" x1="294.97" y1="59.25" x2="294.89" y2="119.3"/>
				<polyline class="st4" points="329.54,131.88 325.35,129.81 321.36,127.84 316.32,125.35 308.02,121.26 308.02,86.05 
					316.41,86.05 316.41,87.32 316.41,125.17 				"/>
				<line class="st4" x1="308.02" y1="86.05" x2="302.72" y2="78.65"/>
				<polyline class="st4" points="316.41,87.32 321.44,87.32 321.44,89.12 321.44,127.68 				"/>
				<polyline class="st4" points="325.35,89.12 325.35,129.81 325.35,130 				"/>
				<polyline class="st4" points="321.44,89.12 325.35,89.12 327.58,89.12 				"/>
				<polyline class="st4" points="232.02,34.91 232.02,59.71 232.02,61.18 232.02,107.56 232.02,127.75 232.02,145.01 				"/>
				<polyline class="st4" points="244.31,34.91 244.31,65.24 244.31,65.93 244.31,68.16 				"/>
				<polyline class="st4" points="255.77,34.91 255.77,70.4 255.77,72.35 				"/>
				<polyline class="st4" points="302.72,34.91 302.72,59.5 302.72,59.78 302.72,61.18 				"/>
			</g>
		</g>
	</g>
	<g>
		<g id="XMLID_4_">
			<g>
				<polygon class="st0" points="144.46,63.4 144.46,145.01 103.03,145.01 103.03,136.31 106.97,138.8 106.97,121.81 117.95,130.61 
					117.95,134.45 137.83,143.35 137.83,135.27 137.83,104.2 136.44,103.58 117.95,95.3 117.95,82.87 117.95,81.83 117.95,81.63 
					117.95,63.4 				"/>
				<polygon class="st1" points="137.83,135.27 137.83,143.35 117.95,134.45 117.95,130.61 117.95,95.82 121.88,101.3 121.88,127.4 
					136.44,134.59 				"/>
				<polygon class="st2" points="136.44,104.16 136.44,103.58 137.83,104.2 137.83,135.27 136.44,134.59 				"/>
				<polygon class="st2" points="136.44,104.16 136.44,134.59 121.88,127.4 121.88,101.3 				"/>
				<polygon class="st3" points="136.44,103.58 136.44,104.16 121.88,101.3 117.95,95.82 117.95,95.3 				"/>
				<polygon class="st2" points="117.95,95.82 117.95,130.61 106.97,121.81 106.97,98.2 103.03,98.2 103.03,80.8 117.95,81.83 
					117.95,82.87 117.95,95.3 				"/>
				<polygon class="st3" points="117.95,81.63 117.95,81.83 103.03,80.8 98.06,72.72 				"/>
				<polygon class="st0" points="117.95,63.4 117.95,81.63 98.06,72.72 98.06,63.4 				"/>
				<polygon class="st2" points="106.97,121.81 106.97,138.8 103.03,136.31 103.03,98.61 102.88,98.54 103.03,98.2 106.97,98.2 				
					"/>
				<polygon class="st0" points="89.36,130.19 98.06,134.08 103.03,136.31 103.03,145.01 74.65,145.01 74.65,136.69 78.16,138.42 
					83.15,140.87 83.15,127.4 				"/>
				<polygon class="st1" points="103.03,98.61 103.03,136.31 98.06,134.08 98.06,97.99 98.06,96.65 98.06,96.38 102.88,98.54 				
					"/>
				<polygon class="st1" points="103.03,80.8 103.03,98.2 102.88,98.54 98.06,96.38 98.06,72.72 				"/>
				<polygon class="st2" points="98.06,97.99 98.06,134.08 89.36,130.19 89.36,97.99 				"/>
				<polygon class="st3" points="98.06,96.65 98.06,97.99 89.36,97.99 89.36,97.78 83.15,89.7 98.06,96.38 				"/>
				<polygon class="st0" points="98.06,72.72 98.06,96.38 83.15,89.7 83.15,63.4 98.06,63.4 				"/>
				<polygon class="st1" points="89.36,97.99 89.36,130.19 83.15,127.4 83.15,91.15 83.15,89.7 89.36,97.78 				"/>
				<polygon class="st2" points="83.15,127.4 83.15,140.87 78.16,138.42 78.18,138.38 78.18,89.7 83.15,89.7 83.15,91.15 				"/>
				<polygon class="st0" points="83.15,63.4 83.15,89.7 75.79,86.39 74.65,85.88 74.65,63.4 				"/>
				<polygon class="st3" points="83.15,89.7 78.18,89.7 75.79,86.39 				"/>
				<polygon class="st1" points="78.18,89.7 78.18,138.38 78.16,138.42 74.65,136.69 74.65,136.41 74.65,88.05 74.65,86.39 
					74.65,85.88 75.79,86.39 				"/>
				<polygon class="st0" points="74.65,136.69 74.65,145.01 65.54,145.01 65.54,132.22 69.68,134.25 				"/>
				<polygon class="st2" points="74.65,136.41 74.65,136.69 69.68,134.25 69.68,86.39 74.65,86.39 74.65,88.05 				"/>
				<polygon class="st3" points="74.65,85.88 74.65,86.39 69.68,86.39 66.64,82.27 				"/>
				<polygon class="st0" points="74.65,63.4 74.65,85.88 66.64,82.27 66.63,82.27 65.54,81.78 65.54,63.4 				"/>
				<polygon class="st1" points="65.54,82.28 65.54,81.78 66.63,82.27 66.64,82.27 69.68,86.39 69.68,134.25 65.54,132.22 				"/>
				<polygon class="st0" points="65.54,132.22 65.54,145.01 35.57,145.01 35.57,135.3 39.03,136.86 48.35,141.07 48.35,123.77 				
					"/>
				<polygon class="st2" points="65.54,82.28 65.54,132.22 48.35,123.77 48.31,123.75 48.35,123.67 48.35,79.14 				"/>
				<polygon class="st3" points="65.54,81.78 65.54,82.28 48.35,79.14 43.58,71.89 				"/>
				<polygon class="st0" points="65.54,63.4 65.54,81.78 43.58,71.89 43.55,71.89 43.55,63.4 				"/>
				<polygon class="st2" points="48.35,123.77 48.35,141.07 39.03,136.86 39.03,123.67 47.9,123.77 47.99,123.59 48.31,123.75 				
					"/>
				<polygon class="st1" points="48.35,79.14 48.35,123.67 48.31,123.75 47.99,123.59 43.54,121.41 43.55,121.4 43.55,100.89 
					43.58,100.89 43.55,100.87 43.55,71.89 43.58,71.89 				"/>
				<polygon class="st3" points="47.99,123.59 47.9,123.77 39.03,123.67 35.57,118.05 35.57,117.49 37.24,118.31 43.54,121.41 				
					"/>
				<polygon class="st2" points="43.55,100.89 43.55,121.4 43.54,121.41 37.24,118.31 37.37,118.05 37.37,100.89 				"/>
				<polygon class="st3" points="43.55,100.87 43.55,100.89 37.37,100.89 35.57,97.99 35.57,97.4 				"/>
				<polygon class="st0" points="43.55,71.89 43.55,100.87 35.57,97.4 35.57,63.4 43.55,63.4 				"/>
				<polygon class="st1" points="39.03,123.67 39.03,136.86 35.57,135.3 35.57,118.05 				"/>
				<polygon class="st1" points="37.37,100.89 37.37,118.05 37.24,118.31 35.57,117.49 35.57,103.2 35.57,102.55 35.57,97.99 				
					"/>
				<polygon class="st0" points="18.94,127.74 35.51,135.27 35.57,135.3 35.57,145.01 14.9,145.01 14.9,125.95 15,125.95 				"/>
				<polygon class="st2" points="35.57,117.49 35.57,118.05 35.57,135.3 35.51,135.27 18.94,127.74 18.94,100.89 35.53,103.2 
					35.57,103.2 				"/>
				<polygon class="st3" points="35.57,102.55 35.57,103.2 35.53,103.2 18.94,100.89 15,93.23 35.51,102.55 				"/>
				<polygon class="st0" points="35.57,97.99 35.57,102.55 35.51,102.55 15,93.23 14.9,93.23 14.9,63.4 35.57,63.4 35.57,97.4 				
					"/>
				<polygon class="st1" points="18.94,100.89 18.94,127.74 15,125.95 14.9,125.95 14.9,93.23 15,93.23 				"/>
				<polygon class="st0" points="14.9,125.95 14.9,145.01 0.5,145.01 0.5,63.4 14.9,63.4 14.9,93.23 				"/>
			</g>
			<g>
				<polygon class="st4" points="117.95,63.4 144.46,63.4 144.46,145.01 103.03,145.01 74.65,145.01 65.54,145.01 35.57,145.01 
					14.9,145.01 0.5,145.01 0.5,63.4 14.9,63.4 35.57,63.4 43.55,63.4 65.54,63.4 74.65,63.4 83.15,63.4 98.06,63.4 				"/>
				<polyline class="st4" points="14.9,63.4 14.9,93.23 14.9,125.95 14.9,145.01 				"/>
				<polyline class="st4" points="35.57,63.4 35.57,97.4 35.57,97.99 35.57,102.55 35.57,103.2 35.57,117.49 35.57,118.05 
					35.57,135.3 35.57,145.01 				"/>
				<polyline class="st4" points="66.63,82.27 65.54,81.78 43.58,71.89 				"/>
				<polyline class="st4" points="83.15,89.7 75.79,86.39 74.65,85.88 66.64,82.27 				"/>
				<polyline class="st4" points="83.15,89.7 98.06,96.38 102.88,98.54 103.03,98.61 103.03,136.31 98.06,134.08 89.36,130.19 
					83.15,127.4 				"/>
				<polyline class="st4" points="117.95,82.87 117.95,95.3 117.95,95.82 117.95,130.61 117.95,134.45 137.83,143.35 137.83,135.27 
					137.83,104.2 136.44,103.58 117.95,95.3 				"/>
				<polyline class="st4" points="98.06,134.08 98.06,97.99 98.06,96.65 98.06,96.38 98.06,72.72 117.95,81.63 				"/>
				<line class="st4" x1="35.51" y1="102.55" x2="15" y2="93.23"/>
				<polyline class="st4" points="35.51,135.27 18.94,127.74 15,125.95 				"/>
				<polyline class="st4" points="43.58,100.89 43.55,100.87 35.57,97.4 35.51,97.37 				"/>
				<polyline class="st4" points="43.55,63.4 43.55,71.89 43.55,100.87 43.55,100.89 43.55,121.4 				"/>
				<polyline class="st4" points="48.35,123.77 48.35,141.07 39.03,136.86 35.57,135.3 35.51,135.27 				"/>
				<polyline class="st4" points="35.53,103.2 18.94,100.89 18.94,127.74 18.94,128.02 				"/>
				<line class="st4" x1="15" y1="93.23" x2="18.94" y2="100.89"/>
				<polyline class="st4" points="35.51,97.89 35.57,97.99 37.37,100.89 43.55,100.89 43.58,100.89 				"/>
				<polyline class="st4" points="35.57,118.05 39.03,123.67 47.9,123.77 				"/>
				<line class="st4" x1="37.37" y1="100.89" x2="37.37" y2="118.05"/>
				<line class="st4" x1="39.03" y1="123.67" x2="39.03" y2="136.86"/>
				<polyline class="st4" points="65.6,82.29 65.54,82.28 48.35,79.14 48.35,123.67 				"/>
				<line class="st4" x1="43.58" y1="71.89" x2="48.35" y2="79.14"/>
				<polyline class="st4" points="74.65,88.05 74.65,136.41 74.65,136.69 74.65,145.01 				"/>
				<polyline class="st4" points="69.68,134.25 69.68,86.39 74.65,86.39 				"/>
				<polyline class="st4" points="83.15,89.7 78.18,89.7 78.18,138.38 				"/>
				<polyline class="st4" points="35.51,117.46 35.57,117.49 37.24,118.31 43.54,121.41 47.99,123.59 48.31,123.75 48.35,123.77 
					65.54,132.22 69.68,134.25 74.65,136.69 78.16,138.42 83.15,140.87 83.15,127.4 83.15,91.15 				"/>
				<line class="st4" x1="75.79" y1="86.39" x2="78.18" y2="89.7"/>
				<polyline class="st4" points="66.63,82.27 66.64,82.27 69.68,86.39 				"/>
				<polyline class="st4" points="83.15,89.7 89.36,97.78 89.36,97.99 89.36,130.19 89.36,130.61 				"/>
				<line class="st4" x1="89.36" y1="97.99" x2="98.06" y2="97.99"/>
				<polyline class="st4" points="117.95,81.83 103.03,80.8 103.03,98.2 106.97,98.2 106.97,121.81 106.97,138.8 103.03,136.31 
					103.03,145.01 				"/>
				<polyline class="st4" points="103.03,80.8 98.06,72.72 98.06,63.4 				"/>
				<line class="st4" x1="106.97" y1="121.81" x2="117.95" y2="130.61"/>
				<polyline class="st4" points="137.83,135.27 136.44,134.59 121.88,127.4 121.88,101.3 136.44,104.16 137.12,104.3 				"/>
				<line class="st4" x1="121.88" y1="101.3" x2="117.95" y2="95.82"/>
				<polyline class="st4" points="136.44,103.58 136.44,104.16 136.44,134.59 				"/>
				<polyline class="st4" points="65.54,63.4 65.54,81.78 65.54,82.28 65.54,132.22 65.54,145.01 				"/>
				<polyline class="st4" points="74.65,63.4 74.65,85.88 74.65,86.39 74.65,88.05 				"/>
				<polyline class="st4" points="83.15,63.4 83.15,89.7 83.15,91.15 				"/>
				<polyline class="st4" points="117.95,63.4 117.95,81.63 117.95,81.83 117.95,82.87 				"/>
			</g>
		</g>
	</g>
	<rect x="354.62" y="145.01" class="st5" width="198.79" height="25.49"/>
	<rect x="191.41" y="145.01" class="st5" width="163.58" height="25.49"/>
	<rect x="0.68" y="145.01" class="st5" width="191.46" height="25.49"/>
</g>
</svg>
