<svg width="1907" height="1080" viewBox="0 0 1907 1080" fill="none" xmlns="http://www.w3.org/2000/svg">
<path d="M292.5 -74.4998C-78.5 88.5 -24.5361 573.999 138.5 739.5C301.536 905 560 995 662 1004C764 1013 968.5 905 968.5 905C968.5 905 1087.92 832.334 1170 811.5C1252.08 790.666 1356.22 863.766 1436 842.5C1491.09 827.815 1525.08 820.27 1565.5 811.5C1618.5 800 1685.5 699.5 1723 654.5C1783.44 581.969 1801.5 478.218 1801.5 383C1801.5 298.52 1740.5 223 1669.5 171C1581 106.184 1455 113.5 1378 146.5C1301 179.5 1212.96 247.844 1170 339C1123.23 438.235 1127.98 588.5 1155 706.5C1170 772 1216.21 874.742 1218 947C1219.89 1023.19 1284.79 1102.73 1326.5 1166.5C1404.5 1285.74 1560.72 1241.25 1710.3 1269.08C1826.3 1290.66 2029.98 1294.92 2179.88 1235.33" stroke="#005164" stroke-width="3" stroke-linecap="round" stroke-linejoin="round" stroke-dasharray="10 15"/>
</svg>
