<svg width="473" height="375" viewBox="0 0 473 375" fill="none" xmlns="http://www.w3.org/2000/svg">
<path d="M-5.16607 129.526C-5.16607 240.645 78.6825 274.413 117.166 282.187C142.397 287.284 185.978 290.512 227.01 276.835C268.043 263.158 309.84 237.842 334.561 198.084C359.282 158.326 366.418 129.383 366.418 80.8484C366.418 37.7872 331.503 -38.9353 284.354 -53.4621C251.749 -63.5078 205.347 -73.0863 172.98 -65.9503C140.613 -58.8144 91.6803 -53.4624 39.6891 24.2698C8.60118 70.7493 8.58473 159.345 22.3587 219.492C30.0044 252.878 28.574 277.345 47.5897 330.61C60.4314 378.783 152.592 510.541 471.675 463.392" stroke="#005164" stroke-width="2" stroke-linecap="round" stroke-linejoin="round" stroke-dasharray="10 15"/>
</svg>
