<svg width="768" height="1009" viewBox="0 0 768 1009" fill="none" xmlns="http://www.w3.org/2000/svg">
<path d="M-90.5 315C-90.5 533 74 599.248 149.5 614.5C199 624.5 284.5 630.834 365 604.001C445.5 577.167 527.5 527.5 576 449.5C624.5 371.5 638.5 314.718 638.5 219.5C638.5 135.02 570 -15.4998 477.5 -43.9996C413.534 -63.7079 322.5 -82.4995 259 -68.4998C195.5 -54.5001 99.5 -44 -2.50001 108.5C-63.4904 199.687 -63.5227 373.5 -36.5 491.5C-21.5001 557 -24.3064 605 13 709.5C38.1936 804.009 219 1062.5 845 970" stroke="#005164" stroke-width="3" stroke-linecap="round" stroke-linejoin="round" stroke-dasharray="10 15"/>
</svg>
