<svg width="831" height="768" viewBox="0 0 831 768" fill="none" xmlns="http://www.w3.org/2000/svg">
<path d="M-106.483 194.096C-106.483 412.096 58.017 478.344 133.517 493.596C183.017 503.596 268.517 509.929 349.017 483.096C429.517 456.263 511.517 406.596 560.017 328.596C608.517 250.596 622.517 193.814 622.517 98.5959C622.517 14.1154 554.017 -136.404 461.517 -164.904C397.551 -184.612 306.517 -203.404 243.017 -189.404C179.517 -175.404 83.517 -164.904 -18.483 -12.4041C-79.4734 78.7828 -79.5057 252.596 -52.483 370.596C-37.483 436.096 -40.2893 484.096 -2.98294 588.596C22.2107 683.105 203.017 941.596 829.017 849.096" stroke="#005164" stroke-width="3" stroke-linecap="round" stroke-linejoin="round" stroke-dasharray="10 15"/>
</svg>
