<svg width="46" height="33" viewBox="0 0 46 33" fill="none" xmlns="http://www.w3.org/2000/svg">
<path d="M44.8498 5.37265C44.3254 3.42412 42.7891 1.8882 40.841 1.3635C37.2815 0.389404 23.0439 0.389404 23.0439 0.389404C23.0439 0.389404 8.80659 0.389404 5.24718 1.32637C3.33647 1.85072 1.76272 3.42447 1.23837 5.37265C0.301758 8.93172 0.301758 16.3129 0.301758 16.3129C0.301758 16.3129 0.301758 23.7312 1.23837 27.2531C1.76307 29.2013 3.29899 30.7376 5.24753 31.2623C8.84407 32.2364 23.0442 32.2364 23.0442 32.2364C23.0442 32.2364 37.2815 32.2364 40.841 31.2994C42.7895 30.7751 44.3254 29.2388 44.8501 27.2906C45.7867 23.7312 45.7867 16.3504 45.7867 16.3504C45.7867 16.3504 45.8242 8.93172 44.8498 5.37265Z" fill="#FF0000"/>
<path d="M18.5107 23.1319L30.3502 16.3129L18.5107 9.49387V23.1319Z" fill="white"/>
</svg>
