<svg width="29" height="21" viewBox="0 0 29 21" fill="none" xmlns="http://www.w3.org/2000/svg">
<path d="M14.4989 21C14.4965 21 14.4939 21 14.4912 21C13.6161 20.994 5.88028 20.9233 3.68855 20.3293C2.15682 19.9167 0.947679 18.7064 0.534822 17.1713C-0.038664 15.0138 -0.00215736 10.8601 0.00182518 10.5284C-0.00193611 10.1983 -0.0388853 6.01014 0.533052 3.83493C0.533716 3.83294 0.534159 3.83072 0.534822 3.82872C0.943033 2.31111 2.17939 1.06332 3.68479 0.649612C3.68855 0.648504 3.69254 0.647617 3.6963 0.646509C5.86324 0.0758251 13.6144 0.00598621 14.4912 0H14.5069C15.3842 0.00598621 23.1406 0.0767119 25.3122 0.671562C26.84 1.08306 28.0482 2.29182 28.4622 3.82495C29.0571 6.00171 29.002 10.1989 28.9961 10.5532C29.0003 10.9022 29.035 15.0187 28.4648 17.187C28.4644 17.1892 28.4637 17.1912 28.4633 17.1932C28.0502 18.7284 26.8413 19.9387 25.3078 20.3517C25.3058 20.3524 25.3036 20.3528 25.3016 20.3535C23.1349 20.924 15.3835 20.9938 14.5069 21C14.5043 21 14.5016 21 14.4989 21ZM2.72301 4.41714C2.21944 6.33716 2.26701 10.4718 2.26745 10.5135V10.5435C2.2524 11.6901 2.30528 15.0109 2.72323 16.5837C2.9259 17.3369 3.52217 17.9335 4.27841 18.1373C5.89555 18.5756 12.1962 18.7135 14.4989 18.7297C16.8077 18.7135 23.1176 18.5794 24.7228 18.1586C25.4766 17.9541 26.0709 17.3595 26.2749 16.6055C26.6933 15.0096 26.7457 11.705 26.7304 10.5656C26.7304 10.5537 26.7304 10.5417 26.7307 10.5297C26.7515 9.36928 26.7105 6.00969 26.2769 4.42424C26.2764 4.42269 26.276 4.42113 26.2758 4.41958C26.0722 3.66311 25.4757 3.06648 24.7195 2.86273C23.1181 2.42396 16.8073 2.2865 14.4989 2.27032C12.1917 2.2865 5.88802 2.42042 4.27797 2.84078C3.53611 3.04697 2.92634 3.66488 2.72301 4.41714ZM27.3694 16.8979H27.3701H27.3694ZM11.6114 15.0972V5.90261L19.5411 10.5L11.6114 15.0972Z" fill="url(#paint0_linear)"/>
<defs>
<linearGradient id="paint0_linear" x1="1.07308e-07" y1="11.1354" x2="29.6904" y2="11.1354" gradientUnits="userSpaceOnUse">
<stop stop-color="#005164"/>
<stop offset="0.9999" stop-color="#005164" stop-opacity="0.55"/>
<stop offset="1" stop-color="#005164" stop-opacity="0"/>
</linearGradient>
</defs>
</svg>
